<?xml version="1.0" encoding="UTF-8" standalone="no"?>
<!DOCTYPE svg PUBLIC "-//W3C//DTD SVG 1.1//EN"
 "http://www.w3.org/Graphics/SVG/1.1/DTD/svg11.dtd">
<!-- Generated by graphviz version 5.0.0 (20220707.1540)
 -->
<!-- Title: dependencies Pages: 1 -->
<svg width="1292pt" height="247pt"
 viewBox="0.00 0.00 1292.00 246.80" xmlns="http://www.w3.org/2000/svg" xmlns:xlink="http://www.w3.org/1999/xlink">
<g id="graph0" class="graph" transform="scale(1 1) rotate(0) translate(4 242.8)">
<title>dependencies</title>
<polygon fill="white" stroke="transparent" points="-4,4 -4,-242.8 1288,-242.8 1288,4 -4,4"/>
<text text-anchor="middle" x="642" y="-8.2" font-family="sans-serif" font-size="14.00">dependencies</text>
<g id="clust1" class="cluster">
<title>cluster_CoreModule</title>
<polygon fill="none" stroke="black" stroke-dasharray="1,5" points="8,-32.8 8,-230.8 1276,-230.8 1276,-32.8 8,-32.8"/>
</g>
<g id="clust2" class="cluster">
<title>cluster_CoreModule_declarations</title>
<polygon fill="none" stroke="black" points="278,-40.8 278,-92.8 1268,-92.8 1268,-40.8 278,-40.8"/>
</g>
<g id="clust10" class="cluster">
<title>cluster_CoreModule_exports</title>
<polygon fill="none" stroke="black" points="486,-170.8 486,-222.8 656,-222.8 656,-170.8 486,-170.8"/>
</g>
<g id="clust9" class="cluster">
<title>cluster_CoreModule_imports</title>
<polygon fill="none" stroke="black" points="16,-40.8 16,-92.8 270,-92.8 270,-40.8 16,-40.8"/>
</g>
<!-- MainLayoutComponent -->
<g id="node1" class="node">
<title>MainLayoutComponent</title>
<polygon fill="#ffffb3" stroke="black" points="1260.04,-84.8 1109.96,-84.8 1109.96,-48.8 1260.04,-48.8 1260.04,-84.8"/>
<text text-anchor="middle" x="1185" y="-62.6" font-family="Times,serif" font-size="14.00">MainLayoutComponent</text>
</g>
<!-- CoreModule -->
<g id="node7" class="node">
<title>CoreModule</title>
<polygon fill="#8dd3c7" stroke="black" points="614.27,-149.8 611.27,-153.8 590.27,-153.8 587.27,-149.8 527.73,-149.8 527.73,-113.8 614.27,-113.8 614.27,-149.8"/>
<text text-anchor="middle" x="571" y="-127.6" font-family="Times,serif" font-size="14.00">CoreModule</text>
</g>
<!-- MainLayoutComponent&#45;&gt;CoreModule -->
<g id="edge1" class="edge">
<title>MainLayoutComponent&#45;&gt;CoreModule</title>
<path fill="none" stroke="black" d="M1185,-85.09C1185,-107.01 1185,-140.8 1185,-140.8 1185,-140.8 624.67,-140.8 624.67,-140.8"/>
<polygon fill="black" stroke="black" points="624.67,-137.3 614.67,-140.8 624.67,-144.3 624.67,-137.3"/>
</g>
<!-- MenuAdminComponent -->
<g id="node2" class="node">
<title>MenuAdminComponent</title>
<polygon fill="#ffffb3" stroke="black" points="1091.38,-84.8 938.62,-84.8 938.62,-48.8 1091.38,-48.8 1091.38,-84.8"/>
<text text-anchor="middle" x="1015" y="-62.6" font-family="Times,serif" font-size="14.00">MenuAdminComponent</text>
</g>
<!-- MenuAdminComponent&#45;&gt;CoreModule -->
<g id="edge2" class="edge">
<title>MenuAdminComponent&#45;&gt;CoreModule</title>
<path fill="none" stroke="black" d="M1015,-84.91C1015,-104.14 1015,-131.8 1015,-131.8 1015,-131.8 624.38,-131.8 624.38,-131.8"/>
<polygon fill="black" stroke="black" points="624.38,-128.3 614.38,-131.8 624.38,-135.3 624.38,-128.3"/>
</g>
<!-- MenuDetalleOtComponent -->
<g id="node3" class="node">
<title>MenuDetalleOtComponent</title>
<polygon fill="#ffffb3" stroke="black" points="920.41,-84.8 751.59,-84.8 751.59,-48.8 920.41,-48.8 920.41,-84.8"/>
<text text-anchor="middle" x="836" y="-62.6" font-family="Times,serif" font-size="14.00">MenuDetalleOtComponent</text>
</g>
<!-- MenuDetalleOtComponent&#45;&gt;CoreModule -->
<g id="edge3" class="edge">
<title>MenuDetalleOtComponent&#45;&gt;CoreModule</title>
<path fill="none" stroke="black" d="M836,-84.83C836,-101.2 836,-122.8 836,-122.8 836,-122.8 624.46,-122.8 624.46,-122.8"/>
<polygon fill="black" stroke="black" points="624.46,-119.3 614.46,-122.8 624.46,-126.3 624.46,-119.3"/>
</g>
<!-- MenuReportesComponent -->
<g id="node4" class="node">
<title>MenuReportesComponent</title>
<polygon fill="#ffffb3" stroke="black" points="733.76,-84.8 570.24,-84.8 570.24,-48.8 733.76,-48.8 733.76,-84.8"/>
<text text-anchor="middle" x="652" y="-62.6" font-family="Times,serif" font-size="14.00">MenuReportesComponent</text>
</g>
<!-- MenuReportesComponent&#45;&gt;CoreModule -->
<g id="edge4" class="edge">
<title>MenuReportesComponent&#45;&gt;CoreModule</title>
<path fill="none" stroke="black" d="M592.25,-84.91C592.25,-84.91 592.25,-103.79 592.25,-103.79"/>
<polygon fill="black" stroke="black" points="588.75,-103.79 592.25,-113.79 595.75,-103.79 588.75,-103.79"/>
</g>
<!-- NavbarComponent -->
<g id="node5" class="node">
<title>NavbarComponent</title>
<polygon fill="#ffffb3" stroke="black" points="552.03,-84.8 429.97,-84.8 429.97,-48.8 552.03,-48.8 552.03,-84.8"/>
<text text-anchor="middle" x="491" y="-62.6" font-family="Times,serif" font-size="14.00">NavbarComponent</text>
</g>
<!-- NavbarComponent&#45;&gt;CoreModule -->
<g id="edge5" class="edge">
<title>NavbarComponent&#45;&gt;CoreModule</title>
<path fill="none" stroke="black" d="M539.94,-84.91C539.94,-84.91 539.94,-103.79 539.94,-103.79"/>
<polygon fill="black" stroke="black" points="536.44,-103.79 539.94,-113.79 543.44,-103.79 536.44,-103.79"/>
</g>
<!-- SideBarComponent -->
<g id="node6" class="node">
<title>SideBarComponent</title>
<polygon fill="#ffffb3" stroke="black" points="412.44,-84.8 285.56,-84.8 285.56,-48.8 412.44,-48.8 412.44,-84.8"/>
<text text-anchor="middle" x="349" y="-62.6" font-family="Times,serif" font-size="14.00">SideBarComponent</text>
</g>
<!-- SideBarComponent&#45;&gt;CoreModule -->
<g id="edge6" class="edge">
<title>SideBarComponent&#45;&gt;CoreModule</title>
<path fill="none" stroke="black" d="M349,-84.83C349,-101.2 349,-122.8 349,-122.8 349,-122.8 517.67,-122.8 517.67,-122.8"/>
<polygon fill="black" stroke="black" points="517.67,-126.3 527.67,-122.8 517.67,-119.3 517.67,-126.3"/>
</g>
<!-- MainLayoutComponent  -->
<g id="node10" class="node">
<title>MainLayoutComponent </title>
<polygon fill="#fb8072" stroke="black" points="648.04,-214.8 493.96,-214.8 493.96,-178.8 648.04,-178.8 648.04,-214.8"/>
<text text-anchor="middle" x="571" y="-192.6" font-family="Times,serif" font-size="14.00">MainLayoutComponent </text>
</g>
<!-- CoreModule&#45;&gt;MainLayoutComponent  -->
<g id="edge9" class="edge">
<title>CoreModule&#45;&gt;MainLayoutComponent </title>
<path fill="none" stroke="black" stroke-dasharray="5,2" d="M571,-149.91C571,-149.91 571,-168.79 571,-168.79"/>
<polygon fill="black" stroke="black" points="567.5,-168.79 571,-178.79 574.5,-168.79 567.5,-168.79"/>
</g>
<!-- SharedModule -->
<g id="node8" class="node">
<title>SharedModule</title>
<polygon fill="#8dd3c7" stroke="black" points="262.43,-84.8 259.43,-88.8 238.43,-88.8 235.43,-84.8 163.57,-84.8 163.57,-48.8 262.43,-48.8 262.43,-84.8"/>
<text text-anchor="middle" x="213" y="-62.6" font-family="Times,serif" font-size="14.00">SharedModule</text>
</g>
<!-- SharedModule&#45;&gt;CoreModule -->
<g id="edge7" class="edge">
<title>SharedModule&#45;&gt;CoreModule</title>
<path fill="none" stroke="black" d="M213,-84.91C213,-104.14 213,-131.8 213,-131.8 213,-131.8 517.46,-131.8 517.46,-131.8"/>
<polygon fill="black" stroke="black" points="517.46,-135.3 527.46,-131.8 517.46,-128.3 517.46,-135.3"/>
</g>
<!-- StoreSIGOModule -->
<g id="node9" class="node">
<title>StoreSIGOModule</title>
<polygon fill="#8dd3c7" stroke="black" points="145.77,-84.8 142.77,-88.8 121.77,-88.8 118.77,-84.8 24.23,-84.8 24.23,-48.8 145.77,-48.8 145.77,-84.8"/>
<text text-anchor="middle" x="85" y="-62.6" font-family="Times,serif" font-size="14.00">StoreSIGOModule</text>
</g>
<!-- StoreSIGOModule&#45;&gt;CoreModule -->
<g id="edge8" class="edge">
<title>StoreSIGOModule&#45;&gt;CoreModule</title>
<path fill="none" stroke="black" d="M85,-85.09C85,-107.01 85,-140.8 85,-140.8 85,-140.8 517.44,-140.8 517.44,-140.8"/>
<polygon fill="black" stroke="black" points="517.44,-144.3 527.44,-140.8 517.44,-137.3 517.44,-144.3"/>
</g>
</g>
</svg>
