<?xml version="1.0" encoding="UTF-8" standalone="no"?>
<!DOCTYPE svg PUBLIC "-//W3C//DTD SVG 1.1//EN"
 "http://www.w3.org/Graphics/SVG/1.1/DTD/svg11.dtd">
<!-- Generated by graphviz version 5.0.0 (20220707.1540)
 -->
<!-- Title: dependencies Pages: 1 -->
<svg width="884pt" height="247pt"
 viewBox="0.00 0.00 884.00 246.80" xmlns="http://www.w3.org/2000/svg" xmlns:xlink="http://www.w3.org/1999/xlink">
<g id="graph0" class="graph" transform="scale(1 1) rotate(0) translate(4 242.8)">
<title>dependencies</title>
<polygon fill="white" stroke="transparent" points="-4,4 -4,-242.8 880,-242.8 880,4 -4,4"/>
<text text-anchor="middle" x="438" y="-8.2" font-family="sans-serif" font-size="14.00">dependencies</text>
<g id="clust1" class="cluster">
<title>cluster_CoreModule</title>
<polygon fill="none" stroke="black" stroke-dasharray="1,5" points="8,-32.8 8,-230.8 868,-230.8 868,-32.8 8,-32.8"/>
</g>
<g id="clust2" class="cluster">
<title>cluster_CoreModule_declarations</title>
<polygon fill="none" stroke="black" points="278,-40.8 278,-92.8 860,-92.8 860,-40.8 278,-40.8"/>
</g>
<g id="clust8" class="cluster">
<title>cluster_CoreModule_exports</title>
<polygon fill="none" stroke="black" points="335,-170.8 335,-222.8 505,-222.8 505,-170.8 335,-170.8"/>
</g>
<g id="clust7" class="cluster">
<title>cluster_CoreModule_imports</title>
<polygon fill="none" stroke="black" points="16,-40.8 16,-92.8 270,-92.8 270,-40.8 16,-40.8"/>
</g>
<!-- MainLayoutComponent -->
<g id="node1" class="node">
<title>MainLayoutComponent</title>
<polygon fill="#ffffb3" stroke="black" points="852.04,-84.8 701.96,-84.8 701.96,-48.8 852.04,-48.8 852.04,-84.8"/>
<text text-anchor="middle" x="777" y="-62.6" font-family="Times,serif" font-size="14.00">MainLayoutComponent</text>
</g>
<!-- CoreModule -->
<g id="node5" class="node">
<title>CoreModule</title>
<polygon fill="#8dd3c7" stroke="black" points="463.27,-149.8 460.27,-153.8 439.27,-153.8 436.27,-149.8 376.73,-149.8 376.73,-113.8 463.27,-113.8 463.27,-149.8"/>
<text text-anchor="middle" x="420" y="-127.6" font-family="Times,serif" font-size="14.00">CoreModule</text>
</g>
<!-- MainLayoutComponent&#45;&gt;CoreModule -->
<g id="edge1" class="edge">
<title>MainLayoutComponent&#45;&gt;CoreModule</title>
<path fill="none" stroke="black" d="M777,-85.08C777,-106.12 777,-137.8 777,-137.8 777,-137.8 473.42,-137.8 473.42,-137.8"/>
<polygon fill="black" stroke="black" points="473.42,-134.3 463.42,-137.8 473.42,-141.3 473.42,-134.3"/>
</g>
<!-- MenuComponent -->
<g id="node2" class="node">
<title>MenuComponent</title>
<polygon fill="#ffffb3" stroke="black" points="683.99,-84.8 570.01,-84.8 570.01,-48.8 683.99,-48.8 683.99,-84.8"/>
<text text-anchor="middle" x="627" y="-62.6" font-family="Times,serif" font-size="14.00">MenuComponent</text>
</g>
<!-- MenuComponent&#45;&gt;CoreModule -->
<g id="edge2" class="edge">
<title>MenuComponent&#45;&gt;CoreModule</title>
<path fill="none" stroke="black" d="M627,-84.82C627,-102.17 627,-125.8 627,-125.8 627,-125.8 473.39,-125.8 473.39,-125.8"/>
<polygon fill="black" stroke="black" points="473.39,-122.3 463.39,-125.8 473.39,-129.3 473.39,-122.3"/>
</g>
<!-- NavbarComponent -->
<g id="node3" class="node">
<title>NavbarComponent</title>
<polygon fill="#ffffb3" stroke="black" points="552.03,-84.8 429.97,-84.8 429.97,-48.8 552.03,-48.8 552.03,-84.8"/>
<text text-anchor="middle" x="491" y="-62.6" font-family="Times,serif" font-size="14.00">NavbarComponent</text>
</g>
<!-- NavbarComponent&#45;&gt;CoreModule -->
<g id="edge3" class="edge">
<title>NavbarComponent&#45;&gt;CoreModule</title>
<path fill="none" stroke="black" d="M446.56,-84.91C446.56,-84.91 446.56,-103.79 446.56,-103.79"/>
<polygon fill="black" stroke="black" points="443.06,-103.79 446.56,-113.79 450.06,-103.79 443.06,-103.79"/>
</g>
<!-- SideBarComponent -->
<g id="node4" class="node">
<title>SideBarComponent</title>
<polygon fill="#ffffb3" stroke="black" points="412.44,-84.8 285.56,-84.8 285.56,-48.8 412.44,-48.8 412.44,-84.8"/>
<text text-anchor="middle" x="349" y="-62.6" font-family="Times,serif" font-size="14.00">SideBarComponent</text>
</g>
<!-- SideBarComponent&#45;&gt;CoreModule -->
<g id="edge4" class="edge">
<title>SideBarComponent&#45;&gt;CoreModule</title>
<path fill="none" stroke="black" d="M394.42,-84.91C394.42,-84.91 394.42,-103.79 394.42,-103.79"/>
<polygon fill="black" stroke="black" points="390.92,-103.79 394.42,-113.79 397.92,-103.79 390.92,-103.79"/>
</g>
<!-- MainLayoutComponent  -->
<g id="node8" class="node">
<title>MainLayoutComponent </title>
<polygon fill="#fb8072" stroke="black" points="497.04,-214.8 342.96,-214.8 342.96,-178.8 497.04,-178.8 497.04,-214.8"/>
<text text-anchor="middle" x="420" y="-192.6" font-family="Times,serif" font-size="14.00">MainLayoutComponent </text>
</g>
<!-- CoreModule&#45;&gt;MainLayoutComponent  -->
<g id="edge7" class="edge">
<title>CoreModule&#45;&gt;MainLayoutComponent </title>
<path fill="none" stroke="black" stroke-dasharray="5,2" d="M420,-149.91C420,-149.91 420,-168.79 420,-168.79"/>
<polygon fill="black" stroke="black" points="416.5,-168.79 420,-178.79 423.5,-168.79 416.5,-168.79"/>
</g>
<!-- SharedModule -->
<g id="node6" class="node">
<title>SharedModule</title>
<polygon fill="#8dd3c7" stroke="black" points="262.43,-84.8 259.43,-88.8 238.43,-88.8 235.43,-84.8 163.57,-84.8 163.57,-48.8 262.43,-48.8 262.43,-84.8"/>
<text text-anchor="middle" x="213" y="-62.6" font-family="Times,serif" font-size="14.00">SharedModule</text>
</g>
<!-- SharedModule&#45;&gt;CoreModule -->
<g id="edge5" class="edge">
<title>SharedModule&#45;&gt;CoreModule</title>
<path fill="none" stroke="black" d="M213,-84.82C213,-102.17 213,-125.8 213,-125.8 213,-125.8 366.61,-125.8 366.61,-125.8"/>
<polygon fill="black" stroke="black" points="366.61,-129.3 376.61,-125.8 366.61,-122.3 366.61,-129.3"/>
</g>
<!-- StoreSIGOModule -->
<g id="node7" class="node">
<title>StoreSIGOModule</title>
<polygon fill="#8dd3c7" stroke="black" points="145.77,-84.8 142.77,-88.8 121.77,-88.8 118.77,-84.8 24.23,-84.8 24.23,-48.8 145.77,-48.8 145.77,-84.8"/>
<text text-anchor="middle" x="85" y="-62.6" font-family="Times,serif" font-size="14.00">StoreSIGOModule</text>
</g>
<!-- StoreSIGOModule&#45;&gt;CoreModule -->
<g id="edge6" class="edge">
<title>StoreSIGOModule&#45;&gt;CoreModule</title>
<path fill="none" stroke="black" d="M85,-85.08C85,-106.12 85,-137.8 85,-137.8 85,-137.8 366.55,-137.8 366.55,-137.8"/>
<polygon fill="black" stroke="black" points="366.55,-141.3 376.55,-137.8 366.55,-134.3 366.55,-141.3"/>
</g>
</g>
</svg>
