<?xml version="1.0" encoding="UTF-8" standalone="no"?>
<!DOCTYPE svg PUBLIC "-//W3C//DTD SVG 1.1//EN"
 "http://www.w3.org/Graphics/SVG/1.1/DTD/svg11.dtd">
<!-- Generated by graphviz version 5.0.0 (20220707.1540)
 -->
<!-- Title: dependencies Pages: 1 -->
<svg width="1070pt" height="247pt"
 viewBox="0.00 0.00 1070.00 246.80" xmlns="http://www.w3.org/2000/svg" xmlns:xlink="http://www.w3.org/1999/xlink">
<g id="graph0" class="graph" transform="scale(1 1) rotate(0) translate(4 242.8)">
<title>dependencies</title>
<polygon fill="white" stroke="transparent" points="-4,4 -4,-242.8 1066,-242.8 1066,4 -4,4"/>
<text text-anchor="middle" x="531" y="-8.2" font-family="sans-serif" font-size="14.00">dependencies</text>
<g id="clust1" class="cluster">
<title>cluster_CoreModule</title>
<polygon fill="none" stroke="black" stroke-dasharray="1,5" points="8,-32.8 8,-230.8 1054,-230.8 1054,-32.8 8,-32.8"/>
</g>
<g id="clust2" class="cluster">
<title>cluster_CoreModule_declarations</title>
<polygon fill="none" stroke="black" points="278,-40.8 278,-92.8 1046,-92.8 1046,-40.8 278,-40.8"/>
</g>
<g id="clust9" class="cluster">
<title>cluster_CoreModule_exports</title>
<polygon fill="none" stroke="black" points="406,-170.8 406,-222.8 576,-222.8 576,-170.8 406,-170.8"/>
</g>
<g id="clust8" class="cluster">
<title>cluster_CoreModule_imports</title>
<polygon fill="none" stroke="black" points="16,-40.8 16,-92.8 270,-92.8 270,-40.8 16,-40.8"/>
</g>
<!-- MainLayoutComponent -->
<g id="node1" class="node">
<title>MainLayoutComponent</title>
<polygon fill="#ffffb3" stroke="black" points="1038.04,-84.8 887.96,-84.8 887.96,-48.8 1038.04,-48.8 1038.04,-84.8"/>
<text text-anchor="middle" x="963" y="-62.6" font-family="Times,serif" font-size="14.00">MainLayoutComponent</text>
</g>
<!-- CoreModule -->
<g id="node6" class="node">
<title>CoreModule</title>
<polygon fill="#8dd3c7" stroke="black" points="534.27,-149.8 531.27,-153.8 510.27,-153.8 507.27,-149.8 447.73,-149.8 447.73,-113.8 534.27,-113.8 534.27,-149.8"/>
<text text-anchor="middle" x="491" y="-127.6" font-family="Times,serif" font-size="14.00">CoreModule</text>
</g>
<!-- MainLayoutComponent&#45;&gt;CoreModule -->
<g id="edge1" class="edge">
<title>MainLayoutComponent&#45;&gt;CoreModule</title>
<path fill="none" stroke="black" d="M963,-85.09C963,-107.01 963,-140.8 963,-140.8 963,-140.8 544.56,-140.8 544.56,-140.8"/>
<polygon fill="black" stroke="black" points="544.56,-137.3 534.56,-140.8 544.56,-144.3 544.56,-137.3"/>
</g>
<!-- MenuComponent -->
<g id="node2" class="node">
<title>MenuComponent</title>
<polygon fill="#ffffb3" stroke="black" points="869.99,-84.8 756.01,-84.8 756.01,-48.8 869.99,-48.8 869.99,-84.8"/>
<text text-anchor="middle" x="813" y="-62.6" font-family="Times,serif" font-size="14.00">MenuComponent</text>
</g>
<!-- MenuComponent&#45;&gt;CoreModule -->
<g id="edge2" class="edge">
<title>MenuComponent&#45;&gt;CoreModule</title>
<path fill="none" stroke="black" d="M813,-84.91C813,-104.14 813,-131.8 813,-131.8 813,-131.8 544.43,-131.8 544.43,-131.8"/>
<polygon fill="black" stroke="black" points="544.43,-128.3 534.43,-131.8 544.43,-135.3 544.43,-128.3"/>
</g>
<!-- MenuDetalleOtComponent -->
<g id="node3" class="node">
<title>MenuDetalleOtComponent</title>
<polygon fill="#ffffb3" stroke="black" points="738.41,-84.8 569.59,-84.8 569.59,-48.8 738.41,-48.8 738.41,-84.8"/>
<text text-anchor="middle" x="654" y="-62.6" font-family="Times,serif" font-size="14.00">MenuDetalleOtComponent</text>
</g>
<!-- MenuDetalleOtComponent&#45;&gt;CoreModule -->
<g id="edge3" class="edge">
<title>MenuDetalleOtComponent&#45;&gt;CoreModule</title>
<path fill="none" stroke="black" d="M654,-84.83C654,-101.2 654,-122.8 654,-122.8 654,-122.8 544.68,-122.8 544.68,-122.8"/>
<polygon fill="black" stroke="black" points="544.68,-119.3 534.68,-122.8 544.68,-126.3 544.68,-119.3"/>
</g>
<!-- NavbarComponent -->
<g id="node4" class="node">
<title>NavbarComponent</title>
<polygon fill="#ffffb3" stroke="black" points="552.03,-84.8 429.97,-84.8 429.97,-48.8 552.03,-48.8 552.03,-84.8"/>
<text text-anchor="middle" x="491" y="-62.6" font-family="Times,serif" font-size="14.00">NavbarComponent</text>
</g>
<!-- NavbarComponent&#45;&gt;CoreModule -->
<g id="edge4" class="edge">
<title>NavbarComponent&#45;&gt;CoreModule</title>
<path fill="none" stroke="black" d="M491,-84.91C491,-84.91 491,-103.79 491,-103.79"/>
<polygon fill="black" stroke="black" points="487.5,-103.79 491,-113.79 494.5,-103.79 487.5,-103.79"/>
</g>
<!-- SideBarComponent -->
<g id="node5" class="node">
<title>SideBarComponent</title>
<polygon fill="#ffffb3" stroke="black" points="412.44,-84.8 285.56,-84.8 285.56,-48.8 412.44,-48.8 412.44,-84.8"/>
<text text-anchor="middle" x="349" y="-62.6" font-family="Times,serif" font-size="14.00">SideBarComponent</text>
</g>
<!-- SideBarComponent&#45;&gt;CoreModule -->
<g id="edge5" class="edge">
<title>SideBarComponent&#45;&gt;CoreModule</title>
<path fill="none" stroke="black" d="M349,-84.83C349,-101.2 349,-122.8 349,-122.8 349,-122.8 437.62,-122.8 437.62,-122.8"/>
<polygon fill="black" stroke="black" points="437.62,-126.3 447.62,-122.8 437.62,-119.3 437.62,-126.3"/>
</g>
<!-- MainLayoutComponent  -->
<g id="node9" class="node">
<title>MainLayoutComponent </title>
<polygon fill="#fb8072" stroke="black" points="568.04,-214.8 413.96,-214.8 413.96,-178.8 568.04,-178.8 568.04,-214.8"/>
<text text-anchor="middle" x="491" y="-192.6" font-family="Times,serif" font-size="14.00">MainLayoutComponent </text>
</g>
<!-- CoreModule&#45;&gt;MainLayoutComponent  -->
<g id="edge8" class="edge">
<title>CoreModule&#45;&gt;MainLayoutComponent </title>
<path fill="none" stroke="black" stroke-dasharray="5,2" d="M491,-149.91C491,-149.91 491,-168.79 491,-168.79"/>
<polygon fill="black" stroke="black" points="487.5,-168.79 491,-178.79 494.5,-168.79 487.5,-168.79"/>
</g>
<!-- SharedModule -->
<g id="node7" class="node">
<title>SharedModule</title>
<polygon fill="#8dd3c7" stroke="black" points="262.43,-84.8 259.43,-88.8 238.43,-88.8 235.43,-84.8 163.57,-84.8 163.57,-48.8 262.43,-48.8 262.43,-84.8"/>
<text text-anchor="middle" x="213" y="-62.6" font-family="Times,serif" font-size="14.00">SharedModule</text>
</g>
<!-- SharedModule&#45;&gt;CoreModule -->
<g id="edge6" class="edge">
<title>SharedModule&#45;&gt;CoreModule</title>
<path fill="none" stroke="black" d="M213,-84.91C213,-104.14 213,-131.8 213,-131.8 213,-131.8 437.56,-131.8 437.56,-131.8"/>
<polygon fill="black" stroke="black" points="437.56,-135.3 447.56,-131.8 437.56,-128.3 437.56,-135.3"/>
</g>
<!-- StoreSIGOModule -->
<g id="node8" class="node">
<title>StoreSIGOModule</title>
<polygon fill="#8dd3c7" stroke="black" points="145.77,-84.8 142.77,-88.8 121.77,-88.8 118.77,-84.8 24.23,-84.8 24.23,-48.8 145.77,-48.8 145.77,-84.8"/>
<text text-anchor="middle" x="85" y="-62.6" font-family="Times,serif" font-size="14.00">StoreSIGOModule</text>
</g>
<!-- StoreSIGOModule&#45;&gt;CoreModule -->
<g id="edge7" class="edge">
<title>StoreSIGOModule&#45;&gt;CoreModule</title>
<path fill="none" stroke="black" d="M85,-85.09C85,-107.01 85,-140.8 85,-140.8 85,-140.8 437.55,-140.8 437.55,-140.8"/>
<polygon fill="black" stroke="black" points="437.55,-144.3 447.55,-140.8 437.55,-137.3 437.55,-144.3"/>
</g>
</g>
</svg>
