<?xml version="1.0" encoding="UTF-8" standalone="no"?>
<!DOCTYPE svg PUBLIC "-//W3C//DTD SVG 1.1//EN"
 "http://www.w3.org/Graphics/SVG/1.1/DTD/svg11.dtd">
<!-- Generated by graphviz version 5.0.0 (20220707.1540)
 -->
<!-- Title: dependencies Pages: 1 -->
<svg width="884pt" height="247pt"
 viewBox="0.00 0.00 884.00 246.80" xmlns="http://www.w3.org/2000/svg" xmlns:xlink="http://www.w3.org/1999/xlink">
<g id="graph0" class="graph" transform="scale(1 1) rotate(0) translate(4 242.8)">
<title>dependencies</title>
<polygon fill="white" stroke="transparent" points="-4,4 -4,-242.8 880,-242.8 880,4 -4,4"/>
<text text-anchor="middle" x="438" y="-8.2" font-family="sans-serif" font-size="14.00">dependencies</text>
<g id="clust1" class="cluster">
<title>cluster_CoreModule</title>
<polygon fill="none" stroke="black" stroke-dasharray="1,5" points="8,-32.8 8,-230.8 868,-230.8 868,-32.8 8,-32.8"/>
</g>
<g id="clust7" class="cluster">
<title>cluster_CoreModule_imports</title>
<polygon fill="none" stroke="black" points="606,-40.8 606,-92.8 860,-92.8 860,-40.8 606,-40.8"/>
</g>
<g id="clust2" class="cluster">
<title>cluster_CoreModule_declarations</title>
<polygon fill="none" stroke="black" points="16,-40.8 16,-92.8 598,-92.8 598,-40.8 16,-40.8"/>
</g>
<g id="clust8" class="cluster">
<title>cluster_CoreModule_exports</title>
<polygon fill="none" stroke="black" points="355,-170.8 355,-222.8 525,-222.8 525,-170.8 355,-170.8"/>
</g>
<!-- MainLayoutComponent -->
<g id="node1" class="node">
<title>MainLayoutComponent</title>
<polygon fill="#ffffb3" stroke="black" points="590.04,-84.8 439.96,-84.8 439.96,-48.8 590.04,-48.8 590.04,-84.8"/>
<text text-anchor="middle" x="515" y="-62.6" font-family="Times,serif" font-size="14.00">MainLayoutComponent</text>
</g>
<!-- CoreModule -->
<g id="node5" class="node">
<title>CoreModule</title>
<polygon fill="#8dd3c7" stroke="black" points="483.27,-149.8 480.27,-153.8 459.27,-153.8 456.27,-149.8 396.73,-149.8 396.73,-113.8 483.27,-113.8 483.27,-149.8"/>
<text text-anchor="middle" x="440" y="-127.6" font-family="Times,serif" font-size="14.00">CoreModule</text>
</g>
<!-- MainLayoutComponent&#45;&gt;CoreModule -->
<g id="edge1" class="edge">
<title>MainLayoutComponent&#45;&gt;CoreModule</title>
<path fill="none" stroke="black" d="M461.56,-84.91C461.56,-84.91 461.56,-103.79 461.56,-103.79"/>
<polygon fill="black" stroke="black" points="458.06,-103.79 461.56,-113.79 465.06,-103.79 458.06,-103.79"/>
</g>
<!-- MenuComponent -->
<g id="node2" class="node">
<title>MenuComponent</title>
<polygon fill="#ffffb3" stroke="black" points="421.99,-84.8 308.01,-84.8 308.01,-48.8 421.99,-48.8 421.99,-84.8"/>
<text text-anchor="middle" x="365" y="-62.6" font-family="Times,serif" font-size="14.00">MenuComponent</text>
</g>
<!-- MenuComponent&#45;&gt;CoreModule -->
<g id="edge2" class="edge">
<title>MenuComponent&#45;&gt;CoreModule</title>
<path fill="none" stroke="black" d="M409.31,-84.91C409.31,-84.91 409.31,-103.79 409.31,-103.79"/>
<polygon fill="black" stroke="black" points="405.81,-103.79 409.31,-113.79 412.81,-103.79 405.81,-103.79"/>
</g>
<!-- NavbarComponent -->
<g id="node3" class="node">
<title>NavbarComponent</title>
<polygon fill="#ffffb3" stroke="black" points="290.03,-84.8 167.97,-84.8 167.97,-48.8 290.03,-48.8 290.03,-84.8"/>
<text text-anchor="middle" x="229" y="-62.6" font-family="Times,serif" font-size="14.00">NavbarComponent</text>
</g>
<!-- NavbarComponent&#45;&gt;CoreModule -->
<g id="edge3" class="edge">
<title>NavbarComponent&#45;&gt;CoreModule</title>
<path fill="none" stroke="black" d="M229,-84.82C229,-102.17 229,-125.8 229,-125.8 229,-125.8 386.54,-125.8 386.54,-125.8"/>
<polygon fill="black" stroke="black" points="386.54,-129.3 396.54,-125.8 386.54,-122.3 386.54,-129.3"/>
</g>
<!-- SideBarComponent -->
<g id="node4" class="node">
<title>SideBarComponent</title>
<polygon fill="#ffffb3" stroke="black" points="150.44,-84.8 23.56,-84.8 23.56,-48.8 150.44,-48.8 150.44,-84.8"/>
<text text-anchor="middle" x="87" y="-62.6" font-family="Times,serif" font-size="14.00">SideBarComponent</text>
</g>
<!-- SideBarComponent&#45;&gt;CoreModule -->
<g id="edge4" class="edge">
<title>SideBarComponent&#45;&gt;CoreModule</title>
<path fill="none" stroke="black" d="M87,-85.08C87,-106.12 87,-137.8 87,-137.8 87,-137.8 386.72,-137.8 386.72,-137.8"/>
<polygon fill="black" stroke="black" points="386.72,-141.3 396.72,-137.8 386.72,-134.3 386.72,-141.3"/>
</g>
<!-- MainLayoutComponent  -->
<g id="node8" class="node">
<title>MainLayoutComponent </title>
<polygon fill="#fb8072" stroke="black" points="517.04,-214.8 362.96,-214.8 362.96,-178.8 517.04,-178.8 517.04,-214.8"/>
<text text-anchor="middle" x="440" y="-192.6" font-family="Times,serif" font-size="14.00">MainLayoutComponent </text>
</g>
<!-- CoreModule&#45;&gt;MainLayoutComponent  -->
<g id="edge7" class="edge">
<title>CoreModule&#45;&gt;MainLayoutComponent </title>
<path fill="none" stroke="black" stroke-dasharray="5,2" d="M440,-149.91C440,-149.91 440,-168.79 440,-168.79"/>
<polygon fill="black" stroke="black" points="436.5,-168.79 440,-178.79 443.5,-168.79 436.5,-168.79"/>
</g>
<!-- SharedModule -->
<g id="node6" class="node">
<title>SharedModule</title>
<polygon fill="#8dd3c7" stroke="black" points="852.43,-84.8 849.43,-88.8 828.43,-88.8 825.43,-84.8 753.57,-84.8 753.57,-48.8 852.43,-48.8 852.43,-84.8"/>
<text text-anchor="middle" x="803" y="-62.6" font-family="Times,serif" font-size="14.00">SharedModule</text>
</g>
<!-- SharedModule&#45;&gt;CoreModule -->
<g id="edge5" class="edge">
<title>SharedModule&#45;&gt;CoreModule</title>
<path fill="none" stroke="black" d="M803,-85.08C803,-106.12 803,-137.8 803,-137.8 803,-137.8 493.43,-137.8 493.43,-137.8"/>
<polygon fill="black" stroke="black" points="493.43,-134.3 483.43,-137.8 493.43,-141.3 493.43,-134.3"/>
</g>
<!-- StoreSIGOModule -->
<g id="node7" class="node">
<title>StoreSIGOModule</title>
<polygon fill="#8dd3c7" stroke="black" points="735.77,-84.8 732.77,-88.8 711.77,-88.8 708.77,-84.8 614.23,-84.8 614.23,-48.8 735.77,-48.8 735.77,-84.8"/>
<text text-anchor="middle" x="675" y="-62.6" font-family="Times,serif" font-size="14.00">StoreSIGOModule</text>
</g>
<!-- StoreSIGOModule&#45;&gt;CoreModule -->
<g id="edge6" class="edge">
<title>StoreSIGOModule&#45;&gt;CoreModule</title>
<path fill="none" stroke="black" d="M675,-84.82C675,-102.17 675,-125.8 675,-125.8 675,-125.8 493.38,-125.8 493.38,-125.8"/>
<polygon fill="black" stroke="black" points="493.38,-122.3 483.38,-125.8 493.38,-129.3 493.38,-122.3"/>
</g>
</g>
</svg>
