<?xml version="1.0" encoding="utf-8"?>
<!-- Generator: Adobe Illustrator 19.0.0, SVG Export Plug-In . SVG Version: 6.00 Build 0)  -->
<svg version="1.1" id="Capa_1" xmlns="http://www.w3.org/2000/svg" xmlns:xlink="http://www.w3.org/1999/xlink" x="0px" y="0px"
	 width="50px" height="50px" viewBox="-270 395.9 50 50" style="enable-background:new -270 395.9 50 50;" xml:space="preserve">
<style type="text/css">
	.st0{fill:#FFFFFF;}
	.st1{fill:#00A9E0;}
</style>
<g id="Grupo_4599" transform="translate(-99 -378)">
	<path id="Rectángulo_1223" class="st0" d="M-161,774.6h29.9c5.2,0,9.4,4.2,9.4,9.4v29.9c0,5.2-4.2,9.4-9.4,9.4H-161
		c-5.2,0-9.4-4.2-9.4-9.4v-29.9C-170.3,778.7-166.1,774.6-161,774.6z"/>
	<path id="M" class="st1" d="M-155.7,790.2c-1.4,0-4,0.7-5.2,5.6c-0.6,2.3-0.7,4.6-0.3,6.9c0.3,1.9,0.9,3.8,1.6,5.7
		c0.2,0.4,0.4,0.7,0.7,1c0.5,0.6,1.2,0.8,1.9,0.5c0.7-0.4,1-1.2,0.7-1.9c-0.1-0.7-0.3-1.3-0.5-1.9c-0.5-1.4-0.9-2.9-1.1-4.4
		c-0.1-1.7,0.6-1.8,1-2c0.7-0.1,1.3,0.7,1.9,1.6c0.7,1.2,1.9,3.3,2.9,4.9c1,1.9,3,3,5.1,2.9c2.7-0.1,4.6-1.1,5.6-4.3
		c0.6-2,1.3-4,2.1-6c1-2.1,2.2-3.2,3.3-2.9c1,0.3,1.3,1.3,1.3,2.7c0,1.3-0.1,2.7-0.2,3.7c-0.1,0.5-0.1,1-0.1,1.5
		c0,0.8,0.5,1.6,1.3,1.8c1,0,1.8-0.6,2.1-1.5c0.1-0.4,0.2-0.9,0.3-1.3c0.3-1.8,0.4-3.6,0.2-5.5c-0.1-2.3-0.6-4.5-1.5-6.6
		c-0.8-1.8-2.1-3-3.7-3.1c-2.2,0-4.2,1.4-5,3.4c-1,2.1-1.8,4.4-2.3,5.5c-0.3,1.1-1.3,1.8-2.4,2c-1.4,0.1-2.6-0.9-3.4-2.3
		c-0.9-1.5-1.9-3-3-4.4C-153.1,790.9-154.4,790.2-155.7,790.2z"/>
</g>
</svg>
