<?xml version="1.0" encoding="UTF-8" standalone="no"?>
<!DOCTYPE svg PUBLIC "-//W3C//DTD SVG 1.1//EN"
 "http://www.w3.org/Graphics/SVG/1.1/DTD/svg11.dtd">
<!-- Generated by graphviz version 5.0.0 (20220707.1540)
 -->
<!-- Title: dependencies Pages: 1 -->
<svg width="2030pt" height="247pt"
 viewBox="0.00 0.00 2030.00 246.80" xmlns="http://www.w3.org/2000/svg" xmlns:xlink="http://www.w3.org/1999/xlink">
<g id="graph0" class="graph" transform="scale(1 1) rotate(0) translate(4 242.8)">
<title>dependencies</title>
<polygon fill="white" stroke="transparent" points="-4,4 -4,-242.8 2026,-242.8 2026,4 -4,4"/>
<text text-anchor="middle" x="1011" y="-8.2" font-family="sans-serif" font-size="14.00">dependencies</text>
<g id="clust1" class="cluster">
<title>cluster_SharedModule</title>
<polygon fill="none" stroke="black" stroke-dasharray="1,5" points="8,-32.8 8,-230.8 2014,-230.8 2014,-32.8 8,-32.8"/>
</g>
<g id="clust14" class="cluster">
<title>cluster_SharedModule_exports</title>
<polygon fill="none" stroke="black" points="16,-170.8 16,-222.8 2006,-222.8 2006,-170.8 16,-170.8"/>
</g>
<g id="clust13" class="cluster">
<title>cluster_SharedModule_imports</title>
<polygon fill="none" stroke="black" points="1847,-40.8 1847,-92.8 1973,-92.8 1973,-40.8 1847,-40.8"/>
</g>
<g id="clust2" class="cluster">
<title>cluster_SharedModule_declarations</title>
<polygon fill="none" stroke="black" points="16,-40.8 16,-92.8 1839,-92.8 1839,-40.8 16,-40.8"/>
</g>
<!-- ColorPrecargadoDirective -->
<g id="node1" class="node">
<title>ColorPrecargadoDirective</title>
<polygon fill="#ffffb3" stroke="black" points="1831.44,-84.8 1668.56,-84.8 1668.56,-48.8 1831.44,-48.8 1831.44,-84.8"/>
<text text-anchor="middle" x="1750" y="-62.6" font-family="Times,serif" font-size="14.00">ColorPrecargadoDirective</text>
</g>
<!-- SharedModule -->
<g id="node11" class="node">
<title>SharedModule</title>
<polygon fill="#8dd3c7" stroke="black" points="1050.43,-149.8 1047.43,-153.8 1026.43,-153.8 1023.43,-149.8 951.57,-149.8 951.57,-113.8 1050.43,-113.8 1050.43,-149.8"/>
<text text-anchor="middle" x="1001" y="-127.6" font-family="Times,serif" font-size="14.00">SharedModule</text>
</g>
<!-- ColorPrecargadoDirective&#45;&gt;SharedModule -->
<g id="edge1" class="edge">
<title>ColorPrecargadoDirective&#45;&gt;SharedModule</title>
<path fill="none" stroke="black" d="M1740.97,-85.1C1740.97,-103.07 1740.97,-127.8 1740.97,-127.8 1740.97,-127.8 1060.41,-127.8 1060.41,-127.8"/>
<polygon fill="black" stroke="black" points="1060.41,-124.3 1050.41,-127.8 1060.41,-131.3 1060.41,-124.3"/>
</g>
<!-- ContentLayoutComponent -->
<g id="node2" class="node">
<title>ContentLayoutComponent</title>
<polygon fill="#ffffb3" stroke="black" points="1650.82,-84.8 1485.18,-84.8 1485.18,-48.8 1650.82,-48.8 1650.82,-84.8"/>
<text text-anchor="middle" x="1568" y="-62.6" font-family="Times,serif" font-size="14.00">ContentLayoutComponent</text>
</g>
<!-- ContentLayoutComponent&#45;&gt;SharedModule -->
<g id="edge2" class="edge">
<title>ContentLayoutComponent&#45;&gt;SharedModule</title>
<path fill="none" stroke="black" d="M1555.95,-84.84C1555.95,-101.53 1555.95,-123.8 1555.95,-123.8 1555.95,-123.8 1060.25,-123.8 1060.25,-123.8"/>
<polygon fill="black" stroke="black" points="1060.25,-120.3 1050.25,-123.8 1060.25,-127.3 1060.25,-120.3"/>
</g>
<!-- FormAgregarServiciosComponent -->
<g id="node3" class="node">
<title>FormAgregarServiciosComponent</title>
<polygon fill="#ffffb3" stroke="black" points="1467.64,-84.8 1258.36,-84.8 1258.36,-48.8 1467.64,-48.8 1467.64,-84.8"/>
<text text-anchor="middle" x="1363" y="-62.6" font-family="Times,serif" font-size="14.00">FormAgregarServiciosComponent</text>
</g>
<!-- FormAgregarServiciosComponent&#45;&gt;SharedModule -->
<g id="edge3" class="edge">
<title>FormAgregarServiciosComponent&#45;&gt;SharedModule</title>
<path fill="none" stroke="black" d="M1303.98,-85.08C1303.98,-100.75 1303.98,-120.8 1303.98,-120.8 1303.98,-120.8 1060.35,-120.8 1060.35,-120.8"/>
<polygon fill="black" stroke="black" points="1060.35,-117.3 1050.35,-120.8 1060.35,-124.3 1060.35,-117.3"/>
</g>
<!-- InputAlertComponent -->
<g id="node4" class="node">
<title>InputAlertComponent</title>
<polygon fill="#ffffb3" stroke="black" points="1239.65,-84.8 1100.35,-84.8 1100.35,-48.8 1239.65,-48.8 1239.65,-84.8"/>
<text text-anchor="middle" x="1170" y="-62.6" font-family="Times,serif" font-size="14.00">InputAlertComponent</text>
</g>
<!-- InputAlertComponent&#45;&gt;SharedModule -->
<g id="edge4" class="edge">
<title>InputAlertComponent&#45;&gt;SharedModule</title>
<path fill="none" stroke="black" d="M1144.79,-84.92C1144.79,-99.58 1144.79,-117.8 1144.79,-117.8 1144.79,-117.8 1060.48,-117.8 1060.48,-117.8"/>
<polygon fill="black" stroke="black" points="1060.48,-114.3 1050.48,-117.8 1060.48,-121.3 1060.48,-114.3"/>
</g>
<!-- InputTextComponent -->
<g id="node5" class="node">
<title>InputTextComponent</title>
<polygon fill="#ffffb3" stroke="black" points="1082.04,-84.8 945.96,-84.8 945.96,-48.8 1082.04,-48.8 1082.04,-84.8"/>
<text text-anchor="middle" x="1014" y="-62.6" font-family="Times,serif" font-size="14.00">InputTextComponent</text>
</g>
<!-- InputTextComponent&#45;&gt;SharedModule -->
<g id="edge5" class="edge">
<title>InputTextComponent&#45;&gt;SharedModule</title>
<path fill="none" stroke="black" d="M1001,-84.91C1001,-84.91 1001,-103.79 1001,-103.79"/>
<polygon fill="black" stroke="black" points="997.5,-103.79 1001,-113.79 1004.5,-103.79 997.5,-103.79"/>
</g>
<!-- PbuttonSendingComponent -->
<g id="node6" class="node">
<title>PbuttonSendingComponent</title>
<polygon fill="#ffffb3" stroke="black" points="927.29,-84.8 756.71,-84.8 756.71,-48.8 927.29,-48.8 927.29,-84.8"/>
<text text-anchor="middle" x="842" y="-62.6" font-family="Times,serif" font-size="14.00">PbuttonSendingComponent</text>
</g>
<!-- PbuttonSendingComponent&#45;&gt;SharedModule -->
<g id="edge6" class="edge">
<title>PbuttonSendingComponent&#45;&gt;SharedModule</title>
<path fill="none" stroke="black" d="M914.62,-84.92C914.62,-99.58 914.62,-117.8 914.62,-117.8 914.62,-117.8 941.76,-117.8 941.76,-117.8"/>
<polygon fill="black" stroke="black" points="941.76,-121.3 951.76,-117.8 941.76,-114.3 941.76,-121.3"/>
</g>
<!-- PdropdownComponent -->
<g id="node7" class="node">
<title>PdropdownComponent</title>
<polygon fill="#ffffb3" stroke="black" points="738.89,-84.8 593.11,-84.8 593.11,-48.8 738.89,-48.8 738.89,-84.8"/>
<text text-anchor="middle" x="666" y="-62.6" font-family="Times,serif" font-size="14.00">PdropdownComponent</text>
</g>
<!-- PdropdownComponent&#45;&gt;SharedModule -->
<g id="edge7" class="edge">
<title>PdropdownComponent&#45;&gt;SharedModule</title>
<path fill="none" stroke="black" d="M725.55,-85.08C725.55,-100.75 725.55,-120.8 725.55,-120.8 725.55,-120.8 941.76,-120.8 941.76,-120.8"/>
<polygon fill="black" stroke="black" points="941.76,-124.3 951.76,-120.8 941.76,-117.3 941.76,-124.3"/>
</g>
<!-- TableServiciosComponent -->
<g id="node8" class="node">
<title>TableServiciosComponent</title>
<polygon fill="#ffffb3" stroke="black" points="574.8,-84.8 409.2,-84.8 409.2,-48.8 574.8,-48.8 574.8,-84.8"/>
<text text-anchor="middle" x="492" y="-62.6" font-family="Times,serif" font-size="14.00">TableServiciosComponent</text>
</g>
<!-- TableServiciosComponent&#45;&gt;SharedModule -->
<g id="edge8" class="edge">
<title>TableServiciosComponent&#45;&gt;SharedModule</title>
<path fill="none" stroke="black" d="M495.62,-84.84C495.62,-101.53 495.62,-123.8 495.62,-123.8 495.62,-123.8 941.62,-123.8 941.62,-123.8"/>
<polygon fill="black" stroke="black" points="941.62,-127.3 951.62,-123.8 941.62,-120.3 941.62,-127.3"/>
</g>
<!-- ViewConfirmacionComponent -->
<g id="node9" class="node">
<title>ViewConfirmacionComponent</title>
<polygon fill="#ffffb3" stroke="black" points="391.91,-84.8 202.09,-84.8 202.09,-48.8 391.91,-48.8 391.91,-84.8"/>
<text text-anchor="middle" x="297" y="-62.6" font-family="Times,serif" font-size="14.00">ViewConfirmacionComponent</text>
</g>
<!-- ViewConfirmacionComponent&#45;&gt;SharedModule -->
<g id="edge9" class="edge">
<title>ViewConfirmacionComponent&#45;&gt;SharedModule</title>
<path fill="none" stroke="black" d="M267.6,-85.1C267.6,-103.07 267.6,-127.8 267.6,-127.8 267.6,-127.8 941.74,-127.8 941.74,-127.8"/>
<polygon fill="black" stroke="black" points="941.74,-131.3 951.74,-127.8 941.74,-124.3 941.74,-131.3"/>
</g>
<!-- ViewRechazoComponent -->
<g id="node10" class="node">
<title>ViewRechazoComponent</title>
<polygon fill="#ffffb3" stroke="black" points="183.85,-84.8 24.15,-84.8 24.15,-48.8 183.85,-48.8 183.85,-84.8"/>
<text text-anchor="middle" x="104" y="-62.6" font-family="Times,serif" font-size="14.00">ViewRechazoComponent</text>
</g>
<!-- ViewRechazoComponent&#45;&gt;SharedModule -->
<g id="edge10" class="edge">
<title>ViewRechazoComponent&#45;&gt;SharedModule</title>
<path fill="none" stroke="black" d="M77.53,-84.97C77.53,-103.89 77.53,-130.8 77.53,-130.8 77.53,-130.8 941.68,-130.8 941.68,-130.8"/>
<polygon fill="black" stroke="black" points="941.68,-134.3 951.68,-130.8 941.68,-127.3 941.68,-134.3"/>
</g>
<!-- ColorPrecargadoDirective  -->
<g id="node13" class="node">
<title>ColorPrecargadoDirective </title>
<polygon fill="#fb8072" stroke="black" points="1998.44,-214.8 1831.56,-214.8 1831.56,-178.8 1998.44,-178.8 1998.44,-214.8"/>
<text text-anchor="middle" x="1915" y="-192.6" font-family="Times,serif" font-size="14.00">ColorPrecargadoDirective </text>
</g>
<!-- SharedModule&#45;&gt;ColorPrecargadoDirective  -->
<g id="edge12" class="edge">
<title>SharedModule&#45;&gt;ColorPrecargadoDirective </title>
<path fill="none" stroke="black" stroke-dasharray="5,2" d="M1050.24,-133.8C1230.41,-133.8 1843.36,-133.8 1843.36,-133.8 1843.36,-133.8 1843.36,-168.58 1843.36,-168.58"/>
<polygon fill="black" stroke="black" points="1839.86,-168.58 1843.36,-178.58 1846.86,-168.58 1839.86,-168.58"/>
</g>
<!-- ContentLayoutComponent  -->
<g id="node14" class="node">
<title>ContentLayoutComponent </title>
<polygon fill="#fb8072" stroke="black" points="1813.32,-214.8 1644.68,-214.8 1644.68,-178.8 1813.32,-178.8 1813.32,-214.8"/>
<text text-anchor="middle" x="1729" y="-192.6" font-family="Times,serif" font-size="14.00">ContentLayoutComponent </text>
</g>
<!-- SharedModule&#45;&gt;ContentLayoutComponent  -->
<g id="edge13" class="edge">
<title>SharedModule&#45;&gt;ContentLayoutComponent </title>
<path fill="none" stroke="black" stroke-dasharray="5,2" d="M1050.23,-136.8C1203.13,-136.8 1659.59,-136.8 1659.59,-136.8 1659.59,-136.8 1659.59,-168.8 1659.59,-168.8"/>
<polygon fill="black" stroke="black" points="1656.09,-168.8 1659.59,-178.8 1663.09,-168.8 1656.09,-168.8"/>
</g>
<!-- FormAgregarServiciosComponent  -->
<g id="node15" class="node">
<title>FormAgregarServiciosComponent </title>
<polygon fill="#fb8072" stroke="black" points="1626.63,-214.8 1413.37,-214.8 1413.37,-178.8 1626.63,-178.8 1626.63,-214.8"/>
<text text-anchor="middle" x="1520" y="-192.6" font-family="Times,serif" font-size="14.00">FormAgregarServiciosComponent </text>
</g>
<!-- SharedModule&#45;&gt;FormAgregarServiciosComponent  -->
<g id="edge14" class="edge">
<title>SharedModule&#45;&gt;FormAgregarServiciosComponent </title>
<path fill="none" stroke="black" stroke-dasharray="5,2" d="M1050.58,-140.8C1165.55,-140.8 1440.62,-140.8 1440.62,-140.8 1440.62,-140.8 1440.62,-168.77 1440.62,-168.77"/>
<polygon fill="black" stroke="black" points="1437.13,-168.77 1440.62,-178.77 1444.13,-168.77 1437.13,-168.77"/>
</g>
<!-- InputAlertComponent  -->
<g id="node16" class="node">
<title>InputAlertComponent </title>
<polygon fill="#fb8072" stroke="black" points="1395.65,-214.8 1252.35,-214.8 1252.35,-178.8 1395.65,-178.8 1395.65,-214.8"/>
<text text-anchor="middle" x="1324" y="-192.6" font-family="Times,serif" font-size="14.00">InputAlertComponent </text>
</g>
<!-- SharedModule&#45;&gt;InputAlertComponent  -->
<g id="edge15" class="edge">
<title>SharedModule&#45;&gt;InputAlertComponent </title>
<path fill="none" stroke="black" stroke-dasharray="5,2" d="M1050.23,-143.8C1146.37,-143.8 1349.78,-143.8 1349.78,-143.8 1349.78,-143.8 1349.78,-168.56 1349.78,-168.56"/>
<polygon fill="black" stroke="black" points="1346.28,-168.56 1349.78,-178.56 1353.28,-168.56 1346.28,-168.56"/>
</g>
<!-- InputTextComponent  -->
<g id="node17" class="node">
<title>InputTextComponent </title>
<polygon fill="#fb8072" stroke="black" points="1234.04,-214.8 1093.96,-214.8 1093.96,-178.8 1234.04,-178.8 1234.04,-214.8"/>
<text text-anchor="middle" x="1164" y="-192.6" font-family="Times,serif" font-size="14.00">InputTextComponent </text>
</g>
<!-- SharedModule&#45;&gt;InputTextComponent  -->
<g id="edge16" class="edge">
<title>SharedModule&#45;&gt;InputTextComponent </title>
<path fill="none" stroke="black" stroke-dasharray="5,2" d="M1050.5,-146.8C1106.32,-146.8 1189.4,-146.8 1189.4,-146.8 1189.4,-146.8 1189.4,-168.75 1189.4,-168.75"/>
<polygon fill="black" stroke="black" points="1185.9,-168.75 1189.4,-178.75 1192.9,-168.75 1185.9,-168.75"/>
</g>
<!-- PbuttonSendingComponent  -->
<g id="node18" class="node">
<title>PbuttonSendingComponent </title>
<polygon fill="#fb8072" stroke="black" points="1076.29,-214.8 901.71,-214.8 901.71,-178.8 1076.29,-178.8 1076.29,-214.8"/>
<text text-anchor="middle" x="989" y="-192.6" font-family="Times,serif" font-size="14.00">PbuttonSendingComponent </text>
</g>
<!-- SharedModule&#45;&gt;PbuttonSendingComponent  -->
<g id="edge17" class="edge">
<title>SharedModule&#45;&gt;PbuttonSendingComponent </title>
<path fill="none" stroke="black" stroke-dasharray="5,2" d="M1001,-149.91C1001,-149.91 1001,-168.79 1001,-168.79"/>
<polygon fill="black" stroke="black" points="997.5,-168.79 1001,-178.79 1004.5,-168.79 997.5,-168.79"/>
</g>
<!-- PdropdownComponent  -->
<g id="node19" class="node">
<title>PdropdownComponent </title>
<polygon fill="#fb8072" stroke="black" points="883.89,-214.8 734.11,-214.8 734.11,-178.8 883.89,-178.8 883.89,-214.8"/>
<text text-anchor="middle" x="809" y="-192.6" font-family="Times,serif" font-size="14.00">PdropdownComponent </text>
</g>
<!-- SharedModule&#45;&gt;PdropdownComponent  -->
<g id="edge18" class="edge">
<title>SharedModule&#45;&gt;PdropdownComponent </title>
<path fill="none" stroke="black" stroke-dasharray="5,2" d="M951.58,-146.8C898.04,-146.8 820.15,-146.8 820.15,-146.8 820.15,-146.8 820.15,-168.75 820.15,-168.75"/>
<polygon fill="black" stroke="black" points="816.65,-168.75 820.15,-178.75 823.65,-168.75 816.65,-168.75"/>
</g>
<!-- PrimeNgModule  -->
<g id="node20" class="node">
<title>PrimeNgModule </title>
<polygon fill="#fb8072" stroke="black" points="716.6,-214.8 603.4,-214.8 603.4,-178.8 716.6,-178.8 716.6,-214.8"/>
<text text-anchor="middle" x="660" y="-192.6" font-family="Times,serif" font-size="14.00">PrimeNgModule </text>
</g>
<!-- SharedModule&#45;&gt;PrimeNgModule  -->
<g id="edge19" class="edge">
<title>SharedModule&#45;&gt;PrimeNgModule </title>
<path fill="none" stroke="black" stroke-dasharray="5,2" d="M951.78,-143.8C857.35,-143.8 660,-143.8 660,-143.8 660,-143.8 660,-168.56 660,-168.56"/>
<polygon fill="black" stroke="black" points="656.5,-168.56 660,-178.56 663.5,-168.56 656.5,-168.56"/>
</g>
<!-- TableServiciosComponent  -->
<g id="node21" class="node">
<title>TableServiciosComponent </title>
<polygon fill="#fb8072" stroke="black" points="585.3,-214.8 416.7,-214.8 416.7,-178.8 585.3,-178.8 585.3,-214.8"/>
<text text-anchor="middle" x="501" y="-192.6" font-family="Times,serif" font-size="14.00">TableServiciosComponent </text>
</g>
<!-- SharedModule&#45;&gt;TableServiciosComponent  -->
<g id="edge20" class="edge">
<title>SharedModule&#45;&gt;TableServiciosComponent </title>
<path fill="none" stroke="black" stroke-dasharray="5,2" d="M951.47,-140.8C840.19,-140.8 580.03,-140.8 580.03,-140.8 580.03,-140.8 580.03,-168.77 580.03,-168.77"/>
<polygon fill="black" stroke="black" points="576.53,-168.77 580.03,-178.77 583.53,-168.77 576.53,-168.77"/>
</g>
<!-- ViewConfirmacionComponent  -->
<g id="node22" class="node">
<title>ViewConfirmacionComponent </title>
<polygon fill="#fb8072" stroke="black" points="398.41,-214.8 205.59,-214.8 205.59,-178.8 398.41,-178.8 398.41,-214.8"/>
<text text-anchor="middle" x="302" y="-192.6" font-family="Times,serif" font-size="14.00">ViewConfirmacionComponent </text>
</g>
<!-- SharedModule&#45;&gt;ViewConfirmacionComponent  -->
<g id="edge21" class="edge">
<title>SharedModule&#45;&gt;ViewConfirmacionComponent </title>
<path fill="none" stroke="black" stroke-dasharray="5,2" d="M951.63,-136.8C796.59,-136.8 329.65,-136.8 329.65,-136.8 329.65,-136.8 329.65,-168.8 329.65,-168.8"/>
<polygon fill="black" stroke="black" points="326.15,-168.8 329.65,-178.8 333.15,-168.8 326.15,-168.8"/>
</g>
<!-- ViewRechazoComponent  -->
<g id="node23" class="node">
<title>ViewRechazoComponent </title>
<polygon fill="#fb8072" stroke="black" points="187.85,-214.8 24.15,-214.8 24.15,-178.8 187.85,-178.8 187.85,-214.8"/>
<text text-anchor="middle" x="106" y="-192.6" font-family="Times,serif" font-size="14.00">ViewRechazoComponent </text>
</g>
<!-- SharedModule&#45;&gt;ViewRechazoComponent  -->
<g id="edge22" class="edge">
<title>SharedModule&#45;&gt;ViewRechazoComponent </title>
<path fill="none" stroke="black" stroke-dasharray="5,2" d="M951.72,-133.8C767.62,-133.8 130.72,-133.8 130.72,-133.8 130.72,-133.8 130.72,-168.58 130.72,-168.58"/>
<polygon fill="black" stroke="black" points="127.22,-168.58 130.72,-178.58 134.22,-168.58 127.22,-168.58"/>
</g>
<!-- PrimeNgModule -->
<g id="node12" class="node">
<title>PrimeNgModule</title>
<polygon fill="#8dd3c7" stroke="black" points="1965.1,-84.8 1962.1,-88.8 1941.1,-88.8 1938.1,-84.8 1854.9,-84.8 1854.9,-48.8 1965.1,-48.8 1965.1,-84.8"/>
<text text-anchor="middle" x="1910" y="-62.6" font-family="Times,serif" font-size="14.00">PrimeNgModule</text>
</g>
<!-- PrimeNgModule&#45;&gt;SharedModule -->
<g id="edge11" class="edge">
<title>PrimeNgModule&#45;&gt;SharedModule</title>
<path fill="none" stroke="black" d="M1910,-84.97C1910,-103.89 1910,-130.8 1910,-130.8 1910,-130.8 1060.52,-130.8 1060.52,-130.8"/>
<polygon fill="black" stroke="black" points="1060.52,-127.3 1050.52,-130.8 1060.52,-134.3 1060.52,-127.3"/>
</g>
</g>
</svg>
