<?xml version="1.0" encoding="UTF-8" standalone="no"?>
<!DOCTYPE svg PUBLIC "-//W3C//DTD SVG 1.1//EN"
 "http://www.w3.org/Graphics/SVG/1.1/DTD/svg11.dtd">
<!-- Generated by graphviz version 5.0.0 (20220707.1540)
 -->
<!-- Title: dependencies Pages: 1 -->
<svg width="1035pt" height="247pt"
 viewBox="0.00 0.00 1035.00 246.80" xmlns="http://www.w3.org/2000/svg" xmlns:xlink="http://www.w3.org/1999/xlink">
<g id="graph0" class="graph" transform="scale(1 1) rotate(0) translate(4 242.8)">
<title>dependencies</title>
<polygon fill="white" stroke="transparent" points="-4,4 -4,-242.8 1031,-242.8 1031,4 -4,4"/>
<text text-anchor="middle" x="513.5" y="-8.2" font-family="sans-serif" font-size="14.00">dependencies</text>
<g id="clust1" class="cluster">
<title>cluster_SharedModule</title>
<polygon fill="none" stroke="black" stroke-dasharray="1,5" points="8,-32.8 8,-230.8 1019,-230.8 1019,-32.8 8,-32.8"/>
</g>
<g id="clust8" class="cluster">
<title>cluster_SharedModule_imports</title>
<polygon fill="none" stroke="black" points="877,-40.8 877,-92.8 1003,-92.8 1003,-40.8 877,-40.8"/>
</g>
<g id="clust2" class="cluster">
<title>cluster_SharedModule_declarations</title>
<polygon fill="none" stroke="black" points="23,-40.8 23,-92.8 869,-92.8 869,-40.8 23,-40.8"/>
</g>
<g id="clust9" class="cluster">
<title>cluster_SharedModule_exports</title>
<polygon fill="none" stroke="black" points="16,-170.8 16,-222.8 1011,-222.8 1011,-170.8 16,-170.8"/>
</g>
<!-- ContentLayoutComponent -->
<g id="node1" class="node">
<title>ContentLayoutComponent</title>
<polygon fill="#ffffb3" stroke="black" points="860.82,-84.8 695.18,-84.8 695.18,-48.8 860.82,-48.8 860.82,-84.8"/>
<text text-anchor="middle" x="778" y="-62.6" font-family="Times,serif" font-size="14.00">ContentLayoutComponent</text>
</g>
<!-- SharedModule -->
<g id="node6" class="node">
<title>SharedModule</title>
<polygon fill="#8dd3c7" stroke="black" points="567.43,-149.8 564.43,-153.8 543.43,-153.8 540.43,-149.8 468.57,-149.8 468.57,-113.8 567.43,-113.8 567.43,-149.8"/>
<text text-anchor="middle" x="518" y="-127.6" font-family="Times,serif" font-size="14.00">SharedModule</text>
</g>
<!-- ContentLayoutComponent&#45;&gt;SharedModule -->
<g id="edge1" class="edge">
<title>ContentLayoutComponent&#45;&gt;SharedModule</title>
<path fill="none" stroke="black" d="M755.96,-84.81C755.96,-100.85 755.96,-121.8 755.96,-121.8 755.96,-121.8 577.31,-121.8 577.31,-121.8"/>
<polygon fill="black" stroke="black" points="577.31,-118.3 567.31,-121.8 577.3,-125.3 577.31,-118.3"/>
</g>
<!-- InputAlertComponent -->
<g id="node2" class="node">
<title>InputAlertComponent</title>
<polygon fill="#ffffb3" stroke="black" points="677.65,-84.8 538.35,-84.8 538.35,-48.8 677.65,-48.8 677.65,-84.8"/>
<text text-anchor="middle" x="608" y="-62.6" font-family="Times,serif" font-size="14.00">InputAlertComponent</text>
</g>
<!-- InputAlertComponent&#45;&gt;SharedModule -->
<g id="edge2" class="edge">
<title>InputAlertComponent&#45;&gt;SharedModule</title>
<path fill="none" stroke="black" d="M552.69,-84.91C552.69,-84.91 552.69,-103.79 552.69,-103.79"/>
<polygon fill="black" stroke="black" points="549.19,-103.79 552.69,-113.79 556.19,-103.79 549.19,-103.79"/>
</g>
<!-- InputTextComponent -->
<g id="node3" class="node">
<title>InputTextComponent</title>
<polygon fill="#ffffb3" stroke="black" points="520.04,-84.8 383.96,-84.8 383.96,-48.8 520.04,-48.8 520.04,-84.8"/>
<text text-anchor="middle" x="452" y="-62.6" font-family="Times,serif" font-size="14.00">InputTextComponent</text>
</g>
<!-- InputTextComponent&#45;&gt;SharedModule -->
<g id="edge3" class="edge">
<title>InputTextComponent&#45;&gt;SharedModule</title>
<path fill="none" stroke="black" d="M494.53,-84.91C494.53,-84.91 494.53,-103.79 494.53,-103.79"/>
<polygon fill="black" stroke="black" points="491.03,-103.79 494.53,-113.79 498.03,-103.79 491.03,-103.79"/>
</g>
<!-- PbuttonSendingComponent -->
<g id="node4" class="node">
<title>PbuttonSendingComponent</title>
<polygon fill="#ffffb3" stroke="black" points="365.29,-84.8 194.71,-84.8 194.71,-48.8 365.29,-48.8 365.29,-84.8"/>
<text text-anchor="middle" x="280" y="-62.6" font-family="Times,serif" font-size="14.00">PbuttonSendingComponent</text>
</g>
<!-- PbuttonSendingComponent&#45;&gt;SharedModule -->
<g id="edge4" class="edge">
<title>PbuttonSendingComponent&#45;&gt;SharedModule</title>
<path fill="none" stroke="black" d="M344.12,-84.81C344.12,-100.85 344.12,-121.8 344.12,-121.8 344.12,-121.8 458.64,-121.8 458.64,-121.8"/>
<polygon fill="black" stroke="black" points="458.64,-125.3 468.64,-121.8 458.64,-118.3 458.64,-125.3"/>
</g>
<!-- PdropdownComponent -->
<g id="node5" class="node">
<title>PdropdownComponent</title>
<polygon fill="#ffffb3" stroke="black" points="176.89,-84.8 31.11,-84.8 31.11,-48.8 176.89,-48.8 176.89,-84.8"/>
<text text-anchor="middle" x="104" y="-62.6" font-family="Times,serif" font-size="14.00">PdropdownComponent</text>
</g>
<!-- PdropdownComponent&#45;&gt;SharedModule -->
<g id="edge5" class="edge">
<title>PdropdownComponent&#45;&gt;SharedModule</title>
<path fill="none" stroke="black" d="M166.12,-85.07C166.12,-103.36 166.12,-128.8 166.12,-128.8 166.12,-128.8 458.7,-128.8 458.7,-128.8"/>
<polygon fill="black" stroke="black" points="458.7,-132.3 468.7,-128.8 458.7,-125.3 458.7,-132.3"/>
</g>
<!-- ContentLayoutComponent  -->
<g id="node8" class="node">
<title>ContentLayoutComponent </title>
<polygon fill="#fb8072" stroke="black" points="1003.32,-214.8 834.68,-214.8 834.68,-178.8 1003.32,-178.8 1003.32,-214.8"/>
<text text-anchor="middle" x="919" y="-192.6" font-family="Times,serif" font-size="14.00">ContentLayoutComponent </text>
</g>
<!-- SharedModule&#45;&gt;ContentLayoutComponent  -->
<g id="edge7" class="edge">
<title>SharedModule&#45;&gt;ContentLayoutComponent </title>
<path fill="none" stroke="black" stroke-dasharray="5,2" d="M567.35,-135.8C659.3,-135.8 847.62,-135.8 847.62,-135.8 847.62,-135.8 847.62,-168.5 847.62,-168.5"/>
<polygon fill="black" stroke="black" points="844.13,-168.5 847.62,-178.5 851.13,-168.5 844.13,-168.5"/>
</g>
<!-- InputAlertComponent  -->
<g id="node9" class="node">
<title>InputAlertComponent </title>
<polygon fill="#fb8072" stroke="black" points="816.65,-214.8 673.35,-214.8 673.35,-178.8 816.65,-178.8 816.65,-214.8"/>
<text text-anchor="middle" x="745" y="-192.6" font-family="Times,serif" font-size="14.00">InputAlertComponent </text>
</g>
<!-- SharedModule&#45;&gt;InputAlertComponent  -->
<g id="edge8" class="edge">
<title>SharedModule&#45;&gt;InputAlertComponent </title>
<path fill="none" stroke="black" stroke-dasharray="5,2" d="M567.21,-142.8C616.97,-142.8 686.58,-142.8 686.58,-142.8 686.58,-142.8 686.58,-168.52 686.58,-168.52"/>
<polygon fill="black" stroke="black" points="683.08,-168.52 686.58,-178.52 690.08,-168.52 683.08,-168.52"/>
</g>
<!-- InputTextComponent  -->
<g id="node10" class="node">
<title>InputTextComponent </title>
<polygon fill="#fb8072" stroke="black" points="655.04,-214.8 514.96,-214.8 514.96,-178.8 655.04,-178.8 655.04,-214.8"/>
<text text-anchor="middle" x="585" y="-192.6" font-family="Times,serif" font-size="14.00">InputTextComponent </text>
</g>
<!-- SharedModule&#45;&gt;InputTextComponent  -->
<g id="edge9" class="edge">
<title>SharedModule&#45;&gt;InputTextComponent </title>
<path fill="none" stroke="black" stroke-dasharray="5,2" d="M541.1,-149.91C541.1,-149.91 541.1,-168.79 541.1,-168.79"/>
<polygon fill="black" stroke="black" points="537.6,-168.79 541.1,-178.79 544.6,-168.79 537.6,-168.79"/>
</g>
<!-- PbuttonSendingComponent  -->
<g id="node11" class="node">
<title>PbuttonSendingComponent </title>
<polygon fill="#fb8072" stroke="black" points="497.29,-214.8 322.71,-214.8 322.71,-178.8 497.29,-178.8 497.29,-214.8"/>
<text text-anchor="middle" x="410" y="-192.6" font-family="Times,serif" font-size="14.00">PbuttonSendingComponent </text>
</g>
<!-- SharedModule&#45;&gt;PbuttonSendingComponent  -->
<g id="edge10" class="edge">
<title>SharedModule&#45;&gt;PbuttonSendingComponent </title>
<path fill="none" stroke="black" stroke-dasharray="5,2" d="M482.96,-149.91C482.96,-149.91 482.96,-168.79 482.96,-168.79"/>
<polygon fill="black" stroke="black" points="479.46,-168.79 482.96,-178.79 486.46,-168.79 479.46,-168.79"/>
</g>
<!-- PdropdownComponent  -->
<g id="node12" class="node">
<title>PdropdownComponent </title>
<polygon fill="#fb8072" stroke="black" points="304.89,-214.8 155.11,-214.8 155.11,-178.8 304.89,-178.8 304.89,-214.8"/>
<text text-anchor="middle" x="230" y="-192.6" font-family="Times,serif" font-size="14.00">PdropdownComponent </text>
</g>
<!-- SharedModule&#45;&gt;PdropdownComponent  -->
<g id="edge11" class="edge">
<title>SharedModule&#45;&gt;PdropdownComponent </title>
<path fill="none" stroke="black" stroke-dasharray="5,2" d="M468.78,-142.8C391.31,-142.8 249.65,-142.8 249.65,-142.8 249.65,-142.8 249.65,-168.52 249.65,-168.52"/>
<polygon fill="black" stroke="black" points="246.15,-168.52 249.65,-178.52 253.15,-168.52 246.15,-168.52"/>
</g>
<!-- PrimeNgModule  -->
<g id="node13" class="node">
<title>PrimeNgModule </title>
<polygon fill="#fb8072" stroke="black" points="137.6,-214.8 24.4,-214.8 24.4,-178.8 137.6,-178.8 137.6,-214.8"/>
<text text-anchor="middle" x="81" y="-192.6" font-family="Times,serif" font-size="14.00">PrimeNgModule </text>
</g>
<!-- SharedModule&#45;&gt;PrimeNgModule  -->
<g id="edge12" class="edge">
<title>SharedModule&#45;&gt;PrimeNgModule </title>
<path fill="none" stroke="black" stroke-dasharray="5,2" d="M468.69,-135.8C355.05,-135.8 84.43,-135.8 84.43,-135.8 84.43,-135.8 84.43,-168.5 84.43,-168.5"/>
<polygon fill="black" stroke="black" points="80.93,-168.5 84.43,-178.5 87.93,-168.5 80.93,-168.5"/>
</g>
<!-- PrimeNgModule -->
<g id="node7" class="node">
<title>PrimeNgModule</title>
<polygon fill="#8dd3c7" stroke="black" points="995.1,-84.8 992.1,-88.8 971.1,-88.8 968.1,-84.8 884.9,-84.8 884.9,-48.8 995.1,-48.8 995.1,-84.8"/>
<text text-anchor="middle" x="940" y="-62.6" font-family="Times,serif" font-size="14.00">PrimeNgModule</text>
</g>
<!-- PrimeNgModule&#45;&gt;SharedModule -->
<g id="edge6" class="edge">
<title>PrimeNgModule&#45;&gt;SharedModule</title>
<path fill="none" stroke="black" d="M940,-85.07C940,-103.36 940,-128.8 940,-128.8 940,-128.8 577.23,-128.8 577.23,-128.8"/>
<polygon fill="black" stroke="black" points="577.23,-125.3 567.23,-128.8 577.23,-132.3 577.23,-125.3"/>
</g>
</g>
</svg>
