<?xml version="1.0" encoding="UTF-8" standalone="no"?>
<!DOCTYPE svg PUBLIC "-//W3C//DTD SVG 1.1//EN"
 "http://www.w3.org/Graphics/SVG/1.1/DTD/svg11.dtd">
<!-- Generated by graphviz version 5.0.0 (20220707.1540)
 -->
<!-- Title: dependencies Pages: 1 -->
<svg width="2544pt" height="247pt"
 viewBox="0.00 0.00 2544.00 246.80" xmlns="http://www.w3.org/2000/svg" xmlns:xlink="http://www.w3.org/1999/xlink">
<g id="graph0" class="graph" transform="scale(1 1) rotate(0) translate(4 242.8)">
<title>dependencies</title>
<polygon fill="white" stroke="transparent" points="-4,4 -4,-242.8 2540,-242.8 2540,4 -4,4"/>
<text text-anchor="middle" x="1268" y="-8.2" font-family="sans-serif" font-size="14.00">dependencies</text>
<g id="clust1" class="cluster">
<title>cluster_SharedModule</title>
<polygon fill="none" stroke="black" stroke-dasharray="1,5" points="8,-32.8 8,-230.8 2528,-230.8 2528,-32.8 8,-32.8"/>
</g>
<g id="clust16" class="cluster">
<title>cluster_SharedModule_imports</title>
<polygon fill="none" stroke="black" points="2394,-40.8 2394,-92.8 2520,-92.8 2520,-40.8 2394,-40.8"/>
</g>
<g id="clust17" class="cluster">
<title>cluster_SharedModule_exports</title>
<polygon fill="none" stroke="black" points="412,-170.8 412,-222.8 2274,-222.8 2274,-170.8 412,-170.8"/>
</g>
<g id="clust2" class="cluster">
<title>cluster_SharedModule_declarations</title>
<polygon fill="none" stroke="black" points="16,-40.8 16,-92.8 2386,-92.8 2386,-40.8 16,-40.8"/>
</g>
<!-- BaseTdComponent -->
<g id="node1" class="node">
<title>BaseTdComponent</title>
<polygon fill="#ffffb3" stroke="black" points="2378.1,-84.8 2253.9,-84.8 2253.9,-48.8 2378.1,-48.8 2378.1,-84.8"/>
<text text-anchor="middle" x="2316" y="-62.6" font-family="Times,serif" font-size="14.00">BaseTdComponent</text>
</g>
<!-- SharedModule -->
<g id="node14" class="node">
<title>SharedModule</title>
<polygon fill="#8dd3c7" stroke="black" points="1365.43,-149.8 1362.43,-153.8 1341.43,-153.8 1338.43,-149.8 1266.57,-149.8 1266.57,-113.8 1365.43,-113.8 1365.43,-149.8"/>
<text text-anchor="middle" x="1316" y="-127.6" font-family="Times,serif" font-size="14.00">SharedModule</text>
</g>
<!-- BaseTdComponent&#45;&gt;SharedModule -->
<g id="edge1" class="edge">
<title>BaseTdComponent&#45;&gt;SharedModule</title>
<path fill="none" stroke="black" d="M2260.18,-84.97C2260.18,-103.89 2260.18,-130.8 2260.18,-130.8 2260.18,-130.8 1375.43,-130.8 1375.43,-130.8"/>
<polygon fill="black" stroke="black" points="1375.43,-127.3 1365.43,-130.8 1375.43,-134.3 1375.43,-127.3"/>
</g>
<!-- ContentLayoutComponent -->
<g id="node2" class="node">
<title>ContentLayoutComponent</title>
<polygon fill="#ffffb3" stroke="black" points="2235.82,-84.8 2070.18,-84.8 2070.18,-48.8 2235.82,-48.8 2235.82,-84.8"/>
<text text-anchor="middle" x="2153" y="-62.6" font-family="Times,serif" font-size="14.00">ContentLayoutComponent</text>
</g>
<!-- ContentLayoutComponent&#45;&gt;SharedModule -->
<g id="edge2" class="edge">
<title>ContentLayoutComponent&#45;&gt;SharedModule</title>
<path fill="none" stroke="black" d="M2074.95,-85.1C2074.95,-103.07 2074.95,-127.8 2074.95,-127.8 2074.95,-127.8 1375.5,-127.8 1375.5,-127.8"/>
<polygon fill="black" stroke="black" points="1375.5,-124.3 1365.5,-127.8 1375.5,-131.3 1375.5,-124.3"/>
</g>
<!-- FormAgregarServiciosComponent -->
<g id="node3" class="node">
<title>FormAgregarServiciosComponent</title>
<polygon fill="#ffffb3" stroke="black" points="2052.64,-84.8 1843.36,-84.8 1843.36,-48.8 2052.64,-48.8 2052.64,-84.8"/>
<text text-anchor="middle" x="1948" y="-62.6" font-family="Times,serif" font-size="14.00">FormAgregarServiciosComponent</text>
</g>
<!-- FormAgregarServiciosComponent&#45;&gt;SharedModule -->
<g id="edge3" class="edge">
<title>FormAgregarServiciosComponent&#45;&gt;SharedModule</title>
<path fill="none" stroke="black" d="M1857.33,-84.84C1857.33,-101.53 1857.33,-123.8 1857.33,-123.8 1857.33,-123.8 1375.47,-123.8 1375.47,-123.8"/>
<polygon fill="black" stroke="black" points="1375.47,-120.3 1365.47,-123.8 1375.47,-127.3 1375.47,-120.3"/>
</g>
<!-- FormTableServicesComponent -->
<g id="node4" class="node">
<title>FormTableServicesComponent</title>
<polygon fill="#ffffb3" stroke="black" points="1825.47,-84.8 1634.53,-84.8 1634.53,-48.8 1825.47,-48.8 1825.47,-84.8"/>
<text text-anchor="middle" x="1730" y="-62.6" font-family="Times,serif" font-size="14.00">FormTableServicesComponent</text>
</g>
<!-- FormTableServicesComponent&#45;&gt;SharedModule -->
<g id="edge4" class="edge">
<title>FormTableServicesComponent&#45;&gt;SharedModule</title>
<path fill="none" stroke="black" d="M1644.67,-85.08C1644.67,-100.75 1644.67,-120.8 1644.67,-120.8 1644.67,-120.8 1375.56,-120.8 1375.56,-120.8"/>
<polygon fill="black" stroke="black" points="1375.56,-117.3 1365.56,-120.8 1375.56,-124.3 1375.56,-117.3"/>
</g>
<!-- InputAlertComponent -->
<g id="node5" class="node">
<title>InputAlertComponent</title>
<polygon fill="#ffffb3" stroke="black" points="1616.65,-84.8 1477.35,-84.8 1477.35,-48.8 1616.65,-48.8 1616.65,-84.8"/>
<text text-anchor="middle" x="1547" y="-62.6" font-family="Times,serif" font-size="14.00">InputAlertComponent</text>
</g>
<!-- InputAlertComponent&#45;&gt;SharedModule -->
<g id="edge5" class="edge">
<title>InputAlertComponent&#45;&gt;SharedModule</title>
<path fill="none" stroke="black" d="M1484.8,-84.92C1484.8,-99.58 1484.8,-117.8 1484.8,-117.8 1484.8,-117.8 1375.28,-117.8 1375.28,-117.8"/>
<polygon fill="black" stroke="black" points="1375.28,-114.3 1365.28,-117.8 1375.28,-121.3 1375.28,-114.3"/>
</g>
<!-- InputTextComponent -->
<g id="node6" class="node">
<title>InputTextComponent</title>
<polygon fill="#ffffb3" stroke="black" points="1459.04,-84.8 1322.96,-84.8 1322.96,-48.8 1459.04,-48.8 1459.04,-84.8"/>
<text text-anchor="middle" x="1391" y="-62.6" font-family="Times,serif" font-size="14.00">InputTextComponent</text>
</g>
<!-- InputTextComponent&#45;&gt;SharedModule -->
<g id="edge6" class="edge">
<title>InputTextComponent&#45;&gt;SharedModule</title>
<path fill="none" stroke="black" d="M1343.97,-84.91C1343.97,-84.91 1343.97,-103.79 1343.97,-103.79"/>
<polygon fill="black" stroke="black" points="1340.47,-103.79 1343.97,-113.79 1347.47,-103.79 1340.47,-103.79"/>
</g>
<!-- MultiTdComponent -->
<g id="node7" class="node">
<title>MultiTdComponent</title>
<polygon fill="#ffffb3" stroke="black" points="1305,-84.8 1177,-84.8 1177,-48.8 1305,-48.8 1305,-84.8"/>
<text text-anchor="middle" x="1241" y="-62.6" font-family="Times,serif" font-size="14.00">MultiTdComponent</text>
</g>
<!-- MultiTdComponent&#45;&gt;SharedModule -->
<g id="edge7" class="edge">
<title>MultiTdComponent&#45;&gt;SharedModule</title>
<path fill="none" stroke="black" d="M1285.89,-84.91C1285.89,-84.91 1285.89,-103.79 1285.89,-103.79"/>
<polygon fill="black" stroke="black" points="1282.39,-103.79 1285.89,-113.79 1289.39,-103.79 1282.39,-103.79"/>
</g>
<!-- PbuttonSendingComponent -->
<g id="node8" class="node">
<title>PbuttonSendingComponent</title>
<polygon fill="#ffffb3" stroke="black" points="1159.29,-84.8 988.71,-84.8 988.71,-48.8 1159.29,-48.8 1159.29,-84.8"/>
<text text-anchor="middle" x="1074" y="-62.6" font-family="Times,serif" font-size="14.00">PbuttonSendingComponent</text>
</g>
<!-- PbuttonSendingComponent&#45;&gt;SharedModule -->
<g id="edge8" class="edge">
<title>PbuttonSendingComponent&#45;&gt;SharedModule</title>
<path fill="none" stroke="black" d="M1150.62,-84.92C1150.62,-99.58 1150.62,-117.8 1150.62,-117.8 1150.62,-117.8 1256.38,-117.8 1256.38,-117.8"/>
<polygon fill="black" stroke="black" points="1256.38,-121.3 1266.38,-117.8 1256.38,-114.3 1256.38,-121.3"/>
</g>
<!-- PdropdownComponent -->
<g id="node9" class="node">
<title>PdropdownComponent</title>
<polygon fill="#ffffb3" stroke="black" points="970.89,-84.8 825.11,-84.8 825.11,-48.8 970.89,-48.8 970.89,-84.8"/>
<text text-anchor="middle" x="898" y="-62.6" font-family="Times,serif" font-size="14.00">PdropdownComponent</text>
</g>
<!-- PdropdownComponent&#45;&gt;SharedModule -->
<g id="edge9" class="edge">
<title>PdropdownComponent&#45;&gt;SharedModule</title>
<path fill="none" stroke="black" d="M963.87,-85.08C963.87,-100.75 963.87,-120.8 963.87,-120.8 963.87,-120.8 1256.67,-120.8 1256.67,-120.8"/>
<polygon fill="black" stroke="black" points="1256.67,-124.3 1266.67,-120.8 1256.67,-117.3 1256.67,-124.3"/>
</g>
<!-- ViewConfirmacionComponent -->
<g id="node10" class="node">
<title>ViewConfirmacionComponent</title>
<polygon fill="#ffffb3" stroke="black" points="806.91,-84.8 617.09,-84.8 617.09,-48.8 806.91,-48.8 806.91,-84.8"/>
<text text-anchor="middle" x="712" y="-62.6" font-family="Times,serif" font-size="14.00">ViewConfirmacionComponent</text>
</g>
<!-- ViewConfirmacionComponent&#45;&gt;SharedModule -->
<g id="edge10" class="edge">
<title>ViewConfirmacionComponent&#45;&gt;SharedModule</title>
<path fill="none" stroke="black" d="M719.62,-84.84C719.62,-101.53 719.62,-123.8 719.62,-123.8 719.62,-123.8 1256.69,-123.8 1256.69,-123.8"/>
<polygon fill="black" stroke="black" points="1256.69,-127.3 1266.69,-123.8 1256.69,-120.3 1256.69,-127.3"/>
</g>
<!-- ViewServiceTableComponent -->
<g id="node11" class="node">
<title>ViewServiceTableComponent</title>
<polygon fill="#ffffb3" stroke="black" points="599.5,-84.8 414.5,-84.8 414.5,-48.8 599.5,-48.8 599.5,-84.8"/>
<text text-anchor="middle" x="507" y="-62.6" font-family="Times,serif" font-size="14.00">ViewServiceTableComponent</text>
</g>
<!-- ViewServiceTableComponent&#45;&gt;SharedModule -->
<g id="edge11" class="edge">
<title>ViewServiceTableComponent&#45;&gt;SharedModule</title>
<path fill="none" stroke="black" d="M509.76,-85.1C509.76,-103.07 509.76,-127.8 509.76,-127.8 509.76,-127.8 1256.78,-127.8 1256.78,-127.8"/>
<polygon fill="black" stroke="black" points="1256.78,-131.3 1266.78,-127.8 1256.78,-124.3 1256.78,-131.3"/>
</g>
<!-- ViewTableServicesComponent -->
<g id="node12" class="node">
<title>ViewTableServicesComponent</title>
<polygon fill="#ffffb3" stroke="black" points="396.45,-84.8 205.55,-84.8 205.55,-48.8 396.45,-48.8 396.45,-84.8"/>
<text text-anchor="middle" x="301" y="-62.6" font-family="Times,serif" font-size="14.00">ViewTableServicesComponent</text>
</g>
<!-- ViewTableServicesComponent&#45;&gt;SharedModule -->
<g id="edge12" class="edge">
<title>ViewTableServicesComponent&#45;&gt;SharedModule</title>
<path fill="none" stroke="black" d="M301,-84.97C301,-103.89 301,-130.8 301,-130.8 301,-130.8 1256.7,-130.8 1256.7,-130.8"/>
<polygon fill="black" stroke="black" points="1256.7,-134.3 1266.7,-130.8 1256.7,-127.3 1256.7,-134.3"/>
</g>
<!-- ViewUOTableComponent -->
<g id="node13" class="node">
<title>ViewUOTableComponent</title>
<polygon fill="#ffffb3" stroke="black" points="187.75,-84.8 24.25,-84.8 24.25,-48.8 187.75,-48.8 187.75,-84.8"/>
<text text-anchor="middle" x="106" y="-62.6" font-family="Times,serif" font-size="14.00">ViewUOTableComponent</text>
</g>
<!-- ViewUOTableComponent&#45;&gt;SharedModule -->
<g id="edge13" class="edge">
<title>ViewUOTableComponent&#45;&gt;SharedModule</title>
<path fill="none" stroke="black" d="M106,-85.11C106,-104.95 106,-133.8 106,-133.8 106,-133.8 1256.69,-133.8 1256.69,-133.8"/>
<polygon fill="black" stroke="black" points="1256.69,-137.3 1266.69,-133.8 1256.69,-130.3 1256.69,-137.3"/>
</g>
<!-- ContentLayoutComponent  -->
<g id="node16" class="node">
<title>ContentLayoutComponent </title>
<polygon fill="#fb8072" stroke="black" points="2266.32,-214.8 2097.68,-214.8 2097.68,-178.8 2266.32,-178.8 2266.32,-214.8"/>
<text text-anchor="middle" x="2182" y="-192.6" font-family="Times,serif" font-size="14.00">ContentLayoutComponent </text>
</g>
<!-- SharedModule&#45;&gt;ContentLayoutComponent  -->
<g id="edge15" class="edge">
<title>SharedModule&#45;&gt;ContentLayoutComponent </title>
<path fill="none" stroke="black" stroke-dasharray="5,2" d="M1365.41,-136.8C1546.95,-136.8 2166.62,-136.8 2166.62,-136.8 2166.62,-136.8 2166.62,-168.8 2166.62,-168.8"/>
<polygon fill="black" stroke="black" points="2163.13,-168.8 2166.62,-178.8 2170.13,-168.8 2163.13,-168.8"/>
</g>
<!-- FormAgregarServiciosComponent  -->
<g id="node17" class="node">
<title>FormAgregarServiciosComponent </title>
<polygon fill="#fb8072" stroke="black" points="2079.63,-214.8 1866.37,-214.8 1866.37,-178.8 2079.63,-178.8 2079.63,-214.8"/>
<text text-anchor="middle" x="1973" y="-192.6" font-family="Times,serif" font-size="14.00">FormAgregarServiciosComponent </text>
</g>
<!-- SharedModule&#45;&gt;FormAgregarServiciosComponent  -->
<g id="edge16" class="edge">
<title>SharedModule&#45;&gt;FormAgregarServiciosComponent </title>
<path fill="none" stroke="black" stroke-dasharray="5,2" d="M1365.44,-140.8C1516.15,-140.8 1959.62,-140.8 1959.62,-140.8 1959.62,-140.8 1959.62,-168.77 1959.62,-168.77"/>
<polygon fill="black" stroke="black" points="1956.13,-168.77 1959.62,-178.77 1963.13,-168.77 1956.13,-168.77"/>
</g>
<!-- FormTableServicesComponent  -->
<g id="node18" class="node">
<title>FormTableServicesComponent </title>
<polygon fill="#fb8072" stroke="black" points="1848.47,-214.8 1653.53,-214.8 1653.53,-178.8 1848.47,-178.8 1848.47,-214.8"/>
<text text-anchor="middle" x="1751" y="-192.6" font-family="Times,serif" font-size="14.00">FormTableServicesComponent </text>
</g>
<!-- SharedModule&#45;&gt;FormTableServicesComponent  -->
<g id="edge17" class="edge">
<title>SharedModule&#45;&gt;FormTableServicesComponent </title>
<path fill="none" stroke="black" stroke-dasharray="5,2" d="M1365.42,-143.8C1477.17,-143.8 1739.62,-143.8 1739.62,-143.8 1739.62,-143.8 1739.62,-168.56 1739.62,-168.56"/>
<polygon fill="black" stroke="black" points="1736.13,-168.56 1739.62,-178.56 1743.13,-168.56 1736.13,-168.56"/>
</g>
<!-- InputAlertComponent  -->
<g id="node19" class="node">
<title>InputAlertComponent </title>
<polygon fill="#fb8072" stroke="black" points="1635.65,-214.8 1492.35,-214.8 1492.35,-178.8 1635.65,-178.8 1635.65,-214.8"/>
<text text-anchor="middle" x="1564" y="-192.6" font-family="Times,serif" font-size="14.00">InputAlertComponent </text>
</g>
<!-- SharedModule&#45;&gt;InputAlertComponent  -->
<g id="edge18" class="edge">
<title>SharedModule&#45;&gt;InputAlertComponent </title>
<path fill="none" stroke="black" stroke-dasharray="5,2" d="M1365.44,-146.8C1435.34,-146.8 1554.62,-146.8 1554.62,-146.8 1554.62,-146.8 1554.62,-168.75 1554.62,-168.75"/>
<polygon fill="black" stroke="black" points="1551.13,-168.75 1554.62,-178.75 1558.13,-168.75 1551.13,-168.75"/>
</g>
<!-- InputTextComponent  -->
<g id="node20" class="node">
<title>InputTextComponent </title>
<polygon fill="#fb8072" stroke="black" points="1474.04,-214.8 1333.96,-214.8 1333.96,-178.8 1474.04,-178.8 1474.04,-214.8"/>
<text text-anchor="middle" x="1404" y="-192.6" font-family="Times,serif" font-size="14.00">InputTextComponent </text>
</g>
<!-- SharedModule&#45;&gt;InputTextComponent  -->
<g id="edge19" class="edge">
<title>SharedModule&#45;&gt;InputTextComponent </title>
<path fill="none" stroke="black" stroke-dasharray="5,2" d="M1349.6,-149.91C1349.6,-149.91 1349.6,-168.79 1349.6,-168.79"/>
<polygon fill="black" stroke="black" points="1346.1,-168.79 1349.6,-178.79 1353.1,-168.79 1346.1,-168.79"/>
</g>
<!-- PbuttonSendingComponent  -->
<g id="node21" class="node">
<title>PbuttonSendingComponent </title>
<polygon fill="#fb8072" stroke="black" points="1316.29,-214.8 1141.71,-214.8 1141.71,-178.8 1316.29,-178.8 1316.29,-214.8"/>
<text text-anchor="middle" x="1229" y="-192.6" font-family="Times,serif" font-size="14.00">PbuttonSendingComponent </text>
</g>
<!-- SharedModule&#45;&gt;PbuttonSendingComponent  -->
<g id="edge20" class="edge">
<title>SharedModule&#45;&gt;PbuttonSendingComponent </title>
<path fill="none" stroke="black" stroke-dasharray="5,2" d="M1291.46,-149.91C1291.46,-149.91 1291.46,-168.79 1291.46,-168.79"/>
<polygon fill="black" stroke="black" points="1287.96,-168.79 1291.46,-178.79 1294.96,-168.79 1287.96,-168.79"/>
</g>
<!-- PdropdownComponent  -->
<g id="node22" class="node">
<title>PdropdownComponent </title>
<polygon fill="#fb8072" stroke="black" points="1123.89,-214.8 974.11,-214.8 974.11,-178.8 1123.89,-178.8 1123.89,-214.8"/>
<text text-anchor="middle" x="1049" y="-192.6" font-family="Times,serif" font-size="14.00">PdropdownComponent </text>
</g>
<!-- SharedModule&#45;&gt;PdropdownComponent  -->
<g id="edge21" class="edge">
<title>SharedModule&#45;&gt;PdropdownComponent </title>
<path fill="none" stroke="black" stroke-dasharray="5,2" d="M1266.51,-146.8C1191.12,-146.8 1056.15,-146.8 1056.15,-146.8 1056.15,-146.8 1056.15,-168.75 1056.15,-168.75"/>
<polygon fill="black" stroke="black" points="1052.65,-168.75 1056.15,-178.75 1059.65,-168.75 1052.65,-168.75"/>
</g>
<!-- PrimeNgModule  -->
<g id="node23" class="node">
<title>PrimeNgModule </title>
<polygon fill="#fb8072" stroke="black" points="956.6,-214.8 843.4,-214.8 843.4,-178.8 956.6,-178.8 956.6,-214.8"/>
<text text-anchor="middle" x="900" y="-192.6" font-family="Times,serif" font-size="14.00">PrimeNgModule </text>
</g>
<!-- SharedModule&#45;&gt;PrimeNgModule  -->
<g id="edge22" class="edge">
<title>SharedModule&#45;&gt;PrimeNgModule </title>
<path fill="none" stroke="black" stroke-dasharray="5,2" d="M1266.65,-143.8C1156.45,-143.8 900,-143.8 900,-143.8 900,-143.8 900,-168.56 900,-168.56"/>
<polygon fill="black" stroke="black" points="896.5,-168.56 900,-178.56 903.5,-168.56 896.5,-168.56"/>
</g>
<!-- ViewConfirmacionComponent  -->
<g id="node24" class="node">
<title>ViewConfirmacionComponent </title>
<polygon fill="#fb8072" stroke="black" points="825.41,-214.8 632.59,-214.8 632.59,-178.8 825.41,-178.8 825.41,-214.8"/>
<text text-anchor="middle" x="729" y="-192.6" font-family="Times,serif" font-size="14.00">ViewConfirmacionComponent </text>
</g>
<!-- SharedModule&#45;&gt;ViewConfirmacionComponent  -->
<g id="edge23" class="edge">
<title>SharedModule&#45;&gt;ViewConfirmacionComponent </title>
<path fill="none" stroke="black" stroke-dasharray="5,2" d="M1266.68,-140.8C1140.51,-140.8 815.88,-140.8 815.88,-140.8 815.88,-140.8 815.88,-168.77 815.88,-168.77"/>
<polygon fill="black" stroke="black" points="812.38,-168.77 815.88,-178.77 819.38,-168.77 812.38,-168.77"/>
</g>
<!-- ViewTableServicesComponent  -->
<g id="node25" class="node">
<title>ViewTableServicesComponent </title>
<polygon fill="#fb8072" stroke="black" points="614.45,-214.8 419.55,-214.8 419.55,-178.8 614.45,-178.8 614.45,-214.8"/>
<text text-anchor="middle" x="517" y="-192.6" font-family="Times,serif" font-size="14.00">ViewTableServicesComponent </text>
</g>
<!-- SharedModule&#45;&gt;ViewTableServicesComponent  -->
<g id="edge24" class="edge">
<title>SharedModule&#45;&gt;ViewTableServicesComponent </title>
<path fill="none" stroke="black" stroke-dasharray="5,2" d="M1266.71,-136.8C1105.92,-136.8 606.99,-136.8 606.99,-136.8 606.99,-136.8 606.99,-168.8 606.99,-168.8"/>
<polygon fill="black" stroke="black" points="603.49,-168.8 606.99,-178.8 610.49,-168.8 603.49,-168.8"/>
</g>
<!-- PrimeNgModule -->
<g id="node15" class="node">
<title>PrimeNgModule</title>
<polygon fill="#8dd3c7" stroke="black" points="2512.1,-84.8 2509.1,-88.8 2488.1,-88.8 2485.1,-84.8 2401.9,-84.8 2401.9,-48.8 2512.1,-48.8 2512.1,-84.8"/>
<text text-anchor="middle" x="2457" y="-62.6" font-family="Times,serif" font-size="14.00">PrimeNgModule</text>
</g>
<!-- PrimeNgModule&#45;&gt;SharedModule -->
<g id="edge14" class="edge">
<title>PrimeNgModule&#45;&gt;SharedModule</title>
<path fill="none" stroke="black" d="M2457,-85.11C2457,-104.95 2457,-133.8 2457,-133.8 2457,-133.8 1375.39,-133.8 1375.39,-133.8"/>
<polygon fill="black" stroke="black" points="1375.39,-130.3 1365.39,-133.8 1375.39,-137.3 1375.39,-130.3"/>
</g>
</g>
</svg>
