<?xml version="1.0" encoding="UTF-8" standalone="no"?>
<!DOCTYPE svg PUBLIC "-//W3C//DTD SVG 1.1//EN"
 "http://www.w3.org/Graphics/SVG/1.1/DTD/svg11.dtd">
<!-- Generated by graphviz version 5.0.0 (20220707.1540)
 -->
<!-- Title: dependencies Pages: 1 -->
<svg width="2725pt" height="247pt"
 viewBox="0.00 0.00 2725.00 246.80" xmlns="http://www.w3.org/2000/svg" xmlns:xlink="http://www.w3.org/1999/xlink">
<g id="graph0" class="graph" transform="scale(1 1) rotate(0) translate(4 242.8)">
<title>dependencies</title>
<polygon fill="white" stroke="transparent" points="-4,4 -4,-242.8 2721,-242.8 2721,4 -4,4"/>
<text text-anchor="middle" x="1358.5" y="-8.2" font-family="sans-serif" font-size="14.00">dependencies</text>
<g id="clust1" class="cluster">
<title>cluster_SharedModule</title>
<polygon fill="none" stroke="black" stroke-dasharray="1,5" points="8,-32.8 8,-230.8 2709,-230.8 2709,-32.8 8,-32.8"/>
</g>
<g id="clust2" class="cluster">
<title>cluster_SharedModule_declarations</title>
<polygon fill="none" stroke="black" points="150,-40.8 150,-92.8 2701,-92.8 2701,-40.8 150,-40.8"/>
</g>
<g id="clust17" class="cluster">
<title>cluster_SharedModule_imports</title>
<polygon fill="none" stroke="black" points="16,-40.8 16,-92.8 142,-92.8 142,-40.8 16,-40.8"/>
</g>
<g id="clust18" class="cluster">
<title>cluster_SharedModule_exports</title>
<polygon fill="none" stroke="black" points="383,-170.8 383,-222.8 2430,-222.8 2430,-170.8 383,-170.8"/>
</g>
<!-- BaseTdComponent -->
<g id="node1" class="node">
<title>BaseTdComponent</title>
<polygon fill="#ffffb3" stroke="black" points="2693.1,-84.8 2568.9,-84.8 2568.9,-48.8 2693.1,-48.8 2693.1,-84.8"/>
<text text-anchor="middle" x="2631" y="-62.6" font-family="Times,serif" font-size="14.00">BaseTdComponent</text>
</g>
<!-- SharedModule -->
<g id="node15" class="node">
<title>SharedModule</title>
<polygon fill="#8dd3c7" stroke="black" points="1424.43,-149.8 1421.43,-153.8 1400.43,-153.8 1397.43,-149.8 1325.57,-149.8 1325.57,-113.8 1424.43,-113.8 1424.43,-149.8"/>
<text text-anchor="middle" x="1375" y="-127.6" font-family="Times,serif" font-size="14.00">SharedModule</text>
</g>
<!-- BaseTdComponent&#45;&gt;SharedModule -->
<g id="edge1" class="edge">
<title>BaseTdComponent&#45;&gt;SharedModule</title>
<path fill="none" stroke="black" d="M2631,-85.11C2631,-104.95 2631,-133.8 2631,-133.8 2631,-133.8 1434.24,-133.8 1434.24,-133.8"/>
<polygon fill="black" stroke="black" points="1434.24,-130.3 1424.24,-133.8 1434.24,-137.3 1434.24,-130.3"/>
</g>
<!-- ColorPrecargadoDirective -->
<g id="node2" class="node">
<title>ColorPrecargadoDirective</title>
<polygon fill="#ffffb3" stroke="black" points="2550.44,-84.8 2387.56,-84.8 2387.56,-48.8 2550.44,-48.8 2550.44,-84.8"/>
<text text-anchor="middle" x="2469" y="-62.6" font-family="Times,serif" font-size="14.00">ColorPrecargadoDirective</text>
</g>
<!-- ColorPrecargadoDirective&#45;&gt;SharedModule -->
<g id="edge2" class="edge">
<title>ColorPrecargadoDirective&#45;&gt;SharedModule</title>
<path fill="none" stroke="black" d="M2404.88,-84.97C2404.88,-103.89 2404.88,-130.8 2404.88,-130.8 2404.88,-130.8 1434.33,-130.8 1434.33,-130.8"/>
<polygon fill="black" stroke="black" points="1434.33,-127.3 1424.33,-130.8 1434.33,-134.3 1434.33,-127.3"/>
</g>
<!-- ContentLayoutComponent -->
<g id="node3" class="node">
<title>ContentLayoutComponent</title>
<polygon fill="#ffffb3" stroke="black" points="2369.82,-84.8 2204.18,-84.8 2204.18,-48.8 2369.82,-48.8 2369.82,-84.8"/>
<text text-anchor="middle" x="2287" y="-62.6" font-family="Times,serif" font-size="14.00">ContentLayoutComponent</text>
</g>
<!-- ContentLayoutComponent&#45;&gt;SharedModule -->
<g id="edge3" class="edge">
<title>ContentLayoutComponent&#45;&gt;SharedModule</title>
<path fill="none" stroke="black" d="M2220.88,-85.1C2220.88,-103.07 2220.88,-127.8 2220.88,-127.8 2220.88,-127.8 1434.44,-127.8 1434.44,-127.8"/>
<polygon fill="black" stroke="black" points="1434.44,-124.3 1424.44,-127.8 1434.44,-131.3 1434.44,-124.3"/>
</g>
<!-- FormAgregarServiciosComponent -->
<g id="node4" class="node">
<title>FormAgregarServiciosComponent</title>
<polygon fill="#ffffb3" stroke="black" points="2186.64,-84.8 1977.36,-84.8 1977.36,-48.8 2186.64,-48.8 2186.64,-84.8"/>
<text text-anchor="middle" x="2082" y="-62.6" font-family="Times,serif" font-size="14.00">FormAgregarServiciosComponent</text>
</g>
<!-- FormAgregarServiciosComponent&#45;&gt;SharedModule -->
<g id="edge4" class="edge">
<title>FormAgregarServiciosComponent&#45;&gt;SharedModule</title>
<path fill="none" stroke="black" d="M2013.88,-84.82C2013.88,-102.17 2013.88,-125.8 2013.88,-125.8 2013.88,-125.8 1434.33,-125.8 1434.33,-125.8"/>
<polygon fill="black" stroke="black" points="1434.33,-122.3 1424.33,-125.8 1434.33,-129.3 1434.33,-122.3"/>
</g>
<!-- FormTableServicesComponent -->
<g id="node5" class="node">
<title>FormTableServicesComponent</title>
<polygon fill="#ffffb3" stroke="black" points="1959.47,-84.8 1768.53,-84.8 1768.53,-48.8 1959.47,-48.8 1959.47,-84.8"/>
<text text-anchor="middle" x="1864" y="-62.6" font-family="Times,serif" font-size="14.00">FormTableServicesComponent</text>
</g>
<!-- FormTableServicesComponent&#45;&gt;SharedModule -->
<g id="edge5" class="edge">
<title>FormTableServicesComponent&#45;&gt;SharedModule</title>
<path fill="none" stroke="black" d="M1793.88,-84.83C1793.88,-101.2 1793.88,-122.8 1793.88,-122.8 1793.88,-122.8 1434.28,-122.8 1434.28,-122.8"/>
<polygon fill="black" stroke="black" points="1434.28,-119.3 1424.28,-122.8 1434.28,-126.3 1434.28,-119.3"/>
</g>
<!-- InputAlertComponent -->
<g id="node6" class="node">
<title>InputAlertComponent</title>
<polygon fill="#ffffb3" stroke="black" points="1750.65,-84.8 1611.35,-84.8 1611.35,-48.8 1750.65,-48.8 1750.65,-84.8"/>
<text text-anchor="middle" x="1681" y="-62.6" font-family="Times,serif" font-size="14.00">InputAlertComponent</text>
</g>
<!-- InputAlertComponent&#45;&gt;SharedModule -->
<g id="edge6" class="edge">
<title>InputAlertComponent&#45;&gt;SharedModule</title>
<path fill="none" stroke="black" d="M1617.97,-85.04C1617.97,-100.37 1617.97,-119.8 1617.97,-119.8 1617.97,-119.8 1434.46,-119.8 1434.46,-119.8"/>
<polygon fill="black" stroke="black" points="1434.46,-116.3 1424.46,-119.8 1434.46,-123.3 1434.46,-116.3"/>
</g>
<!-- InputTextComponent -->
<g id="node7" class="node">
<title>InputTextComponent</title>
<polygon fill="#ffffb3" stroke="black" points="1593.04,-84.8 1456.96,-84.8 1456.96,-48.8 1593.04,-48.8 1593.04,-84.8"/>
<text text-anchor="middle" x="1525" y="-62.6" font-family="Times,serif" font-size="14.00">InputTextComponent</text>
</g>
<!-- InputTextComponent&#45;&gt;SharedModule -->
<g id="edge7" class="edge">
<title>InputTextComponent&#45;&gt;SharedModule</title>
<path fill="none" stroke="black" d="M1549.99,-84.85C1549.99,-99.17 1549.99,-116.8 1549.99,-116.8 1549.99,-116.8 1434.68,-116.8 1434.68,-116.8"/>
<polygon fill="black" stroke="black" points="1434.68,-113.3 1424.68,-116.8 1434.68,-120.3 1434.68,-113.3"/>
</g>
<!-- MultiTdComponent -->
<g id="node8" class="node">
<title>MultiTdComponent</title>
<polygon fill="#ffffb3" stroke="black" points="1439,-84.8 1311,-84.8 1311,-48.8 1439,-48.8 1439,-84.8"/>
<text text-anchor="middle" x="1375" y="-62.6" font-family="Times,serif" font-size="14.00">MultiTdComponent</text>
</g>
<!-- MultiTdComponent&#45;&gt;SharedModule -->
<g id="edge8" class="edge">
<title>MultiTdComponent&#45;&gt;SharedModule</title>
<path fill="none" stroke="black" d="M1375,-84.91C1375,-84.91 1375,-103.79 1375,-103.79"/>
<polygon fill="black" stroke="black" points="1371.5,-103.79 1375,-113.79 1378.5,-103.79 1371.5,-103.79"/>
</g>
<!-- PbuttonSendingComponent -->
<g id="node9" class="node">
<title>PbuttonSendingComponent</title>
<polygon fill="#ffffb3" stroke="black" points="1293.29,-84.8 1122.71,-84.8 1122.71,-48.8 1293.29,-48.8 1293.29,-84.8"/>
<text text-anchor="middle" x="1208" y="-62.6" font-family="Times,serif" font-size="14.00">PbuttonSendingComponent</text>
</g>
<!-- PbuttonSendingComponent&#45;&gt;SharedModule -->
<g id="edge9" class="edge">
<title>PbuttonSendingComponent&#45;&gt;SharedModule</title>
<path fill="none" stroke="black" d="M1232.3,-84.85C1232.3,-99.17 1232.3,-116.8 1232.3,-116.8 1232.3,-116.8 1315.49,-116.8 1315.49,-116.8"/>
<polygon fill="black" stroke="black" points="1315.49,-120.3 1325.49,-116.8 1315.49,-113.3 1315.49,-120.3"/>
</g>
<!-- PdropdownComponent -->
<g id="node10" class="node">
<title>PdropdownComponent</title>
<polygon fill="#ffffb3" stroke="black" points="1104.89,-84.8 959.11,-84.8 959.11,-48.8 1104.89,-48.8 1104.89,-84.8"/>
<text text-anchor="middle" x="1032" y="-62.6" font-family="Times,serif" font-size="14.00">PdropdownComponent</text>
</g>
<!-- PdropdownComponent&#45;&gt;SharedModule -->
<g id="edge10" class="edge">
<title>PdropdownComponent&#45;&gt;SharedModule</title>
<path fill="none" stroke="black" d="M1099.82,-85.04C1099.82,-100.37 1099.82,-119.8 1099.82,-119.8 1099.82,-119.8 1315.49,-119.8 1315.49,-119.8"/>
<polygon fill="black" stroke="black" points="1315.49,-123.3 1325.49,-119.8 1315.49,-116.3 1315.49,-123.3"/>
</g>
<!-- ViewConfirmacionComponent -->
<g id="node11" class="node">
<title>ViewConfirmacionComponent</title>
<polygon fill="#ffffb3" stroke="black" points="940.91,-84.8 751.09,-84.8 751.09,-48.8 940.91,-48.8 940.91,-84.8"/>
<text text-anchor="middle" x="846" y="-62.6" font-family="Times,serif" font-size="14.00">ViewConfirmacionComponent</text>
</g>
<!-- ViewConfirmacionComponent&#45;&gt;SharedModule -->
<g id="edge11" class="edge">
<title>ViewConfirmacionComponent&#45;&gt;SharedModule</title>
<path fill="none" stroke="black" d="M934.25,-84.83C934.25,-101.2 934.25,-122.8 934.25,-122.8 934.25,-122.8 1315.72,-122.8 1315.72,-122.8"/>
<polygon fill="black" stroke="black" points="1315.72,-126.3 1325.72,-122.8 1315.72,-119.3 1315.72,-126.3"/>
</g>
<!-- ViewServiceTableComponent -->
<g id="node12" class="node">
<title>ViewServiceTableComponent</title>
<polygon fill="#ffffb3" stroke="black" points="733.5,-84.8 548.5,-84.8 548.5,-48.8 733.5,-48.8 733.5,-84.8"/>
<text text-anchor="middle" x="641" y="-62.6" font-family="Times,serif" font-size="14.00">ViewServiceTableComponent</text>
</g>
<!-- ViewServiceTableComponent&#45;&gt;SharedModule -->
<g id="edge12" class="edge">
<title>ViewServiceTableComponent&#45;&gt;SharedModule</title>
<path fill="none" stroke="black" d="M668.65,-84.82C668.65,-102.17 668.65,-125.8 668.65,-125.8 668.65,-125.8 1315.61,-125.8 1315.61,-125.8"/>
<polygon fill="black" stroke="black" points="1315.61,-129.3 1325.61,-125.8 1315.61,-122.3 1315.61,-129.3"/>
</g>
<!-- ViewTableServicesComponent -->
<g id="node13" class="node">
<title>ViewTableServicesComponent</title>
<polygon fill="#ffffb3" stroke="black" points="530.45,-84.8 339.55,-84.8 339.55,-48.8 530.45,-48.8 530.45,-84.8"/>
<text text-anchor="middle" x="435" y="-62.6" font-family="Times,serif" font-size="14.00">ViewTableServicesComponent</text>
</g>
<!-- ViewTableServicesComponent&#45;&gt;SharedModule -->
<g id="edge13" class="edge">
<title>ViewTableServicesComponent&#45;&gt;SharedModule</title>
<path fill="none" stroke="black" d="M460.62,-85.1C460.62,-103.07 460.62,-127.8 460.62,-127.8 460.62,-127.8 1315.52,-127.8 1315.52,-127.8"/>
<polygon fill="black" stroke="black" points="1315.52,-131.3 1325.52,-127.8 1315.51,-124.3 1315.52,-131.3"/>
</g>
<!-- ViewUOTableComponent -->
<g id="node14" class="node">
<title>ViewUOTableComponent</title>
<polygon fill="#ffffb3" stroke="black" points="321.75,-84.8 158.25,-84.8 158.25,-48.8 321.75,-48.8 321.75,-84.8"/>
<text text-anchor="middle" x="240" y="-62.6" font-family="Times,serif" font-size="14.00">ViewUOTableComponent</text>
</g>
<!-- ViewUOTableComponent&#45;&gt;SharedModule -->
<g id="edge14" class="edge">
<title>ViewUOTableComponent&#45;&gt;SharedModule</title>
<path fill="none" stroke="black" d="M240,-84.97C240,-103.89 240,-130.8 240,-130.8 240,-130.8 1315.5,-130.8 1315.5,-130.8"/>
<polygon fill="black" stroke="black" points="1315.5,-134.3 1325.5,-130.8 1315.5,-127.3 1315.5,-134.3"/>
</g>
<!-- ColorPrecargadoDirective  -->
<g id="node17" class="node">
<title>ColorPrecargadoDirective </title>
<polygon fill="#fb8072" stroke="black" points="2422.44,-214.8 2255.56,-214.8 2255.56,-178.8 2422.44,-178.8 2422.44,-214.8"/>
<text text-anchor="middle" x="2339" y="-192.6" font-family="Times,serif" font-size="14.00">ColorPrecargadoDirective </text>
</g>
<!-- SharedModule&#45;&gt;ColorPrecargadoDirective  -->
<g id="edge16" class="edge">
<title>SharedModule&#45;&gt;ColorPrecargadoDirective </title>
<path fill="none" stroke="black" stroke-dasharray="5,2" d="M1424.42,-136.8C1617.83,-136.8 2312.72,-136.8 2312.72,-136.8 2312.72,-136.8 2312.72,-168.8 2312.72,-168.8"/>
<polygon fill="black" stroke="black" points="2309.22,-168.8 2312.72,-178.8 2316.22,-168.8 2309.22,-168.8"/>
</g>
<!-- ContentLayoutComponent  -->
<g id="node18" class="node">
<title>ContentLayoutComponent </title>
<polygon fill="#fb8072" stroke="black" points="2237.32,-214.8 2068.68,-214.8 2068.68,-178.8 2237.32,-178.8 2237.32,-214.8"/>
<text text-anchor="middle" x="2153" y="-192.6" font-family="Times,serif" font-size="14.00">ContentLayoutComponent </text>
</g>
<!-- SharedModule&#45;&gt;ContentLayoutComponent  -->
<g id="edge17" class="edge">
<title>SharedModule&#45;&gt;ContentLayoutComponent </title>
<path fill="none" stroke="black" stroke-dasharray="5,2" d="M1424.39,-138.8C1591.84,-138.8 2127.7,-138.8 2127.7,-138.8 2127.7,-138.8 2127.7,-168.77 2127.7,-168.77"/>
<polygon fill="black" stroke="black" points="2124.2,-168.77 2127.7,-178.77 2131.2,-168.77 2124.2,-168.77"/>
</g>
<!-- FormAgregarServiciosComponent  -->
<g id="node19" class="node">
<title>FormAgregarServiciosComponent </title>
<polygon fill="#fb8072" stroke="black" points="2050.63,-214.8 1837.37,-214.8 1837.37,-178.8 2050.63,-178.8 2050.63,-214.8"/>
<text text-anchor="middle" x="1944" y="-192.6" font-family="Times,serif" font-size="14.00">FormAgregarServiciosComponent </text>
</g>
<!-- SharedModule&#45;&gt;FormAgregarServiciosComponent  -->
<g id="edge18" class="edge">
<title>SharedModule&#45;&gt;FormAgregarServiciosComponent </title>
<path fill="none" stroke="black" stroke-dasharray="5,2" d="M1424.25,-141.8C1554.55,-141.8 1898.46,-141.8 1898.46,-141.8 1898.46,-141.8 1898.46,-168.79 1898.46,-168.79"/>
<polygon fill="black" stroke="black" points="1894.96,-168.79 1898.46,-178.79 1901.96,-168.79 1894.96,-168.79"/>
</g>
<!-- FormTableServicesComponent  -->
<g id="node20" class="node">
<title>FormTableServicesComponent </title>
<polygon fill="#fb8072" stroke="black" points="1819.47,-214.8 1624.53,-214.8 1624.53,-178.8 1819.47,-178.8 1819.47,-214.8"/>
<text text-anchor="middle" x="1722" y="-192.6" font-family="Times,serif" font-size="14.00">FormTableServicesComponent </text>
</g>
<!-- SharedModule&#45;&gt;FormTableServicesComponent  -->
<g id="edge19" class="edge">
<title>SharedModule&#45;&gt;FormTableServicesComponent </title>
<path fill="none" stroke="black" stroke-dasharray="5,2" d="M1424.22,-144.8C1512.31,-144.8 1687.8,-144.8 1687.8,-144.8 1687.8,-144.8 1687.8,-168.61 1687.8,-168.61"/>
<polygon fill="black" stroke="black" points="1684.3,-168.61 1687.8,-178.61 1691.3,-168.61 1684.3,-168.61"/>
</g>
<!-- InputAlertComponent  -->
<g id="node21" class="node">
<title>InputAlertComponent </title>
<polygon fill="#fb8072" stroke="black" points="1606.65,-214.8 1463.35,-214.8 1463.35,-178.8 1606.65,-178.8 1606.65,-214.8"/>
<text text-anchor="middle" x="1535" y="-192.6" font-family="Times,serif" font-size="14.00">InputAlertComponent </text>
</g>
<!-- SharedModule&#45;&gt;InputAlertComponent  -->
<g id="edge20" class="edge">
<title>SharedModule&#45;&gt;InputAlertComponent </title>
<path fill="none" stroke="black" stroke-dasharray="5,2" d="M1424.42,-147.8C1461.79,-147.8 1506.71,-147.8 1506.71,-147.8 1506.71,-147.8 1506.71,-168.55 1506.71,-168.55"/>
<polygon fill="black" stroke="black" points="1503.21,-168.55 1506.71,-178.55 1510.21,-168.55 1503.21,-168.55"/>
</g>
<!-- InputTextComponent  -->
<g id="node22" class="node">
<title>InputTextComponent </title>
<polygon fill="#fb8072" stroke="black" points="1445.04,-214.8 1304.96,-214.8 1304.96,-178.8 1445.04,-178.8 1445.04,-214.8"/>
<text text-anchor="middle" x="1375" y="-192.6" font-family="Times,serif" font-size="14.00">InputTextComponent </text>
</g>
<!-- SharedModule&#45;&gt;InputTextComponent  -->
<g id="edge21" class="edge">
<title>SharedModule&#45;&gt;InputTextComponent </title>
<path fill="none" stroke="black" stroke-dasharray="5,2" d="M1375,-149.91C1375,-149.91 1375,-168.79 1375,-168.79"/>
<polygon fill="black" stroke="black" points="1371.5,-168.79 1375,-178.79 1378.5,-168.79 1371.5,-168.79"/>
</g>
<!-- PbuttonSendingComponent  -->
<g id="node23" class="node">
<title>PbuttonSendingComponent </title>
<polygon fill="#fb8072" stroke="black" points="1287.29,-214.8 1112.71,-214.8 1112.71,-178.8 1287.29,-178.8 1287.29,-214.8"/>
<text text-anchor="middle" x="1200" y="-192.6" font-family="Times,serif" font-size="14.00">PbuttonSendingComponent </text>
</g>
<!-- SharedModule&#45;&gt;PbuttonSendingComponent  -->
<g id="edge22" class="edge">
<title>SharedModule&#45;&gt;PbuttonSendingComponent </title>
<path fill="none" stroke="black" stroke-dasharray="5,2" d="M1325.66,-147.8C1267.15,-147.8 1177.45,-147.8 1177.45,-147.8 1177.45,-147.8 1177.45,-168.55 1177.45,-168.55"/>
<polygon fill="black" stroke="black" points="1173.95,-168.55 1177.45,-178.55 1180.95,-168.55 1173.95,-168.55"/>
</g>
<!-- PdropdownComponent  -->
<g id="node24" class="node">
<title>PdropdownComponent </title>
<polygon fill="#fb8072" stroke="black" points="1094.89,-214.8 945.11,-214.8 945.11,-178.8 1094.89,-178.8 1094.89,-214.8"/>
<text text-anchor="middle" x="1020" y="-192.6" font-family="Times,serif" font-size="14.00">PdropdownComponent </text>
</g>
<!-- SharedModule&#45;&gt;PdropdownComponent  -->
<g id="edge23" class="edge">
<title>SharedModule&#45;&gt;PdropdownComponent </title>
<path fill="none" stroke="black" stroke-dasharray="5,2" d="M1325.49,-144.8C1229.38,-144.8 1026.88,-144.8 1026.88,-144.8 1026.88,-144.8 1026.88,-168.61 1026.88,-168.61"/>
<polygon fill="black" stroke="black" points="1023.38,-168.61 1026.88,-178.61 1030.38,-168.61 1023.38,-168.61"/>
</g>
<!-- PrimeNgModule  -->
<g id="node25" class="node">
<title>PrimeNgModule </title>
<polygon fill="#fb8072" stroke="black" points="927.6,-214.8 814.4,-214.8 814.4,-178.8 927.6,-178.8 927.6,-214.8"/>
<text text-anchor="middle" x="871" y="-192.6" font-family="Times,serif" font-size="14.00">PrimeNgModule </text>
</g>
<!-- SharedModule&#45;&gt;PrimeNgModule  -->
<g id="edge24" class="edge">
<title>SharedModule&#45;&gt;PrimeNgModule </title>
<path fill="none" stroke="black" stroke-dasharray="5,2" d="M1325.76,-141.8C1198.94,-141.8 871,-141.8 871,-141.8 871,-141.8 871,-168.79 871,-168.79"/>
<polygon fill="black" stroke="black" points="867.5,-168.79 871,-178.79 874.5,-168.79 867.5,-168.79"/>
</g>
<!-- ViewConfirmacionComponent  -->
<g id="node26" class="node">
<title>ViewConfirmacionComponent </title>
<polygon fill="#fb8072" stroke="black" points="796.41,-214.8 603.59,-214.8 603.59,-178.8 796.41,-178.8 796.41,-214.8"/>
<text text-anchor="middle" x="700" y="-192.6" font-family="Times,serif" font-size="14.00">ViewConfirmacionComponent </text>
</g>
<!-- SharedModule&#45;&gt;ViewConfirmacionComponent  -->
<g id="edge25" class="edge">
<title>SharedModule&#45;&gt;ViewConfirmacionComponent </title>
<path fill="none" stroke="black" stroke-dasharray="5,2" d="M1325.55,-138.8C1181.76,-138.8 773.88,-138.8 773.88,-138.8 773.88,-138.8 773.88,-168.77 773.88,-168.77"/>
<polygon fill="black" stroke="black" points="770.38,-168.77 773.88,-178.77 777.38,-168.77 770.38,-168.77"/>
</g>
<!-- ViewTableServicesComponent  -->
<g id="node27" class="node">
<title>ViewTableServicesComponent </title>
<polygon fill="#fb8072" stroke="black" points="585.45,-214.8 390.55,-214.8 390.55,-178.8 585.45,-178.8 585.45,-214.8"/>
<text text-anchor="middle" x="488" y="-192.6" font-family="Times,serif" font-size="14.00">ViewTableServicesComponent </text>
</g>
<!-- SharedModule&#45;&gt;ViewTableServicesComponent  -->
<g id="edge26" class="edge">
<title>SharedModule&#45;&gt;ViewTableServicesComponent </title>
<path fill="none" stroke="black" stroke-dasharray="5,2" d="M1325.66,-136.8C1150.17,-136.8 566.74,-136.8 566.74,-136.8 566.74,-136.8 566.74,-168.8 566.74,-168.8"/>
<polygon fill="black" stroke="black" points="563.24,-168.8 566.74,-178.8 570.24,-168.8 563.24,-168.8"/>
</g>
<!-- PrimeNgModule -->
<g id="node16" class="node">
<title>PrimeNgModule</title>
<polygon fill="#8dd3c7" stroke="black" points="134.1,-84.8 131.1,-88.8 110.1,-88.8 107.1,-84.8 23.9,-84.8 23.9,-48.8 134.1,-48.8 134.1,-84.8"/>
<text text-anchor="middle" x="79" y="-62.6" font-family="Times,serif" font-size="14.00">PrimeNgModule</text>
</g>
<!-- PrimeNgModule&#45;&gt;SharedModule -->
<g id="edge15" class="edge">
<title>PrimeNgModule&#45;&gt;SharedModule</title>
<path fill="none" stroke="black" d="M79,-85.11C79,-104.95 79,-133.8 79,-133.8 79,-133.8 1315.78,-133.8 1315.78,-133.8"/>
<polygon fill="black" stroke="black" points="1315.78,-137.3 1325.78,-133.8 1315.78,-130.3 1315.78,-137.3"/>
</g>
</g>
</svg>
