<?xml version="1.0" encoding="UTF-8" standalone="no"?>
<!DOCTYPE svg PUBLIC "-//W3C//DTD SVG 1.1//EN"
 "http://www.w3.org/Graphics/SVG/1.1/DTD/svg11.dtd">
<!-- Generated by graphviz version 5.0.0 (20220707.1540)
 -->
<!-- Title: dependencies Pages: 1 -->
<svg width="1743pt" height="247pt"
 viewBox="0.00 0.00 1743.00 246.80" xmlns="http://www.w3.org/2000/svg" xmlns:xlink="http://www.w3.org/1999/xlink">
<g id="graph0" class="graph" transform="scale(1 1) rotate(0) translate(4 242.8)">
<title>dependencies</title>
<polygon fill="white" stroke="transparent" points="-4,4 -4,-242.8 1739,-242.8 1739,4 -4,4"/>
<text text-anchor="middle" x="867.5" y="-8.2" font-family="sans-serif" font-size="14.00">dependencies</text>
<g id="clust1" class="cluster">
<title>cluster_SharedModule</title>
<polygon fill="none" stroke="black" stroke-dasharray="1,5" points="8,-32.8 8,-230.8 1727,-230.8 1727,-32.8 8,-32.8"/>
</g>
<g id="clust13" class="cluster">
<title>cluster_SharedModule_exports</title>
<polygon fill="none" stroke="black" points="137,-170.8 137,-222.8 1576,-222.8 1576,-170.8 137,-170.8"/>
</g>
<g id="clust2" class="cluster">
<title>cluster_SharedModule_declarations</title>
<polygon fill="none" stroke="black" points="150,-40.8 150,-92.8 1719,-92.8 1719,-40.8 150,-40.8"/>
</g>
<g id="clust12" class="cluster">
<title>cluster_SharedModule_imports</title>
<polygon fill="none" stroke="black" points="16,-40.8 16,-92.8 142,-92.8 142,-40.8 16,-40.8"/>
</g>
<!-- BaseTdComponent -->
<g id="node1" class="node">
<title>BaseTdComponent</title>
<polygon fill="#ffffb3" stroke="black" points="1711.1,-84.8 1586.9,-84.8 1586.9,-48.8 1711.1,-48.8 1711.1,-84.8"/>
<text text-anchor="middle" x="1649" y="-62.6" font-family="Times,serif" font-size="14.00">BaseTdComponent</text>
</g>
<!-- SharedModule -->
<g id="node10" class="node">
<title>SharedModule</title>
<polygon fill="#8dd3c7" stroke="black" points="835.43,-149.8 832.43,-153.8 811.43,-153.8 808.43,-149.8 736.57,-149.8 736.57,-113.8 835.43,-113.8 835.43,-149.8"/>
<text text-anchor="middle" x="786" y="-127.6" font-family="Times,serif" font-size="14.00">SharedModule</text>
</g>
<!-- BaseTdComponent&#45;&gt;SharedModule -->
<g id="edge1" class="edge">
<title>BaseTdComponent&#45;&gt;SharedModule</title>
<path fill="none" stroke="black" d="M1649,-84.91C1649,-104.14 1649,-131.8 1649,-131.8 1649,-131.8 845.5,-131.8 845.5,-131.8"/>
<polygon fill="black" stroke="black" points="845.5,-128.3 835.5,-131.8 845.5,-135.3 845.5,-128.3"/>
</g>
<!-- ContentLayoutComponent -->
<g id="node2" class="node">
<title>ContentLayoutComponent</title>
<polygon fill="#ffffb3" stroke="black" points="1568.82,-84.8 1403.18,-84.8 1403.18,-48.8 1568.82,-48.8 1568.82,-84.8"/>
<text text-anchor="middle" x="1486" y="-62.6" font-family="Times,serif" font-size="14.00">ContentLayoutComponent</text>
</g>
<!-- ContentLayoutComponent&#45;&gt;SharedModule -->
<g id="edge2" class="edge">
<title>ContentLayoutComponent&#45;&gt;SharedModule</title>
<path fill="none" stroke="black" d="M1458.36,-85.1C1458.36,-103.07 1458.36,-127.8 1458.36,-127.8 1458.36,-127.8 845.44,-127.8 845.44,-127.8"/>
<polygon fill="black" stroke="black" points="845.44,-124.3 835.44,-127.8 845.44,-131.3 845.44,-124.3"/>
</g>
<!-- FormAgregarServiciosComponent -->
<g id="node3" class="node">
<title>FormAgregarServiciosComponent</title>
<polygon fill="#ffffb3" stroke="black" points="1385.64,-84.8 1176.36,-84.8 1176.36,-48.8 1385.64,-48.8 1385.64,-84.8"/>
<text text-anchor="middle" x="1281" y="-62.6" font-family="Times,serif" font-size="14.00">FormAgregarServiciosComponent</text>
</g>
<!-- FormAgregarServiciosComponent&#45;&gt;SharedModule -->
<g id="edge3" class="edge">
<title>FormAgregarServiciosComponent&#45;&gt;SharedModule</title>
<path fill="none" stroke="black" d="M1278.88,-84.83C1278.88,-101.2 1278.88,-122.8 1278.88,-122.8 1278.88,-122.8 845.52,-122.8 845.52,-122.8"/>
<polygon fill="black" stroke="black" points="845.52,-119.3 835.52,-122.8 845.52,-126.3 845.52,-119.3"/>
</g>
<!-- FormTableServicesComponent -->
<g id="node4" class="node">
<title>FormTableServicesComponent</title>
<polygon fill="#ffffb3" stroke="black" points="1158.47,-84.8 967.53,-84.8 967.53,-48.8 1158.47,-48.8 1158.47,-84.8"/>
<text text-anchor="middle" x="1063" y="-62.6" font-family="Times,serif" font-size="14.00">FormTableServicesComponent</text>
</g>
<!-- FormTableServicesComponent&#45;&gt;SharedModule -->
<g id="edge4" class="edge">
<title>FormTableServicesComponent&#45;&gt;SharedModule</title>
<path fill="none" stroke="black" d="M1058.88,-84.99C1058.88,-99.98 1058.88,-118.8 1058.88,-118.8 1058.88,-118.8 845.42,-118.8 845.42,-118.8"/>
<polygon fill="black" stroke="black" points="845.42,-115.3 835.42,-118.8 845.42,-122.3 845.42,-115.3"/>
</g>
<!-- InputAlertComponent -->
<g id="node5" class="node">
<title>InputAlertComponent</title>
<polygon fill="#ffffb3" stroke="black" points="949.65,-84.8 810.35,-84.8 810.35,-48.8 949.65,-48.8 949.65,-84.8"/>
<text text-anchor="middle" x="880" y="-62.6" font-family="Times,serif" font-size="14.00">InputAlertComponent</text>
</g>
<!-- InputAlertComponent&#45;&gt;SharedModule -->
<g id="edge5" class="edge">
<title>InputAlertComponent&#45;&gt;SharedModule</title>
<path fill="none" stroke="black" d="M822.69,-84.91C822.69,-84.91 822.69,-103.79 822.69,-103.79"/>
<polygon fill="black" stroke="black" points="819.19,-103.79 822.69,-113.79 826.19,-103.79 819.19,-103.79"/>
</g>
<!-- InputTextComponent -->
<g id="node6" class="node">
<title>InputTextComponent</title>
<polygon fill="#ffffb3" stroke="black" points="792.04,-84.8 655.96,-84.8 655.96,-48.8 792.04,-48.8 792.04,-84.8"/>
<text text-anchor="middle" x="724" y="-62.6" font-family="Times,serif" font-size="14.00">InputTextComponent</text>
</g>
<!-- InputTextComponent&#45;&gt;SharedModule -->
<g id="edge6" class="edge">
<title>InputTextComponent&#45;&gt;SharedModule</title>
<path fill="none" stroke="black" d="M764.53,-84.91C764.53,-84.91 764.53,-103.79 764.53,-103.79"/>
<polygon fill="black" stroke="black" points="761.03,-103.79 764.53,-113.79 768.03,-103.79 761.03,-103.79"/>
</g>
<!-- MultiTdComponent -->
<g id="node7" class="node">
<title>MultiTdComponent</title>
<polygon fill="#ffffb3" stroke="black" points="638,-84.8 510,-84.8 510,-48.8 638,-48.8 638,-84.8"/>
<text text-anchor="middle" x="574" y="-62.6" font-family="Times,serif" font-size="14.00">MultiTdComponent</text>
</g>
<!-- MultiTdComponent&#45;&gt;SharedModule -->
<g id="edge7" class="edge">
<title>MultiTdComponent&#45;&gt;SharedModule</title>
<path fill="none" stroke="black" d="M627.06,-84.99C627.06,-99.98 627.06,-118.8 627.06,-118.8 627.06,-118.8 726.58,-118.8 726.58,-118.8"/>
<polygon fill="black" stroke="black" points="726.58,-122.3 736.58,-118.8 726.58,-115.3 726.58,-122.3"/>
</g>
<!-- PbuttonSendingComponent -->
<g id="node8" class="node">
<title>PbuttonSendingComponent</title>
<polygon fill="#ffffb3" stroke="black" points="492.29,-84.8 321.71,-84.8 321.71,-48.8 492.29,-48.8 492.29,-84.8"/>
<text text-anchor="middle" x="407" y="-62.6" font-family="Times,serif" font-size="14.00">PbuttonSendingComponent</text>
</g>
<!-- PbuttonSendingComponent&#45;&gt;SharedModule -->
<g id="edge8" class="edge">
<title>PbuttonSendingComponent&#45;&gt;SharedModule</title>
<path fill="none" stroke="black" d="M468.12,-84.83C468.12,-101.2 468.12,-122.8 468.12,-122.8 468.12,-122.8 726.68,-122.8 726.68,-122.8"/>
<polygon fill="black" stroke="black" points="726.68,-126.3 736.68,-122.8 726.68,-119.3 726.68,-126.3"/>
</g>
<!-- PdropdownComponent -->
<g id="node9" class="node">
<title>PdropdownComponent</title>
<polygon fill="#ffffb3" stroke="black" points="303.89,-84.8 158.11,-84.8 158.11,-48.8 303.89,-48.8 303.89,-84.8"/>
<text text-anchor="middle" x="231" y="-62.6" font-family="Times,serif" font-size="14.00">PdropdownComponent</text>
</g>
<!-- PdropdownComponent&#45;&gt;SharedModule -->
<g id="edge9" class="edge">
<title>PdropdownComponent&#45;&gt;SharedModule</title>
<path fill="none" stroke="black" d="M290.12,-85.1C290.12,-103.07 290.12,-127.8 290.12,-127.8 290.12,-127.8 726.64,-127.8 726.64,-127.8"/>
<polygon fill="black" stroke="black" points="726.64,-131.3 736.64,-127.8 726.64,-124.3 726.64,-131.3"/>
</g>
<!-- ContentLayoutComponent  -->
<g id="node12" class="node">
<title>ContentLayoutComponent </title>
<polygon fill="#fb8072" stroke="black" points="1568.32,-214.8 1399.68,-214.8 1399.68,-178.8 1568.32,-178.8 1568.32,-214.8"/>
<text text-anchor="middle" x="1484" y="-192.6" font-family="Times,serif" font-size="14.00">ContentLayoutComponent </text>
</g>
<!-- SharedModule&#45;&gt;ContentLayoutComponent  -->
<g id="edge11" class="edge">
<title>SharedModule&#45;&gt;ContentLayoutComponent </title>
<path fill="none" stroke="black" stroke-dasharray="5,2" d="M835.42,-136.8C999.14,-136.8 1513.39,-136.8 1513.39,-136.8 1513.39,-136.8 1513.39,-168.8 1513.39,-168.8"/>
<polygon fill="black" stroke="black" points="1509.89,-168.8 1513.39,-178.8 1516.89,-168.8 1509.89,-168.8"/>
</g>
<!-- FormAgregarServiciosComponent  -->
<g id="node13" class="node">
<title>FormAgregarServiciosComponent </title>
<polygon fill="#fb8072" stroke="black" points="1381.63,-214.8 1168.37,-214.8 1168.37,-178.8 1381.63,-178.8 1381.63,-214.8"/>
<text text-anchor="middle" x="1275" y="-192.6" font-family="Times,serif" font-size="14.00">FormAgregarServiciosComponent </text>
</g>
<!-- SharedModule&#45;&gt;FormAgregarServiciosComponent  -->
<g id="edge12" class="edge">
<title>SharedModule&#45;&gt;FormAgregarServiciosComponent </title>
<path fill="none" stroke="black" stroke-dasharray="5,2" d="M835.32,-140.8C939.46,-140.8 1172.31,-140.8 1172.31,-140.8 1172.31,-140.8 1172.31,-168.77 1172.31,-168.77"/>
<polygon fill="black" stroke="black" points="1168.81,-168.77 1172.31,-178.77 1175.81,-168.77 1168.81,-168.77"/>
</g>
<!-- FormTableServicesComponent  -->
<g id="node14" class="node">
<title>FormTableServicesComponent </title>
<polygon fill="#fb8072" stroke="black" points="1150.47,-214.8 955.53,-214.8 955.53,-178.8 1150.47,-178.8 1150.47,-214.8"/>
<text text-anchor="middle" x="1053" y="-192.6" font-family="Times,serif" font-size="14.00">FormTableServicesComponent </text>
</g>
<!-- SharedModule&#45;&gt;FormTableServicesComponent  -->
<g id="edge13" class="edge">
<title>SharedModule&#45;&gt;FormTableServicesComponent </title>
<path fill="none" stroke="black" stroke-dasharray="5,2" d="M835.39,-145.8C887.34,-145.8 961.64,-145.8 961.64,-145.8 961.64,-145.8 961.64,-168.68 961.64,-168.68"/>
<polygon fill="black" stroke="black" points="958.14,-168.68 961.64,-178.68 965.14,-168.68 958.14,-168.68"/>
</g>
<!-- InputAlertComponent  -->
<g id="node15" class="node">
<title>InputAlertComponent </title>
<polygon fill="#fb8072" stroke="black" points="937.65,-214.8 794.35,-214.8 794.35,-178.8 937.65,-178.8 937.65,-214.8"/>
<text text-anchor="middle" x="866" y="-192.6" font-family="Times,serif" font-size="14.00">InputAlertComponent </text>
</g>
<!-- SharedModule&#45;&gt;InputAlertComponent  -->
<g id="edge14" class="edge">
<title>SharedModule&#45;&gt;InputAlertComponent </title>
<path fill="none" stroke="black" stroke-dasharray="5,2" d="M814.82,-149.91C814.82,-149.91 814.82,-168.79 814.82,-168.79"/>
<polygon fill="black" stroke="black" points="811.32,-168.79 814.82,-178.79 818.32,-168.79 811.32,-168.79"/>
</g>
<!-- InputTextComponent  -->
<g id="node16" class="node">
<title>InputTextComponent </title>
<polygon fill="#fb8072" stroke="black" points="776.04,-214.8 635.96,-214.8 635.96,-178.8 776.04,-178.8 776.04,-214.8"/>
<text text-anchor="middle" x="706" y="-192.6" font-family="Times,serif" font-size="14.00">InputTextComponent </text>
</g>
<!-- SharedModule&#45;&gt;InputTextComponent  -->
<g id="edge15" class="edge">
<title>SharedModule&#45;&gt;InputTextComponent </title>
<path fill="none" stroke="black" stroke-dasharray="5,2" d="M756.4,-149.91C756.4,-149.91 756.4,-168.79 756.4,-168.79"/>
<polygon fill="black" stroke="black" points="752.9,-168.79 756.4,-178.79 759.9,-168.79 752.9,-168.79"/>
</g>
<!-- PbuttonSendingComponent  -->
<g id="node17" class="node">
<title>PbuttonSendingComponent </title>
<polygon fill="#fb8072" stroke="black" points="618.29,-214.8 443.71,-214.8 443.71,-178.8 618.29,-178.8 618.29,-214.8"/>
<text text-anchor="middle" x="531" y="-192.6" font-family="Times,serif" font-size="14.00">PbuttonSendingComponent </text>
</g>
<!-- SharedModule&#45;&gt;PbuttonSendingComponent  -->
<g id="edge16" class="edge">
<title>SharedModule&#45;&gt;PbuttonSendingComponent </title>
<path fill="none" stroke="black" stroke-dasharray="5,2" d="M736.75,-145.8C671.36,-145.8 564.07,-145.8 564.07,-145.8 564.07,-145.8 564.07,-168.68 564.07,-168.68"/>
<polygon fill="black" stroke="black" points="560.57,-168.68 564.07,-178.68 567.57,-168.68 560.57,-168.68"/>
</g>
<!-- PdropdownComponent  -->
<g id="node18" class="node">
<title>PdropdownComponent </title>
<polygon fill="#fb8072" stroke="black" points="425.89,-214.8 276.11,-214.8 276.11,-178.8 425.89,-178.8 425.89,-214.8"/>
<text text-anchor="middle" x="351" y="-192.6" font-family="Times,serif" font-size="14.00">PdropdownComponent </text>
</g>
<!-- SharedModule&#45;&gt;PdropdownComponent  -->
<g id="edge17" class="edge">
<title>SharedModule&#45;&gt;PdropdownComponent </title>
<path fill="none" stroke="black" stroke-dasharray="5,2" d="M736.67,-140.8C627.22,-140.8 373.65,-140.8 373.65,-140.8 373.65,-140.8 373.65,-168.77 373.65,-168.77"/>
<polygon fill="black" stroke="black" points="370.15,-168.77 373.65,-178.77 377.15,-168.77 370.15,-168.77"/>
</g>
<!-- PrimeNgModule  -->
<g id="node19" class="node">
<title>PrimeNgModule </title>
<polygon fill="#fb8072" stroke="black" points="258.6,-214.8 145.4,-214.8 145.4,-178.8 258.6,-178.8 258.6,-214.8"/>
<text text-anchor="middle" x="202" y="-192.6" font-family="Times,serif" font-size="14.00">PrimeNgModule </text>
</g>
<!-- SharedModule&#45;&gt;PrimeNgModule  -->
<g id="edge18" class="edge">
<title>SharedModule&#45;&gt;PrimeNgModule </title>
<path fill="none" stroke="black" stroke-dasharray="5,2" d="M736.76,-136.8C597.08,-136.8 208.43,-136.8 208.43,-136.8 208.43,-136.8 208.43,-168.8 208.43,-168.8"/>
<polygon fill="black" stroke="black" points="204.93,-168.8 208.43,-178.8 211.93,-168.8 204.93,-168.8"/>
</g>
<!-- PrimeNgModule -->
<g id="node11" class="node">
<title>PrimeNgModule</title>
<polygon fill="#8dd3c7" stroke="black" points="134.1,-84.8 131.1,-88.8 110.1,-88.8 107.1,-84.8 23.9,-84.8 23.9,-48.8 134.1,-48.8 134.1,-84.8"/>
<text text-anchor="middle" x="79" y="-62.6" font-family="Times,serif" font-size="14.00">PrimeNgModule</text>
</g>
<!-- PrimeNgModule&#45;&gt;SharedModule -->
<g id="edge10" class="edge">
<title>PrimeNgModule&#45;&gt;SharedModule</title>
<path fill="none" stroke="black" d="M79,-84.91C79,-104.14 79,-131.8 79,-131.8 79,-131.8 726.57,-131.8 726.57,-131.8"/>
<polygon fill="black" stroke="black" points="726.57,-135.3 736.57,-131.8 726.57,-128.3 726.57,-135.3"/>
</g>
</g>
</svg>
