<?xml version="1.0" encoding="UTF-8" standalone="no"?>
<!DOCTYPE svg PUBLIC "-//W3C//DTD SVG 1.1//EN"
 "http://www.w3.org/Graphics/SVG/1.1/DTD/svg11.dtd">
<!-- Generated by graphviz version 5.0.0 (20220707.1540)
 -->
<!-- Title: dependencies Pages: 1 -->
<svg width="2725pt" height="247pt"
 viewBox="0.00 0.00 2725.00 246.80" xmlns="http://www.w3.org/2000/svg" xmlns:xlink="http://www.w3.org/1999/xlink">
<g id="graph0" class="graph" transform="scale(1 1) rotate(0) translate(4 242.8)">
<title>dependencies</title>
<polygon fill="white" stroke="transparent" points="-4,4 -4,-242.8 2721,-242.8 2721,4 -4,4"/>
<text text-anchor="middle" x="1358.5" y="-8.2" font-family="sans-serif" font-size="14.00">dependencies</text>
<g id="clust1" class="cluster">
<title>cluster_SharedModule</title>
<polygon fill="none" stroke="black" stroke-dasharray="1,5" points="8,-32.8 8,-230.8 2709,-230.8 2709,-32.8 8,-32.8"/>
</g>
<g id="clust18" class="cluster">
<title>cluster_SharedModule_exports</title>
<polygon fill="none" stroke="black" points="399,-170.8 399,-222.8 2446,-222.8 2446,-170.8 399,-170.8"/>
</g>
<g id="clust17" class="cluster">
<title>cluster_SharedModule_imports</title>
<polygon fill="none" stroke="black" points="2575,-40.8 2575,-92.8 2701,-92.8 2701,-40.8 2575,-40.8"/>
</g>
<g id="clust2" class="cluster">
<title>cluster_SharedModule_declarations</title>
<polygon fill="none" stroke="black" points="16,-40.8 16,-92.8 2567,-92.8 2567,-40.8 16,-40.8"/>
</g>
<!-- BaseTdComponent -->
<g id="node1" class="node">
<title>BaseTdComponent</title>
<polygon fill="#ffffb3" stroke="black" points="2559.1,-84.8 2434.9,-84.8 2434.9,-48.8 2559.1,-48.8 2559.1,-84.8"/>
<text text-anchor="middle" x="2497" y="-62.6" font-family="Times,serif" font-size="14.00">BaseTdComponent</text>
</g>
<!-- SharedModule -->
<g id="node15" class="node">
<title>SharedModule</title>
<polygon fill="#8dd3c7" stroke="black" points="1440.43,-149.8 1437.43,-153.8 1416.43,-153.8 1413.43,-149.8 1341.57,-149.8 1341.57,-113.8 1440.43,-113.8 1440.43,-149.8"/>
<text text-anchor="middle" x="1391" y="-127.6" font-family="Times,serif" font-size="14.00">SharedModule</text>
</g>
<!-- BaseTdComponent&#45;&gt;SharedModule -->
<g id="edge1" class="edge">
<title>BaseTdComponent&#45;&gt;SharedModule</title>
<path fill="none" stroke="black" d="M2498.63,-84.97C2498.63,-103.89 2498.63,-130.8 2498.63,-130.8 2498.63,-130.8 1450.38,-130.8 1450.38,-130.8"/>
<polygon fill="black" stroke="black" points="1450.38,-127.3 1440.38,-130.8 1450.38,-134.3 1450.38,-127.3"/>
</g>
<!-- ColorPrecargadoDirective -->
<g id="node2" class="node">
<title>ColorPrecargadoDirective</title>
<polygon fill="#ffffb3" stroke="black" points="2416.44,-84.8 2253.56,-84.8 2253.56,-48.8 2416.44,-48.8 2416.44,-84.8"/>
<text text-anchor="middle" x="2335" y="-62.6" font-family="Times,serif" font-size="14.00">ColorPrecargadoDirective</text>
</g>
<!-- ColorPrecargadoDirective&#45;&gt;SharedModule -->
<g id="edge2" class="edge">
<title>ColorPrecargadoDirective&#45;&gt;SharedModule</title>
<path fill="none" stroke="black" d="M2262.66,-85.1C2262.66,-103.07 2262.66,-127.8 2262.66,-127.8 2262.66,-127.8 1450.36,-127.8 1450.36,-127.8"/>
<polygon fill="black" stroke="black" points="1450.36,-124.3 1440.36,-127.8 1450.36,-131.3 1450.36,-124.3"/>
</g>
<!-- ContentLayoutComponent -->
<g id="node3" class="node">
<title>ContentLayoutComponent</title>
<polygon fill="#ffffb3" stroke="black" points="2235.82,-84.8 2070.18,-84.8 2070.18,-48.8 2235.82,-48.8 2235.82,-84.8"/>
<text text-anchor="middle" x="2153" y="-62.6" font-family="Times,serif" font-size="14.00">ContentLayoutComponent</text>
</g>
<!-- ContentLayoutComponent&#45;&gt;SharedModule -->
<g id="edge3" class="edge">
<title>ContentLayoutComponent&#45;&gt;SharedModule</title>
<path fill="none" stroke="black" d="M2077.47,-84.82C2077.47,-102.17 2077.47,-125.8 2077.47,-125.8 2077.47,-125.8 1450.37,-125.8 1450.37,-125.8"/>
<polygon fill="black" stroke="black" points="1450.37,-122.3 1440.37,-125.8 1450.37,-129.3 1450.37,-122.3"/>
</g>
<!-- FormAgregarServiciosComponent -->
<g id="node4" class="node">
<title>FormAgregarServiciosComponent</title>
<polygon fill="#ffffb3" stroke="black" points="2052.64,-84.8 1843.36,-84.8 1843.36,-48.8 2052.64,-48.8 2052.64,-84.8"/>
<text text-anchor="middle" x="1948" y="-62.6" font-family="Times,serif" font-size="14.00">FormAgregarServiciosComponent</text>
</g>
<!-- FormAgregarServiciosComponent&#45;&gt;SharedModule -->
<g id="edge4" class="edge">
<title>FormAgregarServiciosComponent&#45;&gt;SharedModule</title>
<path fill="none" stroke="black" d="M1848.31,-84.83C1848.31,-101.2 1848.31,-122.8 1848.31,-122.8 1848.31,-122.8 1450.37,-122.8 1450.37,-122.8"/>
<polygon fill="black" stroke="black" points="1450.37,-119.3 1440.37,-122.8 1450.37,-126.3 1450.37,-119.3"/>
</g>
<!-- FormTableServicesComponent -->
<g id="node5" class="node">
<title>FormTableServicesComponent</title>
<polygon fill="#ffffb3" stroke="black" points="1825.47,-84.8 1634.53,-84.8 1634.53,-48.8 1825.47,-48.8 1825.47,-84.8"/>
<text text-anchor="middle" x="1730" y="-62.6" font-family="Times,serif" font-size="14.00">FormTableServicesComponent</text>
</g>
<!-- FormTableServicesComponent&#45;&gt;SharedModule -->
<g id="edge5" class="edge">
<title>FormTableServicesComponent&#45;&gt;SharedModule</title>
<path fill="none" stroke="black" d="M1763.91,-85.04C1763.91,-100.37 1763.91,-119.8 1763.91,-119.8 1763.91,-119.8 1450.52,-119.8 1450.52,-119.8"/>
<polygon fill="black" stroke="black" points="1450.52,-116.3 1440.52,-119.8 1450.52,-123.3 1450.52,-116.3"/>
</g>
<!-- InputAlertComponent -->
<g id="node6" class="node">
<title>InputAlertComponent</title>
<polygon fill="#ffffb3" stroke="black" points="1616.65,-84.8 1477.35,-84.8 1477.35,-48.8 1616.65,-48.8 1616.65,-84.8"/>
<text text-anchor="middle" x="1547" y="-62.6" font-family="Times,serif" font-size="14.00">InputAlertComponent</text>
</g>
<!-- InputAlertComponent&#45;&gt;SharedModule -->
<g id="edge6" class="edge">
<title>InputAlertComponent&#45;&gt;SharedModule</title>
<path fill="none" stroke="black" d="M1571.02,-84.85C1571.02,-99.17 1571.02,-116.8 1571.02,-116.8 1571.02,-116.8 1450.67,-116.8 1450.67,-116.8"/>
<polygon fill="black" stroke="black" points="1450.67,-113.3 1440.67,-116.8 1450.67,-120.3 1450.67,-113.3"/>
</g>
<!-- InputTextComponent -->
<g id="node7" class="node">
<title>InputTextComponent</title>
<polygon fill="#ffffb3" stroke="black" points="1459.04,-84.8 1322.96,-84.8 1322.96,-48.8 1459.04,-48.8 1459.04,-84.8"/>
<text text-anchor="middle" x="1391" y="-62.6" font-family="Times,serif" font-size="14.00">InputTextComponent</text>
</g>
<!-- InputTextComponent&#45;&gt;SharedModule -->
<g id="edge7" class="edge">
<title>InputTextComponent&#45;&gt;SharedModule</title>
<path fill="none" stroke="black" d="M1391,-84.91C1391,-84.91 1391,-103.79 1391,-103.79"/>
<polygon fill="black" stroke="black" points="1387.5,-103.79 1391,-113.79 1394.5,-103.79 1387.5,-103.79"/>
</g>
<!-- MultiTdComponent -->
<g id="node8" class="node">
<title>MultiTdComponent</title>
<polygon fill="#ffffb3" stroke="black" points="1305,-84.8 1177,-84.8 1177,-48.8 1305,-48.8 1305,-84.8"/>
<text text-anchor="middle" x="1241" y="-62.6" font-family="Times,serif" font-size="14.00">MultiTdComponent</text>
</g>
<!-- MultiTdComponent&#45;&gt;SharedModule -->
<g id="edge8" class="edge">
<title>MultiTdComponent&#45;&gt;SharedModule</title>
<path fill="none" stroke="black" d="M1261.1,-84.85C1261.1,-99.17 1261.1,-116.8 1261.1,-116.8 1261.1,-116.8 1331.52,-116.8 1331.52,-116.8"/>
<polygon fill="black" stroke="black" points="1331.52,-120.3 1341.52,-116.8 1331.52,-113.3 1331.52,-120.3"/>
</g>
<!-- PbuttonSendingComponent -->
<g id="node9" class="node">
<title>PbuttonSendingComponent</title>
<polygon fill="#ffffb3" stroke="black" points="1159.29,-84.8 988.71,-84.8 988.71,-48.8 1159.29,-48.8 1159.29,-84.8"/>
<text text-anchor="middle" x="1074" y="-62.6" font-family="Times,serif" font-size="14.00">PbuttonSendingComponent</text>
</g>
<!-- PbuttonSendingComponent&#45;&gt;SharedModule -->
<g id="edge9" class="edge">
<title>PbuttonSendingComponent&#45;&gt;SharedModule</title>
<path fill="none" stroke="black" d="M1144.12,-85.04C1144.12,-100.37 1144.12,-119.8 1144.12,-119.8 1144.12,-119.8 1331.63,-119.8 1331.63,-119.8"/>
<polygon fill="black" stroke="black" points="1331.63,-123.3 1341.63,-119.8 1331.63,-116.3 1331.63,-123.3"/>
</g>
<!-- PdropdownComponent -->
<g id="node10" class="node">
<title>PdropdownComponent</title>
<polygon fill="#ffffb3" stroke="black" points="970.89,-84.8 825.11,-84.8 825.11,-48.8 970.89,-48.8 970.89,-84.8"/>
<text text-anchor="middle" x="898" y="-62.6" font-family="Times,serif" font-size="14.00">PdropdownComponent</text>
</g>
<!-- PdropdownComponent&#45;&gt;SharedModule -->
<g id="edge10" class="edge">
<title>PdropdownComponent&#45;&gt;SharedModule</title>
<path fill="none" stroke="black" d="M966.12,-84.83C966.12,-101.2 966.12,-122.8 966.12,-122.8 966.12,-122.8 1331.43,-122.8 1331.43,-122.8"/>
<polygon fill="black" stroke="black" points="1331.43,-126.3 1341.43,-122.8 1331.43,-119.3 1331.43,-126.3"/>
</g>
<!-- ViewConfirmacionComponent -->
<g id="node11" class="node">
<title>ViewConfirmacionComponent</title>
<polygon fill="#ffffb3" stroke="black" points="806.91,-84.8 617.09,-84.8 617.09,-48.8 806.91,-48.8 806.91,-84.8"/>
<text text-anchor="middle" x="712" y="-62.6" font-family="Times,serif" font-size="14.00">ViewConfirmacionComponent</text>
</g>
<!-- ViewConfirmacionComponent&#45;&gt;SharedModule -->
<g id="edge11" class="edge">
<title>ViewConfirmacionComponent&#45;&gt;SharedModule</title>
<path fill="none" stroke="black" d="M681.93,-84.82C681.93,-102.17 681.93,-125.8 681.93,-125.8 681.93,-125.8 1331.7,-125.8 1331.7,-125.8"/>
<polygon fill="black" stroke="black" points="1331.7,-129.3 1341.7,-125.8 1331.7,-122.3 1331.7,-129.3"/>
</g>
<!-- ViewServiceTableComponent -->
<g id="node12" class="node">
<title>ViewServiceTableComponent</title>
<polygon fill="#ffffb3" stroke="black" points="599.5,-84.8 414.5,-84.8 414.5,-48.8 599.5,-48.8 599.5,-84.8"/>
<text text-anchor="middle" x="507" y="-62.6" font-family="Times,serif" font-size="14.00">ViewServiceTableComponent</text>
</g>
<!-- ViewServiceTableComponent&#45;&gt;SharedModule -->
<g id="edge12" class="edge">
<title>ViewServiceTableComponent&#45;&gt;SharedModule</title>
<path fill="none" stroke="black" d="M537.92,-85.1C537.92,-103.07 537.92,-127.8 537.92,-127.8 537.92,-127.8 1331.76,-127.8 1331.76,-127.8"/>
<polygon fill="black" stroke="black" points="1331.76,-131.3 1341.76,-127.8 1331.76,-124.3 1331.76,-131.3"/>
</g>
<!-- ViewTableServicesComponent -->
<g id="node13" class="node">
<title>ViewTableServicesComponent</title>
<polygon fill="#ffffb3" stroke="black" points="396.45,-84.8 205.55,-84.8 205.55,-48.8 396.45,-48.8 396.45,-84.8"/>
<text text-anchor="middle" x="301" y="-62.6" font-family="Times,serif" font-size="14.00">ViewTableServicesComponent</text>
</g>
<!-- ViewTableServicesComponent&#45;&gt;SharedModule -->
<g id="edge13" class="edge">
<title>ViewTableServicesComponent&#45;&gt;SharedModule</title>
<path fill="none" stroke="black" d="M301,-84.97C301,-103.89 301,-130.8 301,-130.8 301,-130.8 1331.69,-130.8 1331.69,-130.8"/>
<polygon fill="black" stroke="black" points="1331.69,-134.3 1341.69,-130.8 1331.69,-127.3 1331.69,-134.3"/>
</g>
<!-- ViewUOTableComponent -->
<g id="node14" class="node">
<title>ViewUOTableComponent</title>
<polygon fill="#ffffb3" stroke="black" points="187.75,-84.8 24.25,-84.8 24.25,-48.8 187.75,-48.8 187.75,-84.8"/>
<text text-anchor="middle" x="106" y="-62.6" font-family="Times,serif" font-size="14.00">ViewUOTableComponent</text>
</g>
<!-- ViewUOTableComponent&#45;&gt;SharedModule -->
<g id="edge14" class="edge">
<title>ViewUOTableComponent&#45;&gt;SharedModule</title>
<path fill="none" stroke="black" d="M106,-85.11C106,-104.95 106,-133.8 106,-133.8 106,-133.8 1331.41,-133.8 1331.41,-133.8"/>
<polygon fill="black" stroke="black" points="1331.41,-137.3 1341.41,-133.8 1331.41,-130.3 1331.41,-137.3"/>
</g>
<!-- ColorPrecargadoDirective  -->
<g id="node17" class="node">
<title>ColorPrecargadoDirective </title>
<polygon fill="#fb8072" stroke="black" points="2438.44,-214.8 2271.56,-214.8 2271.56,-178.8 2438.44,-178.8 2438.44,-214.8"/>
<text text-anchor="middle" x="2355" y="-192.6" font-family="Times,serif" font-size="14.00">ColorPrecargadoDirective </text>
</g>
<!-- SharedModule&#45;&gt;ColorPrecargadoDirective  -->
<g id="edge16" class="edge">
<title>SharedModule&#45;&gt;ColorPrecargadoDirective </title>
<path fill="none" stroke="black" stroke-dasharray="5,2" d="M1440.24,-136.8C1635.41,-136.8 2344.12,-136.8 2344.12,-136.8 2344.12,-136.8 2344.12,-168.8 2344.12,-168.8"/>
<polygon fill="black" stroke="black" points="2340.63,-168.8 2344.12,-178.8 2347.63,-168.8 2340.63,-168.8"/>
</g>
<!-- ContentLayoutComponent  -->
<g id="node18" class="node">
<title>ContentLayoutComponent </title>
<polygon fill="#fb8072" stroke="black" points="2253.32,-214.8 2084.68,-214.8 2084.68,-178.8 2253.32,-178.8 2253.32,-214.8"/>
<text text-anchor="middle" x="2169" y="-192.6" font-family="Times,serif" font-size="14.00">ContentLayoutComponent </text>
</g>
<!-- SharedModule&#45;&gt;ContentLayoutComponent  -->
<g id="edge17" class="edge">
<title>SharedModule&#45;&gt;ContentLayoutComponent </title>
<path fill="none" stroke="black" stroke-dasharray="5,2" d="M1440.28,-138.8C1610.04,-138.8 2160.12,-138.8 2160.12,-138.8 2160.12,-138.8 2160.12,-168.77 2160.12,-168.77"/>
<polygon fill="black" stroke="black" points="2156.63,-168.77 2160.12,-178.77 2163.63,-168.77 2156.63,-168.77"/>
</g>
<!-- FormAgregarServiciosComponent  -->
<g id="node19" class="node">
<title>FormAgregarServiciosComponent </title>
<polygon fill="#fb8072" stroke="black" points="2066.63,-214.8 1853.37,-214.8 1853.37,-178.8 2066.63,-178.8 2066.63,-214.8"/>
<text text-anchor="middle" x="1960" y="-192.6" font-family="Times,serif" font-size="14.00">FormAgregarServiciosComponent </text>
</g>
<!-- SharedModule&#45;&gt;FormAgregarServiciosComponent  -->
<g id="edge18" class="edge">
<title>SharedModule&#45;&gt;FormAgregarServiciosComponent </title>
<path fill="none" stroke="black" stroke-dasharray="5,2" d="M1440.39,-141.8C1577.56,-141.8 1953.12,-141.8 1953.12,-141.8 1953.12,-141.8 1953.12,-168.79 1953.12,-168.79"/>
<polygon fill="black" stroke="black" points="1949.63,-168.79 1953.12,-178.79 1956.63,-168.79 1949.63,-168.79"/>
</g>
<!-- FormTableServicesComponent  -->
<g id="node20" class="node">
<title>FormTableServicesComponent </title>
<polygon fill="#fb8072" stroke="black" points="1835.47,-214.8 1640.53,-214.8 1640.53,-178.8 1835.47,-178.8 1835.47,-214.8"/>
<text text-anchor="middle" x="1738" y="-192.6" font-family="Times,serif" font-size="14.00">FormTableServicesComponent </text>
</g>
<!-- SharedModule&#45;&gt;FormTableServicesComponent  -->
<g id="edge19" class="edge">
<title>SharedModule&#45;&gt;FormTableServicesComponent </title>
<path fill="none" stroke="black" stroke-dasharray="5,2" d="M1440.33,-144.8C1528.12,-144.8 1702.34,-144.8 1702.34,-144.8 1702.34,-144.8 1702.34,-168.61 1702.34,-168.61"/>
<polygon fill="black" stroke="black" points="1698.84,-168.61 1702.34,-178.61 1705.84,-168.61 1698.84,-168.61"/>
</g>
<!-- InputAlertComponent  -->
<g id="node21" class="node">
<title>InputAlertComponent </title>
<polygon fill="#fb8072" stroke="black" points="1622.65,-214.8 1479.35,-214.8 1479.35,-178.8 1622.65,-178.8 1622.65,-214.8"/>
<text text-anchor="middle" x="1551" y="-192.6" font-family="Times,serif" font-size="14.00">InputAlertComponent </text>
</g>
<!-- SharedModule&#45;&gt;InputAlertComponent  -->
<g id="edge20" class="edge">
<title>SharedModule&#45;&gt;InputAlertComponent </title>
<path fill="none" stroke="black" stroke-dasharray="5,2" d="M1440.22,-147.8C1478.53,-147.8 1525.23,-147.8 1525.23,-147.8 1525.23,-147.8 1525.23,-168.55 1525.23,-168.55"/>
<polygon fill="black" stroke="black" points="1521.73,-168.55 1525.23,-178.55 1528.73,-168.55 1521.73,-168.55"/>
</g>
<!-- InputTextComponent  -->
<g id="node22" class="node">
<title>InputTextComponent </title>
<polygon fill="#fb8072" stroke="black" points="1461.04,-214.8 1320.96,-214.8 1320.96,-178.8 1461.04,-178.8 1461.04,-214.8"/>
<text text-anchor="middle" x="1391" y="-192.6" font-family="Times,serif" font-size="14.00">InputTextComponent </text>
</g>
<!-- SharedModule&#45;&gt;InputTextComponent  -->
<g id="edge21" class="edge">
<title>SharedModule&#45;&gt;InputTextComponent </title>
<path fill="none" stroke="black" stroke-dasharray="5,2" d="M1391,-149.91C1391,-149.91 1391,-168.79 1391,-168.79"/>
<polygon fill="black" stroke="black" points="1387.5,-168.79 1391,-178.79 1394.5,-168.79 1387.5,-168.79"/>
</g>
<!-- PbuttonSendingComponent  -->
<g id="node23" class="node">
<title>PbuttonSendingComponent </title>
<polygon fill="#fb8072" stroke="black" points="1303.29,-214.8 1128.71,-214.8 1128.71,-178.8 1303.29,-178.8 1303.29,-214.8"/>
<text text-anchor="middle" x="1216" y="-192.6" font-family="Times,serif" font-size="14.00">PbuttonSendingComponent </text>
</g>
<!-- SharedModule&#45;&gt;PbuttonSendingComponent  -->
<g id="edge22" class="edge">
<title>SharedModule&#45;&gt;PbuttonSendingComponent </title>
<path fill="none" stroke="black" stroke-dasharray="5,2" d="M1341.73,-147.8C1290.91,-147.8 1219.05,-147.8 1219.05,-147.8 1219.05,-147.8 1219.05,-168.55 1219.05,-168.55"/>
<polygon fill="black" stroke="black" points="1215.55,-168.55 1219.05,-178.55 1222.55,-168.55 1215.55,-168.55"/>
</g>
<!-- PdropdownComponent  -->
<g id="node24" class="node">
<title>PdropdownComponent </title>
<polygon fill="#fb8072" stroke="black" points="1110.89,-214.8 961.11,-214.8 961.11,-178.8 1110.89,-178.8 1110.89,-214.8"/>
<text text-anchor="middle" x="1036" y="-192.6" font-family="Times,serif" font-size="14.00">PdropdownComponent </text>
</g>
<!-- SharedModule&#45;&gt;PdropdownComponent  -->
<g id="edge23" class="edge">
<title>SharedModule&#45;&gt;PdropdownComponent </title>
<path fill="none" stroke="black" stroke-dasharray="5,2" d="M1341.73,-144.8C1247.2,-144.8 1049.65,-144.8 1049.65,-144.8 1049.65,-144.8 1049.65,-168.61 1049.65,-168.61"/>
<polygon fill="black" stroke="black" points="1046.15,-168.61 1049.65,-178.61 1053.15,-168.61 1046.15,-168.61"/>
</g>
<!-- PrimeNgModule  -->
<g id="node25" class="node">
<title>PrimeNgModule </title>
<polygon fill="#fb8072" stroke="black" points="943.6,-214.8 830.4,-214.8 830.4,-178.8 943.6,-178.8 943.6,-214.8"/>
<text text-anchor="middle" x="887" y="-192.6" font-family="Times,serif" font-size="14.00">PrimeNgModule </text>
</g>
<!-- SharedModule&#45;&gt;PrimeNgModule  -->
<g id="edge24" class="edge">
<title>SharedModule&#45;&gt;PrimeNgModule </title>
<path fill="none" stroke="black" stroke-dasharray="5,2" d="M1341.76,-141.8C1214.94,-141.8 887,-141.8 887,-141.8 887,-141.8 887,-168.79 887,-168.79"/>
<polygon fill="black" stroke="black" points="883.5,-168.79 887,-178.79 890.5,-168.79 883.5,-168.79"/>
</g>
<!-- ViewConfirmacionComponent  -->
<g id="node26" class="node">
<title>ViewConfirmacionComponent </title>
<polygon fill="#fb8072" stroke="black" points="812.41,-214.8 619.59,-214.8 619.59,-178.8 812.41,-178.8 812.41,-214.8"/>
<text text-anchor="middle" x="716" y="-192.6" font-family="Times,serif" font-size="14.00">ViewConfirmacionComponent </text>
</g>
<!-- SharedModule&#45;&gt;ViewConfirmacionComponent  -->
<g id="edge25" class="edge">
<title>SharedModule&#45;&gt;ViewConfirmacionComponent </title>
<path fill="none" stroke="black" stroke-dasharray="5,2" d="M1341.6,-138.8C1190.43,-138.8 744.32,-138.8 744.32,-138.8 744.32,-138.8 744.32,-168.77 744.32,-168.77"/>
<polygon fill="black" stroke="black" points="740.82,-168.77 744.32,-178.77 747.82,-168.77 740.82,-168.77"/>
</g>
<!-- ViewTableServicesComponent  -->
<g id="node27" class="node">
<title>ViewTableServicesComponent </title>
<polygon fill="#fb8072" stroke="black" points="601.45,-214.8 406.55,-214.8 406.55,-178.8 601.45,-178.8 601.45,-214.8"/>
<text text-anchor="middle" x="504" y="-192.6" font-family="Times,serif" font-size="14.00">ViewTableServicesComponent </text>
</g>
<!-- SharedModule&#45;&gt;ViewTableServicesComponent  -->
<g id="edge26" class="edge">
<title>SharedModule&#45;&gt;ViewTableServicesComponent </title>
<path fill="none" stroke="black" stroke-dasharray="5,2" d="M1341.49,-136.8C1151,-136.8 476.08,-136.8 476.08,-136.8 476.08,-136.8 476.08,-168.8 476.08,-168.8"/>
<polygon fill="black" stroke="black" points="472.58,-168.8 476.08,-178.8 479.58,-168.8 472.58,-168.8"/>
</g>
<!-- PrimeNgModule -->
<g id="node16" class="node">
<title>PrimeNgModule</title>
<polygon fill="#8dd3c7" stroke="black" points="2693.1,-84.8 2690.1,-88.8 2669.1,-88.8 2666.1,-84.8 2582.9,-84.8 2582.9,-48.8 2693.1,-48.8 2693.1,-84.8"/>
<text text-anchor="middle" x="2638" y="-62.6" font-family="Times,serif" font-size="14.00">PrimeNgModule</text>
</g>
<!-- PrimeNgModule&#45;&gt;SharedModule -->
<g id="edge15" class="edge">
<title>PrimeNgModule&#45;&gt;SharedModule</title>
<path fill="none" stroke="black" d="M2638,-85.11C2638,-104.95 2638,-133.8 2638,-133.8 2638,-133.8 1450.27,-133.8 1450.27,-133.8"/>
<polygon fill="black" stroke="black" points="1450.27,-130.3 1440.27,-133.8 1450.27,-137.3 1450.27,-130.3"/>
</g>
</g>
</svg>
