<?xml version="1.0" encoding="UTF-8" standalone="no"?>
<!DOCTYPE svg PUBLIC "-//W3C//DTD SVG 1.1//EN"
 "http://www.w3.org/Graphics/SVG/1.1/DTD/svg11.dtd">
<!-- Generated by graphviz version 5.0.0 (20220707.1540)
 -->
<!-- Title: dependencies Pages: 1 -->
<svg width="3087pt" height="247pt"
 viewBox="0.00 0.00 3087.00 246.80" xmlns="http://www.w3.org/2000/svg" xmlns:xlink="http://www.w3.org/1999/xlink">
<g id="graph0" class="graph" transform="scale(1 1) rotate(0) translate(4 242.8)">
<title>dependencies</title>
<polygon fill="white" stroke="transparent" points="-4,4 -4,-242.8 3083,-242.8 3083,4 -4,4"/>
<text text-anchor="middle" x="1539.5" y="-8.2" font-family="sans-serif" font-size="14.00">dependencies</text>
<g id="clust1" class="cluster">
<title>cluster_SharedModule</title>
<polygon fill="none" stroke="black" stroke-dasharray="1,5" points="8,-32.8 8,-230.8 3071,-230.8 3071,-32.8 8,-32.8"/>
</g>
<g id="clust20" class="cluster">
<title>cluster_SharedModule_exports</title>
<polygon fill="none" stroke="black" points="418,-170.8 418,-222.8 2833,-222.8 2833,-170.8 418,-170.8"/>
</g>
<g id="clust19" class="cluster">
<title>cluster_SharedModule_imports</title>
<polygon fill="none" stroke="black" points="2937,-40.8 2937,-92.8 3063,-92.8 3063,-40.8 2937,-40.8"/>
</g>
<g id="clust2" class="cluster">
<title>cluster_SharedModule_declarations</title>
<polygon fill="none" stroke="black" points="16,-40.8 16,-92.8 2929,-92.8 2929,-40.8 16,-40.8"/>
</g>
<!-- BaseTdComponent -->
<g id="node1" class="node">
<title>BaseTdComponent</title>
<polygon fill="#ffffb3" stroke="black" points="2921.1,-84.8 2796.9,-84.8 2796.9,-48.8 2921.1,-48.8 2921.1,-84.8"/>
<text text-anchor="middle" x="2859" y="-62.6" font-family="Times,serif" font-size="14.00">BaseTdComponent</text>
</g>
<!-- SharedModule -->
<g id="node17" class="node">
<title>SharedModule</title>
<polygon fill="#8dd3c7" stroke="black" points="1652.43,-149.8 1649.43,-153.8 1628.43,-153.8 1625.43,-149.8 1553.57,-149.8 1553.57,-113.8 1652.43,-113.8 1652.43,-149.8"/>
<text text-anchor="middle" x="1603" y="-127.6" font-family="Times,serif" font-size="14.00">SharedModule</text>
</g>
<!-- BaseTdComponent&#45;&gt;SharedModule -->
<g id="edge1" class="edge">
<title>BaseTdComponent&#45;&gt;SharedModule</title>
<path fill="none" stroke="black" d="M2811.09,-84.97C2811.09,-103.89 2811.09,-130.8 2811.09,-130.8 2811.09,-130.8 1662.23,-130.8 1662.23,-130.8"/>
<polygon fill="black" stroke="black" points="1662.23,-127.3 1652.23,-130.8 1662.23,-134.3 1662.23,-127.3"/>
</g>
<!-- ColorPrecargadoDirective -->
<g id="node2" class="node">
<title>ColorPrecargadoDirective</title>
<polygon fill="#ffffb3" stroke="black" points="2778.44,-84.8 2615.56,-84.8 2615.56,-48.8 2778.44,-48.8 2778.44,-84.8"/>
<text text-anchor="middle" x="2697" y="-62.6" font-family="Times,serif" font-size="14.00">ColorPrecargadoDirective</text>
</g>
<!-- ColorPrecargadoDirective&#45;&gt;SharedModule -->
<g id="edge2" class="edge">
<title>ColorPrecargadoDirective&#45;&gt;SharedModule</title>
<path fill="none" stroke="black" d="M2627.97,-85.07C2627.97,-103.36 2627.97,-128.8 2627.97,-128.8 2627.97,-128.8 1662.44,-128.8 1662.44,-128.8"/>
<polygon fill="black" stroke="black" points="1662.44,-125.3 1652.44,-128.8 1662.44,-132.3 1662.44,-125.3"/>
</g>
<!-- ContentLayoutComponent -->
<g id="node3" class="node">
<title>ContentLayoutComponent</title>
<polygon fill="#ffffb3" stroke="black" points="2597.82,-84.8 2432.18,-84.8 2432.18,-48.8 2597.82,-48.8 2597.82,-84.8"/>
<text text-anchor="middle" x="2515" y="-62.6" font-family="Times,serif" font-size="14.00">ContentLayoutComponent</text>
</g>
<!-- ContentLayoutComponent&#45;&gt;SharedModule -->
<g id="edge3" class="edge">
<title>ContentLayoutComponent&#45;&gt;SharedModule</title>
<path fill="none" stroke="black" d="M2442.95,-84.82C2442.95,-102.17 2442.95,-125.8 2442.95,-125.8 2442.95,-125.8 1662.41,-125.8 1662.41,-125.8"/>
<polygon fill="black" stroke="black" points="1662.41,-122.3 1652.41,-125.8 1662.41,-129.3 1662.41,-122.3"/>
</g>
<!-- FormAgregarServiciosComponent -->
<g id="node4" class="node">
<title>FormAgregarServiciosComponent</title>
<polygon fill="#ffffb3" stroke="black" points="2414.64,-84.8 2205.36,-84.8 2205.36,-48.8 2414.64,-48.8 2414.64,-84.8"/>
<text text-anchor="middle" x="2310" y="-62.6" font-family="Times,serif" font-size="14.00">FormAgregarServiciosComponent</text>
</g>
<!-- FormAgregarServiciosComponent&#45;&gt;SharedModule -->
<g id="edge4" class="edge">
<title>FormAgregarServiciosComponent&#45;&gt;SharedModule</title>
<path fill="none" stroke="black" d="M2213.71,-84.84C2213.71,-101.53 2213.71,-123.8 2213.71,-123.8 2213.71,-123.8 1662.46,-123.8 1662.46,-123.8"/>
<polygon fill="black" stroke="black" points="1662.46,-120.3 1652.46,-123.8 1662.46,-127.3 1662.46,-120.3"/>
</g>
<!-- FormTableServicesComponent -->
<g id="node5" class="node">
<title>FormTableServicesComponent</title>
<polygon fill="#ffffb3" stroke="black" points="2187.47,-84.8 1996.53,-84.8 1996.53,-48.8 2187.47,-48.8 2187.47,-84.8"/>
<text text-anchor="middle" x="2092" y="-62.6" font-family="Times,serif" font-size="14.00">FormTableServicesComponent</text>
</g>
<!-- FormTableServicesComponent&#45;&gt;SharedModule -->
<g id="edge5" class="edge">
<title>FormTableServicesComponent&#45;&gt;SharedModule</title>
<path fill="none" stroke="black" d="M2003.05,-84.81C2003.05,-100.85 2003.05,-121.8 2003.05,-121.8 2003.05,-121.8 1662.45,-121.8 1662.45,-121.8"/>
<polygon fill="black" stroke="black" points="1662.45,-118.3 1652.45,-121.8 1662.45,-125.3 1662.45,-118.3"/>
</g>
<!-- InputAlertComponent -->
<g id="node6" class="node">
<title>InputAlertComponent</title>
<polygon fill="#ffffb3" stroke="black" points="1978.65,-84.8 1839.35,-84.8 1839.35,-48.8 1978.65,-48.8 1978.65,-84.8"/>
<text text-anchor="middle" x="1909" y="-62.6" font-family="Times,serif" font-size="14.00">InputAlertComponent</text>
</g>
<!-- InputAlertComponent&#45;&gt;SharedModule -->
<g id="edge6" class="edge">
<title>InputAlertComponent&#45;&gt;SharedModule</title>
<path fill="none" stroke="black" d="M1843.6,-84.99C1843.6,-99.98 1843.6,-118.8 1843.6,-118.8 1843.6,-118.8 1662.27,-118.8 1662.27,-118.8"/>
<polygon fill="black" stroke="black" points="1662.27,-115.3 1652.27,-118.8 1662.27,-122.3 1662.27,-115.3"/>
</g>
<!-- InputTextComponent -->
<g id="node7" class="node">
<title>InputTextComponent</title>
<polygon fill="#ffffb3" stroke="black" points="1821.04,-84.8 1684.96,-84.8 1684.96,-48.8 1821.04,-48.8 1821.04,-84.8"/>
<text text-anchor="middle" x="1753" y="-62.6" font-family="Times,serif" font-size="14.00">InputTextComponent</text>
</g>
<!-- InputTextComponent&#45;&gt;SharedModule -->
<g id="edge7" class="edge">
<title>InputTextComponent&#45;&gt;SharedModule</title>
<path fill="none" stroke="black" d="M1699.06,-84.85C1699.06,-99.17 1699.06,-116.8 1699.06,-116.8 1699.06,-116.8 1662.44,-116.8 1662.44,-116.8"/>
<polygon fill="black" stroke="black" points="1662.44,-113.3 1652.44,-116.8 1662.44,-120.3 1662.44,-113.3"/>
</g>
<!-- MultiTdComponent -->
<g id="node8" class="node">
<title>MultiTdComponent</title>
<polygon fill="#ffffb3" stroke="black" points="1667,-84.8 1539,-84.8 1539,-48.8 1667,-48.8 1667,-84.8"/>
<text text-anchor="middle" x="1603" y="-62.6" font-family="Times,serif" font-size="14.00">MultiTdComponent</text>
</g>
<!-- MultiTdComponent&#45;&gt;SharedModule -->
<g id="edge8" class="edge">
<title>MultiTdComponent&#45;&gt;SharedModule</title>
<path fill="none" stroke="black" d="M1603,-84.91C1603,-84.91 1603,-103.79 1603,-103.79"/>
<polygon fill="black" stroke="black" points="1599.5,-103.79 1603,-113.79 1606.5,-103.79 1599.5,-103.79"/>
</g>
<!-- PbuttonSendingComponent -->
<g id="node9" class="node">
<title>PbuttonSendingComponent</title>
<polygon fill="#ffffb3" stroke="black" points="1521.29,-84.8 1350.71,-84.8 1350.71,-48.8 1521.29,-48.8 1521.29,-84.8"/>
<text text-anchor="middle" x="1436" y="-62.6" font-family="Times,serif" font-size="14.00">PbuttonSendingComponent</text>
</g>
<!-- PbuttonSendingComponent&#45;&gt;SharedModule -->
<g id="edge9" class="edge">
<title>PbuttonSendingComponent&#45;&gt;SharedModule</title>
<path fill="none" stroke="black" d="M1506.78,-84.85C1506.78,-99.17 1506.78,-116.8 1506.78,-116.8 1506.78,-116.8 1543.76,-116.8 1543.76,-116.8"/>
<polygon fill="black" stroke="black" points="1543.76,-120.3 1553.76,-116.8 1543.76,-113.3 1543.76,-120.3"/>
</g>
<!-- PdropdownComponent -->
<g id="node10" class="node">
<title>PdropdownComponent</title>
<polygon fill="#ffffb3" stroke="black" points="1332.89,-84.8 1187.11,-84.8 1187.11,-48.8 1332.89,-48.8 1332.89,-84.8"/>
<text text-anchor="middle" x="1260" y="-62.6" font-family="Times,serif" font-size="14.00">PdropdownComponent</text>
</g>
<!-- PdropdownComponent&#45;&gt;SharedModule -->
<g id="edge10" class="edge">
<title>PdropdownComponent&#45;&gt;SharedModule</title>
<path fill="none" stroke="black" d="M1255.07,-84.99C1255.07,-99.98 1255.07,-118.8 1255.07,-118.8 1255.07,-118.8 1543.52,-118.8 1543.52,-118.8"/>
<polygon fill="black" stroke="black" points="1543.52,-122.3 1553.52,-118.8 1543.52,-115.3 1543.52,-122.3"/>
</g>
<!-- TableServiciosComponent -->
<g id="node11" class="node">
<title>TableServiciosComponent</title>
<polygon fill="#ffffb3" stroke="black" points="1168.8,-84.8 1003.2,-84.8 1003.2,-48.8 1168.8,-48.8 1168.8,-84.8"/>
<text text-anchor="middle" x="1086" y="-62.6" font-family="Times,serif" font-size="14.00">TableServiciosComponent</text>
</g>
<!-- TableServiciosComponent&#45;&gt;SharedModule -->
<g id="edge11" class="edge">
<title>TableServiciosComponent&#45;&gt;SharedModule</title>
<path fill="none" stroke="black" d="M1099.62,-84.81C1099.62,-100.85 1099.62,-121.8 1099.62,-121.8 1099.62,-121.8 1543.36,-121.8 1543.36,-121.8"/>
<polygon fill="black" stroke="black" points="1543.36,-125.3 1553.36,-121.8 1543.36,-118.3 1543.36,-125.3"/>
</g>
<!-- ViewConfirmacionComponent -->
<g id="node12" class="node">
<title>ViewConfirmacionComponent</title>
<polygon fill="#ffffb3" stroke="black" points="985.91,-84.8 796.09,-84.8 796.09,-48.8 985.91,-48.8 985.91,-84.8"/>
<text text-anchor="middle" x="891" y="-62.6" font-family="Times,serif" font-size="14.00">ViewConfirmacionComponent</text>
</g>
<!-- ViewConfirmacionComponent&#45;&gt;SharedModule -->
<g id="edge12" class="edge">
<title>ViewConfirmacionComponent&#45;&gt;SharedModule</title>
<path fill="none" stroke="black" d="M902.62,-84.84C902.62,-101.53 902.62,-123.8 902.62,-123.8 902.62,-123.8 1543.75,-123.8 1543.75,-123.8"/>
<polygon fill="black" stroke="black" points="1543.75,-127.3 1553.75,-123.8 1543.75,-120.3 1543.75,-127.3"/>
</g>
<!-- ViewRechazoComponent -->
<g id="node13" class="node">
<title>ViewRechazoComponent</title>
<polygon fill="#ffffb3" stroke="black" points="777.85,-84.8 618.15,-84.8 618.15,-48.8 777.85,-48.8 777.85,-84.8"/>
<text text-anchor="middle" x="698" y="-62.6" font-family="Times,serif" font-size="14.00">ViewRechazoComponent</text>
</g>
<!-- ViewRechazoComponent&#45;&gt;SharedModule -->
<g id="edge13" class="edge">
<title>ViewRechazoComponent&#45;&gt;SharedModule</title>
<path fill="none" stroke="black" d="M708.12,-84.82C708.12,-102.17 708.12,-125.8 708.12,-125.8 708.12,-125.8 1543.61,-125.8 1543.61,-125.8"/>
<polygon fill="black" stroke="black" points="1543.61,-129.3 1553.61,-125.8 1543.61,-122.3 1543.61,-129.3"/>
</g>
<!-- ViewServiceTableComponent -->
<g id="node14" class="node">
<title>ViewServiceTableComponent</title>
<polygon fill="#ffffb3" stroke="black" points="599.5,-84.8 414.5,-84.8 414.5,-48.8 599.5,-48.8 599.5,-84.8"/>
<text text-anchor="middle" x="507" y="-62.6" font-family="Times,serif" font-size="14.00">ViewServiceTableComponent</text>
</g>
<!-- ViewServiceTableComponent&#45;&gt;SharedModule -->
<g id="edge14" class="edge">
<title>ViewServiceTableComponent&#45;&gt;SharedModule</title>
<path fill="none" stroke="black" d="M512.76,-85.07C512.76,-103.36 512.76,-128.8 512.76,-128.8 512.76,-128.8 1543.68,-128.8 1543.68,-128.8"/>
<polygon fill="black" stroke="black" points="1543.68,-132.3 1553.68,-128.8 1543.68,-125.3 1543.68,-132.3"/>
</g>
<!-- ViewTableServicesComponent -->
<g id="node15" class="node">
<title>ViewTableServicesComponent</title>
<polygon fill="#ffffb3" stroke="black" points="396.45,-84.8 205.55,-84.8 205.55,-48.8 396.45,-48.8 396.45,-84.8"/>
<text text-anchor="middle" x="301" y="-62.6" font-family="Times,serif" font-size="14.00">ViewTableServicesComponent</text>
</g>
<!-- ViewTableServicesComponent&#45;&gt;SharedModule -->
<g id="edge15" class="edge">
<title>ViewTableServicesComponent&#45;&gt;SharedModule</title>
<path fill="none" stroke="black" d="M301,-84.97C301,-103.89 301,-130.8 301,-130.8 301,-130.8 1543.55,-130.8 1543.55,-130.8"/>
<polygon fill="black" stroke="black" points="1543.55,-134.3 1553.55,-130.8 1543.55,-127.3 1543.55,-134.3"/>
</g>
<!-- ViewUOTableComponent -->
<g id="node16" class="node">
<title>ViewUOTableComponent</title>
<polygon fill="#ffffb3" stroke="black" points="187.75,-84.8 24.25,-84.8 24.25,-48.8 187.75,-48.8 187.75,-84.8"/>
<text text-anchor="middle" x="106" y="-62.6" font-family="Times,serif" font-size="14.00">ViewUOTableComponent</text>
</g>
<!-- ViewUOTableComponent&#45;&gt;SharedModule -->
<g id="edge16" class="edge">
<title>ViewUOTableComponent&#45;&gt;SharedModule</title>
<path fill="none" stroke="black" d="M106,-85.11C106,-104.95 106,-133.8 106,-133.8 106,-133.8 1543.62,-133.8 1543.62,-133.8"/>
<polygon fill="black" stroke="black" points="1543.62,-137.3 1553.62,-133.8 1543.62,-130.3 1543.62,-137.3"/>
</g>
<!-- ColorPrecargadoDirective  -->
<g id="node19" class="node">
<title>ColorPrecargadoDirective </title>
<polygon fill="#fb8072" stroke="black" points="2825.44,-214.8 2658.56,-214.8 2658.56,-178.8 2825.44,-178.8 2825.44,-214.8"/>
<text text-anchor="middle" x="2742" y="-192.6" font-family="Times,serif" font-size="14.00">ColorPrecargadoDirective </text>
</g>
<!-- SharedModule&#45;&gt;ColorPrecargadoDirective  -->
<g id="edge18" class="edge">
<title>SharedModule&#45;&gt;ColorPrecargadoDirective </title>
<path fill="none" stroke="black" stroke-dasharray="5,2" d="M1652.38,-135.8C1868.28,-135.8 2718.62,-135.8 2718.62,-135.8 2718.62,-135.8 2718.62,-168.5 2718.62,-168.5"/>
<polygon fill="black" stroke="black" points="2715.13,-168.5 2718.62,-178.5 2722.13,-168.5 2715.13,-168.5"/>
</g>
<!-- ContentLayoutComponent  -->
<g id="node20" class="node">
<title>ContentLayoutComponent </title>
<polygon fill="#fb8072" stroke="black" points="2640.32,-214.8 2471.68,-214.8 2471.68,-178.8 2640.32,-178.8 2640.32,-214.8"/>
<text text-anchor="middle" x="2556" y="-192.6" font-family="Times,serif" font-size="14.00">ContentLayoutComponent </text>
</g>
<!-- SharedModule&#45;&gt;ContentLayoutComponent  -->
<g id="edge19" class="edge">
<title>SharedModule&#45;&gt;ContentLayoutComponent </title>
<path fill="none" stroke="black" stroke-dasharray="5,2" d="M1652.43,-137.8C1845.03,-137.8 2534.62,-137.8 2534.62,-137.8 2534.62,-137.8 2534.62,-168.78 2534.62,-168.78"/>
<polygon fill="black" stroke="black" points="2531.13,-168.78 2534.62,-178.78 2538.13,-168.78 2531.13,-168.78"/>
</g>
<!-- FormAgregarServiciosComponent  -->
<g id="node21" class="node">
<title>FormAgregarServiciosComponent </title>
<polygon fill="#fb8072" stroke="black" points="2453.63,-214.8 2240.37,-214.8 2240.37,-178.8 2453.63,-178.8 2453.63,-214.8"/>
<text text-anchor="middle" x="2347" y="-192.6" font-family="Times,serif" font-size="14.00">FormAgregarServiciosComponent </text>
</g>
<!-- SharedModule&#45;&gt;FormAgregarServiciosComponent  -->
<g id="edge20" class="edge">
<title>SharedModule&#45;&gt;FormAgregarServiciosComponent </title>
<path fill="none" stroke="black" stroke-dasharray="5,2" d="M1652.24,-140.8C1815.33,-140.8 2327.62,-140.8 2327.62,-140.8 2327.62,-140.8 2327.62,-168.77 2327.62,-168.77"/>
<polygon fill="black" stroke="black" points="2324.13,-168.77 2327.62,-178.77 2331.13,-168.77 2324.13,-168.77"/>
</g>
<!-- FormTableServicesComponent  -->
<g id="node22" class="node">
<title>FormTableServicesComponent </title>
<polygon fill="#fb8072" stroke="black" points="2222.47,-214.8 2027.53,-214.8 2027.53,-178.8 2222.47,-178.8 2222.47,-214.8"/>
<text text-anchor="middle" x="2125" y="-192.6" font-family="Times,serif" font-size="14.00">FormTableServicesComponent </text>
</g>
<!-- SharedModule&#45;&gt;FormTableServicesComponent  -->
<g id="edge21" class="edge">
<title>SharedModule&#45;&gt;FormTableServicesComponent </title>
<path fill="none" stroke="black" stroke-dasharray="5,2" d="M1652.3,-142.8C1779.28,-142.8 2107.62,-142.8 2107.62,-142.8 2107.62,-142.8 2107.62,-168.52 2107.62,-168.52"/>
<polygon fill="black" stroke="black" points="2104.13,-168.52 2107.62,-178.52 2111.13,-168.52 2104.13,-168.52"/>
</g>
<!-- InputAlertComponent  -->
<g id="node23" class="node">
<title>InputAlertComponent </title>
<polygon fill="#fb8072" stroke="black" points="2009.65,-214.8 1866.35,-214.8 1866.35,-178.8 2009.65,-178.8 2009.65,-214.8"/>
<text text-anchor="middle" x="1938" y="-192.6" font-family="Times,serif" font-size="14.00">InputAlertComponent </text>
</g>
<!-- SharedModule&#45;&gt;InputAlertComponent  -->
<g id="edge22" class="edge">
<title>SharedModule&#45;&gt;InputAlertComponent </title>
<path fill="none" stroke="black" stroke-dasharray="5,2" d="M1652.24,-145.8C1741.9,-145.8 1922.62,-145.8 1922.62,-145.8 1922.62,-145.8 1922.62,-168.68 1922.62,-168.68"/>
<polygon fill="black" stroke="black" points="1919.13,-168.68 1922.62,-178.68 1926.13,-168.68 1919.13,-168.68"/>
</g>
<!-- InputTextComponent  -->
<g id="node24" class="node">
<title>InputTextComponent </title>
<polygon fill="#fb8072" stroke="black" points="1848.04,-214.8 1707.96,-214.8 1707.96,-178.8 1848.04,-178.8 1848.04,-214.8"/>
<text text-anchor="middle" x="1778" y="-192.6" font-family="Times,serif" font-size="14.00">InputTextComponent </text>
</g>
<!-- SharedModule&#45;&gt;InputTextComponent  -->
<g id="edge23" class="edge">
<title>SharedModule&#45;&gt;InputTextComponent </title>
<path fill="none" stroke="black" stroke-dasharray="5,2" d="M1652.37,-147.8C1699.9,-147.8 1764.62,-147.8 1764.62,-147.8 1764.62,-147.8 1764.62,-168.55 1764.62,-168.55"/>
<polygon fill="black" stroke="black" points="1761.13,-168.55 1764.62,-178.55 1768.13,-168.55 1761.13,-168.55"/>
</g>
<!-- PbuttonSendingComponent  -->
<g id="node25" class="node">
<title>PbuttonSendingComponent </title>
<polygon fill="#fb8072" stroke="black" points="1690.29,-214.8 1515.71,-214.8 1515.71,-178.8 1690.29,-178.8 1690.29,-214.8"/>
<text text-anchor="middle" x="1603" y="-192.6" font-family="Times,serif" font-size="14.00">PbuttonSendingComponent </text>
</g>
<!-- SharedModule&#45;&gt;PbuttonSendingComponent  -->
<g id="edge24" class="edge">
<title>SharedModule&#45;&gt;PbuttonSendingComponent </title>
<path fill="none" stroke="black" stroke-dasharray="5,2" d="M1603,-149.91C1603,-149.91 1603,-168.79 1603,-168.79"/>
<polygon fill="black" stroke="black" points="1599.5,-168.79 1603,-178.79 1606.5,-168.79 1599.5,-168.79"/>
</g>
<!-- PdropdownComponent  -->
<g id="node26" class="node">
<title>PdropdownComponent </title>
<polygon fill="#fb8072" stroke="black" points="1497.89,-214.8 1348.11,-214.8 1348.11,-178.8 1497.89,-178.8 1497.89,-214.8"/>
<text text-anchor="middle" x="1423" y="-192.6" font-family="Times,serif" font-size="14.00">PdropdownComponent </text>
</g>
<!-- SharedModule&#45;&gt;PdropdownComponent  -->
<g id="edge25" class="edge">
<title>SharedModule&#45;&gt;PdropdownComponent </title>
<path fill="none" stroke="black" stroke-dasharray="5,2" d="M1553.66,-147.8C1500.72,-147.8 1424.15,-147.8 1424.15,-147.8 1424.15,-147.8 1424.15,-168.55 1424.15,-168.55"/>
<polygon fill="black" stroke="black" points="1420.65,-168.55 1424.15,-178.55 1427.65,-168.55 1420.65,-168.55"/>
</g>
<!-- PrimeNgModule  -->
<g id="node27" class="node">
<title>PrimeNgModule </title>
<polygon fill="#fb8072" stroke="black" points="1330.6,-214.8 1217.4,-214.8 1217.4,-178.8 1330.6,-178.8 1330.6,-214.8"/>
<text text-anchor="middle" x="1274" y="-192.6" font-family="Times,serif" font-size="14.00">PrimeNgModule </text>
</g>
<!-- SharedModule&#45;&gt;PrimeNgModule  -->
<g id="edge26" class="edge">
<title>SharedModule&#45;&gt;PrimeNgModule </title>
<path fill="none" stroke="black" stroke-dasharray="5,2" d="M1553.53,-145.8C1465.99,-145.8 1292.93,-145.8 1292.93,-145.8 1292.93,-145.8 1292.93,-168.68 1292.93,-168.68"/>
<polygon fill="black" stroke="black" points="1289.43,-168.68 1292.93,-178.68 1296.43,-168.68 1289.43,-168.68"/>
</g>
<!-- TableServiciosComponent  -->
<g id="node28" class="node">
<title>TableServiciosComponent </title>
<polygon fill="#fb8072" stroke="black" points="1199.3,-214.8 1030.7,-214.8 1030.7,-178.8 1199.3,-178.8 1199.3,-214.8"/>
<text text-anchor="middle" x="1115" y="-192.6" font-family="Times,serif" font-size="14.00">TableServiciosComponent </text>
</g>
<!-- SharedModule&#45;&gt;TableServiciosComponent  -->
<g id="edge27" class="edge">
<title>SharedModule&#45;&gt;TableServiciosComponent </title>
<path fill="none" stroke="black" stroke-dasharray="5,2" d="M1553.57,-142.8C1444.59,-142.8 1193.23,-142.8 1193.23,-142.8 1193.23,-142.8 1193.23,-168.52 1193.23,-168.52"/>
<polygon fill="black" stroke="black" points="1189.73,-168.52 1193.23,-178.52 1196.73,-168.52 1189.73,-168.52"/>
</g>
<!-- ViewConfirmacionComponent  -->
<g id="node29" class="node">
<title>ViewConfirmacionComponent </title>
<polygon fill="#fb8072" stroke="black" points="1012.41,-214.8 819.59,-214.8 819.59,-178.8 1012.41,-178.8 1012.41,-214.8"/>
<text text-anchor="middle" x="916" y="-192.6" font-family="Times,serif" font-size="14.00">ViewConfirmacionComponent </text>
</g>
<!-- SharedModule&#45;&gt;ViewConfirmacionComponent  -->
<g id="edge28" class="edge">
<title>SharedModule&#45;&gt;ViewConfirmacionComponent </title>
<path fill="none" stroke="black" stroke-dasharray="5,2" d="M1553.54,-140.8C1410.74,-140.8 1007.9,-140.8 1007.9,-140.8 1007.9,-140.8 1007.9,-168.77 1007.9,-168.77"/>
<polygon fill="black" stroke="black" points="1004.4,-168.77 1007.9,-178.77 1011.4,-168.77 1004.4,-168.77"/>
</g>
<!-- ViewRechazoComponent  -->
<g id="node30" class="node">
<title>ViewRechazoComponent </title>
<polygon fill="#fb8072" stroke="black" points="801.85,-214.8 638.15,-214.8 638.15,-178.8 801.85,-178.8 801.85,-214.8"/>
<text text-anchor="middle" x="720" y="-192.6" font-family="Times,serif" font-size="14.00">ViewRechazoComponent </text>
</g>
<!-- SharedModule&#45;&gt;ViewRechazoComponent  -->
<g id="edge29" class="edge">
<title>SharedModule&#45;&gt;ViewRechazoComponent </title>
<path fill="none" stroke="black" stroke-dasharray="5,2" d="M1553.5,-137.8C1376.73,-137.8 787.11,-137.8 787.11,-137.8 787.11,-137.8 787.11,-168.78 787.11,-168.78"/>
<polygon fill="black" stroke="black" points="783.61,-168.78 787.11,-178.78 790.61,-168.78 783.61,-168.78"/>
</g>
<!-- ViewTableServicesComponent  -->
<g id="node31" class="node">
<title>ViewTableServicesComponent </title>
<polygon fill="#fb8072" stroke="black" points="620.45,-214.8 425.55,-214.8 425.55,-178.8 620.45,-178.8 620.45,-214.8"/>
<text text-anchor="middle" x="523" y="-192.6" font-family="Times,serif" font-size="14.00">ViewTableServicesComponent </text>
</g>
<!-- SharedModule&#45;&gt;ViewTableServicesComponent  -->
<g id="edge30" class="edge">
<title>SharedModule&#45;&gt;ViewTableServicesComponent </title>
<path fill="none" stroke="black" stroke-dasharray="5,2" d="M1553.7,-135.8C1353.12,-135.8 608.91,-135.8 608.91,-135.8 608.91,-135.8 608.91,-168.5 608.91,-168.5"/>
<polygon fill="black" stroke="black" points="605.41,-168.5 608.91,-178.5 612.41,-168.5 605.41,-168.5"/>
</g>
<!-- PrimeNgModule -->
<g id="node18" class="node">
<title>PrimeNgModule</title>
<polygon fill="#8dd3c7" stroke="black" points="3055.1,-84.8 3052.1,-88.8 3031.1,-88.8 3028.1,-84.8 2944.9,-84.8 2944.9,-48.8 3055.1,-48.8 3055.1,-84.8"/>
<text text-anchor="middle" x="3000" y="-62.6" font-family="Times,serif" font-size="14.00">PrimeNgModule</text>
</g>
<!-- PrimeNgModule&#45;&gt;SharedModule -->
<g id="edge17" class="edge">
<title>PrimeNgModule&#45;&gt;SharedModule</title>
<path fill="none" stroke="black" d="M3000,-85.11C3000,-104.95 3000,-133.8 3000,-133.8 3000,-133.8 1662.31,-133.8 1662.31,-133.8"/>
<polygon fill="black" stroke="black" points="1662.31,-130.3 1652.31,-133.8 1662.31,-137.3 1662.31,-130.3"/>
</g>
</g>
</svg>
