<?xml version="1.0" encoding="UTF-8" standalone="no"?>
<!DOCTYPE svg PUBLIC "-//W3C//DTD SVG 1.1//EN"
 "http://www.w3.org/Graphics/SVG/1.1/DTD/svg11.dtd">
<!-- Generated by graphviz version 5.0.0 (20220707.1540)
 -->
<!-- Title: dependencies Pages: 1 -->
<svg width="1266pt" height="247pt"
 viewBox="0.00 0.00 1266.00 246.80" xmlns="http://www.w3.org/2000/svg" xmlns:xlink="http://www.w3.org/1999/xlink">
<g id="graph0" class="graph" transform="scale(1 1) rotate(0) translate(4 242.8)">
<title>dependencies</title>
<polygon fill="white" stroke="transparent" points="-4,4 -4,-242.8 1262,-242.8 1262,4 -4,4"/>
<text text-anchor="middle" x="629" y="-8.2" font-family="sans-serif" font-size="14.00">dependencies</text>
<g id="clust1" class="cluster">
<title>cluster_SharedModule</title>
<polygon fill="none" stroke="black" stroke-dasharray="1,5" points="8,-32.8 8,-230.8 1250,-230.8 1250,-32.8 8,-32.8"/>
</g>
<g id="clust2" class="cluster">
<title>cluster_SharedModule_declarations</title>
<polygon fill="none" stroke="black" points="156,-40.8 156,-92.8 1230,-92.8 1230,-40.8 156,-40.8"/>
</g>
<g id="clust10" class="cluster">
<title>cluster_SharedModule_exports</title>
<polygon fill="none" stroke="black" points="16,-170.8 16,-222.8 1242,-222.8 1242,-170.8 16,-170.8"/>
</g>
<g id="clust9" class="cluster">
<title>cluster_SharedModule_imports</title>
<polygon fill="none" stroke="black" points="22,-40.8 22,-92.8 148,-92.8 148,-40.8 22,-40.8"/>
</g>
<!-- ContentLayoutComponent -->
<g id="node1" class="node">
<title>ContentLayoutComponent</title>
<polygon fill="#ffffb3" stroke="black" points="1221.82,-84.8 1056.18,-84.8 1056.18,-48.8 1221.82,-48.8 1221.82,-84.8"/>
<text text-anchor="middle" x="1139" y="-62.6" font-family="Times,serif" font-size="14.00">ContentLayoutComponent</text>
</g>
<!-- SharedModule -->
<g id="node7" class="node">
<title>SharedModule</title>
<polygon fill="#8dd3c7" stroke="black" points="634.43,-149.8 631.43,-153.8 610.43,-153.8 607.43,-149.8 535.57,-149.8 535.57,-113.8 634.43,-113.8 634.43,-149.8"/>
<text text-anchor="middle" x="585" y="-127.6" font-family="Times,serif" font-size="14.00">SharedModule</text>
</g>
<!-- ContentLayoutComponent&#45;&gt;SharedModule -->
<g id="edge1" class="edge">
<title>ContentLayoutComponent&#45;&gt;SharedModule</title>
<path fill="none" stroke="black" d="M1060.97,-85.02C1060.97,-103.63 1060.97,-129.8 1060.97,-129.8 1060.97,-129.8 644.59,-129.8 644.59,-129.8"/>
<polygon fill="black" stroke="black" points="644.59,-126.3 634.59,-129.8 644.59,-133.3 644.59,-126.3"/>
</g>
<!-- FormAgregarServiciosComponent -->
<g id="node2" class="node">
<title>FormAgregarServiciosComponent</title>
<polygon fill="#ffffb3" stroke="black" points="1038.64,-84.8 829.36,-84.8 829.36,-48.8 1038.64,-48.8 1038.64,-84.8"/>
<text text-anchor="middle" x="934" y="-62.6" font-family="Times,serif" font-size="14.00">FormAgregarServiciosComponent</text>
</g>
<!-- FormAgregarServiciosComponent&#45;&gt;SharedModule -->
<g id="edge2" class="edge">
<title>FormAgregarServiciosComponent&#45;&gt;SharedModule</title>
<path fill="none" stroke="black" d="M970.69,-84.83C970.69,-101.86 970.69,-124.8 970.69,-124.8 970.69,-124.8 644.24,-124.8 644.24,-124.8"/>
<polygon fill="black" stroke="black" points="644.24,-121.3 634.24,-124.8 644.24,-128.3 644.24,-121.3"/>
</g>
<!-- InputAlertComponent -->
<g id="node3" class="node">
<title>InputAlertComponent</title>
<polygon fill="#ffffb3" stroke="black" points="810.65,-84.8 671.35,-84.8 671.35,-48.8 810.65,-48.8 810.65,-84.8"/>
<text text-anchor="middle" x="741" y="-62.6" font-family="Times,serif" font-size="14.00">InputAlertComponent</text>
</g>
<!-- InputAlertComponent&#45;&gt;SharedModule -->
<g id="edge3" class="edge">
<title>InputAlertComponent&#45;&gt;SharedModule</title>
<path fill="none" stroke="black" d="M765.02,-85.04C765.02,-100.37 765.02,-119.8 765.02,-119.8 765.02,-119.8 644.67,-119.8 644.67,-119.8"/>
<polygon fill="black" stroke="black" points="644.67,-116.3 634.67,-119.8 644.67,-123.3 644.67,-116.3"/>
</g>
<!-- InputTextComponent -->
<g id="node4" class="node">
<title>InputTextComponent</title>
<polygon fill="#ffffb3" stroke="black" points="653.04,-84.8 516.96,-84.8 516.96,-48.8 653.04,-48.8 653.04,-84.8"/>
<text text-anchor="middle" x="585" y="-62.6" font-family="Times,serif" font-size="14.00">InputTextComponent</text>
</g>
<!-- InputTextComponent&#45;&gt;SharedModule -->
<g id="edge4" class="edge">
<title>InputTextComponent&#45;&gt;SharedModule</title>
<path fill="none" stroke="black" d="M585,-84.91C585,-84.91 585,-103.79 585,-103.79"/>
<polygon fill="black" stroke="black" points="581.5,-103.79 585,-113.79 588.5,-103.79 581.5,-103.79"/>
</g>
<!-- PbuttonSendingComponent -->
<g id="node5" class="node">
<title>PbuttonSendingComponent</title>
<polygon fill="#ffffb3" stroke="black" points="498.29,-84.8 327.71,-84.8 327.71,-48.8 498.29,-48.8 498.29,-84.8"/>
<text text-anchor="middle" x="413" y="-62.6" font-family="Times,serif" font-size="14.00">PbuttonSendingComponent</text>
</g>
<!-- PbuttonSendingComponent&#45;&gt;SharedModule -->
<g id="edge5" class="edge">
<title>PbuttonSendingComponent&#45;&gt;SharedModule</title>
<path fill="none" stroke="black" d="M440.63,-85.04C440.63,-100.37 440.63,-119.8 440.63,-119.8 440.63,-119.8 525.72,-119.8 525.72,-119.8"/>
<polygon fill="black" stroke="black" points="525.72,-123.3 535.72,-119.8 525.72,-116.3 525.72,-123.3"/>
</g>
<!-- PdropdownComponent -->
<g id="node6" class="node">
<title>PdropdownComponent</title>
<polygon fill="#ffffb3" stroke="black" points="309.89,-84.8 164.11,-84.8 164.11,-48.8 309.89,-48.8 309.89,-84.8"/>
<text text-anchor="middle" x="237" y="-62.6" font-family="Times,serif" font-size="14.00">PdropdownComponent</text>
</g>
<!-- PdropdownComponent&#45;&gt;SharedModule -->
<g id="edge6" class="edge">
<title>PdropdownComponent&#45;&gt;SharedModule</title>
<path fill="none" stroke="black" d="M257.81,-84.83C257.81,-101.86 257.81,-124.8 257.81,-124.8 257.81,-124.8 525.66,-124.8 525.66,-124.8"/>
<polygon fill="black" stroke="black" points="525.66,-128.3 535.66,-124.8 525.66,-121.3 525.66,-128.3"/>
</g>
<!-- ContentLayoutComponent  -->
<g id="node9" class="node">
<title>ContentLayoutComponent </title>
<polygon fill="#fb8072" stroke="black" points="1234.32,-214.8 1065.68,-214.8 1065.68,-178.8 1234.32,-178.8 1234.32,-214.8"/>
<text text-anchor="middle" x="1150" y="-192.6" font-family="Times,serif" font-size="14.00">ContentLayoutComponent </text>
</g>
<!-- SharedModule&#45;&gt;ContentLayoutComponent  -->
<g id="edge8" class="edge">
<title>SharedModule&#45;&gt;ContentLayoutComponent </title>
<path fill="none" stroke="black" stroke-dasharray="5,2" d="M634.57,-134.8C771.29,-134.8 1143.62,-134.8 1143.62,-134.8 1143.62,-134.8 1143.62,-168.53 1143.62,-168.53"/>
<polygon fill="black" stroke="black" points="1140.13,-168.53 1143.62,-178.53 1147.13,-168.53 1140.13,-168.53"/>
</g>
<!-- FormAgregarServiciosComponent  -->
<g id="node10" class="node">
<title>FormAgregarServiciosComponent </title>
<polygon fill="#fb8072" stroke="black" points="1047.63,-214.8 834.37,-214.8 834.37,-178.8 1047.63,-178.8 1047.63,-214.8"/>
<text text-anchor="middle" x="941" y="-192.6" font-family="Times,serif" font-size="14.00">FormAgregarServiciosComponent </text>
</g>
<!-- SharedModule&#45;&gt;FormAgregarServiciosComponent  -->
<g id="edge9" class="edge">
<title>SharedModule&#45;&gt;FormAgregarServiciosComponent </title>
<path fill="none" stroke="black" stroke-dasharray="5,2" d="M634.27,-139.8C723.47,-139.8 902.56,-139.8 902.56,-139.8 902.56,-139.8 902.56,-168.76 902.56,-168.76"/>
<polygon fill="black" stroke="black" points="899.06,-168.76 902.56,-178.76 906.06,-168.76 899.06,-168.76"/>
</g>
<!-- InputAlertComponent  -->
<g id="node11" class="node">
<title>InputAlertComponent </title>
<polygon fill="#fb8072" stroke="black" points="816.65,-214.8 673.35,-214.8 673.35,-178.8 816.65,-178.8 816.65,-214.8"/>
<text text-anchor="middle" x="745" y="-192.6" font-family="Times,serif" font-size="14.00">InputAlertComponent </text>
</g>
<!-- SharedModule&#45;&gt;InputAlertComponent  -->
<g id="edge10" class="edge">
<title>SharedModule&#45;&gt;InputAlertComponent </title>
<path fill="none" stroke="black" stroke-dasharray="5,2" d="M634.22,-144.8C672.53,-144.8 719.23,-144.8 719.23,-144.8 719.23,-144.8 719.23,-168.61 719.23,-168.61"/>
<polygon fill="black" stroke="black" points="715.73,-168.61 719.23,-178.61 722.73,-168.61 715.73,-168.61"/>
</g>
<!-- InputTextComponent  -->
<g id="node12" class="node">
<title>InputTextComponent </title>
<polygon fill="#fb8072" stroke="black" points="655.04,-214.8 514.96,-214.8 514.96,-178.8 655.04,-178.8 655.04,-214.8"/>
<text text-anchor="middle" x="585" y="-192.6" font-family="Times,serif" font-size="14.00">InputTextComponent </text>
</g>
<!-- SharedModule&#45;&gt;InputTextComponent  -->
<g id="edge11" class="edge">
<title>SharedModule&#45;&gt;InputTextComponent </title>
<path fill="none" stroke="black" stroke-dasharray="5,2" d="M585,-149.91C585,-149.91 585,-168.79 585,-168.79"/>
<polygon fill="black" stroke="black" points="581.5,-168.79 585,-178.79 588.5,-168.79 581.5,-168.79"/>
</g>
<!-- PbuttonSendingComponent  -->
<g id="node13" class="node">
<title>PbuttonSendingComponent </title>
<polygon fill="#fb8072" stroke="black" points="497.29,-214.8 322.71,-214.8 322.71,-178.8 497.29,-178.8 497.29,-214.8"/>
<text text-anchor="middle" x="410" y="-192.6" font-family="Times,serif" font-size="14.00">PbuttonSendingComponent </text>
</g>
<!-- SharedModule&#45;&gt;PbuttonSendingComponent  -->
<g id="edge12" class="edge">
<title>SharedModule&#45;&gt;PbuttonSendingComponent </title>
<path fill="none" stroke="black" stroke-dasharray="5,2" d="M535.6,-144.8C476.12,-144.8 384.12,-144.8 384.12,-144.8 384.12,-144.8 384.12,-168.61 384.12,-168.61"/>
<polygon fill="black" stroke="black" points="380.62,-168.61 384.12,-178.61 387.62,-168.61 380.62,-168.61"/>
</g>
<!-- PdropdownComponent  -->
<g id="node14" class="node">
<title>PdropdownComponent </title>
<polygon fill="#fb8072" stroke="black" points="304.89,-214.8 155.11,-214.8 155.11,-178.8 304.89,-178.8 304.89,-214.8"/>
<text text-anchor="middle" x="230" y="-192.6" font-family="Times,serif" font-size="14.00">PdropdownComponent </text>
</g>
<!-- SharedModule&#45;&gt;PdropdownComponent  -->
<g id="edge13" class="edge">
<title>SharedModule&#45;&gt;PdropdownComponent </title>
<path fill="none" stroke="black" stroke-dasharray="5,2" d="M535.71,-139.8C434.14,-139.8 210.94,-139.8 210.94,-139.8 210.94,-139.8 210.94,-168.76 210.94,-168.76"/>
<polygon fill="black" stroke="black" points="207.44,-168.76 210.94,-178.76 214.44,-168.76 207.44,-168.76"/>
</g>
<!-- PrimeNgModule  -->
<g id="node15" class="node">
<title>PrimeNgModule </title>
<polygon fill="#fb8072" stroke="black" points="137.6,-214.8 24.4,-214.8 24.4,-178.8 137.6,-178.8 137.6,-214.8"/>
<text text-anchor="middle" x="81" y="-192.6" font-family="Times,serif" font-size="14.00">PrimeNgModule </text>
</g>
<!-- SharedModule&#45;&gt;PrimeNgModule  -->
<g id="edge14" class="edge">
<title>SharedModule&#45;&gt;PrimeNgModule </title>
<path fill="none" stroke="black" stroke-dasharray="5,2" d="M535.7,-134.8C406.12,-134.8 65.9,-134.8 65.9,-134.8 65.9,-134.8 65.9,-168.53 65.9,-168.53"/>
<polygon fill="black" stroke="black" points="62.4,-168.53 65.9,-178.53 69.4,-168.53 62.4,-168.53"/>
</g>
<!-- PrimeNgModule -->
<g id="node8" class="node">
<title>PrimeNgModule</title>
<polygon fill="#8dd3c7" stroke="black" points="140.1,-84.8 137.1,-88.8 116.1,-88.8 113.1,-84.8 29.9,-84.8 29.9,-48.8 140.1,-48.8 140.1,-84.8"/>
<text text-anchor="middle" x="85" y="-62.6" font-family="Times,serif" font-size="14.00">PrimeNgModule</text>
</g>
<!-- PrimeNgModule&#45;&gt;SharedModule -->
<g id="edge7" class="edge">
<title>PrimeNgModule&#45;&gt;SharedModule</title>
<path fill="none" stroke="black" d="M101.85,-85.02C101.85,-103.63 101.85,-129.8 101.85,-129.8 101.85,-129.8 525.57,-129.8 525.57,-129.8"/>
<polygon fill="black" stroke="black" points="525.57,-133.3 535.57,-129.8 525.57,-126.3 525.57,-133.3"/>
</g>
</g>
</svg>
