<?xml version="1.0" encoding="UTF-8" standalone="no"?>
<!DOCTYPE svg PUBLIC "-//W3C//DTD SVG 1.1//EN"
 "http://www.w3.org/Graphics/SVG/1.1/DTD/svg11.dtd">
<!-- Generated by graphviz version 5.0.0 (20220707.1540)
 -->
<!-- Title: dependencies Pages: 1 -->
<svg width="3133pt" height="247pt"
 viewBox="0.00 0.00 3133.00 246.80" xmlns="http://www.w3.org/2000/svg" xmlns:xlink="http://www.w3.org/1999/xlink">
<g id="graph0" class="graph" transform="scale(1 1) rotate(0) translate(4 242.8)">
<title>dependencies</title>
<polygon fill="white" stroke="transparent" points="-4,4 -4,-242.8 3129,-242.8 3129,4 -4,4"/>
<text text-anchor="middle" x="1562.5" y="-8.2" font-family="sans-serif" font-size="14.00">dependencies</text>
<g id="clust1" class="cluster">
<title>cluster_SharedModule</title>
<polygon fill="none" stroke="black" stroke-dasharray="1,5" points="8,-32.8 8,-230.8 3117,-230.8 3117,-32.8 8,-32.8"/>
</g>
<g id="clust19" class="cluster">
<title>cluster_SharedModule_imports</title>
<polygon fill="none" stroke="black" points="2983,-40.8 2983,-92.8 3109,-92.8 3109,-40.8 2983,-40.8"/>
</g>
<g id="clust20" class="cluster">
<title>cluster_SharedModule_exports</title>
<polygon fill="none" stroke="black" points="418,-170.8 418,-222.8 2879,-222.8 2879,-170.8 418,-170.8"/>
</g>
<g id="clust2" class="cluster">
<title>cluster_SharedModule_declarations</title>
<polygon fill="none" stroke="black" points="16,-40.8 16,-92.8 2975,-92.8 2975,-40.8 16,-40.8"/>
</g>
<!-- BaseTdComponent -->
<g id="node1" class="node">
<title>BaseTdComponent</title>
<polygon fill="#ffffb3" stroke="black" points="2967.1,-84.8 2842.9,-84.8 2842.9,-48.8 2967.1,-48.8 2967.1,-84.8"/>
<text text-anchor="middle" x="2905" y="-62.6" font-family="Times,serif" font-size="14.00">BaseTdComponent</text>
</g>
<!-- SharedModule -->
<g id="node17" class="node">
<title>SharedModule</title>
<polygon fill="#8dd3c7" stroke="black" points="1698.43,-149.8 1695.43,-153.8 1674.43,-153.8 1671.43,-149.8 1599.57,-149.8 1599.57,-113.8 1698.43,-113.8 1698.43,-149.8"/>
<text text-anchor="middle" x="1649" y="-127.6" font-family="Times,serif" font-size="14.00">SharedModule</text>
</g>
<!-- BaseTdComponent&#45;&gt;SharedModule -->
<g id="edge1" class="edge">
<title>BaseTdComponent&#45;&gt;SharedModule</title>
<path fill="none" stroke="black" d="M2857.09,-84.97C2857.09,-103.89 2857.09,-130.8 2857.09,-130.8 2857.09,-130.8 1708.23,-130.8 1708.23,-130.8"/>
<polygon fill="black" stroke="black" points="1708.23,-127.3 1698.23,-130.8 1708.23,-134.3 1708.23,-127.3"/>
</g>
<!-- ColorPrecargadoDirective -->
<g id="node2" class="node">
<title>ColorPrecargadoDirective</title>
<polygon fill="#ffffb3" stroke="black" points="2824.44,-84.8 2661.56,-84.8 2661.56,-48.8 2824.44,-48.8 2824.44,-84.8"/>
<text text-anchor="middle" x="2743" y="-62.6" font-family="Times,serif" font-size="14.00">ColorPrecargadoDirective</text>
</g>
<!-- ColorPrecargadoDirective&#45;&gt;SharedModule -->
<g id="edge2" class="edge">
<title>ColorPrecargadoDirective&#45;&gt;SharedModule</title>
<path fill="none" stroke="black" d="M2673.97,-85.07C2673.97,-103.36 2673.97,-128.8 2673.97,-128.8 2673.97,-128.8 1708.44,-128.8 1708.44,-128.8"/>
<polygon fill="black" stroke="black" points="1708.44,-125.3 1698.44,-128.8 1708.44,-132.3 1708.44,-125.3"/>
</g>
<!-- ContentLayoutComponent -->
<g id="node3" class="node">
<title>ContentLayoutComponent</title>
<polygon fill="#ffffb3" stroke="black" points="2643.82,-84.8 2478.18,-84.8 2478.18,-48.8 2643.82,-48.8 2643.82,-84.8"/>
<text text-anchor="middle" x="2561" y="-62.6" font-family="Times,serif" font-size="14.00">ContentLayoutComponent</text>
</g>
<!-- ContentLayoutComponent&#45;&gt;SharedModule -->
<g id="edge3" class="edge">
<title>ContentLayoutComponent&#45;&gt;SharedModule</title>
<path fill="none" stroke="black" d="M2488.95,-84.82C2488.95,-102.17 2488.95,-125.8 2488.95,-125.8 2488.95,-125.8 1708.41,-125.8 1708.41,-125.8"/>
<polygon fill="black" stroke="black" points="1708.41,-122.3 1698.41,-125.8 1708.41,-129.3 1708.41,-122.3"/>
</g>
<!-- FormAgregarServiciosComponent -->
<g id="node4" class="node">
<title>FormAgregarServiciosComponent</title>
<polygon fill="#ffffb3" stroke="black" points="2460.64,-84.8 2251.36,-84.8 2251.36,-48.8 2460.64,-48.8 2460.64,-84.8"/>
<text text-anchor="middle" x="2356" y="-62.6" font-family="Times,serif" font-size="14.00">FormAgregarServiciosComponent</text>
</g>
<!-- FormAgregarServiciosComponent&#45;&gt;SharedModule -->
<g id="edge4" class="edge">
<title>FormAgregarServiciosComponent&#45;&gt;SharedModule</title>
<path fill="none" stroke="black" d="M2259.71,-84.84C2259.71,-101.53 2259.71,-123.8 2259.71,-123.8 2259.71,-123.8 1708.46,-123.8 1708.46,-123.8"/>
<polygon fill="black" stroke="black" points="1708.46,-120.3 1698.46,-123.8 1708.46,-127.3 1708.46,-120.3"/>
</g>
<!-- FormTableServicesComponent -->
<g id="node5" class="node">
<title>FormTableServicesComponent</title>
<polygon fill="#ffffb3" stroke="black" points="2233.47,-84.8 2042.53,-84.8 2042.53,-48.8 2233.47,-48.8 2233.47,-84.8"/>
<text text-anchor="middle" x="2138" y="-62.6" font-family="Times,serif" font-size="14.00">FormTableServicesComponent</text>
</g>
<!-- FormTableServicesComponent&#45;&gt;SharedModule -->
<g id="edge5" class="edge">
<title>FormTableServicesComponent&#45;&gt;SharedModule</title>
<path fill="none" stroke="black" d="M2049.05,-84.81C2049.05,-100.85 2049.05,-121.8 2049.05,-121.8 2049.05,-121.8 1708.45,-121.8 1708.45,-121.8"/>
<polygon fill="black" stroke="black" points="1708.45,-118.3 1698.45,-121.8 1708.45,-125.3 1708.45,-118.3"/>
</g>
<!-- InputAlertComponent -->
<g id="node6" class="node">
<title>InputAlertComponent</title>
<polygon fill="#ffffb3" stroke="black" points="2024.65,-84.8 1885.35,-84.8 1885.35,-48.8 2024.65,-48.8 2024.65,-84.8"/>
<text text-anchor="middle" x="1955" y="-62.6" font-family="Times,serif" font-size="14.00">InputAlertComponent</text>
</g>
<!-- InputAlertComponent&#45;&gt;SharedModule -->
<g id="edge6" class="edge">
<title>InputAlertComponent&#45;&gt;SharedModule</title>
<path fill="none" stroke="black" d="M1889.6,-84.99C1889.6,-99.98 1889.6,-118.8 1889.6,-118.8 1889.6,-118.8 1708.27,-118.8 1708.27,-118.8"/>
<polygon fill="black" stroke="black" points="1708.27,-115.3 1698.27,-118.8 1708.27,-122.3 1708.27,-115.3"/>
</g>
<!-- InputTextComponent -->
<g id="node7" class="node">
<title>InputTextComponent</title>
<polygon fill="#ffffb3" stroke="black" points="1867.04,-84.8 1730.96,-84.8 1730.96,-48.8 1867.04,-48.8 1867.04,-84.8"/>
<text text-anchor="middle" x="1799" y="-62.6" font-family="Times,serif" font-size="14.00">InputTextComponent</text>
</g>
<!-- InputTextComponent&#45;&gt;SharedModule -->
<g id="edge7" class="edge">
<title>InputTextComponent&#45;&gt;SharedModule</title>
<path fill="none" stroke="black" d="M1745.06,-84.85C1745.06,-99.17 1745.06,-116.8 1745.06,-116.8 1745.06,-116.8 1708.44,-116.8 1708.44,-116.8"/>
<polygon fill="black" stroke="black" points="1708.44,-113.3 1698.44,-116.8 1708.44,-120.3 1708.44,-113.3"/>
</g>
<!-- MultiTdComponent -->
<g id="node8" class="node">
<title>MultiTdComponent</title>
<polygon fill="#ffffb3" stroke="black" points="1713,-84.8 1585,-84.8 1585,-48.8 1713,-48.8 1713,-84.8"/>
<text text-anchor="middle" x="1649" y="-62.6" font-family="Times,serif" font-size="14.00">MultiTdComponent</text>
</g>
<!-- MultiTdComponent&#45;&gt;SharedModule -->
<g id="edge8" class="edge">
<title>MultiTdComponent&#45;&gt;SharedModule</title>
<path fill="none" stroke="black" d="M1649,-84.91C1649,-84.91 1649,-103.79 1649,-103.79"/>
<polygon fill="black" stroke="black" points="1645.5,-103.79 1649,-113.79 1652.5,-103.79 1645.5,-103.79"/>
</g>
<!-- PbuttonSendingComponent -->
<g id="node9" class="node">
<title>PbuttonSendingComponent</title>
<polygon fill="#ffffb3" stroke="black" points="1567.29,-84.8 1396.71,-84.8 1396.71,-48.8 1567.29,-48.8 1567.29,-84.8"/>
<text text-anchor="middle" x="1482" y="-62.6" font-family="Times,serif" font-size="14.00">PbuttonSendingComponent</text>
</g>
<!-- PbuttonSendingComponent&#45;&gt;SharedModule -->
<g id="edge9" class="edge">
<title>PbuttonSendingComponent&#45;&gt;SharedModule</title>
<path fill="none" stroke="black" d="M1552.78,-84.85C1552.78,-99.17 1552.78,-116.8 1552.78,-116.8 1552.78,-116.8 1589.76,-116.8 1589.76,-116.8"/>
<polygon fill="black" stroke="black" points="1589.76,-120.3 1599.76,-116.8 1589.76,-113.3 1589.76,-120.3"/>
</g>
<!-- PdropdownComponent -->
<g id="node10" class="node">
<title>PdropdownComponent</title>
<polygon fill="#ffffb3" stroke="black" points="1378.89,-84.8 1233.11,-84.8 1233.11,-48.8 1378.89,-48.8 1378.89,-84.8"/>
<text text-anchor="middle" x="1306" y="-62.6" font-family="Times,serif" font-size="14.00">PdropdownComponent</text>
</g>
<!-- PdropdownComponent&#45;&gt;SharedModule -->
<g id="edge10" class="edge">
<title>PdropdownComponent&#45;&gt;SharedModule</title>
<path fill="none" stroke="black" d="M1301.07,-84.99C1301.07,-99.98 1301.07,-118.8 1301.07,-118.8 1301.07,-118.8 1589.52,-118.8 1589.52,-118.8"/>
<polygon fill="black" stroke="black" points="1589.52,-122.3 1599.52,-118.8 1589.52,-115.3 1589.52,-122.3"/>
</g>
<!-- TableAgregarServiciosComponent -->
<g id="node11" class="node">
<title>TableAgregarServiciosComponent</title>
<polygon fill="#ffffb3" stroke="black" points="1214.67,-84.8 1003.33,-84.8 1003.33,-48.8 1214.67,-48.8 1214.67,-84.8"/>
<text text-anchor="middle" x="1109" y="-62.6" font-family="Times,serif" font-size="14.00">TableAgregarServiciosComponent</text>
</g>
<!-- TableAgregarServiciosComponent&#45;&gt;SharedModule -->
<g id="edge11" class="edge">
<title>TableAgregarServiciosComponent&#45;&gt;SharedModule</title>
<path fill="none" stroke="black" d="M1122.62,-84.81C1122.62,-100.85 1122.62,-121.8 1122.62,-121.8 1122.62,-121.8 1589.48,-121.8 1589.48,-121.8"/>
<polygon fill="black" stroke="black" points="1589.48,-125.3 1599.48,-121.8 1589.48,-118.3 1589.48,-125.3"/>
</g>
<!-- ViewConfirmacionComponent -->
<g id="node12" class="node">
<title>ViewConfirmacionComponent</title>
<polygon fill="#ffffb3" stroke="black" points="985.91,-84.8 796.09,-84.8 796.09,-48.8 985.91,-48.8 985.91,-84.8"/>
<text text-anchor="middle" x="891" y="-62.6" font-family="Times,serif" font-size="14.00">ViewConfirmacionComponent</text>
</g>
<!-- ViewConfirmacionComponent&#45;&gt;SharedModule -->
<g id="edge12" class="edge">
<title>ViewConfirmacionComponent&#45;&gt;SharedModule</title>
<path fill="none" stroke="black" d="M902.62,-84.84C902.62,-101.53 902.62,-123.8 902.62,-123.8 902.62,-123.8 1589.74,-123.8 1589.74,-123.8"/>
<polygon fill="black" stroke="black" points="1589.74,-127.3 1599.74,-123.8 1589.74,-120.3 1589.74,-127.3"/>
</g>
<!-- ViewRechazoComponent -->
<g id="node13" class="node">
<title>ViewRechazoComponent</title>
<polygon fill="#ffffb3" stroke="black" points="777.85,-84.8 618.15,-84.8 618.15,-48.8 777.85,-48.8 777.85,-84.8"/>
<text text-anchor="middle" x="698" y="-62.6" font-family="Times,serif" font-size="14.00">ViewRechazoComponent</text>
</g>
<!-- ViewRechazoComponent&#45;&gt;SharedModule -->
<g id="edge13" class="edge">
<title>ViewRechazoComponent&#45;&gt;SharedModule</title>
<path fill="none" stroke="black" d="M708.12,-84.82C708.12,-102.17 708.12,-125.8 708.12,-125.8 708.12,-125.8 1589.74,-125.8 1589.74,-125.8"/>
<polygon fill="black" stroke="black" points="1589.74,-129.3 1599.74,-125.8 1589.74,-122.3 1589.74,-129.3"/>
</g>
<!-- ViewServiceTableComponent -->
<g id="node14" class="node">
<title>ViewServiceTableComponent</title>
<polygon fill="#ffffb3" stroke="black" points="599.5,-84.8 414.5,-84.8 414.5,-48.8 599.5,-48.8 599.5,-84.8"/>
<text text-anchor="middle" x="507" y="-62.6" font-family="Times,serif" font-size="14.00">ViewServiceTableComponent</text>
</g>
<!-- ViewServiceTableComponent&#45;&gt;SharedModule -->
<g id="edge14" class="edge">
<title>ViewServiceTableComponent&#45;&gt;SharedModule</title>
<path fill="none" stroke="black" d="M512.76,-85.07C512.76,-103.36 512.76,-128.8 512.76,-128.8 512.76,-128.8 1589.45,-128.8 1589.45,-128.8"/>
<polygon fill="black" stroke="black" points="1589.45,-132.3 1599.45,-128.8 1589.45,-125.3 1589.45,-132.3"/>
</g>
<!-- ViewTableServicesComponent -->
<g id="node15" class="node">
<title>ViewTableServicesComponent</title>
<polygon fill="#ffffb3" stroke="black" points="396.45,-84.8 205.55,-84.8 205.55,-48.8 396.45,-48.8 396.45,-84.8"/>
<text text-anchor="middle" x="301" y="-62.6" font-family="Times,serif" font-size="14.00">ViewTableServicesComponent</text>
</g>
<!-- ViewTableServicesComponent&#45;&gt;SharedModule -->
<g id="edge15" class="edge">
<title>ViewTableServicesComponent&#45;&gt;SharedModule</title>
<path fill="none" stroke="black" d="M301,-84.97C301,-103.89 301,-130.8 301,-130.8 301,-130.8 1589.43,-130.8 1589.43,-130.8"/>
<polygon fill="black" stroke="black" points="1589.43,-134.3 1599.43,-130.8 1589.43,-127.3 1589.43,-134.3"/>
</g>
<!-- ViewUOTableComponent -->
<g id="node16" class="node">
<title>ViewUOTableComponent</title>
<polygon fill="#ffffb3" stroke="black" points="187.75,-84.8 24.25,-84.8 24.25,-48.8 187.75,-48.8 187.75,-84.8"/>
<text text-anchor="middle" x="106" y="-62.6" font-family="Times,serif" font-size="14.00">ViewUOTableComponent</text>
</g>
<!-- ViewUOTableComponent&#45;&gt;SharedModule -->
<g id="edge16" class="edge">
<title>ViewUOTableComponent&#45;&gt;SharedModule</title>
<path fill="none" stroke="black" d="M106,-85.11C106,-104.95 106,-133.8 106,-133.8 106,-133.8 1589.41,-133.8 1589.41,-133.8"/>
<polygon fill="black" stroke="black" points="1589.41,-137.3 1599.41,-133.8 1589.41,-130.3 1589.41,-137.3"/>
</g>
<!-- ColorPrecargadoDirective  -->
<g id="node19" class="node">
<title>ColorPrecargadoDirective </title>
<polygon fill="#fb8072" stroke="black" points="2871.44,-214.8 2704.56,-214.8 2704.56,-178.8 2871.44,-178.8 2871.44,-214.8"/>
<text text-anchor="middle" x="2788" y="-192.6" font-family="Times,serif" font-size="14.00">ColorPrecargadoDirective </text>
</g>
<!-- SharedModule&#45;&gt;ColorPrecargadoDirective  -->
<g id="edge18" class="edge">
<title>SharedModule&#45;&gt;ColorPrecargadoDirective </title>
<path fill="none" stroke="black" stroke-dasharray="5,2" d="M1698.38,-135.8C1914.28,-135.8 2764.62,-135.8 2764.62,-135.8 2764.62,-135.8 2764.62,-168.5 2764.62,-168.5"/>
<polygon fill="black" stroke="black" points="2761.13,-168.5 2764.62,-178.5 2768.13,-168.5 2761.13,-168.5"/>
</g>
<!-- ContentLayoutComponent  -->
<g id="node20" class="node">
<title>ContentLayoutComponent </title>
<polygon fill="#fb8072" stroke="black" points="2686.32,-214.8 2517.68,-214.8 2517.68,-178.8 2686.32,-178.8 2686.32,-214.8"/>
<text text-anchor="middle" x="2602" y="-192.6" font-family="Times,serif" font-size="14.00">ContentLayoutComponent </text>
</g>
<!-- SharedModule&#45;&gt;ContentLayoutComponent  -->
<g id="edge19" class="edge">
<title>SharedModule&#45;&gt;ContentLayoutComponent </title>
<path fill="none" stroke="black" stroke-dasharray="5,2" d="M1698.43,-137.8C1891.03,-137.8 2580.62,-137.8 2580.62,-137.8 2580.62,-137.8 2580.62,-168.78 2580.62,-168.78"/>
<polygon fill="black" stroke="black" points="2577.13,-168.78 2580.62,-178.78 2584.13,-168.78 2577.13,-168.78"/>
</g>
<!-- FormAgregarServiciosComponent  -->
<g id="node21" class="node">
<title>FormAgregarServiciosComponent </title>
<polygon fill="#fb8072" stroke="black" points="2499.63,-214.8 2286.37,-214.8 2286.37,-178.8 2499.63,-178.8 2499.63,-214.8"/>
<text text-anchor="middle" x="2393" y="-192.6" font-family="Times,serif" font-size="14.00">FormAgregarServiciosComponent </text>
</g>
<!-- SharedModule&#45;&gt;FormAgregarServiciosComponent  -->
<g id="edge20" class="edge">
<title>SharedModule&#45;&gt;FormAgregarServiciosComponent </title>
<path fill="none" stroke="black" stroke-dasharray="5,2" d="M1698.24,-140.8C1861.33,-140.8 2373.62,-140.8 2373.62,-140.8 2373.62,-140.8 2373.62,-168.77 2373.62,-168.77"/>
<polygon fill="black" stroke="black" points="2370.13,-168.77 2373.62,-178.77 2377.13,-168.77 2370.13,-168.77"/>
</g>
<!-- FormTableServicesComponent  -->
<g id="node22" class="node">
<title>FormTableServicesComponent </title>
<polygon fill="#fb8072" stroke="black" points="2268.47,-214.8 2073.53,-214.8 2073.53,-178.8 2268.47,-178.8 2268.47,-214.8"/>
<text text-anchor="middle" x="2171" y="-192.6" font-family="Times,serif" font-size="14.00">FormTableServicesComponent </text>
</g>
<!-- SharedModule&#45;&gt;FormTableServicesComponent  -->
<g id="edge21" class="edge">
<title>SharedModule&#45;&gt;FormTableServicesComponent </title>
<path fill="none" stroke="black" stroke-dasharray="5,2" d="M1698.3,-142.8C1825.28,-142.8 2153.62,-142.8 2153.62,-142.8 2153.62,-142.8 2153.62,-168.52 2153.62,-168.52"/>
<polygon fill="black" stroke="black" points="2150.13,-168.52 2153.62,-178.52 2157.13,-168.52 2150.13,-168.52"/>
</g>
<!-- InputAlertComponent  -->
<g id="node23" class="node">
<title>InputAlertComponent </title>
<polygon fill="#fb8072" stroke="black" points="2055.65,-214.8 1912.35,-214.8 1912.35,-178.8 2055.65,-178.8 2055.65,-214.8"/>
<text text-anchor="middle" x="1984" y="-192.6" font-family="Times,serif" font-size="14.00">InputAlertComponent </text>
</g>
<!-- SharedModule&#45;&gt;InputAlertComponent  -->
<g id="edge22" class="edge">
<title>SharedModule&#45;&gt;InputAlertComponent </title>
<path fill="none" stroke="black" stroke-dasharray="5,2" d="M1698.24,-145.8C1787.9,-145.8 1968.62,-145.8 1968.62,-145.8 1968.62,-145.8 1968.62,-168.68 1968.62,-168.68"/>
<polygon fill="black" stroke="black" points="1965.13,-168.68 1968.62,-178.68 1972.13,-168.68 1965.13,-168.68"/>
</g>
<!-- InputTextComponent  -->
<g id="node24" class="node">
<title>InputTextComponent </title>
<polygon fill="#fb8072" stroke="black" points="1894.04,-214.8 1753.96,-214.8 1753.96,-178.8 1894.04,-178.8 1894.04,-214.8"/>
<text text-anchor="middle" x="1824" y="-192.6" font-family="Times,serif" font-size="14.00">InputTextComponent </text>
</g>
<!-- SharedModule&#45;&gt;InputTextComponent  -->
<g id="edge23" class="edge">
<title>SharedModule&#45;&gt;InputTextComponent </title>
<path fill="none" stroke="black" stroke-dasharray="5,2" d="M1698.37,-147.8C1745.9,-147.8 1810.62,-147.8 1810.62,-147.8 1810.62,-147.8 1810.62,-168.55 1810.62,-168.55"/>
<polygon fill="black" stroke="black" points="1807.13,-168.55 1810.62,-178.55 1814.13,-168.55 1807.13,-168.55"/>
</g>
<!-- PbuttonSendingComponent  -->
<g id="node25" class="node">
<title>PbuttonSendingComponent </title>
<polygon fill="#fb8072" stroke="black" points="1736.29,-214.8 1561.71,-214.8 1561.71,-178.8 1736.29,-178.8 1736.29,-214.8"/>
<text text-anchor="middle" x="1649" y="-192.6" font-family="Times,serif" font-size="14.00">PbuttonSendingComponent </text>
</g>
<!-- SharedModule&#45;&gt;PbuttonSendingComponent  -->
<g id="edge24" class="edge">
<title>SharedModule&#45;&gt;PbuttonSendingComponent </title>
<path fill="none" stroke="black" stroke-dasharray="5,2" d="M1649,-149.91C1649,-149.91 1649,-168.79 1649,-168.79"/>
<polygon fill="black" stroke="black" points="1645.5,-168.79 1649,-178.79 1652.5,-168.79 1645.5,-168.79"/>
</g>
<!-- PdropdownComponent  -->
<g id="node26" class="node">
<title>PdropdownComponent </title>
<polygon fill="#fb8072" stroke="black" points="1543.89,-214.8 1394.11,-214.8 1394.11,-178.8 1543.89,-178.8 1543.89,-214.8"/>
<text text-anchor="middle" x="1469" y="-192.6" font-family="Times,serif" font-size="14.00">PdropdownComponent </text>
</g>
<!-- SharedModule&#45;&gt;PdropdownComponent  -->
<g id="edge25" class="edge">
<title>SharedModule&#45;&gt;PdropdownComponent </title>
<path fill="none" stroke="black" stroke-dasharray="5,2" d="M1599.66,-147.8C1546.72,-147.8 1470.15,-147.8 1470.15,-147.8 1470.15,-147.8 1470.15,-168.55 1470.15,-168.55"/>
<polygon fill="black" stroke="black" points="1466.65,-168.55 1470.15,-178.55 1473.65,-168.55 1466.65,-168.55"/>
</g>
<!-- PrimeNgModule  -->
<g id="node27" class="node">
<title>PrimeNgModule </title>
<polygon fill="#fb8072" stroke="black" points="1376.6,-214.8 1263.4,-214.8 1263.4,-178.8 1376.6,-178.8 1376.6,-214.8"/>
<text text-anchor="middle" x="1320" y="-192.6" font-family="Times,serif" font-size="14.00">PrimeNgModule </text>
</g>
<!-- SharedModule&#45;&gt;PrimeNgModule  -->
<g id="edge26" class="edge">
<title>SharedModule&#45;&gt;PrimeNgModule </title>
<path fill="none" stroke="black" stroke-dasharray="5,2" d="M1599.53,-145.8C1511.99,-145.8 1338.93,-145.8 1338.93,-145.8 1338.93,-145.8 1338.93,-168.68 1338.93,-168.68"/>
<polygon fill="black" stroke="black" points="1335.43,-168.68 1338.93,-178.68 1342.43,-168.68 1335.43,-168.68"/>
</g>
<!-- TableAgregarServiciosComponent  -->
<g id="node28" class="node">
<title>TableAgregarServiciosComponent </title>
<polygon fill="#fb8072" stroke="black" points="1245.17,-214.8 1030.83,-214.8 1030.83,-178.8 1245.17,-178.8 1245.17,-214.8"/>
<text text-anchor="middle" x="1138" y="-192.6" font-family="Times,serif" font-size="14.00">TableAgregarServiciosComponent </text>
</g>
<!-- SharedModule&#45;&gt;TableAgregarServiciosComponent  -->
<g id="edge27" class="edge">
<title>SharedModule&#45;&gt;TableAgregarServiciosComponent </title>
<path fill="none" stroke="black" stroke-dasharray="5,2" d="M1599.57,-142.8C1490.57,-142.8 1239.19,-142.8 1239.19,-142.8 1239.19,-142.8 1239.19,-168.52 1239.19,-168.52"/>
<polygon fill="black" stroke="black" points="1235.69,-168.52 1239.19,-178.52 1242.69,-168.52 1235.69,-168.52"/>
</g>
<!-- ViewConfirmacionComponent  -->
<g id="node29" class="node">
<title>ViewConfirmacionComponent </title>
<polygon fill="#fb8072" stroke="black" points="1012.41,-214.8 819.59,-214.8 819.59,-178.8 1012.41,-178.8 1012.41,-214.8"/>
<text text-anchor="middle" x="916" y="-192.6" font-family="Times,serif" font-size="14.00">ViewConfirmacionComponent </text>
</g>
<!-- SharedModule&#45;&gt;ViewConfirmacionComponent  -->
<g id="edge28" class="edge">
<title>SharedModule&#45;&gt;ViewConfirmacionComponent </title>
<path fill="none" stroke="black" stroke-dasharray="5,2" d="M1599.76,-140.8C1449.65,-140.8 1007.94,-140.8 1007.94,-140.8 1007.94,-140.8 1007.94,-168.77 1007.94,-168.77"/>
<polygon fill="black" stroke="black" points="1004.44,-168.77 1007.94,-178.77 1011.44,-168.77 1004.44,-168.77"/>
</g>
<!-- ViewRechazoComponent  -->
<g id="node30" class="node">
<title>ViewRechazoComponent </title>
<polygon fill="#fb8072" stroke="black" points="801.85,-214.8 638.15,-214.8 638.15,-178.8 801.85,-178.8 801.85,-214.8"/>
<text text-anchor="middle" x="720" y="-192.6" font-family="Times,serif" font-size="14.00">ViewRechazoComponent </text>
</g>
<!-- SharedModule&#45;&gt;ViewRechazoComponent  -->
<g id="edge29" class="edge">
<title>SharedModule&#45;&gt;ViewRechazoComponent </title>
<path fill="none" stroke="black" stroke-dasharray="5,2" d="M1599.57,-137.8C1416.42,-137.8 787.11,-137.8 787.11,-137.8 787.11,-137.8 787.11,-168.78 787.11,-168.78"/>
<polygon fill="black" stroke="black" points="783.61,-168.78 787.11,-178.78 790.61,-168.78 783.61,-168.78"/>
</g>
<!-- ViewTableServicesComponent  -->
<g id="node31" class="node">
<title>ViewTableServicesComponent </title>
<polygon fill="#fb8072" stroke="black" points="620.45,-214.8 425.55,-214.8 425.55,-178.8 620.45,-178.8 620.45,-214.8"/>
<text text-anchor="middle" x="523" y="-192.6" font-family="Times,serif" font-size="14.00">ViewTableServicesComponent </text>
</g>
<!-- SharedModule&#45;&gt;ViewTableServicesComponent  -->
<g id="edge30" class="edge">
<title>SharedModule&#45;&gt;ViewTableServicesComponent </title>
<path fill="none" stroke="black" stroke-dasharray="5,2" d="M1599.53,-135.8C1392.84,-135.8 608.91,-135.8 608.91,-135.8 608.91,-135.8 608.91,-168.5 608.91,-168.5"/>
<polygon fill="black" stroke="black" points="605.41,-168.5 608.91,-178.5 612.41,-168.5 605.41,-168.5"/>
</g>
<!-- PrimeNgModule -->
<g id="node18" class="node">
<title>PrimeNgModule</title>
<polygon fill="#8dd3c7" stroke="black" points="3101.1,-84.8 3098.1,-88.8 3077.1,-88.8 3074.1,-84.8 2990.9,-84.8 2990.9,-48.8 3101.1,-48.8 3101.1,-84.8"/>
<text text-anchor="middle" x="3046" y="-62.6" font-family="Times,serif" font-size="14.00">PrimeNgModule</text>
</g>
<!-- PrimeNgModule&#45;&gt;SharedModule -->
<g id="edge17" class="edge">
<title>PrimeNgModule&#45;&gt;SharedModule</title>
<path fill="none" stroke="black" d="M3046,-85.11C3046,-104.95 3046,-133.8 3046,-133.8 3046,-133.8 1708.31,-133.8 1708.31,-133.8"/>
<polygon fill="black" stroke="black" points="1708.31,-130.3 1698.31,-133.8 1708.31,-137.3 1708.31,-130.3"/>
</g>
</g>
</svg>
