<?xml version="1.0" encoding="UTF-8" standalone="no"?>
<!DOCTYPE svg PUBLIC "-//W3C//DTD SVG 1.1//EN"
 "http://www.w3.org/Graphics/SVG/1.1/DTD/svg11.dtd">
<!-- Generated by graphviz version 5.0.0 (20220707.1540)
 -->
<!-- Title: dependencies Pages: 1 -->
<svg width="1859pt" height="174pt"
 viewBox="0.00 0.00 1859.00 173.80" xmlns="http://www.w3.org/2000/svg" xmlns:xlink="http://www.w3.org/1999/xlink">
<g id="graph0" class="graph" transform="scale(1 1) rotate(0) translate(4 169.8)">
<title>dependencies</title>
<polygon fill="white" stroke="transparent" points="-4,4 -4,-169.8 1855,-169.8 1855,4 -4,4"/>
<text text-anchor="middle" x="925.5" y="-8.2" font-family="sans-serif" font-size="14.00">dependencies</text>
<g id="clust1" class="cluster">
<title>cluster_ActaModule</title>
<polygon fill="none" stroke="black" stroke-dasharray="1,5" points="8,-32.8 8,-157.8 1843,-157.8 1843,-32.8 8,-32.8"/>
</g>
<g id="clust2" class="cluster">
<title>cluster_ActaModule_declarations</title>
<polygon fill="none" stroke="black" points="288,-40.8 288,-92.8 1835,-92.8 1835,-40.8 288,-40.8"/>
</g>
<g id="clust10" class="cluster">
<title>cluster_ActaModule_imports</title>
<polygon fill="none" stroke="black" points="16,-40.8 16,-92.8 280,-92.8 280,-40.8 16,-40.8"/>
</g>
<!-- ActaComponent -->
<g id="node1" class="node">
<title>ActaComponent</title>
<polygon fill="#ffffb3" stroke="black" points="1826.76,-84.8 1719.24,-84.8 1719.24,-48.8 1826.76,-48.8 1826.76,-84.8"/>
<text text-anchor="middle" x="1773" y="-62.6" font-family="Times,serif" font-size="14.00">ActaComponent</text>
</g>
<!-- ActaModule -->
<g id="node8" class="node">
<title>ActaModule</title>
<polygon fill="#8dd3c7" stroke="black" points="984.98,-149.8 981.98,-153.8 960.98,-153.8 957.98,-149.8 899.02,-149.8 899.02,-113.8 984.98,-113.8 984.98,-149.8"/>
<text text-anchor="middle" x="942" y="-127.6" font-family="Times,serif" font-size="14.00">ActaModule</text>
</g>
<!-- ActaComponent&#45;&gt;ActaModule -->
<g id="edge1" class="edge">
<title>ActaComponent&#45;&gt;ActaModule</title>
<path fill="none" stroke="black" d="M1773,-84.81C1773,-107.29 1773,-142.8 1773,-142.8 1773,-142.8 995.22,-142.8 995.22,-142.8"/>
<polygon fill="black" stroke="black" points="995.22,-139.3 985.22,-142.8 995.22,-146.3 995.22,-139.3"/>
</g>
<!-- ActaPorServicioFormComponent -->
<g id="node2" class="node">
<title>ActaPorServicioFormComponent</title>
<polygon fill="#ffffb3" stroke="black" points="1701.2,-84.8 1496.8,-84.8 1496.8,-48.8 1701.2,-48.8 1701.2,-84.8"/>
<text text-anchor="middle" x="1599" y="-62.6" font-family="Times,serif" font-size="14.00">ActaPorServicioFormComponent</text>
</g>
<!-- ActaPorServicioFormComponent&#45;&gt;ActaModule -->
<g id="edge2" class="edge">
<title>ActaPorServicioFormComponent&#45;&gt;ActaModule</title>
<path fill="none" stroke="black" d="M1599,-84.93C1599,-105.37 1599,-135.8 1599,-135.8 1599,-135.8 995.11,-135.8 995.11,-135.8"/>
<polygon fill="black" stroke="black" points="995.11,-132.3 985.11,-135.8 995.11,-139.3 995.11,-132.3"/>
</g>
<!-- GenerarActaContainerComponent -->
<g id="node3" class="node">
<title>GenerarActaContainerComponent</title>
<polygon fill="#ffffb3" stroke="black" points="1479.04,-84.8 1270.96,-84.8 1270.96,-48.8 1479.04,-48.8 1479.04,-84.8"/>
<text text-anchor="middle" x="1375" y="-62.6" font-family="Times,serif" font-size="14.00">GenerarActaContainerComponent</text>
</g>
<!-- GenerarActaContainerComponent&#45;&gt;ActaModule -->
<g id="edge3" class="edge">
<title>GenerarActaContainerComponent&#45;&gt;ActaModule</title>
<path fill="none" stroke="black" d="M1375,-85.07C1375,-103.36 1375,-128.8 1375,-128.8 1375,-128.8 995.1,-128.8 995.1,-128.8"/>
<polygon fill="black" stroke="black" points="995.1,-125.3 985.1,-128.8 995.1,-132.3 995.1,-125.3"/>
</g>
<!-- ListActasContainerComponent -->
<g id="node4" class="node">
<title>ListActasContainerComponent</title>
<polygon fill="#ffffb3" stroke="black" points="1253.19,-84.8 1062.81,-84.8 1062.81,-48.8 1253.19,-48.8 1253.19,-84.8"/>
<text text-anchor="middle" x="1158" y="-62.6" font-family="Times,serif" font-size="14.00">ListActasContainerComponent</text>
</g>
<!-- ListActasContainerComponent&#45;&gt;ActaModule -->
<g id="edge4" class="edge">
<title>ListActasContainerComponent&#45;&gt;ActaModule</title>
<path fill="none" stroke="black" d="M1158,-84.81C1158,-100.85 1158,-121.8 1158,-121.8 1158,-121.8 995.19,-121.8 995.19,-121.8"/>
<polygon fill="black" stroke="black" points="995.19,-118.3 985.19,-121.8 995.19,-125.3 995.19,-118.3"/>
</g>
<!-- ValidarActaContainerComponent -->
<g id="node5" class="node">
<title>ValidarActaContainerComponent</title>
<polygon fill="#ffffb3" stroke="black" points="1044.45,-84.8 839.55,-84.8 839.55,-48.8 1044.45,-48.8 1044.45,-84.8"/>
<text text-anchor="middle" x="942" y="-62.6" font-family="Times,serif" font-size="14.00">ValidarActaContainerComponent</text>
</g>
<!-- ValidarActaContainerComponent&#45;&gt;ActaModule -->
<g id="edge5" class="edge">
<title>ValidarActaContainerComponent&#45;&gt;ActaModule</title>
<path fill="none" stroke="black" d="M942,-84.91C942,-84.91 942,-103.79 942,-103.79"/>
<polygon fill="black" stroke="black" points="938.5,-103.79 942,-113.79 945.5,-103.79 938.5,-103.79"/>
</g>
<!-- ValidarActaOperacionesContainerComponent -->
<g id="node6" class="node">
<title>ValidarActaOperacionesContainerComponent</title>
<polygon fill="#ffffb3" stroke="black" points="821.41,-84.8 546.59,-84.8 546.59,-48.8 821.41,-48.8 821.41,-84.8"/>
<text text-anchor="middle" x="684" y="-62.6" font-family="Times,serif" font-size="14.00">ValidarActaOperacionesContainerComponent</text>
</g>
<!-- ValidarActaOperacionesContainerComponent&#45;&gt;ActaModule -->
<g id="edge6" class="edge">
<title>ValidarActaOperacionesContainerComponent&#45;&gt;ActaModule</title>
<path fill="none" stroke="black" d="M684,-84.81C684,-100.85 684,-121.8 684,-121.8 684,-121.8 888.82,-121.8 888.82,-121.8"/>
<polygon fill="black" stroke="black" points="888.82,-125.3 898.82,-121.8 888.82,-118.3 888.82,-125.3"/>
</g>
<!-- ValidarPagoActaContainerComponent -->
<g id="node7" class="node">
<title>ValidarPagoActaContainerComponent</title>
<polygon fill="#ffffb3" stroke="black" points="528.45,-84.8 295.55,-84.8 295.55,-48.8 528.45,-48.8 528.45,-84.8"/>
<text text-anchor="middle" x="412" y="-62.6" font-family="Times,serif" font-size="14.00">ValidarPagoActaContainerComponent</text>
</g>
<!-- ValidarPagoActaContainerComponent&#45;&gt;ActaModule -->
<g id="edge7" class="edge">
<title>ValidarPagoActaContainerComponent&#45;&gt;ActaModule</title>
<path fill="none" stroke="black" d="M412,-85.07C412,-103.36 412,-128.8 412,-128.8 412,-128.8 888.63,-128.8 888.63,-128.8"/>
<polygon fill="black" stroke="black" points="888.63,-132.3 898.63,-128.8 888.63,-125.3 888.63,-132.3"/>
</g>
<!-- ActaRoutingModule -->
<g id="node9" class="node">
<title>ActaRoutingModule</title>
<polygon fill="#8dd3c7" stroke="black" points="271.6,-84.8 268.6,-88.8 247.6,-88.8 244.6,-84.8 140.4,-84.8 140.4,-48.8 271.6,-48.8 271.6,-84.8"/>
<text text-anchor="middle" x="206" y="-62.6" font-family="Times,serif" font-size="14.00">ActaRoutingModule</text>
</g>
<!-- ActaRoutingModule&#45;&gt;ActaModule -->
<g id="edge8" class="edge">
<title>ActaRoutingModule&#45;&gt;ActaModule</title>
<path fill="none" stroke="black" d="M206,-84.93C206,-105.37 206,-135.8 206,-135.8 206,-135.8 888.98,-135.8 888.98,-135.8"/>
<polygon fill="black" stroke="black" points="888.98,-139.3 898.98,-135.8 888.98,-132.3 888.98,-139.3"/>
</g>
<!-- SharedModule -->
<g id="node10" class="node">
<title>SharedModule</title>
<polygon fill="#8dd3c7" stroke="black" points="122.43,-84.8 119.43,-88.8 98.43,-88.8 95.43,-84.8 23.57,-84.8 23.57,-48.8 122.43,-48.8 122.43,-84.8"/>
<text text-anchor="middle" x="73" y="-62.6" font-family="Times,serif" font-size="14.00">SharedModule</text>
</g>
<!-- SharedModule&#45;&gt;ActaModule -->
<g id="edge9" class="edge">
<title>SharedModule&#45;&gt;ActaModule</title>
<path fill="none" stroke="black" d="M73,-84.81C73,-107.29 73,-142.8 73,-142.8 73,-142.8 888.91,-142.8 888.91,-142.8"/>
<polygon fill="black" stroke="black" points="888.91,-146.3 898.91,-142.8 888.91,-139.3 888.91,-146.3"/>
</g>
</g>
</svg>
