<?xml version="1.0" encoding="UTF-8" standalone="no"?>
<!DOCTYPE svg PUBLIC "-//W3C//DTD SVG 1.1//EN"
 "http://www.w3.org/Graphics/SVG/1.1/DTD/svg11.dtd">
<!-- Generated by graphviz version 5.0.0 (20220707.1540)
 -->
<!-- Title: dependencies Pages: 1 -->
<svg width="1344pt" height="174pt"
 viewBox="0.00 0.00 1344.00 173.80" xmlns="http://www.w3.org/2000/svg" xmlns:xlink="http://www.w3.org/1999/xlink">
<g id="graph0" class="graph" transform="scale(1 1) rotate(0) translate(4 169.8)">
<title>dependencies</title>
<polygon fill="white" stroke="transparent" points="-4,4 -4,-169.8 1340,-169.8 1340,4 -4,4"/>
<text text-anchor="middle" x="668" y="-8.2" font-family="sans-serif" font-size="14.00">dependencies</text>
<g id="clust1" class="cluster">
<title>cluster_ActaModule</title>
<polygon fill="none" stroke="black" stroke-dasharray="1,5" points="8,-32.8 8,-157.8 1328,-157.8 1328,-32.8 8,-32.8"/>
</g>
<g id="clust2" class="cluster">
<title>cluster_ActaModule_declarations</title>
<polygon fill="none" stroke="black" points="288,-40.8 288,-92.8 1320,-92.8 1320,-40.8 288,-40.8"/>
</g>
<g id="clust8" class="cluster">
<title>cluster_ActaModule_imports</title>
<polygon fill="none" stroke="black" points="16,-40.8 16,-92.8 280,-92.8 280,-40.8 16,-40.8"/>
</g>
<!-- ActaComponent -->
<g id="node1" class="node">
<title>ActaComponent</title>
<polygon fill="#ffffb3" stroke="black" points="1311.76,-84.8 1204.24,-84.8 1204.24,-48.8 1311.76,-48.8 1311.76,-84.8"/>
<text text-anchor="middle" x="1258" y="-62.6" font-family="Times,serif" font-size="14.00">ActaComponent</text>
</g>
<!-- ActaModule -->
<g id="node6" class="node">
<title>ActaModule</title>
<polygon fill="#8dd3c7" stroke="black" points="691.98,-149.8 688.98,-153.8 667.98,-153.8 664.98,-149.8 606.02,-149.8 606.02,-113.8 691.98,-113.8 691.98,-149.8"/>
<text text-anchor="middle" x="649" y="-127.6" font-family="Times,serif" font-size="14.00">ActaModule</text>
</g>
<!-- ActaComponent&#45;&gt;ActaModule -->
<g id="edge1" class="edge">
<title>ActaComponent&#45;&gt;ActaModule</title>
<path fill="none" stroke="black" d="M1258,-85.09C1258,-107.01 1258,-140.8 1258,-140.8 1258,-140.8 702.31,-140.8 702.31,-140.8"/>
<polygon fill="black" stroke="black" points="702.31,-137.3 692.31,-140.8 702.31,-144.3 702.31,-137.3"/>
</g>
<!-- GenerarActaContainerComponent -->
<g id="node2" class="node">
<title>GenerarActaContainerComponent</title>
<polygon fill="#ffffb3" stroke="black" points="1186.04,-84.8 977.96,-84.8 977.96,-48.8 1186.04,-48.8 1186.04,-84.8"/>
<text text-anchor="middle" x="1082" y="-62.6" font-family="Times,serif" font-size="14.00">GenerarActaContainerComponent</text>
</g>
<!-- GenerarActaContainerComponent&#45;&gt;ActaModule -->
<g id="edge2" class="edge">
<title>GenerarActaContainerComponent&#45;&gt;ActaModule</title>
<path fill="none" stroke="black" d="M1082,-84.91C1082,-104.14 1082,-131.8 1082,-131.8 1082,-131.8 702.1,-131.8 702.1,-131.8"/>
<polygon fill="black" stroke="black" points="702.1,-128.3 692.1,-131.8 702.1,-135.3 702.1,-128.3"/>
</g>
<!-- ListActasContainerComponent -->
<g id="node3" class="node">
<title>ListActasContainerComponent</title>
<polygon fill="#ffffb3" stroke="black" points="960.19,-84.8 769.81,-84.8 769.81,-48.8 960.19,-48.8 960.19,-84.8"/>
<text text-anchor="middle" x="865" y="-62.6" font-family="Times,serif" font-size="14.00">ListActasContainerComponent</text>
</g>
<!-- ListActasContainerComponent&#45;&gt;ActaModule -->
<g id="edge3" class="edge">
<title>ListActasContainerComponent&#45;&gt;ActaModule</title>
<path fill="none" stroke="black" d="M865,-84.83C865,-101.2 865,-122.8 865,-122.8 865,-122.8 702.19,-122.8 702.19,-122.8"/>
<polygon fill="black" stroke="black" points="702.19,-119.3 692.19,-122.8 702.19,-126.3 702.19,-119.3"/>
</g>
<!-- ValidarActaContainerComponent -->
<g id="node4" class="node">
<title>ValidarActaContainerComponent</title>
<polygon fill="#ffffb3" stroke="black" points="751.45,-84.8 546.55,-84.8 546.55,-48.8 751.45,-48.8 751.45,-84.8"/>
<text text-anchor="middle" x="649" y="-62.6" font-family="Times,serif" font-size="14.00">ValidarActaContainerComponent</text>
</g>
<!-- ValidarActaContainerComponent&#45;&gt;ActaModule -->
<g id="edge4" class="edge">
<title>ValidarActaContainerComponent&#45;&gt;ActaModule</title>
<path fill="none" stroke="black" d="M649,-84.91C649,-84.91 649,-103.79 649,-103.79"/>
<polygon fill="black" stroke="black" points="645.5,-103.79 649,-113.79 652.5,-103.79 645.5,-103.79"/>
</g>
<!-- ValidarPagoActaContainerComponent -->
<g id="node5" class="node">
<title>ValidarPagoActaContainerComponent</title>
<polygon fill="#ffffb3" stroke="black" points="528.45,-84.8 295.55,-84.8 295.55,-48.8 528.45,-48.8 528.45,-84.8"/>
<text text-anchor="middle" x="412" y="-62.6" font-family="Times,serif" font-size="14.00">ValidarPagoActaContainerComponent</text>
</g>
<!-- ValidarPagoActaContainerComponent&#45;&gt;ActaModule -->
<g id="edge5" class="edge">
<title>ValidarPagoActaContainerComponent&#45;&gt;ActaModule</title>
<path fill="none" stroke="black" d="M412,-84.83C412,-101.2 412,-122.8 412,-122.8 412,-122.8 595.81,-122.8 595.81,-122.8"/>
<polygon fill="black" stroke="black" points="595.81,-126.3 605.81,-122.8 595.81,-119.3 595.81,-126.3"/>
</g>
<!-- ActaRoutingModule -->
<g id="node7" class="node">
<title>ActaRoutingModule</title>
<polygon fill="#8dd3c7" stroke="black" points="271.6,-84.8 268.6,-88.8 247.6,-88.8 244.6,-84.8 140.4,-84.8 140.4,-48.8 271.6,-48.8 271.6,-84.8"/>
<text text-anchor="middle" x="206" y="-62.6" font-family="Times,serif" font-size="14.00">ActaRoutingModule</text>
</g>
<!-- ActaRoutingModule&#45;&gt;ActaModule -->
<g id="edge6" class="edge">
<title>ActaRoutingModule&#45;&gt;ActaModule</title>
<path fill="none" stroke="black" d="M206,-84.91C206,-104.14 206,-131.8 206,-131.8 206,-131.8 595.72,-131.8 595.72,-131.8"/>
<polygon fill="black" stroke="black" points="595.72,-135.3 605.72,-131.8 595.72,-128.3 595.72,-135.3"/>
</g>
<!-- SharedModule -->
<g id="node8" class="node">
<title>SharedModule</title>
<polygon fill="#8dd3c7" stroke="black" points="122.43,-84.8 119.43,-88.8 98.43,-88.8 95.43,-84.8 23.57,-84.8 23.57,-48.8 122.43,-48.8 122.43,-84.8"/>
<text text-anchor="middle" x="73" y="-62.6" font-family="Times,serif" font-size="14.00">SharedModule</text>
</g>
<!-- SharedModule&#45;&gt;ActaModule -->
<g id="edge7" class="edge">
<title>SharedModule&#45;&gt;ActaModule</title>
<path fill="none" stroke="black" d="M73,-85.09C73,-107.01 73,-140.8 73,-140.8 73,-140.8 595.71,-140.8 595.71,-140.8"/>
<polygon fill="black" stroke="black" points="595.71,-144.3 605.71,-140.8 595.71,-137.3 595.71,-144.3"/>
</g>
</g>
</svg>
