<?xml version="1.0" encoding="UTF-8" standalone="no"?>
<!DOCTYPE svg PUBLIC "-//W3C//DTD SVG 1.1//EN"
 "http://www.w3.org/Graphics/SVG/1.1/DTD/svg11.dtd">
<!-- Generated by graphviz version 5.0.0 (20220707.1540)
 -->
<!-- Title: dependencies Pages: 1 -->
<svg width="1038pt" height="174pt"
 viewBox="0.00 0.00 1038.00 173.80" xmlns="http://www.w3.org/2000/svg" xmlns:xlink="http://www.w3.org/1999/xlink">
<g id="graph0" class="graph" transform="scale(1 1) rotate(0) translate(4 169.8)">
<title>dependencies</title>
<polygon fill="white" stroke="transparent" points="-4,4 -4,-169.8 1034,-169.8 1034,4 -4,4"/>
<text text-anchor="middle" x="515" y="-8.2" font-family="sans-serif" font-size="14.00">dependencies</text>
<g id="clust1" class="cluster">
<title>cluster_ActaModule</title>
<polygon fill="none" stroke="black" stroke-dasharray="1,5" points="8,-32.8 8,-157.8 1022,-157.8 1022,-32.8 8,-32.8"/>
</g>
<g id="clust2" class="cluster">
<title>cluster_ActaModule_declarations</title>
<polygon fill="none" stroke="black" points="288,-40.8 288,-92.8 1014,-92.8 1014,-40.8 288,-40.8"/>
</g>
<g id="clust7" class="cluster">
<title>cluster_ActaModule_imports</title>
<polygon fill="none" stroke="black" points="16,-40.8 16,-92.8 280,-92.8 280,-40.8 16,-40.8"/>
</g>
<!-- ActaComponent -->
<g id="node1" class="node">
<title>ActaComponent</title>
<polygon fill="#ffffb3" stroke="black" points="1005.76,-84.8 898.24,-84.8 898.24,-48.8 1005.76,-48.8 1005.76,-84.8"/>
<text text-anchor="middle" x="952" y="-62.6" font-family="Times,serif" font-size="14.00">ActaComponent</text>
</g>
<!-- ActaModule -->
<g id="node5" class="node">
<title>ActaModule</title>
<polygon fill="#8dd3c7" stroke="black" points="534.98,-149.8 531.98,-153.8 510.98,-153.8 507.98,-149.8 449.02,-149.8 449.02,-113.8 534.98,-113.8 534.98,-149.8"/>
<text text-anchor="middle" x="492" y="-127.6" font-family="Times,serif" font-size="14.00">ActaModule</text>
</g>
<!-- ActaComponent&#45;&gt;ActaModule -->
<g id="edge1" class="edge">
<title>ActaComponent&#45;&gt;ActaModule</title>
<path fill="none" stroke="black" d="M952,-85.08C952,-106.12 952,-137.8 952,-137.8 952,-137.8 545.28,-137.8 545.28,-137.8"/>
<polygon fill="black" stroke="black" points="545.28,-134.3 535.28,-137.8 545.28,-141.3 545.28,-134.3"/>
</g>
<!-- GenerarActaContainerComponent -->
<g id="node2" class="node">
<title>GenerarActaContainerComponent</title>
<polygon fill="#ffffb3" stroke="black" points="880.04,-84.8 671.96,-84.8 671.96,-48.8 880.04,-48.8 880.04,-84.8"/>
<text text-anchor="middle" x="776" y="-62.6" font-family="Times,serif" font-size="14.00">GenerarActaContainerComponent</text>
</g>
<!-- GenerarActaContainerComponent&#45;&gt;ActaModule -->
<g id="edge2" class="edge">
<title>GenerarActaContainerComponent&#45;&gt;ActaModule</title>
<path fill="none" stroke="black" d="M776,-84.82C776,-102.17 776,-125.8 776,-125.8 776,-125.8 545.13,-125.8 545.13,-125.8"/>
<polygon fill="black" stroke="black" points="545.13,-122.3 535.13,-125.8 545.13,-129.3 545.13,-122.3"/>
</g>
<!-- ListActasComponent -->
<g id="node3" class="node">
<title>ListActasComponent</title>
<polygon fill="#ffffb3" stroke="black" points="653.49,-84.8 518.51,-84.8 518.51,-48.8 653.49,-48.8 653.49,-84.8"/>
<text text-anchor="middle" x="586" y="-62.6" font-family="Times,serif" font-size="14.00">ListActasComponent</text>
</g>
<!-- ListActasComponent&#45;&gt;ActaModule -->
<g id="edge3" class="edge">
<title>ListActasComponent&#45;&gt;ActaModule</title>
<path fill="none" stroke="black" d="M526.75,-84.91C526.75,-84.91 526.75,-103.79 526.75,-103.79"/>
<polygon fill="black" stroke="black" points="523.25,-103.79 526.75,-113.79 530.25,-103.79 523.25,-103.79"/>
</g>
<!-- ValidarActaContainerComponent -->
<g id="node4" class="node">
<title>ValidarActaContainerComponent</title>
<polygon fill="#ffffb3" stroke="black" points="500.45,-84.8 295.55,-84.8 295.55,-48.8 500.45,-48.8 500.45,-84.8"/>
<text text-anchor="middle" x="398" y="-62.6" font-family="Times,serif" font-size="14.00">ValidarActaContainerComponent</text>
</g>
<!-- ValidarActaContainerComponent&#45;&gt;ActaModule -->
<g id="edge4" class="edge">
<title>ValidarActaContainerComponent&#45;&gt;ActaModule</title>
<path fill="none" stroke="black" d="M474.74,-84.91C474.74,-84.91 474.74,-103.79 474.74,-103.79"/>
<polygon fill="black" stroke="black" points="471.24,-103.79 474.74,-113.79 478.24,-103.79 471.24,-103.79"/>
</g>
<!-- ActaRoutingModule -->
<g id="node6" class="node">
<title>ActaRoutingModule</title>
<polygon fill="#8dd3c7" stroke="black" points="271.6,-84.8 268.6,-88.8 247.6,-88.8 244.6,-84.8 140.4,-84.8 140.4,-48.8 271.6,-48.8 271.6,-84.8"/>
<text text-anchor="middle" x="206" y="-62.6" font-family="Times,serif" font-size="14.00">ActaRoutingModule</text>
</g>
<!-- ActaRoutingModule&#45;&gt;ActaModule -->
<g id="edge5" class="edge">
<title>ActaRoutingModule&#45;&gt;ActaModule</title>
<path fill="none" stroke="black" d="M206,-84.82C206,-102.17 206,-125.8 206,-125.8 206,-125.8 438.87,-125.8 438.87,-125.8"/>
<polygon fill="black" stroke="black" points="438.87,-129.3 448.87,-125.8 438.87,-122.3 438.87,-129.3"/>
</g>
<!-- SharedModule -->
<g id="node7" class="node">
<title>SharedModule</title>
<polygon fill="#8dd3c7" stroke="black" points="122.43,-84.8 119.43,-88.8 98.43,-88.8 95.43,-84.8 23.57,-84.8 23.57,-48.8 122.43,-48.8 122.43,-84.8"/>
<text text-anchor="middle" x="73" y="-62.6" font-family="Times,serif" font-size="14.00">SharedModule</text>
</g>
<!-- SharedModule&#45;&gt;ActaModule -->
<g id="edge6" class="edge">
<title>SharedModule&#45;&gt;ActaModule</title>
<path fill="none" stroke="black" d="M73,-85.08C73,-106.12 73,-137.8 73,-137.8 73,-137.8 438.74,-137.8 438.74,-137.8"/>
<polygon fill="black" stroke="black" points="438.74,-141.3 448.74,-137.8 438.74,-134.3 438.74,-141.3"/>
</g>
</g>
</svg>
