<?xml version="1.0" encoding="UTF-8" standalone="no"?>
<!DOCTYPE svg PUBLIC "-//W3C//DTD SVG 1.1//EN"
 "http://www.w3.org/Graphics/SVG/1.1/DTD/svg11.dtd">
<!-- Generated by graphviz version 5.0.0 (20220707.1540)
 -->
<!-- Title: dependencies Pages: 1 -->
<svg width="1010pt" height="174pt"
 viewBox="0.00 0.00 1010.00 173.80" xmlns="http://www.w3.org/2000/svg" xmlns:xlink="http://www.w3.org/1999/xlink">
<g id="graph0" class="graph" transform="scale(1 1) rotate(0) translate(4 169.8)">
<title>dependencies</title>
<polygon fill="white" stroke="transparent" points="-4,4 -4,-169.8 1006,-169.8 1006,4 -4,4"/>
<text text-anchor="middle" x="501" y="-8.2" font-family="sans-serif" font-size="14.00">dependencies</text>
<g id="clust1" class="cluster">
<title>cluster_AuthModule</title>
<polygon fill="none" stroke="black" stroke-dasharray="1,5" points="8,-32.8 8,-157.8 994,-157.8 994,-32.8 8,-32.8"/>
</g>
<g id="clust2" class="cluster">
<title>cluster_AuthModule_declarations</title>
<polygon fill="none" stroke="black" points="289,-40.8 289,-92.8 986,-92.8 986,-40.8 289,-40.8"/>
</g>
<g id="clust7" class="cluster">
<title>cluster_AuthModule_imports</title>
<polygon fill="none" stroke="black" points="16,-40.8 16,-92.8 281,-92.8 281,-40.8 16,-40.8"/>
</g>
<!-- AuthComponent -->
<g id="node1" class="node">
<title>AuthComponent</title>
<polygon fill="#ffffb3" stroke="black" points="977.83,-84.8 868.17,-84.8 868.17,-48.8 977.83,-48.8 977.83,-84.8"/>
<text text-anchor="middle" x="923" y="-62.6" font-family="Times,serif" font-size="14.00">AuthComponent</text>
</g>
<!-- AuthModule -->
<g id="node5" class="node">
<title>AuthModule</title>
<polygon fill="#8dd3c7" stroke="black" points="555.55,-149.8 552.55,-153.8 531.55,-153.8 528.55,-149.8 468.45,-149.8 468.45,-113.8 555.55,-113.8 555.55,-149.8"/>
<text text-anchor="middle" x="512" y="-127.6" font-family="Times,serif" font-size="14.00">AuthModule</text>
</g>
<!-- AuthComponent&#45;&gt;AuthModule -->
<g id="edge1" class="edge">
<title>AuthComponent&#45;&gt;AuthModule</title>
<path fill="none" stroke="black" d="M923,-85.08C923,-106.12 923,-137.8 923,-137.8 923,-137.8 565.6,-137.8 565.6,-137.8"/>
<polygon fill="black" stroke="black" points="565.6,-134.3 555.6,-137.8 565.6,-141.3 565.6,-134.3"/>
</g>
<!-- LoginFormComponent -->
<g id="node2" class="node">
<title>LoginFormComponent</title>
<polygon fill="#ffffb3" stroke="black" points="850.61,-84.8 705.39,-84.8 705.39,-48.8 850.61,-48.8 850.61,-84.8"/>
<text text-anchor="middle" x="778" y="-62.6" font-family="Times,serif" font-size="14.00">LoginFormComponent</text>
</g>
<!-- LoginFormComponent&#45;&gt;AuthModule -->
<g id="edge2" class="edge">
<title>LoginFormComponent&#45;&gt;AuthModule</title>
<path fill="none" stroke="black" d="M778,-84.82C778,-102.17 778,-125.8 778,-125.8 778,-125.8 565.63,-125.8 565.63,-125.8"/>
<polygon fill="black" stroke="black" points="565.63,-122.3 555.63,-125.8 565.63,-129.3 565.63,-122.3"/>
</g>
<!-- PerfilSelectComponent -->
<g id="node3" class="node">
<title>PerfilSelectComponent</title>
<polygon fill="#ffffb3" stroke="black" points="687.14,-84.8 540.86,-84.8 540.86,-48.8 687.14,-48.8 687.14,-84.8"/>
<text text-anchor="middle" x="614" y="-62.6" font-family="Times,serif" font-size="14.00">PerfilSelectComponent</text>
</g>
<!-- PerfilSelectComponent&#45;&gt;AuthModule -->
<g id="edge3" class="edge">
<title>PerfilSelectComponent&#45;&gt;AuthModule</title>
<path fill="none" stroke="black" d="M548.23,-84.91C548.23,-84.91 548.23,-103.79 548.23,-103.79"/>
<polygon fill="black" stroke="black" points="544.73,-103.79 548.23,-113.79 551.73,-103.79 544.73,-103.79"/>
</g>
<!-- TwoFactorAuthenticationComponent -->
<g id="node4" class="node">
<title>TwoFactorAuthenticationComponent</title>
<polygon fill="#ffffb3" stroke="black" points="522.96,-84.8 297.04,-84.8 297.04,-48.8 522.96,-48.8 522.96,-84.8"/>
<text text-anchor="middle" x="410" y="-62.6" font-family="Times,serif" font-size="14.00">TwoFactorAuthenticationComponent</text>
</g>
<!-- TwoFactorAuthenticationComponent&#45;&gt;AuthModule -->
<g id="edge4" class="edge">
<title>TwoFactorAuthenticationComponent&#45;&gt;AuthModule</title>
<path fill="none" stroke="black" d="M495.6,-84.91C495.6,-84.91 495.6,-103.79 495.6,-103.79"/>
<polygon fill="black" stroke="black" points="492.1,-103.79 495.6,-113.79 499.1,-103.79 492.1,-103.79"/>
</g>
<!-- AuthRoutingModule -->
<g id="node6" class="node">
<title>AuthRoutingModule</title>
<polygon fill="#8dd3c7" stroke="black" points="273.17,-84.8 270.17,-88.8 249.17,-88.8 246.17,-84.8 140.83,-84.8 140.83,-48.8 273.17,-48.8 273.17,-84.8"/>
<text text-anchor="middle" x="207" y="-62.6" font-family="Times,serif" font-size="14.00">AuthRoutingModule</text>
</g>
<!-- AuthRoutingModule&#45;&gt;AuthModule -->
<g id="edge5" class="edge">
<title>AuthRoutingModule&#45;&gt;AuthModule</title>
<path fill="none" stroke="black" d="M207,-84.82C207,-102.17 207,-125.8 207,-125.8 207,-125.8 458.3,-125.8 458.3,-125.8"/>
<polygon fill="black" stroke="black" points="458.3,-129.3 468.3,-125.8 458.3,-122.3 458.3,-129.3"/>
</g>
<!-- SharedModule -->
<g id="node7" class="node">
<title>SharedModule</title>
<polygon fill="#8dd3c7" stroke="black" points="122.43,-84.8 119.43,-88.8 98.43,-88.8 95.43,-84.8 23.57,-84.8 23.57,-48.8 122.43,-48.8 122.43,-84.8"/>
<text text-anchor="middle" x="73" y="-62.6" font-family="Times,serif" font-size="14.00">SharedModule</text>
</g>
<!-- SharedModule&#45;&gt;AuthModule -->
<g id="edge6" class="edge">
<title>SharedModule&#45;&gt;AuthModule</title>
<path fill="none" stroke="black" d="M73,-85.08C73,-106.12 73,-137.8 73,-137.8 73,-137.8 458.3,-137.8 458.3,-137.8"/>
<polygon fill="black" stroke="black" points="458.3,-141.3 468.3,-137.8 458.3,-134.3 458.3,-141.3"/>
</g>
</g>
</svg>
