<?xml version="1.0" encoding="UTF-8" standalone="no"?>
<!DOCTYPE svg PUBLIC "-//W3C//DTD SVG 1.1//EN"
 "http://www.w3.org/Graphics/SVG/1.1/DTD/svg11.dtd">
<!-- Generated by graphviz version 5.0.0 (20220707.1540)
 -->
<!-- Title: dependencies Pages: 1 -->
<svg width="966pt" height="174pt"
 viewBox="0.00 0.00 966.00 173.80" xmlns="http://www.w3.org/2000/svg" xmlns:xlink="http://www.w3.org/1999/xlink">
<g id="graph0" class="graph" transform="scale(1 1) rotate(0) translate(4 169.8)">
<title>dependencies</title>
<polygon fill="white" stroke="transparent" points="-4,4 -4,-169.8 962,-169.8 962,4 -4,4"/>
<text text-anchor="middle" x="479" y="-8.2" font-family="sans-serif" font-size="14.00">dependencies</text>
<g id="clust1" class="cluster">
<title>cluster_OtDetalleModule</title>
<polygon fill="none" stroke="black" stroke-dasharray="1,5" points="8,-32.8 8,-157.8 950,-157.8 950,-32.8 8,-32.8"/>
</g>
<g id="clust2" class="cluster">
<title>cluster_OtDetalleModule_declarations</title>
<polygon fill="none" stroke="black" points="316,-40.8 316,-92.8 942,-92.8 942,-40.8 316,-40.8"/>
</g>
<g id="clust7" class="cluster">
<title>cluster_OtDetalleModule_imports</title>
<polygon fill="none" stroke="black" points="16,-40.8 16,-92.8 308,-92.8 308,-40.8 16,-40.8"/>
</g>
<!-- AnexosComponent -->
<g id="node1" class="node">
<title>AnexosComponent</title>
<polygon fill="#ffffb3" stroke="black" points="934.1,-84.8 809.9,-84.8 809.9,-48.8 934.1,-48.8 934.1,-84.8"/>
<text text-anchor="middle" x="872" y="-62.6" font-family="Times,serif" font-size="14.00">AnexosComponent</text>
</g>
<!-- OtDetalleModule -->
<g id="node5" class="node">
<title>OtDetalleModule</title>
<polygon fill="#8dd3c7" stroke="black" points="527.97,-149.8 524.97,-153.8 503.97,-153.8 500.97,-149.8 414.03,-149.8 414.03,-113.8 527.97,-113.8 527.97,-149.8"/>
<text text-anchor="middle" x="471" y="-127.6" font-family="Times,serif" font-size="14.00">OtDetalleModule</text>
</g>
<!-- AnexosComponent&#45;&gt;OtDetalleModule -->
<g id="edge1" class="edge">
<title>AnexosComponent&#45;&gt;OtDetalleModule</title>
<path fill="none" stroke="black" d="M872,-85.08C872,-106.12 872,-137.8 872,-137.8 872,-137.8 538.03,-137.8 538.03,-137.8"/>
<polygon fill="black" stroke="black" points="538.03,-134.3 528.03,-137.8 538.03,-141.3 538.03,-134.3"/>
</g>
<!-- InformacionComponent -->
<g id="node2" class="node">
<title>InformacionComponent</title>
<polygon fill="#ffffb3" stroke="black" points="792.03,-84.8 641.97,-84.8 641.97,-48.8 792.03,-48.8 792.03,-84.8"/>
<text text-anchor="middle" x="717" y="-62.6" font-family="Times,serif" font-size="14.00">InformacionComponent</text>
</g>
<!-- InformacionComponent&#45;&gt;OtDetalleModule -->
<g id="edge2" class="edge">
<title>InformacionComponent&#45;&gt;OtDetalleModule</title>
<path fill="none" stroke="black" d="M717,-84.82C717,-102.17 717,-125.8 717,-125.8 717,-125.8 538.06,-125.8 538.06,-125.8"/>
<polygon fill="black" stroke="black" points="538.06,-122.3 528.06,-125.8 538.06,-129.3 538.06,-122.3"/>
</g>
<!-- LibroObrasComponent -->
<g id="node3" class="node">
<title>LibroObrasComponent</title>
<polygon fill="#ffffb3" stroke="black" points="623.87,-84.8 478.13,-84.8 478.13,-48.8 623.87,-48.8 623.87,-84.8"/>
<text text-anchor="middle" x="551" y="-62.6" font-family="Times,serif" font-size="14.00">LibroObrasComponent</text>
</g>
<!-- LibroObrasComponent&#45;&gt;OtDetalleModule -->
<g id="edge3" class="edge">
<title>LibroObrasComponent&#45;&gt;OtDetalleModule</title>
<path fill="none" stroke="black" d="M503.03,-84.91C503.03,-84.91 503.03,-103.79 503.03,-103.79"/>
<polygon fill="black" stroke="black" points="499.53,-103.79 503.03,-113.79 506.53,-103.79 499.53,-103.79"/>
</g>
<!-- OtDetalleComponent -->
<g id="node4" class="node">
<title>OtDetalleComponent</title>
<polygon fill="#ffffb3" stroke="black" points="459.75,-84.8 324.25,-84.8 324.25,-48.8 459.75,-48.8 459.75,-84.8"/>
<text text-anchor="middle" x="392" y="-62.6" font-family="Times,serif" font-size="14.00">OtDetalleComponent</text>
</g>
<!-- OtDetalleComponent&#45;&gt;OtDetalleModule -->
<g id="edge4" class="edge">
<title>OtDetalleComponent&#45;&gt;OtDetalleModule</title>
<path fill="none" stroke="black" d="M436.94,-84.91C436.94,-84.91 436.94,-103.79 436.94,-103.79"/>
<polygon fill="black" stroke="black" points="433.44,-103.79 436.94,-113.79 440.44,-103.79 433.44,-103.79"/>
</g>
<!-- OtDetalleRoutingModule -->
<g id="node6" class="node">
<title>OtDetalleRoutingModule</title>
<polygon fill="#8dd3c7" stroke="black" points="299.59,-84.8 296.59,-88.8 275.59,-88.8 272.59,-84.8 140.41,-84.8 140.41,-48.8 299.59,-48.8 299.59,-84.8"/>
<text text-anchor="middle" x="220" y="-62.6" font-family="Times,serif" font-size="14.00">OtDetalleRoutingModule</text>
</g>
<!-- OtDetalleRoutingModule&#45;&gt;OtDetalleModule -->
<g id="edge5" class="edge">
<title>OtDetalleRoutingModule&#45;&gt;OtDetalleModule</title>
<path fill="none" stroke="black" d="M220,-84.82C220,-102.17 220,-125.8 220,-125.8 220,-125.8 403.73,-125.8 403.73,-125.8"/>
<polygon fill="black" stroke="black" points="403.73,-129.3 413.73,-125.8 403.73,-122.3 403.73,-129.3"/>
</g>
<!-- SharedModule -->
<g id="node7" class="node">
<title>SharedModule</title>
<polygon fill="#8dd3c7" stroke="black" points="122.43,-84.8 119.43,-88.8 98.43,-88.8 95.43,-84.8 23.57,-84.8 23.57,-48.8 122.43,-48.8 122.43,-84.8"/>
<text text-anchor="middle" x="73" y="-62.6" font-family="Times,serif" font-size="14.00">SharedModule</text>
</g>
<!-- SharedModule&#45;&gt;OtDetalleModule -->
<g id="edge6" class="edge">
<title>SharedModule&#45;&gt;OtDetalleModule</title>
<path fill="none" stroke="black" d="M73,-85.08C73,-106.12 73,-137.8 73,-137.8 73,-137.8 403.98,-137.8 403.98,-137.8"/>
<polygon fill="black" stroke="black" points="403.98,-141.3 413.98,-137.8 403.98,-134.3 403.98,-141.3"/>
</g>
</g>
</svg>
