<?xml version="1.0" encoding="UTF-8" standalone="no"?>
<!DOCTYPE svg PUBLIC "-//W3C//DTD SVG 1.1//EN"
 "http://www.w3.org/Graphics/SVG/1.1/DTD/svg11.dtd">
<!-- Generated by graphviz version 5.0.0 (20220707.1540)
 -->
<!-- Title: dependencies Pages: 1 -->
<svg width="1195pt" height="174pt"
 viewBox="0.00 0.00 1195.00 173.80" xmlns="http://www.w3.org/2000/svg" xmlns:xlink="http://www.w3.org/1999/xlink">
<g id="graph0" class="graph" transform="scale(1 1) rotate(0) translate(4 169.8)">
<title>dependencies</title>
<polygon fill="white" stroke="transparent" points="-4,4 -4,-169.8 1191,-169.8 1191,4 -4,4"/>
<text text-anchor="middle" x="593.5" y="-8.2" font-family="sans-serif" font-size="14.00">dependencies</text>
<g id="clust1" class="cluster">
<title>cluster_OtDetalleModule</title>
<polygon fill="none" stroke="black" stroke-dasharray="1,5" points="8,-32.8 8,-157.8 1179,-157.8 1179,-32.8 8,-32.8"/>
</g>
<g id="clust8" class="cluster">
<title>cluster_OtDetalleModule_imports</title>
<polygon fill="none" stroke="black" points="788,-40.8 788,-92.8 1171,-92.8 1171,-40.8 788,-40.8"/>
</g>
<g id="clust2" class="cluster">
<title>cluster_OtDetalleModule_declarations</title>
<polygon fill="none" stroke="black" points="16,-40.8 16,-92.8 780,-92.8 780,-40.8 16,-40.8"/>
</g>
<!-- AnexosComponent -->
<g id="node1" class="node">
<title>AnexosComponent</title>
<polygon fill="#ffffb3" stroke="black" points="772.1,-84.8 647.9,-84.8 647.9,-48.8 772.1,-48.8 772.1,-84.8"/>
<text text-anchor="middle" x="710" y="-62.6" font-family="Times,serif" font-size="14.00">AnexosComponent</text>
</g>
<!-- OtDetalleModule -->
<g id="node6" class="node">
<title>OtDetalleModule</title>
<polygon fill="#8dd3c7" stroke="black" points="696.97,-149.8 693.97,-153.8 672.97,-153.8 669.97,-149.8 583.03,-149.8 583.03,-113.8 696.97,-113.8 696.97,-149.8"/>
<text text-anchor="middle" x="640" y="-127.6" font-family="Times,serif" font-size="14.00">OtDetalleModule</text>
</g>
<!-- AnexosComponent&#45;&gt;OtDetalleModule -->
<g id="edge1" class="edge">
<title>AnexosComponent&#45;&gt;OtDetalleModule</title>
<path fill="none" stroke="black" d="M672.47,-84.91C672.47,-84.91 672.47,-103.79 672.47,-103.79"/>
<polygon fill="black" stroke="black" points="668.97,-103.79 672.47,-113.79 675.97,-103.79 668.97,-103.79"/>
</g>
<!-- CosteoComponent -->
<g id="node2" class="node">
<title>CosteoComponent</title>
<polygon fill="#ffffb3" stroke="black" points="630.22,-84.8 509.78,-84.8 509.78,-48.8 630.22,-48.8 630.22,-84.8"/>
<text text-anchor="middle" x="570" y="-62.6" font-family="Times,serif" font-size="14.00">CosteoComponent</text>
</g>
<!-- CosteoComponent&#45;&gt;OtDetalleModule -->
<g id="edge2" class="edge">
<title>CosteoComponent&#45;&gt;OtDetalleModule</title>
<path fill="none" stroke="black" d="M606.56,-84.91C606.56,-84.91 606.56,-103.79 606.56,-103.79"/>
<polygon fill="black" stroke="black" points="603.06,-103.79 606.56,-113.79 610.06,-103.79 603.06,-103.79"/>
</g>
<!-- InformacionComponent -->
<g id="node3" class="node">
<title>InformacionComponent</title>
<polygon fill="#ffffb3" stroke="black" points="492.03,-84.8 341.97,-84.8 341.97,-48.8 492.03,-48.8 492.03,-84.8"/>
<text text-anchor="middle" x="417" y="-62.6" font-family="Times,serif" font-size="14.00">InformacionComponent</text>
</g>
<!-- InformacionComponent&#45;&gt;OtDetalleModule -->
<g id="edge3" class="edge">
<title>InformacionComponent&#45;&gt;OtDetalleModule</title>
<path fill="none" stroke="black" d="M417,-84.83C417,-101.2 417,-122.8 417,-122.8 417,-122.8 572.86,-122.8 572.86,-122.8"/>
<polygon fill="black" stroke="black" points="572.86,-126.3 582.86,-122.8 572.86,-119.3 572.86,-126.3"/>
</g>
<!-- LibroObrasComponent -->
<g id="node4" class="node">
<title>LibroObrasComponent</title>
<polygon fill="#ffffb3" stroke="black" points="323.87,-84.8 178.13,-84.8 178.13,-48.8 323.87,-48.8 323.87,-84.8"/>
<text text-anchor="middle" x="251" y="-62.6" font-family="Times,serif" font-size="14.00">LibroObrasComponent</text>
</g>
<!-- LibroObrasComponent&#45;&gt;OtDetalleModule -->
<g id="edge4" class="edge">
<title>LibroObrasComponent&#45;&gt;OtDetalleModule</title>
<path fill="none" stroke="black" d="M251,-84.91C251,-104.14 251,-131.8 251,-131.8 251,-131.8 573.02,-131.8 573.02,-131.8"/>
<polygon fill="black" stroke="black" points="573.02,-135.3 583.02,-131.8 573.02,-128.3 573.02,-135.3"/>
</g>
<!-- OtDetalleComponent -->
<g id="node5" class="node">
<title>OtDetalleComponent</title>
<polygon fill="#ffffb3" stroke="black" points="159.75,-84.8 24.25,-84.8 24.25,-48.8 159.75,-48.8 159.75,-84.8"/>
<text text-anchor="middle" x="92" y="-62.6" font-family="Times,serif" font-size="14.00">OtDetalleComponent</text>
</g>
<!-- OtDetalleComponent&#45;&gt;OtDetalleModule -->
<g id="edge5" class="edge">
<title>OtDetalleComponent&#45;&gt;OtDetalleModule</title>
<path fill="none" stroke="black" d="M92,-85.09C92,-107.01 92,-140.8 92,-140.8 92,-140.8 572.91,-140.8 572.91,-140.8"/>
<polygon fill="black" stroke="black" points="572.91,-144.3 582.91,-140.8 572.91,-137.3 572.91,-144.3"/>
</g>
<!-- OtDetalleRoutingModule -->
<g id="node7" class="node">
<title>OtDetalleRoutingModule</title>
<polygon fill="#8dd3c7" stroke="black" points="1162.59,-84.8 1159.59,-88.8 1138.59,-88.8 1135.59,-84.8 1003.41,-84.8 1003.41,-48.8 1162.59,-48.8 1162.59,-84.8"/>
<text text-anchor="middle" x="1083" y="-62.6" font-family="Times,serif" font-size="14.00">OtDetalleRoutingModule</text>
</g>
<!-- OtDetalleRoutingModule&#45;&gt;OtDetalleModule -->
<g id="edge6" class="edge">
<title>OtDetalleRoutingModule&#45;&gt;OtDetalleModule</title>
<path fill="none" stroke="black" d="M1083,-85.09C1083,-107.01 1083,-140.8 1083,-140.8 1083,-140.8 707.01,-140.8 707.01,-140.8"/>
<polygon fill="black" stroke="black" points="707.01,-137.3 697.01,-140.8 707.01,-144.3 707.01,-137.3"/>
</g>
<!-- OtModule -->
<g id="node8" class="node">
<title>OtModule</title>
<polygon fill="#8dd3c7" stroke="black" points="985.55,-84.8 982.55,-88.8 961.55,-88.8 958.55,-84.8 912.45,-84.8 912.45,-48.8 985.55,-48.8 985.55,-84.8"/>
<text text-anchor="middle" x="949" y="-62.6" font-family="Times,serif" font-size="14.00">OtModule</text>
</g>
<!-- OtModule&#45;&gt;OtDetalleModule -->
<g id="edge7" class="edge">
<title>OtModule&#45;&gt;OtDetalleModule</title>
<path fill="none" stroke="black" d="M949,-84.91C949,-104.14 949,-131.8 949,-131.8 949,-131.8 707.04,-131.8 707.04,-131.8"/>
<polygon fill="black" stroke="black" points="707.04,-128.3 697.04,-131.8 707.04,-135.3 707.04,-128.3"/>
</g>
<!-- SharedModule -->
<g id="node9" class="node">
<title>SharedModule</title>
<polygon fill="#8dd3c7" stroke="black" points="894.43,-84.8 891.43,-88.8 870.43,-88.8 867.43,-84.8 795.57,-84.8 795.57,-48.8 894.43,-48.8 894.43,-84.8"/>
<text text-anchor="middle" x="845" y="-62.6" font-family="Times,serif" font-size="14.00">SharedModule</text>
</g>
<!-- SharedModule&#45;&gt;OtDetalleModule -->
<g id="edge8" class="edge">
<title>SharedModule&#45;&gt;OtDetalleModule</title>
<path fill="none" stroke="black" d="M845,-84.83C845,-101.2 845,-122.8 845,-122.8 845,-122.8 707.1,-122.8 707.1,-122.8"/>
<polygon fill="black" stroke="black" points="707.1,-119.3 697.1,-122.8 707.1,-126.3 707.1,-119.3"/>
</g>
</g>
</svg>
