<?xml version="1.0" encoding="UTF-8" standalone="no"?>
<!DOCTYPE svg PUBLIC "-//W3C//DTD SVG 1.1//EN"
 "http://www.w3.org/Graphics/SVG/1.1/DTD/svg11.dtd">
<!-- Generated by graphviz version 5.0.0 (20220707.1540)
 -->
<!-- Title: dependencies Pages: 1 -->
<svg width="679pt" height="174pt"
 viewBox="0.00 0.00 679.00 173.80" xmlns="http://www.w3.org/2000/svg" xmlns:xlink="http://www.w3.org/1999/xlink">
<g id="graph0" class="graph" transform="scale(1 1) rotate(0) translate(4 169.8)">
<title>dependencies</title>
<polygon fill="white" stroke="transparent" points="-4,4 -4,-169.8 675,-169.8 675,4 -4,4"/>
<text text-anchor="middle" x="335.5" y="-8.2" font-family="sans-serif" font-size="14.00">dependencies</text>
<g id="clust1" class="cluster">
<title>cluster_OtDetalleModule</title>
<polygon fill="none" stroke="black" stroke-dasharray="1,5" points="8,-32.8 8,-157.8 663,-157.8 663,-32.8 8,-32.8"/>
</g>
<g id="clust2" class="cluster">
<title>cluster_OtDetalleModule_declarations</title>
<polygon fill="none" stroke="black" points="316,-40.8 316,-92.8 655,-92.8 655,-40.8 316,-40.8"/>
</g>
<g id="clust5" class="cluster">
<title>cluster_OtDetalleModule_imports</title>
<polygon fill="none" stroke="black" points="16,-40.8 16,-92.8 308,-92.8 308,-40.8 16,-40.8"/>
</g>
<!-- InformeAvanceComponent -->
<g id="node1" class="node">
<title>InformeAvanceComponent</title>
<polygon fill="#ffffb3" stroke="black" points="646.67,-84.8 477.33,-84.8 477.33,-48.8 646.67,-48.8 646.67,-84.8"/>
<text text-anchor="middle" x="562" y="-62.6" font-family="Times,serif" font-size="14.00">InformeAvanceComponent</text>
</g>
<!-- OtDetalleModule -->
<g id="node3" class="node">
<title>OtDetalleModule</title>
<polygon fill="#8dd3c7" stroke="black" points="362.97,-149.8 359.97,-153.8 338.97,-153.8 335.97,-149.8 249.03,-149.8 249.03,-113.8 362.97,-113.8 362.97,-149.8"/>
<text text-anchor="middle" x="306" y="-127.6" font-family="Times,serif" font-size="14.00">OtDetalleModule</text>
</g>
<!-- InformeAvanceComponent&#45;&gt;OtDetalleModule -->
<g id="edge1" class="edge">
<title>InformeAvanceComponent&#45;&gt;OtDetalleModule</title>
<path fill="none" stroke="black" d="M562,-84.91C562,-104.14 562,-131.8 562,-131.8 562,-131.8 373.13,-131.8 373.13,-131.8"/>
<polygon fill="black" stroke="black" points="373.13,-128.3 363.13,-131.8 373.13,-135.3 373.13,-128.3"/>
</g>
<!-- OtDetalleComponent -->
<g id="node2" class="node">
<title>OtDetalleComponent</title>
<polygon fill="#ffffb3" stroke="black" points="459.75,-84.8 324.25,-84.8 324.25,-48.8 459.75,-48.8 459.75,-84.8"/>
<text text-anchor="middle" x="392" y="-62.6" font-family="Times,serif" font-size="14.00">OtDetalleComponent</text>
</g>
<!-- OtDetalleComponent&#45;&gt;OtDetalleModule -->
<g id="edge2" class="edge">
<title>OtDetalleComponent&#45;&gt;OtDetalleModule</title>
<path fill="none" stroke="black" d="M343.56,-84.91C343.56,-84.91 343.56,-103.79 343.56,-103.79"/>
<polygon fill="black" stroke="black" points="340.06,-103.79 343.56,-113.79 347.06,-103.79 340.06,-103.79"/>
</g>
<!-- OtDetalleRoutingModule -->
<g id="node4" class="node">
<title>OtDetalleRoutingModule</title>
<polygon fill="#8dd3c7" stroke="black" points="299.59,-84.8 296.59,-88.8 275.59,-88.8 272.59,-84.8 140.41,-84.8 140.41,-48.8 299.59,-48.8 299.59,-84.8"/>
<text text-anchor="middle" x="220" y="-62.6" font-family="Times,serif" font-size="14.00">OtDetalleRoutingModule</text>
</g>
<!-- OtDetalleRoutingModule&#45;&gt;OtDetalleModule -->
<g id="edge3" class="edge">
<title>OtDetalleRoutingModule&#45;&gt;OtDetalleModule</title>
<path fill="none" stroke="black" d="M274.28,-84.91C274.28,-84.91 274.28,-103.79 274.28,-103.79"/>
<polygon fill="black" stroke="black" points="270.78,-103.79 274.28,-113.79 277.78,-103.79 270.78,-103.79"/>
</g>
<!-- SharedModule -->
<g id="node5" class="node">
<title>SharedModule</title>
<polygon fill="#8dd3c7" stroke="black" points="122.43,-84.8 119.43,-88.8 98.43,-88.8 95.43,-84.8 23.57,-84.8 23.57,-48.8 122.43,-48.8 122.43,-84.8"/>
<text text-anchor="middle" x="73" y="-62.6" font-family="Times,serif" font-size="14.00">SharedModule</text>
</g>
<!-- SharedModule&#45;&gt;OtDetalleModule -->
<g id="edge4" class="edge">
<title>SharedModule&#45;&gt;OtDetalleModule</title>
<path fill="none" stroke="black" d="M73,-84.91C73,-104.14 73,-131.8 73,-131.8 73,-131.8 239,-131.8 239,-131.8"/>
<polygon fill="black" stroke="black" points="239,-135.3 249,-131.8 239,-128.3 239,-135.3"/>
</g>
</g>
</svg>
