<?xml version="1.0" encoding="UTF-8" standalone="no"?>
<!DOCTYPE svg PUBLIC "-//W3C//DTD SVG 1.1//EN"
 "http://www.w3.org/Graphics/SVG/1.1/DTD/svg11.dtd">
<!-- Generated by graphviz version 5.0.0 (20220707.1540)
 -->
<!-- Title: dependencies Pages: 1 -->
<svg width="558pt" height="174pt"
 viewBox="0.00 0.00 558.00 173.80" xmlns="http://www.w3.org/2000/svg" xmlns:xlink="http://www.w3.org/1999/xlink">
<g id="graph0" class="graph" transform="scale(1 1) rotate(0) translate(4 169.8)">
<title>dependencies</title>
<polygon fill="white" stroke="transparent" points="-4,4 -4,-169.8 554,-169.8 554,4 -4,4"/>
<text text-anchor="middle" x="275" y="-8.2" font-family="sans-serif" font-size="14.00">dependencies</text>
<g id="clust1" class="cluster">
<title>cluster_InformeAvanceModule</title>
<polygon fill="none" stroke="black" stroke-dasharray="1,5" points="8,-32.8 8,-157.8 542,-157.8 542,-32.8 8,-32.8"/>
</g>
<g id="clust2" class="cluster">
<title>cluster_InformeAvanceModule_declarations</title>
<polygon fill="none" stroke="black" points="348,-40.8 348,-92.8 534,-92.8 534,-40.8 348,-40.8"/>
</g>
<g id="clust4" class="cluster">
<title>cluster_InformeAvanceModule_imports</title>
<polygon fill="none" stroke="black" points="16,-40.8 16,-92.8 340,-92.8 340,-40.8 16,-40.8"/>
</g>
<!-- InformeAvanceComponent -->
<g id="node1" class="node">
<title>InformeAvanceComponent</title>
<polygon fill="#ffffb3" stroke="black" points="525.67,-84.8 356.33,-84.8 356.33,-48.8 525.67,-48.8 525.67,-84.8"/>
<text text-anchor="middle" x="441" y="-62.6" font-family="Times,serif" font-size="14.00">InformeAvanceComponent</text>
</g>
<!-- InformeAvanceModule -->
<g id="node2" class="node">
<title>InformeAvanceModule</title>
<polygon fill="#8dd3c7" stroke="black" points="309.89,-149.8 306.89,-153.8 285.89,-153.8 282.89,-149.8 162.11,-149.8 162.11,-113.8 309.89,-113.8 309.89,-149.8"/>
<text text-anchor="middle" x="236" y="-127.6" font-family="Times,serif" font-size="14.00">InformeAvanceModule</text>
</g>
<!-- InformeAvanceComponent&#45;&gt;InformeAvanceModule -->
<g id="edge1" class="edge">
<title>InformeAvanceComponent&#45;&gt;InformeAvanceModule</title>
<path fill="none" stroke="black" d="M441,-84.91C441,-104.14 441,-131.8 441,-131.8 441,-131.8 319.72,-131.8 319.72,-131.8"/>
<polygon fill="black" stroke="black" points="319.72,-128.3 309.72,-131.8 319.72,-135.3 319.72,-128.3"/>
</g>
<!-- InformeAvanceRoutingModule -->
<g id="node3" class="node">
<title>InformeAvanceRoutingModule</title>
<polygon fill="#8dd3c7" stroke="black" points="332.01,-84.8 329.01,-88.8 308.01,-88.8 305.01,-84.8 139.99,-84.8 139.99,-48.8 332.01,-48.8 332.01,-84.8"/>
<text text-anchor="middle" x="236" y="-62.6" font-family="Times,serif" font-size="14.00">InformeAvanceRoutingModule</text>
</g>
<!-- InformeAvanceRoutingModule&#45;&gt;InformeAvanceModule -->
<g id="edge2" class="edge">
<title>InformeAvanceRoutingModule&#45;&gt;InformeAvanceModule</title>
<path fill="none" stroke="black" d="M236,-84.91C236,-84.91 236,-103.79 236,-103.79"/>
<polygon fill="black" stroke="black" points="232.5,-103.79 236,-113.79 239.5,-103.79 232.5,-103.79"/>
</g>
<!-- SharedModule -->
<g id="node4" class="node">
<title>SharedModule</title>
<polygon fill="#8dd3c7" stroke="black" points="122.43,-84.8 119.43,-88.8 98.43,-88.8 95.43,-84.8 23.57,-84.8 23.57,-48.8 122.43,-48.8 122.43,-84.8"/>
<text text-anchor="middle" x="73" y="-62.6" font-family="Times,serif" font-size="14.00">SharedModule</text>
</g>
<!-- SharedModule&#45;&gt;InformeAvanceModule -->
<g id="edge3" class="edge">
<title>SharedModule&#45;&gt;InformeAvanceModule</title>
<path fill="none" stroke="black" d="M73,-84.91C73,-104.14 73,-131.8 73,-131.8 73,-131.8 152.13,-131.8 152.13,-131.8"/>
<polygon fill="black" stroke="black" points="152.13,-135.3 162.13,-131.8 152.13,-128.3 152.13,-135.3"/>
</g>
</g>
</svg>
