<?xml version="1.0" encoding="UTF-8" standalone="no"?>
<!DOCTYPE svg PUBLIC "-//W3C//DTD SVG 1.1//EN"
 "http://www.w3.org/Graphics/SVG/1.1/DTD/svg11.dtd">
<!-- Generated by graphviz version 5.0.0 (20220707.1540)
 -->
<!-- Title: dependencies Pages: 1 -->
<svg width="962pt" height="174pt"
 viewBox="0.00 0.00 962.00 173.80" xmlns="http://www.w3.org/2000/svg" xmlns:xlink="http://www.w3.org/1999/xlink">
<g id="graph0" class="graph" transform="scale(1 1) rotate(0) translate(4 169.8)">
<title>dependencies</title>
<polygon fill="white" stroke="transparent" points="-4,4 -4,-169.8 958,-169.8 958,4 -4,4"/>
<text text-anchor="middle" x="477" y="-8.2" font-family="sans-serif" font-size="14.00">dependencies</text>
<g id="clust1" class="cluster">
<title>cluster_ContratosModule</title>
<polygon fill="none" stroke="black" stroke-dasharray="1,5" points="8,-32.8 8,-157.8 946,-157.8 946,-32.8 8,-32.8"/>
</g>
<g id="clust2" class="cluster">
<title>cluster_ContratosModule_declarations</title>
<polygon fill="none" stroke="black" points="316,-40.8 316,-92.8 938,-92.8 938,-40.8 316,-40.8"/>
</g>
<g id="clust6" class="cluster">
<title>cluster_ContratosModule_imports</title>
<polygon fill="none" stroke="black" points="16,-40.8 16,-92.8 308,-92.8 308,-40.8 16,-40.8"/>
</g>
<!-- ContratosComponent -->
<g id="node1" class="node">
<title>ContratosComponent</title>
<polygon fill="#ffffb3" stroke="black" points="929.77,-84.8 794.23,-84.8 794.23,-48.8 929.77,-48.8 929.77,-84.8"/>
<text text-anchor="middle" x="862" y="-62.6" font-family="Times,serif" font-size="14.00">ContratosComponent</text>
</g>
<!-- ContratosModule -->
<g id="node4" class="node">
<title>ContratosModule</title>
<polygon fill="#8dd3c7" stroke="black" points="486.99,-149.8 483.99,-153.8 462.99,-153.8 459.99,-149.8 373.01,-149.8 373.01,-113.8 486.99,-113.8 486.99,-149.8"/>
<text text-anchor="middle" x="430" y="-127.6" font-family="Times,serif" font-size="14.00">ContratosModule</text>
</g>
<!-- ContratosComponent&#45;&gt;ContratosModule -->
<g id="edge1" class="edge">
<title>ContratosComponent&#45;&gt;ContratosModule</title>
<path fill="none" stroke="black" d="M862,-85.08C862,-106.12 862,-137.8 862,-137.8 862,-137.8 497.37,-137.8 497.37,-137.8"/>
<polygon fill="black" stroke="black" points="497.37,-134.3 487.37,-137.8 497.37,-141.3 497.37,-134.3"/>
</g>
<!-- FormContratosContainerComponent -->
<g id="node2" class="node">
<title>FormContratosContainerComponent</title>
<polygon fill="#ffffb3" stroke="black" points="775.82,-84.8 554.18,-84.8 554.18,-48.8 775.82,-48.8 775.82,-84.8"/>
<text text-anchor="middle" x="665" y="-62.6" font-family="Times,serif" font-size="14.00">FormContratosContainerComponent</text>
</g>
<!-- FormContratosContainerComponent&#45;&gt;ContratosModule -->
<g id="edge2" class="edge">
<title>FormContratosContainerComponent&#45;&gt;ContratosModule</title>
<path fill="none" stroke="black" d="M665,-84.82C665,-102.17 665,-125.8 665,-125.8 665,-125.8 497.19,-125.8 497.19,-125.8"/>
<polygon fill="black" stroke="black" points="497.19,-122.3 487.19,-125.8 497.19,-129.3 497.19,-122.3"/>
</g>
<!-- ListContratosContainerComponent -->
<g id="node3" class="node">
<title>ListContratosContainerComponent</title>
<polygon fill="#ffffb3" stroke="black" points="536.26,-84.8 323.74,-84.8 323.74,-48.8 536.26,-48.8 536.26,-84.8"/>
<text text-anchor="middle" x="430" y="-62.6" font-family="Times,serif" font-size="14.00">ListContratosContainerComponent</text>
</g>
<!-- ListContratosContainerComponent&#45;&gt;ContratosModule -->
<g id="edge3" class="edge">
<title>ListContratosContainerComponent&#45;&gt;ContratosModule</title>
<path fill="none" stroke="black" d="M430,-84.91C430,-84.91 430,-103.79 430,-103.79"/>
<polygon fill="black" stroke="black" points="426.5,-103.79 430,-113.79 433.5,-103.79 426.5,-103.79"/>
</g>
<!-- ContratosRoutingModule -->
<g id="node5" class="node">
<title>ContratosRoutingModule</title>
<polygon fill="#8dd3c7" stroke="black" points="299.61,-84.8 296.61,-88.8 275.61,-88.8 272.61,-84.8 140.39,-84.8 140.39,-48.8 299.61,-48.8 299.61,-84.8"/>
<text text-anchor="middle" x="220" y="-62.6" font-family="Times,serif" font-size="14.00">ContratosRoutingModule</text>
</g>
<!-- ContratosRoutingModule&#45;&gt;ContratosModule -->
<g id="edge4" class="edge">
<title>ContratosRoutingModule&#45;&gt;ContratosModule</title>
<path fill="none" stroke="black" d="M220,-84.82C220,-102.17 220,-125.8 220,-125.8 220,-125.8 362.89,-125.8 362.89,-125.8"/>
<polygon fill="black" stroke="black" points="362.89,-129.3 372.89,-125.8 362.89,-122.3 362.89,-129.3"/>
</g>
<!-- SharedModule -->
<g id="node6" class="node">
<title>SharedModule</title>
<polygon fill="#8dd3c7" stroke="black" points="122.43,-84.8 119.43,-88.8 98.43,-88.8 95.43,-84.8 23.57,-84.8 23.57,-48.8 122.43,-48.8 122.43,-84.8"/>
<text text-anchor="middle" x="73" y="-62.6" font-family="Times,serif" font-size="14.00">SharedModule</text>
</g>
<!-- SharedModule&#45;&gt;ContratosModule -->
<g id="edge5" class="edge">
<title>SharedModule&#45;&gt;ContratosModule</title>
<path fill="none" stroke="black" d="M73,-85.08C73,-106.12 73,-137.8 73,-137.8 73,-137.8 362.64,-137.8 362.64,-137.8"/>
<polygon fill="black" stroke="black" points="362.64,-141.3 372.64,-137.8 362.64,-134.3 362.64,-141.3"/>
</g>
</g>
</svg>
