<?xml version="1.0" encoding="UTF-8" standalone="no"?>
<!DOCTYPE svg PUBLIC "-//W3C//DTD SVG 1.1//EN"
 "http://www.w3.org/Graphics/SVG/1.1/DTD/svg11.dtd">
<!-- Generated by graphviz version 5.0.0 (20220707.1540)
 -->
<!-- Title: dependencies Pages: 1 -->
<svg width="1856pt" height="174pt"
 viewBox="0.00 0.00 1856.00 173.80" xmlns="http://www.w3.org/2000/svg" xmlns:xlink="http://www.w3.org/1999/xlink">
<g id="graph0" class="graph" transform="scale(1 1) rotate(0) translate(4 169.8)">
<title>dependencies</title>
<polygon fill="white" stroke="transparent" points="-4,4 -4,-169.8 1852,-169.8 1852,4 -4,4"/>
<text text-anchor="middle" x="924" y="-8.2" font-family="sans-serif" font-size="14.00">dependencies</text>
<g id="clust1" class="cluster">
<title>cluster_CubicacionModule</title>
<polygon fill="none" stroke="black" stroke-dasharray="1,5" points="8,-32.8 8,-157.8 1840,-157.8 1840,-32.8 8,-32.8"/>
</g>
<g id="clust12" class="cluster">
<title>cluster_CubicacionModule_imports</title>
<polygon fill="none" stroke="black" points="1532,-40.8 1532,-92.8 1832,-92.8 1832,-40.8 1532,-40.8"/>
</g>
<g id="clust2" class="cluster">
<title>cluster_CubicacionModule_declarations</title>
<polygon fill="none" stroke="black" points="16,-40.8 16,-92.8 1524,-92.8 1524,-40.8 16,-40.8"/>
</g>
<!-- BaseTdComponent -->
<g id="node1" class="node">
<title>BaseTdComponent</title>
<polygon fill="#ffffb3" stroke="black" points="1516.1,-84.8 1391.9,-84.8 1391.9,-48.8 1516.1,-48.8 1516.1,-84.8"/>
<text text-anchor="middle" x="1454" y="-62.6" font-family="Times,serif" font-size="14.00">BaseTdComponent</text>
</g>
<!-- CubicacionModule -->
<g id="node10" class="node">
<title>CubicacionModule</title>
<polygon fill="#8dd3c7" stroke="black" points="991.81,-149.8 988.81,-153.8 967.81,-153.8 964.81,-149.8 868.19,-149.8 868.19,-113.8 991.81,-113.8 991.81,-149.8"/>
<text text-anchor="middle" x="930" y="-127.6" font-family="Times,serif" font-size="14.00">CubicacionModule</text>
</g>
<!-- BaseTdComponent&#45;&gt;CubicacionModule -->
<g id="edge1" class="edge">
<title>BaseTdComponent&#45;&gt;CubicacionModule</title>
<path fill="none" stroke="black" d="M1454,-84.91C1454,-104.14 1454,-131.8 1454,-131.8 1454,-131.8 1001.91,-131.8 1001.91,-131.8"/>
<polygon fill="black" stroke="black" points="1001.91,-128.3 991.91,-131.8 1001.91,-135.3 1001.91,-128.3"/>
</g>
<!-- CubicacionComponent -->
<g id="node2" class="node">
<title>CubicacionComponent</title>
<polygon fill="#ffffb3" stroke="black" points="1373.59,-84.8 1228.41,-84.8 1228.41,-48.8 1373.59,-48.8 1373.59,-84.8"/>
<text text-anchor="middle" x="1301" y="-62.6" font-family="Times,serif" font-size="14.00">CubicacionComponent</text>
</g>
<!-- CubicacionComponent&#45;&gt;CubicacionModule -->
<g id="edge2" class="edge">
<title>CubicacionComponent&#45;&gt;CubicacionModule</title>
<path fill="none" stroke="black" d="M1301,-84.82C1301,-102.17 1301,-125.8 1301,-125.8 1301,-125.8 1001.68,-125.8 1001.68,-125.8"/>
<polygon fill="black" stroke="black" points="1001.68,-122.3 991.68,-125.8 1001.68,-129.3 1001.68,-122.3"/>
</g>
<!-- FormCubContainerComponent -->
<g id="node3" class="node">
<title>FormCubContainerComponent</title>
<polygon fill="#ffffb3" stroke="black" points="1210.21,-84.8 1019.79,-84.8 1019.79,-48.8 1210.21,-48.8 1210.21,-84.8"/>
<text text-anchor="middle" x="1115" y="-62.6" font-family="Times,serif" font-size="14.00">FormCubContainerComponent</text>
</g>
<!-- FormCubContainerComponent&#45;&gt;CubicacionModule -->
<g id="edge3" class="edge">
<title>FormCubContainerComponent&#45;&gt;CubicacionModule</title>
<path fill="none" stroke="black" d="M1115,-85.04C1115,-100.37 1115,-119.8 1115,-119.8 1115,-119.8 1001.86,-119.8 1001.86,-119.8"/>
<polygon fill="black" stroke="black" points="1001.86,-116.3 991.86,-119.8 1001.86,-123.3 1001.86,-116.3"/>
</g>
<!-- FormularioComponent -->
<g id="node4" class="node">
<title>FormularioComponent</title>
<polygon fill="#ffffb3" stroke="black" points="1002.32,-84.8 857.68,-84.8 857.68,-48.8 1002.32,-48.8 1002.32,-84.8"/>
<text text-anchor="middle" x="930" y="-62.6" font-family="Times,serif" font-size="14.00">FormularioComponent</text>
</g>
<!-- FormularioComponent&#45;&gt;CubicacionModule -->
<g id="edge4" class="edge">
<title>FormularioComponent&#45;&gt;CubicacionModule</title>
<path fill="none" stroke="black" d="M930,-84.91C930,-84.91 930,-103.79 930,-103.79"/>
<polygon fill="black" stroke="black" points="926.5,-103.79 930,-113.79 933.5,-103.79 926.5,-103.79"/>
</g>
<!-- ListCubComponent -->
<g id="node5" class="node">
<title>ListCubComponent</title>
<polygon fill="#ffffb3" stroke="black" points="840.45,-84.8 713.55,-84.8 713.55,-48.8 840.45,-48.8 840.45,-84.8"/>
<text text-anchor="middle" x="777" y="-62.6" font-family="Times,serif" font-size="14.00">ListCubComponent</text>
</g>
<!-- ListCubComponent&#45;&gt;CubicacionModule -->
<g id="edge5" class="edge">
<title>ListCubComponent&#45;&gt;CubicacionModule</title>
<path fill="none" stroke="black" d="M777,-85.04C777,-100.37 777,-119.8 777,-119.8 777,-119.8 858.21,-119.8 858.21,-119.8"/>
<polygon fill="black" stroke="black" points="858.21,-123.3 868.21,-119.8 858.21,-116.3 858.21,-123.3"/>
</g>
<!-- MultiTdComponent -->
<g id="node6" class="node">
<title>MultiTdComponent</title>
<polygon fill="#ffffb3" stroke="black" points="696,-84.8 568,-84.8 568,-48.8 696,-48.8 696,-84.8"/>
<text text-anchor="middle" x="632" y="-62.6" font-family="Times,serif" font-size="14.00">MultiTdComponent</text>
</g>
<!-- MultiTdComponent&#45;&gt;CubicacionModule -->
<g id="edge6" class="edge">
<title>MultiTdComponent&#45;&gt;CubicacionModule</title>
<path fill="none" stroke="black" d="M632,-84.82C632,-102.17 632,-125.8 632,-125.8 632,-125.8 858.25,-125.8 858.25,-125.8"/>
<polygon fill="black" stroke="black" points="858.25,-129.3 868.25,-125.8 858.25,-122.3 858.25,-129.3"/>
</g>
<!-- TableFiltersListCubComponent -->
<g id="node7" class="node">
<title>TableFiltersListCubComponent</title>
<polygon fill="#ffffb3" stroke="black" points="550.1,-84.8 355.9,-84.8 355.9,-48.8 550.1,-48.8 550.1,-84.8"/>
<text text-anchor="middle" x="453" y="-62.6" font-family="Times,serif" font-size="14.00">TableFiltersListCubComponent</text>
</g>
<!-- TableFiltersListCubComponent&#45;&gt;CubicacionModule -->
<g id="edge7" class="edge">
<title>TableFiltersListCubComponent&#45;&gt;CubicacionModule</title>
<path fill="none" stroke="black" d="M453,-84.91C453,-104.14 453,-131.8 453,-131.8 453,-131.8 858.13,-131.8 858.13,-131.8"/>
<polygon fill="black" stroke="black" points="858.13,-135.3 868.13,-131.8 858.13,-128.3 858.13,-135.3"/>
</g>
<!-- TableListComponent -->
<g id="node8" class="node">
<title>TableListComponent</title>
<polygon fill="#ffffb3" stroke="black" points="337.48,-84.8 202.52,-84.8 202.52,-48.8 337.48,-48.8 337.48,-84.8"/>
<text text-anchor="middle" x="270" y="-62.6" font-family="Times,serif" font-size="14.00">TableListComponent</text>
</g>
<!-- TableListComponent&#45;&gt;CubicacionModule -->
<g id="edge8" class="edge">
<title>TableListComponent&#45;&gt;CubicacionModule</title>
<path fill="none" stroke="black" d="M270,-85.08C270,-106.12 270,-137.8 270,-137.8 270,-137.8 858.21,-137.8 858.21,-137.8"/>
<polygon fill="black" stroke="black" points="858.21,-141.3 868.21,-137.8 858.21,-134.3 858.21,-141.3"/>
</g>
<!-- TableServicesComponent -->
<g id="node9" class="node">
<title>TableServicesComponent</title>
<polygon fill="#ffffb3" stroke="black" points="184.13,-84.8 23.87,-84.8 23.87,-48.8 184.13,-48.8 184.13,-84.8"/>
<text text-anchor="middle" x="104" y="-62.6" font-family="Times,serif" font-size="14.00">TableServicesComponent</text>
</g>
<!-- TableServicesComponent&#45;&gt;CubicacionModule -->
<g id="edge9" class="edge">
<title>TableServicesComponent&#45;&gt;CubicacionModule</title>
<path fill="none" stroke="black" d="M104,-84.89C104,-107.93 104,-144.8 104,-144.8 104,-144.8 858.25,-144.8 858.25,-144.8"/>
<polygon fill="black" stroke="black" points="858.25,-148.3 868.25,-144.8 858.25,-141.3 858.25,-148.3"/>
</g>
<!-- CubicacionRoutingModule -->
<g id="node11" class="node">
<title>CubicacionRoutingModule</title>
<polygon fill="#8dd3c7" stroke="black" points="1824.43,-84.8 1821.43,-88.8 1800.43,-88.8 1797.43,-84.8 1655.57,-84.8 1655.57,-48.8 1824.43,-48.8 1824.43,-84.8"/>
<text text-anchor="middle" x="1740" y="-62.6" font-family="Times,serif" font-size="14.00">CubicacionRoutingModule</text>
</g>
<!-- CubicacionRoutingModule&#45;&gt;CubicacionModule -->
<g id="edge10" class="edge">
<title>CubicacionRoutingModule&#45;&gt;CubicacionModule</title>
<path fill="none" stroke="black" d="M1740,-84.89C1740,-107.93 1740,-144.8 1740,-144.8 1740,-144.8 1001.88,-144.8 1001.88,-144.8"/>
<polygon fill="black" stroke="black" points="1001.88,-141.3 991.88,-144.8 1001.88,-148.3 1001.88,-141.3"/>
</g>
<!-- SharedModule -->
<g id="node12" class="node">
<title>SharedModule</title>
<polygon fill="#8dd3c7" stroke="black" points="1638.43,-84.8 1635.43,-88.8 1614.43,-88.8 1611.43,-84.8 1539.57,-84.8 1539.57,-48.8 1638.43,-48.8 1638.43,-84.8"/>
<text text-anchor="middle" x="1589" y="-62.6" font-family="Times,serif" font-size="14.00">SharedModule</text>
</g>
<!-- SharedModule&#45;&gt;CubicacionModule -->
<g id="edge11" class="edge">
<title>SharedModule&#45;&gt;CubicacionModule</title>
<path fill="none" stroke="black" d="M1589,-85.08C1589,-106.12 1589,-137.8 1589,-137.8 1589,-137.8 1001.7,-137.8 1001.7,-137.8"/>
<polygon fill="black" stroke="black" points="1001.7,-134.3 991.7,-137.8 1001.7,-141.3 1001.7,-134.3"/>
</g>
</g>
</svg>
