<?xml version="1.0" encoding="UTF-8" standalone="no"?>
<!DOCTYPE svg PUBLIC "-//W3C//DTD SVG 1.1//EN"
 "http://www.w3.org/Graphics/SVG/1.1/DTD/svg11.dtd">
<!-- Generated by graphviz version 5.0.0 (20220707.1540)
 -->
<!-- Title: dependencies Pages: 1 -->
<svg width="1024pt" height="174pt"
 viewBox="0.00 0.00 1024.00 173.80" xmlns="http://www.w3.org/2000/svg" xmlns:xlink="http://www.w3.org/1999/xlink">
<g id="graph0" class="graph" transform="scale(1 1) rotate(0) translate(4 169.8)">
<title>dependencies</title>
<polygon fill="white" stroke="transparent" points="-4,4 -4,-169.8 1020,-169.8 1020,4 -4,4"/>
<text text-anchor="middle" x="508" y="-8.2" font-family="sans-serif" font-size="14.00">dependencies</text>
<g id="clust1" class="cluster">
<title>cluster_CubicacionModule</title>
<polygon fill="none" stroke="black" stroke-dasharray="1,5" points="8,-32.8 8,-157.8 1008,-157.8 1008,-32.8 8,-32.8"/>
</g>
<g id="clust2" class="cluster">
<title>cluster_CubicacionModule_declarations</title>
<polygon fill="none" stroke="black" points="324,-40.8 324,-92.8 1000,-92.8 1000,-40.8 324,-40.8"/>
</g>
<g id="clust7" class="cluster">
<title>cluster_CubicacionModule_imports</title>
<polygon fill="none" stroke="black" points="16,-40.8 16,-92.8 316,-92.8 316,-40.8 16,-40.8"/>
</g>
<!-- CubicacionComponent -->
<g id="node1" class="node">
<title>CubicacionComponent</title>
<polygon fill="#ffffb3" stroke="black" points="991.59,-84.8 846.41,-84.8 846.41,-48.8 991.59,-48.8 991.59,-84.8"/>
<text text-anchor="middle" x="919" y="-62.6" font-family="Times,serif" font-size="14.00">CubicacionComponent</text>
</g>
<!-- CubicacionModule -->
<g id="node5" class="node">
<title>CubicacionModule</title>
<polygon fill="#8dd3c7" stroke="black" points="532.81,-149.8 529.81,-153.8 508.81,-153.8 505.81,-149.8 409.19,-149.8 409.19,-113.8 532.81,-113.8 532.81,-149.8"/>
<text text-anchor="middle" x="471" y="-127.6" font-family="Times,serif" font-size="14.00">CubicacionModule</text>
</g>
<!-- CubicacionComponent&#45;&gt;CubicacionModule -->
<g id="edge1" class="edge">
<title>CubicacionComponent&#45;&gt;CubicacionModule</title>
<path fill="none" stroke="black" d="M919,-85.08C919,-106.12 919,-137.8 919,-137.8 919,-137.8 542.82,-137.8 542.82,-137.8"/>
<polygon fill="black" stroke="black" points="542.82,-134.3 532.82,-137.8 542.82,-141.3 542.82,-134.3"/>
</g>
<!-- FormCubContainerComponent -->
<g id="node2" class="node">
<title>FormCubContainerComponent</title>
<polygon fill="#ffffb3" stroke="black" points="828.21,-84.8 637.79,-84.8 637.79,-48.8 828.21,-48.8 828.21,-84.8"/>
<text text-anchor="middle" x="733" y="-62.6" font-family="Times,serif" font-size="14.00">FormCubContainerComponent</text>
</g>
<!-- FormCubContainerComponent&#45;&gt;CubicacionModule -->
<g id="edge2" class="edge">
<title>FormCubContainerComponent&#45;&gt;CubicacionModule</title>
<path fill="none" stroke="black" d="M733,-84.82C733,-102.17 733,-125.8 733,-125.8 733,-125.8 542.76,-125.8 542.76,-125.8"/>
<polygon fill="black" stroke="black" points="542.76,-122.3 532.76,-125.8 542.76,-129.3 542.76,-122.3"/>
</g>
<!-- FormularioComponent -->
<g id="node3" class="node">
<title>FormularioComponent</title>
<polygon fill="#ffffb3" stroke="black" points="620.32,-84.8 475.68,-84.8 475.68,-48.8 620.32,-48.8 620.32,-84.8"/>
<text text-anchor="middle" x="548" y="-62.6" font-family="Times,serif" font-size="14.00">FormularioComponent</text>
</g>
<!-- FormularioComponent&#45;&gt;CubicacionModule -->
<g id="edge3" class="edge">
<title>FormularioComponent&#45;&gt;CubicacionModule</title>
<path fill="none" stroke="black" d="M504.25,-84.91C504.25,-84.91 504.25,-103.79 504.25,-103.79"/>
<polygon fill="black" stroke="black" points="500.75,-103.79 504.25,-113.79 507.75,-103.79 500.75,-103.79"/>
</g>
<!-- ListCubComponent -->
<g id="node4" class="node">
<title>ListCubComponent</title>
<polygon fill="#ffffb3" stroke="black" points="458.45,-84.8 331.55,-84.8 331.55,-48.8 458.45,-48.8 458.45,-84.8"/>
<text text-anchor="middle" x="395" y="-62.6" font-family="Times,serif" font-size="14.00">ListCubComponent</text>
</g>
<!-- ListCubComponent&#45;&gt;CubicacionModule -->
<g id="edge4" class="edge">
<title>ListCubComponent&#45;&gt;CubicacionModule</title>
<path fill="none" stroke="black" d="M433.78,-84.91C433.78,-84.91 433.78,-103.79 433.78,-103.79"/>
<polygon fill="black" stroke="black" points="430.28,-103.79 433.78,-113.79 437.28,-103.79 430.28,-103.79"/>
</g>
<!-- CubicacionRoutingModule -->
<g id="node6" class="node">
<title>CubicacionRoutingModule</title>
<polygon fill="#8dd3c7" stroke="black" points="308.43,-84.8 305.43,-88.8 284.43,-88.8 281.43,-84.8 139.57,-84.8 139.57,-48.8 308.43,-48.8 308.43,-84.8"/>
<text text-anchor="middle" x="224" y="-62.6" font-family="Times,serif" font-size="14.00">CubicacionRoutingModule</text>
</g>
<!-- CubicacionRoutingModule&#45;&gt;CubicacionModule -->
<g id="edge5" class="edge">
<title>CubicacionRoutingModule&#45;&gt;CubicacionModule</title>
<path fill="none" stroke="black" d="M224,-84.82C224,-102.17 224,-125.8 224,-125.8 224,-125.8 399.31,-125.8 399.31,-125.8"/>
<polygon fill="black" stroke="black" points="399.31,-129.3 409.31,-125.8 399.31,-122.3 399.31,-129.3"/>
</g>
<!-- SharedModule -->
<g id="node7" class="node">
<title>SharedModule</title>
<polygon fill="#8dd3c7" stroke="black" points="122.43,-84.8 119.43,-88.8 98.43,-88.8 95.43,-84.8 23.57,-84.8 23.57,-48.8 122.43,-48.8 122.43,-84.8"/>
<text text-anchor="middle" x="73" y="-62.6" font-family="Times,serif" font-size="14.00">SharedModule</text>
</g>
<!-- SharedModule&#45;&gt;CubicacionModule -->
<g id="edge6" class="edge">
<title>SharedModule&#45;&gt;CubicacionModule</title>
<path fill="none" stroke="black" d="M73,-85.08C73,-106.12 73,-137.8 73,-137.8 73,-137.8 399.25,-137.8 399.25,-137.8"/>
<polygon fill="black" stroke="black" points="399.25,-141.3 409.25,-137.8 399.25,-134.3 399.25,-141.3"/>
</g>
</g>
</svg>
