<?xml version="1.0" encoding="UTF-8" standalone="no"?>
<!DOCTYPE svg PUBLIC "-//W3C//DTD SVG 1.1//EN"
 "http://www.w3.org/Graphics/SVG/1.1/DTD/svg11.dtd">
<!-- Generated by graphviz version 5.0.0 (20220707.1540)
 -->
<!-- Title: dependencies Pages: 1 -->
<svg width="1024pt" height="174pt"
 viewBox="0.00 0.00 1024.00 173.80" xmlns="http://www.w3.org/2000/svg" xmlns:xlink="http://www.w3.org/1999/xlink">
<g id="graph0" class="graph" transform="scale(1 1) rotate(0) translate(4 169.8)">
<title>dependencies</title>
<polygon fill="white" stroke="transparent" points="-4,4 -4,-169.8 1020,-169.8 1020,4 -4,4"/>
<text text-anchor="middle" x="508" y="-8.2" font-family="sans-serif" font-size="14.00">dependencies</text>
<g id="clust1" class="cluster">
<title>cluster_CubicacionModule</title>
<polygon fill="none" stroke="black" stroke-dasharray="1,5" points="8,-32.8 8,-157.8 1008,-157.8 1008,-32.8 8,-32.8"/>
</g>
<g id="clust7" class="cluster">
<title>cluster_CubicacionModule_imports</title>
<polygon fill="none" stroke="black" points="700,-40.8 700,-92.8 1000,-92.8 1000,-40.8 700,-40.8"/>
</g>
<g id="clust2" class="cluster">
<title>cluster_CubicacionModule_declarations</title>
<polygon fill="none" stroke="black" points="16,-40.8 16,-92.8 692,-92.8 692,-40.8 16,-40.8"/>
</g>
<!-- CubicacionComponent -->
<g id="node1" class="node">
<title>CubicacionComponent</title>
<polygon fill="#ffffb3" stroke="black" points="683.59,-84.8 538.41,-84.8 538.41,-48.8 683.59,-48.8 683.59,-84.8"/>
<text text-anchor="middle" x="611" y="-62.6" font-family="Times,serif" font-size="14.00">CubicacionComponent</text>
</g>
<!-- CubicacionModule -->
<g id="node5" class="node">
<title>CubicacionModule</title>
<polygon fill="#8dd3c7" stroke="black" points="579.81,-149.8 576.81,-153.8 555.81,-153.8 552.81,-149.8 456.19,-149.8 456.19,-113.8 579.81,-113.8 579.81,-149.8"/>
<text text-anchor="middle" x="518" y="-127.6" font-family="Times,serif" font-size="14.00">CubicacionModule</text>
</g>
<!-- CubicacionComponent&#45;&gt;CubicacionModule -->
<g id="edge1" class="edge">
<title>CubicacionComponent&#45;&gt;CubicacionModule</title>
<path fill="none" stroke="black" d="M559.06,-84.91C559.06,-84.91 559.06,-103.79 559.06,-103.79"/>
<polygon fill="black" stroke="black" points="555.56,-103.79 559.06,-113.79 562.56,-103.79 555.56,-103.79"/>
</g>
<!-- FormCubContainerComponent -->
<g id="node2" class="node">
<title>FormCubContainerComponent</title>
<polygon fill="#ffffb3" stroke="black" points="520.21,-84.8 329.79,-84.8 329.79,-48.8 520.21,-48.8 520.21,-84.8"/>
<text text-anchor="middle" x="425" y="-62.6" font-family="Times,serif" font-size="14.00">FormCubContainerComponent</text>
</g>
<!-- FormCubContainerComponent&#45;&gt;CubicacionModule -->
<g id="edge2" class="edge">
<title>FormCubContainerComponent&#45;&gt;CubicacionModule</title>
<path fill="none" stroke="black" d="M488.23,-84.91C488.23,-84.91 488.23,-103.79 488.23,-103.79"/>
<polygon fill="black" stroke="black" points="484.73,-103.79 488.23,-113.79 491.73,-103.79 484.73,-103.79"/>
</g>
<!-- FormularioComponent -->
<g id="node3" class="node">
<title>FormularioComponent</title>
<polygon fill="#ffffb3" stroke="black" points="312.32,-84.8 167.68,-84.8 167.68,-48.8 312.32,-48.8 312.32,-84.8"/>
<text text-anchor="middle" x="240" y="-62.6" font-family="Times,serif" font-size="14.00">FormularioComponent</text>
</g>
<!-- FormularioComponent&#45;&gt;CubicacionModule -->
<g id="edge3" class="edge">
<title>FormularioComponent&#45;&gt;CubicacionModule</title>
<path fill="none" stroke="black" d="M240,-84.82C240,-102.17 240,-125.8 240,-125.8 240,-125.8 446.3,-125.8 446.3,-125.8"/>
<polygon fill="black" stroke="black" points="446.3,-129.3 456.3,-125.8 446.3,-122.3 446.3,-129.3"/>
</g>
<!-- ListCubComponent -->
<g id="node4" class="node">
<title>ListCubComponent</title>
<polygon fill="#ffffb3" stroke="black" points="150.45,-84.8 23.55,-84.8 23.55,-48.8 150.45,-48.8 150.45,-84.8"/>
<text text-anchor="middle" x="87" y="-62.6" font-family="Times,serif" font-size="14.00">ListCubComponent</text>
</g>
<!-- ListCubComponent&#45;&gt;CubicacionModule -->
<g id="edge4" class="edge">
<title>ListCubComponent&#45;&gt;CubicacionModule</title>
<path fill="none" stroke="black" d="M87,-85.08C87,-106.12 87,-137.8 87,-137.8 87,-137.8 446.25,-137.8 446.25,-137.8"/>
<polygon fill="black" stroke="black" points="446.25,-141.3 456.25,-137.8 446.25,-134.3 446.25,-141.3"/>
</g>
<!-- CubicacionRoutingModule -->
<g id="node6" class="node">
<title>CubicacionRoutingModule</title>
<polygon fill="#8dd3c7" stroke="black" points="992.43,-84.8 989.43,-88.8 968.43,-88.8 965.43,-84.8 823.57,-84.8 823.57,-48.8 992.43,-48.8 992.43,-84.8"/>
<text text-anchor="middle" x="908" y="-62.6" font-family="Times,serif" font-size="14.00">CubicacionRoutingModule</text>
</g>
<!-- CubicacionRoutingModule&#45;&gt;CubicacionModule -->
<g id="edge5" class="edge">
<title>CubicacionRoutingModule&#45;&gt;CubicacionModule</title>
<path fill="none" stroke="black" d="M908,-85.08C908,-106.12 908,-137.8 908,-137.8 908,-137.8 589.8,-137.8 589.8,-137.8"/>
<polygon fill="black" stroke="black" points="589.8,-134.3 579.8,-137.8 589.8,-141.3 589.8,-134.3"/>
</g>
<!-- SharedModule -->
<g id="node7" class="node">
<title>SharedModule</title>
<polygon fill="#8dd3c7" stroke="black" points="806.43,-84.8 803.43,-88.8 782.43,-88.8 779.43,-84.8 707.57,-84.8 707.57,-48.8 806.43,-48.8 806.43,-84.8"/>
<text text-anchor="middle" x="757" y="-62.6" font-family="Times,serif" font-size="14.00">SharedModule</text>
</g>
<!-- SharedModule&#45;&gt;CubicacionModule -->
<g id="edge6" class="edge">
<title>SharedModule&#45;&gt;CubicacionModule</title>
<path fill="none" stroke="black" d="M757,-84.82C757,-102.17 757,-125.8 757,-125.8 757,-125.8 589.86,-125.8 589.86,-125.8"/>
<polygon fill="black" stroke="black" points="589.86,-122.3 579.86,-125.8 589.86,-129.3 589.86,-122.3"/>
</g>
</g>
</svg>
