<?xml version="1.0" encoding="UTF-8" standalone="no"?>
<!DOCTYPE svg PUBLIC "-//W3C//DTD SVG 1.1//EN"
 "http://www.w3.org/Graphics/SVG/1.1/DTD/svg11.dtd">
<!-- Generated by graphviz version 5.0.0 (20220707.1540)
 -->
<!-- Title: dependencies Pages: 1 -->
<svg width="377pt" height="174pt"
 viewBox="0.00 0.00 377.00 173.80" xmlns="http://www.w3.org/2000/svg" xmlns:xlink="http://www.w3.org/1999/xlink">
<g id="graph0" class="graph" transform="scale(1 1) rotate(0) translate(4 169.8)">
<title>dependencies</title>
<polygon fill="white" stroke="transparent" points="-4,4 -4,-169.8 373,-169.8 373,4 -4,4"/>
<text text-anchor="middle" x="184.5" y="-8.2" font-family="sans-serif" font-size="14.00">dependencies</text>
<g id="clust1" class="cluster">
<title>cluster_LogModule</title>
<polygon fill="none" stroke="black" stroke-dasharray="1,5" points="8,-32.8 8,-157.8 361,-157.8 361,-32.8 8,-32.8"/>
</g>
<g id="clust6" class="cluster">
<title>cluster_LogModule_providers</title>
<polygon fill="none" stroke="black" points="16,-40.8 16,-92.8 353,-92.8 353,-40.8 16,-40.8"/>
</g>
<!-- LogPublishersService -->
<g id="node1" class="node">
<title>LogPublishersService</title>
<ellipse fill="#fdb462" stroke="black" cx="249" cy="-66.8" rx="95.58" ry="18"/>
<text text-anchor="middle" x="249" y="-62.6" font-family="Times,serif" font-size="14.00">LogPublishersService</text>
</g>
<!-- LogModule -->
<g id="node3" class="node">
<title>LogModule</title>
<polygon fill="#8dd3c7" stroke="black" points="205.1,-149.8 202.1,-153.8 181.1,-153.8 178.1,-149.8 122.9,-149.8 122.9,-113.8 205.1,-113.8 205.1,-149.8"/>
<text text-anchor="middle" x="164" y="-127.6" font-family="Times,serif" font-size="14.00">LogModule</text>
</g>
<!-- LogPublishersService&#45;&gt;LogModule -->
<g id="edge1" class="edge">
<title>LogPublishersService&#45;&gt;LogModule</title>
<path fill="none" stroke="black" d="M179.13,-79.33C179.13,-79.33 179.13,-103.65 179.13,-103.65"/>
<polygon fill="black" stroke="black" points="175.63,-103.65 179.13,-113.65 182.63,-103.65 175.63,-103.65"/>
</g>
<!-- LogService -->
<g id="node2" class="node">
<title>LogService</title>
<ellipse fill="#fdb462" stroke="black" cx="80" cy="-66.8" rx="55.6" ry="18"/>
<text text-anchor="middle" x="80" y="-62.6" font-family="Times,serif" font-size="14.00">LogService</text>
</g>
<!-- LogService&#45;&gt;LogModule -->
<g id="edge2" class="edge">
<title>LogService&#45;&gt;LogModule</title>
<path fill="none" stroke="black" d="M129.25,-75.3C129.25,-75.3 129.25,-103.71 129.25,-103.71"/>
<polygon fill="black" stroke="black" points="125.75,-103.71 129.25,-113.71 132.75,-103.71 125.75,-103.71"/>
</g>
</g>
</svg>
