<?xml version="1.0" encoding="UTF-8" standalone="no"?>
<!DOCTYPE svg PUBLIC "-//W3C//DTD SVG 1.1//EN"
 "http://www.w3.org/Graphics/SVG/1.1/DTD/svg11.dtd">
<!-- Generated by graphviz version 5.0.0 (20220707.1540)
 -->
<!-- Title: dependencies Pages: 1 -->
<svg width="915pt" height="174pt"
 viewBox="0.00 0.00 915.00 173.80" xmlns="http://www.w3.org/2000/svg" xmlns:xlink="http://www.w3.org/1999/xlink">
<g id="graph0" class="graph" transform="scale(1 1) rotate(0) translate(4 169.8)">
<title>dependencies</title>
<polygon fill="white" stroke="transparent" points="-4,4 -4,-169.8 911,-169.8 911,4 -4,4"/>
<text text-anchor="middle" x="453.5" y="-8.2" font-family="sans-serif" font-size="14.00">dependencies</text>
<g id="clust1" class="cluster">
<title>cluster_PerfilesModule</title>
<polygon fill="none" stroke="black" stroke-dasharray="1,5" points="8,-32.8 8,-157.8 899,-157.8 899,-32.8 8,-32.8"/>
</g>
<g id="clust6" class="cluster">
<title>cluster_PerfilesModule_imports</title>
<polygon fill="none" stroke="black" points="611,-40.8 611,-92.8 891,-92.8 891,-40.8 611,-40.8"/>
</g>
<g id="clust2" class="cluster">
<title>cluster_PerfilesModule_declarations</title>
<polygon fill="none" stroke="black" points="16,-40.8 16,-92.8 603,-92.8 603,-40.8 16,-40.8"/>
</g>
<!-- FormPerfilesContainerComponent -->
<g id="node1" class="node">
<title>FormPerfilesContainerComponent</title>
<polygon fill="#ffffb3" stroke="black" points="594.64,-84.8 385.36,-84.8 385.36,-48.8 594.64,-48.8 594.64,-84.8"/>
<text text-anchor="middle" x="490" y="-62.6" font-family="Times,serif" font-size="14.00">FormPerfilesContainerComponent</text>
</g>
<!-- PerfilesModule -->
<g id="node4" class="node">
<title>PerfilesModule</title>
<polygon fill="#8dd3c7" stroke="black" points="541.32,-149.8 538.32,-153.8 517.32,-153.8 514.32,-149.8 438.68,-149.8 438.68,-113.8 541.32,-113.8 541.32,-149.8"/>
<text text-anchor="middle" x="490" y="-127.6" font-family="Times,serif" font-size="14.00">PerfilesModule</text>
</g>
<!-- FormPerfilesContainerComponent&#45;&gt;PerfilesModule -->
<g id="edge1" class="edge">
<title>FormPerfilesContainerComponent&#45;&gt;PerfilesModule</title>
<path fill="none" stroke="black" d="M490,-84.91C490,-84.91 490,-103.79 490,-103.79"/>
<polygon fill="black" stroke="black" points="486.5,-103.79 490,-113.79 493.5,-103.79 486.5,-103.79"/>
</g>
<!-- ListPerfilesContainerComponent -->
<g id="node2" class="node">
<title>ListPerfilesContainerComponent</title>
<polygon fill="#ffffb3" stroke="black" points="367.58,-84.8 166.42,-84.8 166.42,-48.8 367.58,-48.8 367.58,-84.8"/>
<text text-anchor="middle" x="267" y="-62.6" font-family="Times,serif" font-size="14.00">ListPerfilesContainerComponent</text>
</g>
<!-- ListPerfilesContainerComponent&#45;&gt;PerfilesModule -->
<g id="edge2" class="edge">
<title>ListPerfilesContainerComponent&#45;&gt;PerfilesModule</title>
<path fill="none" stroke="black" d="M267,-84.82C267,-102.17 267,-125.8 267,-125.8 267,-125.8 428.84,-125.8 428.84,-125.8"/>
<polygon fill="black" stroke="black" points="428.84,-129.3 438.84,-125.8 428.84,-122.3 428.84,-129.3"/>
</g>
<!-- PerfilesComponent -->
<g id="node3" class="node">
<title>PerfilesComponent</title>
<polygon fill="#ffffb3" stroke="black" points="148.1,-84.8 23.9,-84.8 23.9,-48.8 148.1,-48.8 148.1,-84.8"/>
<text text-anchor="middle" x="86" y="-62.6" font-family="Times,serif" font-size="14.00">PerfilesComponent</text>
</g>
<!-- PerfilesComponent&#45;&gt;PerfilesModule -->
<g id="edge3" class="edge">
<title>PerfilesComponent&#45;&gt;PerfilesModule</title>
<path fill="none" stroke="black" d="M86,-85.08C86,-106.12 86,-137.8 86,-137.8 86,-137.8 428.83,-137.8 428.83,-137.8"/>
<polygon fill="black" stroke="black" points="428.83,-141.3 438.83,-137.8 428.83,-134.3 428.83,-141.3"/>
</g>
<!-- PerfilesRoutingModule -->
<g id="node5" class="node">
<title>PerfilesRoutingModule</title>
<polygon fill="#8dd3c7" stroke="black" points="882.94,-84.8 879.94,-88.8 858.94,-88.8 855.94,-84.8 735.06,-84.8 735.06,-48.8 882.94,-48.8 882.94,-84.8"/>
<text text-anchor="middle" x="809" y="-62.6" font-family="Times,serif" font-size="14.00">PerfilesRoutingModule</text>
</g>
<!-- PerfilesRoutingModule&#45;&gt;PerfilesModule -->
<g id="edge4" class="edge">
<title>PerfilesRoutingModule&#45;&gt;PerfilesModule</title>
<path fill="none" stroke="black" d="M809,-85.08C809,-106.12 809,-137.8 809,-137.8 809,-137.8 551.25,-137.8 551.25,-137.8"/>
<polygon fill="black" stroke="black" points="551.25,-134.3 541.25,-137.8 551.25,-141.3 551.25,-134.3"/>
</g>
<!-- SharedModule -->
<g id="node6" class="node">
<title>SharedModule</title>
<polygon fill="#8dd3c7" stroke="black" points="717.43,-84.8 714.43,-88.8 693.43,-88.8 690.43,-84.8 618.57,-84.8 618.57,-48.8 717.43,-48.8 717.43,-84.8"/>
<text text-anchor="middle" x="668" y="-62.6" font-family="Times,serif" font-size="14.00">SharedModule</text>
</g>
<!-- SharedModule&#45;&gt;PerfilesModule -->
<g id="edge5" class="edge">
<title>SharedModule&#45;&gt;PerfilesModule</title>
<path fill="none" stroke="black" d="M668,-84.82C668,-102.17 668,-125.8 668,-125.8 668,-125.8 551.48,-125.8 551.48,-125.8"/>
<polygon fill="black" stroke="black" points="551.49,-122.3 541.48,-125.8 551.48,-129.3 551.49,-122.3"/>
</g>
</g>
</svg>
