<?xml version="1.0" encoding="UTF-8" standalone="no"?>
<!DOCTYPE svg PUBLIC "-//W3C//DTD SVG 1.1//EN"
 "http://www.w3.org/Graphics/SVG/1.1/DTD/svg11.dtd">
<!-- Generated by graphviz version 5.0.0 (20220707.1540)
 -->
<!-- Title: dependencies Pages: 1 -->
<svg width="915pt" height="174pt"
 viewBox="0.00 0.00 915.00 173.80" xmlns="http://www.w3.org/2000/svg" xmlns:xlink="http://www.w3.org/1999/xlink">
<g id="graph0" class="graph" transform="scale(1 1) rotate(0) translate(4 169.8)">
<title>dependencies</title>
<polygon fill="white" stroke="transparent" points="-4,4 -4,-169.8 911,-169.8 911,4 -4,4"/>
<text text-anchor="middle" x="453.5" y="-8.2" font-family="sans-serif" font-size="14.00">dependencies</text>
<g id="clust1" class="cluster">
<title>cluster_PerfilesModule</title>
<polygon fill="none" stroke="black" stroke-dasharray="1,5" points="8,-32.8 8,-157.8 899,-157.8 899,-32.8 8,-32.8"/>
</g>
<g id="clust2" class="cluster">
<title>cluster_PerfilesModule_declarations</title>
<polygon fill="none" stroke="black" points="304,-40.8 304,-92.8 891,-92.8 891,-40.8 304,-40.8"/>
</g>
<g id="clust6" class="cluster">
<title>cluster_PerfilesModule_imports</title>
<polygon fill="none" stroke="black" points="16,-40.8 16,-92.8 296,-92.8 296,-40.8 16,-40.8"/>
</g>
<!-- FormPerfilesContainerComponent -->
<g id="node1" class="node">
<title>FormPerfilesContainerComponent</title>
<polygon fill="#ffffb3" stroke="black" points="882.64,-84.8 673.36,-84.8 673.36,-48.8 882.64,-48.8 882.64,-84.8"/>
<text text-anchor="middle" x="778" y="-62.6" font-family="Times,serif" font-size="14.00">FormPerfilesContainerComponent</text>
</g>
<!-- PerfilesModule -->
<g id="node4" class="node">
<title>PerfilesModule</title>
<polygon fill="#8dd3c7" stroke="black" points="425.32,-149.8 422.32,-153.8 401.32,-153.8 398.32,-149.8 322.68,-149.8 322.68,-113.8 425.32,-113.8 425.32,-149.8"/>
<text text-anchor="middle" x="374" y="-127.6" font-family="Times,serif" font-size="14.00">PerfilesModule</text>
</g>
<!-- FormPerfilesContainerComponent&#45;&gt;PerfilesModule -->
<g id="edge1" class="edge">
<title>FormPerfilesContainerComponent&#45;&gt;PerfilesModule</title>
<path fill="none" stroke="black" d="M778,-85.08C778,-106.12 778,-137.8 778,-137.8 778,-137.8 435.17,-137.8 435.17,-137.8"/>
<polygon fill="black" stroke="black" points="435.17,-134.3 425.17,-137.8 435.17,-141.3 435.17,-134.3"/>
</g>
<!-- ListPerfilesContainerComponent -->
<g id="node2" class="node">
<title>ListPerfilesContainerComponent</title>
<polygon fill="#ffffb3" stroke="black" points="655.58,-84.8 454.42,-84.8 454.42,-48.8 655.58,-48.8 655.58,-84.8"/>
<text text-anchor="middle" x="555" y="-62.6" font-family="Times,serif" font-size="14.00">ListPerfilesContainerComponent</text>
</g>
<!-- ListPerfilesContainerComponent&#45;&gt;PerfilesModule -->
<g id="edge2" class="edge">
<title>ListPerfilesContainerComponent&#45;&gt;PerfilesModule</title>
<path fill="none" stroke="black" d="M555,-84.82C555,-102.17 555,-125.8 555,-125.8 555,-125.8 435.38,-125.8 435.38,-125.8"/>
<polygon fill="black" stroke="black" points="435.38,-122.3 425.38,-125.8 435.38,-129.3 435.38,-122.3"/>
</g>
<!-- PerfilesComponent -->
<g id="node3" class="node">
<title>PerfilesComponent</title>
<polygon fill="#ffffb3" stroke="black" points="436.1,-84.8 311.9,-84.8 311.9,-48.8 436.1,-48.8 436.1,-84.8"/>
<text text-anchor="middle" x="374" y="-62.6" font-family="Times,serif" font-size="14.00">PerfilesComponent</text>
</g>
<!-- PerfilesComponent&#45;&gt;PerfilesModule -->
<g id="edge3" class="edge">
<title>PerfilesComponent&#45;&gt;PerfilesModule</title>
<path fill="none" stroke="black" d="M374,-84.91C374,-84.91 374,-103.79 374,-103.79"/>
<polygon fill="black" stroke="black" points="370.5,-103.79 374,-113.79 377.5,-103.79 370.5,-103.79"/>
</g>
<!-- PerfilesRoutingModule -->
<g id="node5" class="node">
<title>PerfilesRoutingModule</title>
<polygon fill="#8dd3c7" stroke="black" points="287.94,-84.8 284.94,-88.8 263.94,-88.8 260.94,-84.8 140.06,-84.8 140.06,-48.8 287.94,-48.8 287.94,-84.8"/>
<text text-anchor="middle" x="214" y="-62.6" font-family="Times,serif" font-size="14.00">PerfilesRoutingModule</text>
</g>
<!-- PerfilesRoutingModule&#45;&gt;PerfilesModule -->
<g id="edge4" class="edge">
<title>PerfilesRoutingModule&#45;&gt;PerfilesModule</title>
<path fill="none" stroke="black" d="M214,-84.82C214,-102.17 214,-125.8 214,-125.8 214,-125.8 312.49,-125.8 312.49,-125.8"/>
<polygon fill="black" stroke="black" points="312.49,-129.3 322.49,-125.8 312.49,-122.3 312.49,-129.3"/>
</g>
<!-- SharedModule -->
<g id="node6" class="node">
<title>SharedModule</title>
<polygon fill="#8dd3c7" stroke="black" points="122.43,-84.8 119.43,-88.8 98.43,-88.8 95.43,-84.8 23.57,-84.8 23.57,-48.8 122.43,-48.8 122.43,-84.8"/>
<text text-anchor="middle" x="73" y="-62.6" font-family="Times,serif" font-size="14.00">SharedModule</text>
</g>
<!-- SharedModule&#45;&gt;PerfilesModule -->
<g id="edge5" class="edge">
<title>SharedModule&#45;&gt;PerfilesModule</title>
<path fill="none" stroke="black" d="M73,-85.08C73,-106.12 73,-137.8 73,-137.8 73,-137.8 312.6,-137.8 312.6,-137.8"/>
<polygon fill="black" stroke="black" points="312.6,-141.3 322.6,-137.8 312.6,-134.3 312.6,-141.3"/>
</g>
</g>
</svg>
