<?xml version="1.0" encoding="UTF-8" standalone="no"?>
<!DOCTYPE svg PUBLIC "-//W3C//DTD SVG 1.1//EN"
 "http://www.w3.org/Graphics/SVG/1.1/DTD/svg11.dtd">
<!-- Generated by graphviz version 5.0.0 (20220707.1540)
 -->
<!-- Title: dependencies Pages: 1 -->
<svg width="1003pt" height="174pt"
 viewBox="0.00 0.00 1003.00 173.80" xmlns="http://www.w3.org/2000/svg" xmlns:xlink="http://www.w3.org/1999/xlink">
<g id="graph0" class="graph" transform="scale(1 1) rotate(0) translate(4 169.8)">
<title>dependencies</title>
<polygon fill="white" stroke="transparent" points="-4,4 -4,-169.8 999,-169.8 999,4 -4,4"/>
<text text-anchor="middle" x="497.5" y="-8.2" font-family="sans-serif" font-size="14.00">dependencies</text>
<g id="clust1" class="cluster">
<title>cluster_OtModule</title>
<polygon fill="none" stroke="black" stroke-dasharray="1,5" points="8,-32.8 8,-157.8 987,-157.8 987,-32.8 8,-32.8"/>
</g>
<g id="clust7" class="cluster">
<title>cluster_OtModule_imports</title>
<polygon fill="none" stroke="black" points="728,-40.8 728,-92.8 979,-92.8 979,-40.8 728,-40.8"/>
</g>
<g id="clust2" class="cluster">
<title>cluster_OtModule_declarations</title>
<polygon fill="none" stroke="black" points="16,-40.8 16,-92.8 720,-92.8 720,-40.8 16,-40.8"/>
</g>
<!-- FormOtContainerComponent -->
<g id="node1" class="node">
<title>FormOtContainerComponent</title>
<polygon fill="#ffffb3" stroke="black" points="712.38,-84.8 531.62,-84.8 531.62,-48.8 712.38,-48.8 712.38,-84.8"/>
<text text-anchor="middle" x="622" y="-62.6" font-family="Times,serif" font-size="14.00">FormOtContainerComponent</text>
</g>
<!-- OtModule -->
<g id="node5" class="node">
<title>OtModule</title>
<polygon fill="#8dd3c7" stroke="black" points="557.55,-149.8 554.55,-153.8 533.55,-153.8 530.55,-149.8 484.45,-149.8 484.45,-113.8 557.55,-113.8 557.55,-149.8"/>
<text text-anchor="middle" x="521" y="-127.6" font-family="Times,serif" font-size="14.00">OtModule</text>
</g>
<!-- FormOtContainerComponent&#45;&gt;OtModule -->
<g id="edge1" class="edge">
<title>FormOtContainerComponent&#45;&gt;OtModule</title>
<path fill="none" stroke="black" d="M544.67,-84.91C544.67,-84.91 544.67,-103.79 544.67,-103.79"/>
<polygon fill="black" stroke="black" points="541.17,-103.79 544.67,-113.79 548.17,-103.79 541.17,-103.79"/>
</g>
<!-- FormularioOtBaseComponent -->
<g id="node2" class="node">
<title>FormularioOtBaseComponent</title>
<polygon fill="#ffffb3" stroke="black" points="513.54,-84.8 328.46,-84.8 328.46,-48.8 513.54,-48.8 513.54,-84.8"/>
<text text-anchor="middle" x="421" y="-62.6" font-family="Times,serif" font-size="14.00">FormularioOtBaseComponent</text>
</g>
<!-- FormularioOtBaseComponent&#45;&gt;OtModule -->
<g id="edge2" class="edge">
<title>FormularioOtBaseComponent&#45;&gt;OtModule</title>
<path fill="none" stroke="black" d="M499,-84.91C499,-84.91 499,-103.79 499,-103.79"/>
<polygon fill="black" stroke="black" points="495.5,-103.79 499,-113.79 502.5,-103.79 495.5,-103.79"/>
</g>
<!-- ListOtContainerComponent -->
<g id="node3" class="node">
<title>ListOtContainerComponent</title>
<polygon fill="#ffffb3" stroke="black" points="310.32,-84.8 137.68,-84.8 137.68,-48.8 310.32,-48.8 310.32,-84.8"/>
<text text-anchor="middle" x="224" y="-62.6" font-family="Times,serif" font-size="14.00">ListOtContainerComponent</text>
</g>
<!-- ListOtContainerComponent&#45;&gt;OtModule -->
<g id="edge3" class="edge">
<title>ListOtContainerComponent&#45;&gt;OtModule</title>
<path fill="none" stroke="black" d="M224,-84.82C224,-102.17 224,-125.8 224,-125.8 224,-125.8 474.28,-125.8 474.28,-125.8"/>
<polygon fill="black" stroke="black" points="474.28,-129.3 484.28,-125.8 474.28,-122.3 474.28,-129.3"/>
</g>
<!-- OtComponent -->
<g id="node4" class="node">
<title>OtComponent</title>
<polygon fill="#ffffb3" stroke="black" points="119.83,-84.8 24.17,-84.8 24.17,-48.8 119.83,-48.8 119.83,-84.8"/>
<text text-anchor="middle" x="72" y="-62.6" font-family="Times,serif" font-size="14.00">OtComponent</text>
</g>
<!-- OtComponent&#45;&gt;OtModule -->
<g id="edge4" class="edge">
<title>OtComponent&#45;&gt;OtModule</title>
<path fill="none" stroke="black" d="M72,-85.08C72,-106.12 72,-137.8 72,-137.8 72,-137.8 474.26,-137.8 474.26,-137.8"/>
<polygon fill="black" stroke="black" points="474.26,-141.3 484.26,-137.8 474.26,-134.3 474.26,-141.3"/>
</g>
<!-- OtRoutingModule -->
<g id="node6" class="node">
<title>OtRoutingModule</title>
<polygon fill="#8dd3c7" stroke="black" points="971.17,-84.8 968.17,-88.8 947.17,-88.8 944.17,-84.8 852.83,-84.8 852.83,-48.8 971.17,-48.8 971.17,-84.8"/>
<text text-anchor="middle" x="912" y="-62.6" font-family="Times,serif" font-size="14.00">OtRoutingModule</text>
</g>
<!-- OtRoutingModule&#45;&gt;OtModule -->
<g id="edge5" class="edge">
<title>OtRoutingModule&#45;&gt;OtModule</title>
<path fill="none" stroke="black" d="M912,-85.08C912,-106.12 912,-137.8 912,-137.8 912,-137.8 567.78,-137.8 567.78,-137.8"/>
<polygon fill="black" stroke="black" points="567.78,-134.3 557.78,-137.8 567.78,-141.3 567.78,-134.3"/>
</g>
<!-- SharedModule -->
<g id="node7" class="node">
<title>SharedModule</title>
<polygon fill="#8dd3c7" stroke="black" points="834.43,-84.8 831.43,-88.8 810.43,-88.8 807.43,-84.8 735.57,-84.8 735.57,-48.8 834.43,-48.8 834.43,-84.8"/>
<text text-anchor="middle" x="785" y="-62.6" font-family="Times,serif" font-size="14.00">SharedModule</text>
</g>
<!-- SharedModule&#45;&gt;OtModule -->
<g id="edge6" class="edge">
<title>SharedModule&#45;&gt;OtModule</title>
<path fill="none" stroke="black" d="M785,-84.82C785,-102.17 785,-125.8 785,-125.8 785,-125.8 567.71,-125.8 567.71,-125.8"/>
<polygon fill="black" stroke="black" points="567.71,-122.3 557.71,-125.8 567.71,-129.3 567.71,-122.3"/>
</g>
</g>
</svg>
