<?xml version="1.0" encoding="UTF-8" standalone="no"?>
<!DOCTYPE svg PUBLIC "-//W3C//DTD SVG 1.1//EN"
 "http://www.w3.org/Graphics/SVG/1.1/DTD/svg11.dtd">
<!-- Generated by graphviz version 5.0.0 (20220707.1540)
 -->
<!-- Title: dependencies Pages: 1 -->
<svg width="2349pt" height="174pt"
 viewBox="0.00 0.00 2349.00 173.80" xmlns="http://www.w3.org/2000/svg" xmlns:xlink="http://www.w3.org/1999/xlink">
<g id="graph0" class="graph" transform="scale(1 1) rotate(0) translate(4 169.8)">
<title>dependencies</title>
<polygon fill="white" stroke="transparent" points="-4,4 -4,-169.8 2345,-169.8 2345,4 -4,4"/>
<text text-anchor="middle" x="1170.5" y="-8.2" font-family="sans-serif" font-size="14.00">dependencies</text>
<g id="clust1" class="cluster">
<title>cluster_OtModule</title>
<polygon fill="none" stroke="black" stroke-dasharray="1,5" points="8,-32.8 8,-157.8 2333,-157.8 2333,-32.8 8,-32.8"/>
</g>
<g id="clust2" class="cluster">
<title>cluster_OtModule_declarations</title>
<polygon fill="none" stroke="black" points="275,-40.8 275,-92.8 2325,-92.8 2325,-40.8 275,-40.8"/>
</g>
<g id="clust13" class="cluster">
<title>cluster_OtModule_imports</title>
<polygon fill="none" stroke="black" points="16,-40.8 16,-92.8 267,-92.8 267,-40.8 16,-40.8"/>
</g>
<!-- FormOtContainerComponent -->
<g id="node1" class="node">
<title>FormOtContainerComponent</title>
<polygon fill="#ffffb3" stroke="black" points="2317.38,-84.8 2136.62,-84.8 2136.62,-48.8 2317.38,-48.8 2317.38,-84.8"/>
<text text-anchor="middle" x="2227" y="-62.6" font-family="Times,serif" font-size="14.00">FormOtContainerComponent</text>
</g>
<!-- OtModule -->
<g id="node11" class="node">
<title>OtModule</title>
<polygon fill="#8dd3c7" stroke="black" points="1124.55,-149.8 1121.55,-153.8 1100.55,-153.8 1097.55,-149.8 1051.45,-149.8 1051.45,-113.8 1124.55,-113.8 1124.55,-149.8"/>
<text text-anchor="middle" x="1088" y="-127.6" font-family="Times,serif" font-size="14.00">OtModule</text>
</g>
<!-- FormOtContainerComponent&#45;&gt;OtModule -->
<g id="edge1" class="edge">
<title>FormOtContainerComponent&#45;&gt;OtModule</title>
<path fill="none" stroke="black" d="M2227,-84.89C2227,-107.93 2227,-144.8 2227,-144.8 2227,-144.8 1134.61,-144.8 1134.61,-144.8"/>
<polygon fill="black" stroke="black" points="1134.61,-141.3 1124.61,-144.8 1134.61,-148.3 1134.61,-141.3"/>
</g>
<!-- FormularioOtBaseComponent -->
<g id="node2" class="node">
<title>FormularioOtBaseComponent</title>
<polygon fill="#ffffb3" stroke="black" points="2118.54,-84.8 1933.46,-84.8 1933.46,-48.8 2118.54,-48.8 2118.54,-84.8"/>
<text text-anchor="middle" x="2026" y="-62.6" font-family="Times,serif" font-size="14.00">FormularioOtBaseComponent</text>
</g>
<!-- FormularioOtBaseComponent&#45;&gt;OtModule -->
<g id="edge2" class="edge">
<title>FormularioOtBaseComponent&#45;&gt;OtModule</title>
<path fill="none" stroke="black" d="M2026,-85.08C2026,-106.12 2026,-137.8 2026,-137.8 2026,-137.8 1134.77,-137.8 1134.77,-137.8"/>
<polygon fill="black" stroke="black" points="1134.77,-134.3 1124.77,-137.8 1134.77,-141.3 1134.77,-134.3"/>
</g>
<!-- FormularioOtBucleComponent -->
<g id="node3" class="node">
<title>FormularioOtBucleComponent</title>
<polygon fill="#ffffb3" stroke="black" points="1915.48,-84.8 1724.52,-84.8 1724.52,-48.8 1915.48,-48.8 1915.48,-84.8"/>
<text text-anchor="middle" x="1820" y="-62.6" font-family="Times,serif" font-size="14.00">FormularioOtBucleComponent</text>
</g>
<!-- FormularioOtBucleComponent&#45;&gt;OtModule -->
<g id="edge3" class="edge">
<title>FormularioOtBucleComponent&#45;&gt;OtModule</title>
<path fill="none" stroke="black" d="M1820,-84.91C1820,-104.14 1820,-131.8 1820,-131.8 1820,-131.8 1134.8,-131.8 1134.8,-131.8"/>
<polygon fill="black" stroke="black" points="1134.8,-128.3 1124.8,-131.8 1134.8,-135.3 1134.8,-128.3"/>
</g>
<!-- FormularioOtExtrasComponent -->
<g id="node4" class="node">
<title>FormularioOtExtrasComponent</title>
<polygon fill="#ffffb3" stroke="black" points="1706.09,-84.8 1511.91,-84.8 1511.91,-48.8 1706.09,-48.8 1706.09,-84.8"/>
<text text-anchor="middle" x="1609" y="-62.6" font-family="Times,serif" font-size="14.00">FormularioOtExtrasComponent</text>
</g>
<!-- FormularioOtExtrasComponent&#45;&gt;OtModule -->
<g id="edge4" class="edge">
<title>FormularioOtExtrasComponent&#45;&gt;OtModule</title>
<path fill="none" stroke="black" d="M1609,-84.82C1609,-102.17 1609,-125.8 1609,-125.8 1609,-125.8 1134.64,-125.8 1134.64,-125.8"/>
<polygon fill="black" stroke="black" points="1134.64,-122.3 1124.64,-125.8 1134.64,-129.3 1134.64,-122.3"/>
</g>
<!-- FormularioOtFijoComponent -->
<g id="node5" class="node">
<title>FormularioOtFijoComponent</title>
<polygon fill="#ffffb3" stroke="black" points="1494.39,-84.8 1313.61,-84.8 1313.61,-48.8 1494.39,-48.8 1494.39,-84.8"/>
<text text-anchor="middle" x="1404" y="-62.6" font-family="Times,serif" font-size="14.00">FormularioOtFijoComponent</text>
</g>
<!-- FormularioOtFijoComponent&#45;&gt;OtModule -->
<g id="edge5" class="edge">
<title>FormularioOtFijoComponent&#45;&gt;OtModule</title>
<path fill="none" stroke="black" d="M1404,-85.04C1404,-100.37 1404,-119.8 1404,-119.8 1404,-119.8 1134.56,-119.8 1134.56,-119.8"/>
<polygon fill="black" stroke="black" points="1134.56,-116.3 1124.56,-119.8 1134.56,-123.3 1134.56,-116.3"/>
</g>
<!-- FormularioOtMovilComponent -->
<g id="node6" class="node">
<title>FormularioOtMovilComponent</title>
<polygon fill="#ffffb3" stroke="black" points="1295.05,-84.8 1102.95,-84.8 1102.95,-48.8 1295.05,-48.8 1295.05,-84.8"/>
<text text-anchor="middle" x="1199" y="-62.6" font-family="Times,serif" font-size="14.00">FormularioOtMovilComponent</text>
</g>
<!-- FormularioOtMovilComponent&#45;&gt;OtModule -->
<g id="edge6" class="edge">
<title>FormularioOtMovilComponent&#45;&gt;OtModule</title>
<path fill="none" stroke="black" d="M1113.75,-84.91C1113.75,-84.91 1113.75,-103.79 1113.75,-103.79"/>
<polygon fill="black" stroke="black" points="1110.25,-103.79 1113.75,-113.79 1117.25,-103.79 1110.25,-103.79"/>
</g>
<!-- FormularioOtOrdinarioComponent -->
<g id="node7" class="node">
<title>FormularioOtOrdinarioComponent</title>
<polygon fill="#ffffb3" stroke="black" points="1084.25,-84.8 871.75,-84.8 871.75,-48.8 1084.25,-48.8 1084.25,-84.8"/>
<text text-anchor="middle" x="978" y="-62.6" font-family="Times,serif" font-size="14.00">FormularioOtOrdinarioComponent</text>
</g>
<!-- FormularioOtOrdinarioComponent&#45;&gt;OtModule -->
<g id="edge7" class="edge">
<title>FormularioOtOrdinarioComponent&#45;&gt;OtModule</title>
<path fill="none" stroke="black" d="M1067.8,-84.91C1067.8,-84.91 1067.8,-103.79 1067.8,-103.79"/>
<polygon fill="black" stroke="black" points="1064.3,-103.79 1067.8,-113.79 1071.3,-103.79 1064.3,-103.79"/>
</g>
<!-- FormularioOtSustentoFinancieroComponent -->
<g id="node8" class="node">
<title>FormularioOtSustentoFinancieroComponent</title>
<polygon fill="#ffffb3" stroke="black" points="853.42,-84.8 586.58,-84.8 586.58,-48.8 853.42,-48.8 853.42,-84.8"/>
<text text-anchor="middle" x="720" y="-62.6" font-family="Times,serif" font-size="14.00">FormularioOtSustentoFinancieroComponent</text>
</g>
<!-- FormularioOtSustentoFinancieroComponent&#45;&gt;OtModule -->
<g id="edge8" class="edge">
<title>FormularioOtSustentoFinancieroComponent&#45;&gt;OtModule</title>
<path fill="none" stroke="black" d="M720,-85.04C720,-100.37 720,-119.8 720,-119.8 720,-119.8 1041.37,-119.8 1041.37,-119.8"/>
<polygon fill="black" stroke="black" points="1041.37,-123.3 1051.37,-119.8 1041.37,-116.3 1041.37,-123.3"/>
</g>
<!-- ListOtContainerComponent -->
<g id="node9" class="node">
<title>ListOtContainerComponent</title>
<polygon fill="#ffffb3" stroke="black" points="569.32,-84.8 396.68,-84.8 396.68,-48.8 569.32,-48.8 569.32,-84.8"/>
<text text-anchor="middle" x="483" y="-62.6" font-family="Times,serif" font-size="14.00">ListOtContainerComponent</text>
</g>
<!-- ListOtContainerComponent&#45;&gt;OtModule -->
<g id="edge9" class="edge">
<title>ListOtContainerComponent&#45;&gt;OtModule</title>
<path fill="none" stroke="black" d="M483,-84.82C483,-102.17 483,-125.8 483,-125.8 483,-125.8 1041.07,-125.8 1041.07,-125.8"/>
<polygon fill="black" stroke="black" points="1041.07,-129.3 1051.07,-125.8 1041.07,-122.3 1041.07,-129.3"/>
</g>
<!-- OtComponent -->
<g id="node10" class="node">
<title>OtComponent</title>
<polygon fill="#ffffb3" stroke="black" points="378.83,-84.8 283.17,-84.8 283.17,-48.8 378.83,-48.8 378.83,-84.8"/>
<text text-anchor="middle" x="331" y="-62.6" font-family="Times,serif" font-size="14.00">OtComponent</text>
</g>
<!-- OtComponent&#45;&gt;OtModule -->
<g id="edge10" class="edge">
<title>OtComponent&#45;&gt;OtModule</title>
<path fill="none" stroke="black" d="M331,-84.91C331,-104.14 331,-131.8 331,-131.8 331,-131.8 1041.23,-131.8 1041.23,-131.8"/>
<polygon fill="black" stroke="black" points="1041.23,-135.3 1051.23,-131.8 1041.23,-128.3 1041.23,-135.3"/>
</g>
<!-- OtRoutingModule -->
<g id="node12" class="node">
<title>OtRoutingModule</title>
<polygon fill="#8dd3c7" stroke="black" points="259.17,-84.8 256.17,-88.8 235.17,-88.8 232.17,-84.8 140.83,-84.8 140.83,-48.8 259.17,-48.8 259.17,-84.8"/>
<text text-anchor="middle" x="200" y="-62.6" font-family="Times,serif" font-size="14.00">OtRoutingModule</text>
</g>
<!-- OtRoutingModule&#45;&gt;OtModule -->
<g id="edge11" class="edge">
<title>OtRoutingModule&#45;&gt;OtModule</title>
<path fill="none" stroke="black" d="M200,-85.08C200,-106.12 200,-137.8 200,-137.8 200,-137.8 1041.25,-137.8 1041.25,-137.8"/>
<polygon fill="black" stroke="black" points="1041.25,-141.3 1051.25,-137.8 1041.25,-134.3 1041.25,-141.3"/>
</g>
<!-- SharedModule -->
<g id="node13" class="node">
<title>SharedModule</title>
<polygon fill="#8dd3c7" stroke="black" points="122.43,-84.8 119.43,-88.8 98.43,-88.8 95.43,-84.8 23.57,-84.8 23.57,-48.8 122.43,-48.8 122.43,-84.8"/>
<text text-anchor="middle" x="73" y="-62.6" font-family="Times,serif" font-size="14.00">SharedModule</text>
</g>
<!-- SharedModule&#45;&gt;OtModule -->
<g id="edge12" class="edge">
<title>SharedModule&#45;&gt;OtModule</title>
<path fill="none" stroke="black" d="M73,-84.89C73,-107.93 73,-144.8 73,-144.8 73,-144.8 1041.28,-144.8 1041.28,-144.8"/>
<polygon fill="black" stroke="black" points="1041.28,-148.3 1051.28,-144.8 1041.28,-141.3 1041.28,-148.3"/>
</g>
</g>
</svg>
