<?xml version="1.0" encoding="UTF-8" standalone="no"?>
<!DOCTYPE svg PUBLIC "-//W3C//DTD SVG 1.1//EN"
 "http://www.w3.org/Graphics/SVG/1.1/DTD/svg11.dtd">
<!-- Generated by graphviz version 5.0.0 (20220707.1540)
 -->
<!-- Title: dependencies Pages: 1 -->
<svg width="3402pt" height="247pt"
 viewBox="0.00 0.00 3402.00 246.80" xmlns="http://www.w3.org/2000/svg" xmlns:xlink="http://www.w3.org/1999/xlink">
<g id="graph0" class="graph" transform="scale(1 1) rotate(0) translate(4 242.8)">
<title>dependencies</title>
<polygon fill="white" stroke="transparent" points="-4,4 -4,-242.8 3398,-242.8 3398,4 -4,4"/>
<text text-anchor="middle" x="1697" y="-8.2" font-family="sans-serif" font-size="14.00">dependencies</text>
<g id="clust1" class="cluster">
<title>cluster_OtModule</title>
<polygon fill="none" stroke="black" stroke-dasharray="1,5" points="8,-32.8 8,-230.8 3386,-230.8 3386,-32.8 8,-32.8"/>
</g>
<g id="clust18" class="cluster">
<title>cluster_OtModule_imports</title>
<polygon fill="none" stroke="black" points="3127,-40.8 3127,-92.8 3378,-92.8 3378,-40.8 3127,-40.8"/>
</g>
<g id="clust19" class="cluster">
<title>cluster_OtModule_exports</title>
<polygon fill="none" stroke="black" points="1637,-170.8 1637,-222.8 1875,-222.8 1875,-170.8 1637,-170.8"/>
</g>
<g id="clust2" class="cluster">
<title>cluster_OtModule_declarations</title>
<polygon fill="none" stroke="black" points="16,-40.8 16,-92.8 3119,-92.8 3119,-40.8 16,-40.8"/>
</g>
<!-- FormOtContainerComponent -->
<g id="node1" class="node">
<title>FormOtContainerComponent</title>
<polygon fill="#ffffb3" stroke="black" points="3111.38,-84.8 2930.62,-84.8 2930.62,-48.8 3111.38,-48.8 3111.38,-84.8"/>
<text text-anchor="middle" x="3021" y="-62.6" font-family="Times,serif" font-size="14.00">FormOtContainerComponent</text>
</g>
<!-- OtModule -->
<g id="node16" class="node">
<title>OtModule</title>
<polygon fill="#8dd3c7" stroke="black" points="1792.55,-149.8 1789.55,-153.8 1768.55,-153.8 1765.55,-149.8 1719.45,-149.8 1719.45,-113.8 1792.55,-113.8 1792.55,-149.8"/>
<text text-anchor="middle" x="1756" y="-127.6" font-family="Times,serif" font-size="14.00">OtModule</text>
</g>
<!-- FormOtContainerComponent&#45;&gt;OtModule -->
<g id="edge1" class="edge">
<title>FormOtContainerComponent&#45;&gt;OtModule</title>
<path fill="none" stroke="black" d="M3021,-85.08C3021,-106.12 3021,-137.8 3021,-137.8 3021,-137.8 1802.83,-137.8 1802.83,-137.8"/>
<polygon fill="black" stroke="black" points="1802.83,-134.3 1792.83,-137.8 1802.83,-141.3 1802.83,-134.3"/>
</g>
<!-- FormularioOtBaseComponent -->
<g id="node2" class="node">
<title>FormularioOtBaseComponent</title>
<polygon fill="#ffffb3" stroke="black" points="2912.54,-84.8 2727.46,-84.8 2727.46,-48.8 2912.54,-48.8 2912.54,-84.8"/>
<text text-anchor="middle" x="2820" y="-62.6" font-family="Times,serif" font-size="14.00">FormularioOtBaseComponent</text>
</g>
<!-- FormularioOtBaseComponent&#45;&gt;OtModule -->
<g id="edge2" class="edge">
<title>FormularioOtBaseComponent&#45;&gt;OtModule</title>
<path fill="none" stroke="black" d="M2820,-85.11C2820,-104.95 2820,-133.8 2820,-133.8 2820,-133.8 1802.63,-133.8 1802.63,-133.8"/>
<polygon fill="black" stroke="black" points="1802.63,-130.3 1792.63,-133.8 1802.63,-137.3 1802.63,-130.3"/>
</g>
<!-- FormularioOtBucleComponent -->
<g id="node3" class="node">
<title>FormularioOtBucleComponent</title>
<polygon fill="#ffffb3" stroke="black" points="2709.48,-84.8 2518.52,-84.8 2518.52,-48.8 2709.48,-48.8 2709.48,-84.8"/>
<text text-anchor="middle" x="2614" y="-62.6" font-family="Times,serif" font-size="14.00">FormularioOtBucleComponent</text>
</g>
<!-- FormularioOtBucleComponent&#45;&gt;OtModule -->
<g id="edge3" class="edge">
<title>FormularioOtBucleComponent&#45;&gt;OtModule</title>
<path fill="none" stroke="black" d="M2614,-85.02C2614,-103.63 2614,-129.8 2614,-129.8 2614,-129.8 1802.59,-129.8 1802.59,-129.8"/>
<polygon fill="black" stroke="black" points="1802.59,-126.3 1792.59,-129.8 1802.59,-133.3 1802.59,-126.3"/>
</g>
<!-- FormularioOtExtrasComponent -->
<g id="node4" class="node">
<title>FormularioOtExtrasComponent</title>
<polygon fill="#ffffb3" stroke="black" points="2500.09,-84.8 2305.91,-84.8 2305.91,-48.8 2500.09,-48.8 2500.09,-84.8"/>
<text text-anchor="middle" x="2403" y="-62.6" font-family="Times,serif" font-size="14.00">FormularioOtExtrasComponent</text>
</g>
<!-- FormularioOtExtrasComponent&#45;&gt;OtModule -->
<g id="edge4" class="edge">
<title>FormularioOtExtrasComponent&#45;&gt;OtModule</title>
<path fill="none" stroke="black" d="M2403,-84.82C2403,-102.17 2403,-125.8 2403,-125.8 2403,-125.8 1802.64,-125.8 1802.64,-125.8"/>
<polygon fill="black" stroke="black" points="1802.64,-122.3 1792.64,-125.8 1802.64,-129.3 1802.64,-122.3"/>
</g>
<!-- FormularioOtFijoComponent -->
<g id="node5" class="node">
<title>FormularioOtFijoComponent</title>
<polygon fill="#ffffb3" stroke="black" points="2288.39,-84.8 2107.61,-84.8 2107.61,-48.8 2288.39,-48.8 2288.39,-84.8"/>
<text text-anchor="middle" x="2198" y="-62.6" font-family="Times,serif" font-size="14.00">FormularioOtFijoComponent</text>
</g>
<!-- FormularioOtFijoComponent&#45;&gt;OtModule -->
<g id="edge5" class="edge">
<title>FormularioOtFijoComponent&#45;&gt;OtModule</title>
<path fill="none" stroke="black" d="M2198,-84.81C2198,-100.85 2198,-121.8 2198,-121.8 2198,-121.8 1802.92,-121.8 1802.92,-121.8"/>
<polygon fill="black" stroke="black" points="1802.92,-118.3 1792.92,-121.8 1802.92,-125.3 1802.92,-118.3"/>
</g>
<!-- FormularioOtMovilComponent -->
<g id="node6" class="node">
<title>FormularioOtMovilComponent</title>
<polygon fill="#ffffb3" stroke="black" points="2089.05,-84.8 1896.95,-84.8 1896.95,-48.8 2089.05,-48.8 2089.05,-84.8"/>
<text text-anchor="middle" x="1993" y="-62.6" font-family="Times,serif" font-size="14.00">FormularioOtMovilComponent</text>
</g>
<!-- FormularioOtMovilComponent&#45;&gt;OtModule -->
<g id="edge6" class="edge">
<title>FormularioOtMovilComponent&#45;&gt;OtModule</title>
<path fill="none" stroke="black" d="M1993,-84.92C1993,-99.58 1993,-117.8 1993,-117.8 1993,-117.8 1802.77,-117.8 1802.77,-117.8"/>
<polygon fill="black" stroke="black" points="1802.77,-114.3 1792.77,-117.8 1802.77,-121.3 1802.77,-114.3"/>
</g>
<!-- FormularioOtNumeroInternoComponent -->
<g id="node7" class="node">
<title>FormularioOtNumeroInternoComponent</title>
<polygon fill="#ffffb3" stroke="black" points="1878.13,-84.8 1633.87,-84.8 1633.87,-48.8 1878.13,-48.8 1878.13,-84.8"/>
<text text-anchor="middle" x="1756" y="-62.6" font-family="Times,serif" font-size="14.00">FormularioOtNumeroInternoComponent</text>
</g>
<!-- FormularioOtNumeroInternoComponent&#45;&gt;OtModule -->
<g id="edge7" class="edge">
<title>FormularioOtNumeroInternoComponent&#45;&gt;OtModule</title>
<path fill="none" stroke="black" d="M1756,-84.91C1756,-84.91 1756,-103.79 1756,-103.79"/>
<polygon fill="black" stroke="black" points="1752.5,-103.79 1756,-113.79 1759.5,-103.79 1752.5,-103.79"/>
</g>
<!-- FormularioOtOrdinarioComponent -->
<g id="node8" class="node">
<title>FormularioOtOrdinarioComponent</title>
<polygon fill="#ffffb3" stroke="black" points="1615.25,-84.8 1402.75,-84.8 1402.75,-48.8 1615.25,-48.8 1615.25,-84.8"/>
<text text-anchor="middle" x="1509" y="-62.6" font-family="Times,serif" font-size="14.00">FormularioOtOrdinarioComponent</text>
</g>
<!-- FormularioOtOrdinarioComponent&#45;&gt;OtModule -->
<g id="edge8" class="edge">
<title>FormularioOtOrdinarioComponent&#45;&gt;OtModule</title>
<path fill="none" stroke="black" d="M1509,-84.92C1509,-99.58 1509,-117.8 1509,-117.8 1509,-117.8 1709.29,-117.8 1709.29,-117.8"/>
<polygon fill="black" stroke="black" points="1709.29,-121.3 1719.29,-117.8 1709.29,-114.3 1709.29,-121.3"/>
</g>
<!-- FormularioOtSustentoFinancieroComponent -->
<g id="node9" class="node">
<title>FormularioOtSustentoFinancieroComponent</title>
<polygon fill="#ffffb3" stroke="black" points="1384.42,-84.8 1117.58,-84.8 1117.58,-48.8 1384.42,-48.8 1384.42,-84.8"/>
<text text-anchor="middle" x="1251" y="-62.6" font-family="Times,serif" font-size="14.00">FormularioOtSustentoFinancieroComponent</text>
</g>
<!-- FormularioOtSustentoFinancieroComponent&#45;&gt;OtModule -->
<g id="edge9" class="edge">
<title>FormularioOtSustentoFinancieroComponent&#45;&gt;OtModule</title>
<path fill="none" stroke="black" d="M1251,-84.81C1251,-100.85 1251,-121.8 1251,-121.8 1251,-121.8 1709.27,-121.8 1709.27,-121.8"/>
<polygon fill="black" stroke="black" points="1709.27,-125.3 1719.27,-121.8 1709.27,-118.3 1709.27,-125.3"/>
</g>
<!-- ListOtContainerComponent -->
<g id="node10" class="node">
<title>ListOtContainerComponent</title>
<polygon fill="#ffffb3" stroke="black" points="1100.32,-84.8 927.68,-84.8 927.68,-48.8 1100.32,-48.8 1100.32,-84.8"/>
<text text-anchor="middle" x="1014" y="-62.6" font-family="Times,serif" font-size="14.00">ListOtContainerComponent</text>
</g>
<!-- ListOtContainerComponent&#45;&gt;OtModule -->
<g id="edge10" class="edge">
<title>ListOtContainerComponent&#45;&gt;OtModule</title>
<path fill="none" stroke="black" d="M1014,-84.82C1014,-102.17 1014,-125.8 1014,-125.8 1014,-125.8 1709.2,-125.8 1709.2,-125.8"/>
<polygon fill="black" stroke="black" points="1709.2,-129.3 1719.2,-125.8 1709.2,-122.3 1709.2,-129.3"/>
</g>
<!-- ListOtFiltrosComponent -->
<g id="node11" class="node">
<title>ListOtFiltrosComponent</title>
<polygon fill="#ffffb3" stroke="black" points="909.68,-84.8 756.32,-84.8 756.32,-48.8 909.68,-48.8 909.68,-84.8"/>
<text text-anchor="middle" x="833" y="-62.6" font-family="Times,serif" font-size="14.00">ListOtFiltrosComponent</text>
</g>
<!-- ListOtFiltrosComponent&#45;&gt;OtModule -->
<g id="edge11" class="edge">
<title>ListOtFiltrosComponent&#45;&gt;OtModule</title>
<path fill="none" stroke="black" d="M833,-85.02C833,-103.63 833,-129.8 833,-129.8 833,-129.8 1709.25,-129.8 1709.25,-129.8"/>
<polygon fill="black" stroke="black" points="1709.25,-133.3 1719.25,-129.8 1709.25,-126.3 1709.25,-133.3"/>
</g>
<!-- ListOtTableComponent -->
<g id="node12" class="node">
<title>ListOtTableComponent</title>
<polygon fill="#ffffb3" stroke="black" points="738.48,-84.8 589.52,-84.8 589.52,-48.8 738.48,-48.8 738.48,-84.8"/>
<text text-anchor="middle" x="664" y="-62.6" font-family="Times,serif" font-size="14.00">ListOtTableComponent</text>
</g>
<!-- ListOtTableComponent&#45;&gt;OtModule -->
<g id="edge12" class="edge">
<title>ListOtTableComponent&#45;&gt;OtModule</title>
<path fill="none" stroke="black" d="M664,-85.11C664,-104.95 664,-133.8 664,-133.8 664,-133.8 1709.35,-133.8 1709.35,-133.8"/>
<polygon fill="black" stroke="black" points="1709.35,-137.3 1719.35,-133.8 1709.35,-130.3 1709.35,-137.3"/>
</g>
<!-- ListOtTableOperacionesComponent -->
<g id="node13" class="node">
<title>ListOtTableOperacionesComponent</title>
<polygon fill="#ffffb3" stroke="black" points="571.45,-84.8 352.55,-84.8 352.55,-48.8 571.45,-48.8 571.45,-84.8"/>
<text text-anchor="middle" x="462" y="-62.6" font-family="Times,serif" font-size="14.00">ListOtTableOperacionesComponent</text>
</g>
<!-- ListOtTableOperacionesComponent&#45;&gt;OtModule -->
<g id="edge13" class="edge">
<title>ListOtTableOperacionesComponent&#45;&gt;OtModule</title>
<path fill="none" stroke="black" d="M462,-85.08C462,-106.12 462,-137.8 462,-137.8 462,-137.8 1709.36,-137.8 1709.36,-137.8"/>
<polygon fill="black" stroke="black" points="1709.36,-141.3 1719.36,-137.8 1709.36,-134.3 1709.36,-141.3"/>
</g>
<!-- OtComponent -->
<g id="node14" class="node">
<title>OtComponent</title>
<polygon fill="#ffffb3" stroke="black" points="334.83,-84.8 239.17,-84.8 239.17,-48.8 334.83,-48.8 334.83,-84.8"/>
<text text-anchor="middle" x="287" y="-62.6" font-family="Times,serif" font-size="14.00">OtComponent</text>
</g>
<!-- OtComponent&#45;&gt;OtModule -->
<g id="edge14" class="edge">
<title>OtComponent&#45;&gt;OtModule</title>
<path fill="none" stroke="black" d="M287,-84.96C287,-107.15 287,-141.8 287,-141.8 287,-141.8 1709.32,-141.8 1709.32,-141.8"/>
<polygon fill="black" stroke="black" points="1709.32,-145.3 1719.32,-141.8 1709.32,-138.3 1709.32,-145.3"/>
</g>
<!-- RegistrarLibroObrasComponent -->
<g id="node15" class="node">
<title>RegistrarLibroObrasComponent</title>
<polygon fill="#ffffb3" stroke="black" points="221.69,-84.8 24.31,-84.8 24.31,-48.8 221.69,-48.8 221.69,-84.8"/>
<text text-anchor="middle" x="123" y="-62.6" font-family="Times,serif" font-size="14.00">RegistrarLibroObrasComponent</text>
</g>
<!-- RegistrarLibroObrasComponent&#45;&gt;OtModule -->
<g id="edge15" class="edge">
<title>RegistrarLibroObrasComponent&#45;&gt;OtModule</title>
<path fill="none" stroke="black" d="M123,-85.12C123,-108.46 123,-145.8 123,-145.8 123,-145.8 1709.21,-145.8 1709.21,-145.8"/>
<polygon fill="black" stroke="black" points="1709.21,-149.3 1719.21,-145.8 1709.21,-142.3 1709.21,-149.3"/>
</g>
<!-- ListOtTableOperacionesComponent  -->
<g id="node19" class="node">
<title>ListOtTableOperacionesComponent </title>
<polygon fill="#fb8072" stroke="black" points="1867.45,-214.8 1644.55,-214.8 1644.55,-178.8 1867.45,-178.8 1867.45,-214.8"/>
<text text-anchor="middle" x="1756" y="-192.6" font-family="Times,serif" font-size="14.00">ListOtTableOperacionesComponent </text>
</g>
<!-- OtModule&#45;&gt;ListOtTableOperacionesComponent  -->
<g id="edge18" class="edge">
<title>OtModule&#45;&gt;ListOtTableOperacionesComponent </title>
<path fill="none" stroke="black" stroke-dasharray="5,2" d="M1756,-149.91C1756,-149.91 1756,-168.79 1756,-168.79"/>
<polygon fill="black" stroke="black" points="1752.5,-168.79 1756,-178.79 1759.5,-168.79 1752.5,-168.79"/>
</g>
<!-- OtRoutingModule -->
<g id="node17" class="node">
<title>OtRoutingModule</title>
<polygon fill="#8dd3c7" stroke="black" points="3370.17,-84.8 3367.17,-88.8 3346.17,-88.8 3343.17,-84.8 3251.83,-84.8 3251.83,-48.8 3370.17,-48.8 3370.17,-84.8"/>
<text text-anchor="middle" x="3311" y="-62.6" font-family="Times,serif" font-size="14.00">OtRoutingModule</text>
</g>
<!-- OtRoutingModule&#45;&gt;OtModule -->
<g id="edge16" class="edge">
<title>OtRoutingModule&#45;&gt;OtModule</title>
<path fill="none" stroke="black" d="M3311,-85.12C3311,-108.46 3311,-145.8 3311,-145.8 3311,-145.8 1802.9,-145.8 1802.9,-145.8"/>
<polygon fill="black" stroke="black" points="1802.9,-142.3 1792.9,-145.8 1802.9,-149.3 1802.9,-142.3"/>
</g>
<!-- SharedModule -->
<g id="node18" class="node">
<title>SharedModule</title>
<polygon fill="#8dd3c7" stroke="black" points="3233.43,-84.8 3230.43,-88.8 3209.43,-88.8 3206.43,-84.8 3134.57,-84.8 3134.57,-48.8 3233.43,-48.8 3233.43,-84.8"/>
<text text-anchor="middle" x="3184" y="-62.6" font-family="Times,serif" font-size="14.00">SharedModule</text>
</g>
<!-- SharedModule&#45;&gt;OtModule -->
<g id="edge17" class="edge">
<title>SharedModule&#45;&gt;OtModule</title>
<path fill="none" stroke="black" d="M3184,-84.96C3184,-107.15 3184,-141.8 3184,-141.8 3184,-141.8 1802.73,-141.8 1802.73,-141.8"/>
<polygon fill="black" stroke="black" points="1802.73,-138.3 1792.73,-141.8 1802.73,-145.3 1802.73,-138.3"/>
</g>
</g>
</svg>
