<?xml version="1.0" encoding="UTF-8" standalone="no"?>
<!DOCTYPE svg PUBLIC "-//W3C//DTD SVG 1.1//EN"
 "http://www.w3.org/Graphics/SVG/1.1/DTD/svg11.dtd">
<!-- Generated by graphviz version 5.0.0 (20220707.1540)
 -->
<!-- Title: dependencies Pages: 1 -->
<svg width="2924pt" height="174pt"
 viewBox="0.00 0.00 2924.00 173.80" xmlns="http://www.w3.org/2000/svg" xmlns:xlink="http://www.w3.org/1999/xlink">
<g id="graph0" class="graph" transform="scale(1 1) rotate(0) translate(4 169.8)">
<title>dependencies</title>
<polygon fill="white" stroke="transparent" points="-4,4 -4,-169.8 2920,-169.8 2920,4 -4,4"/>
<text text-anchor="middle" x="1458" y="-8.2" font-family="sans-serif" font-size="14.00">dependencies</text>
<g id="clust1" class="cluster">
<title>cluster_OtModule</title>
<polygon fill="none" stroke="black" stroke-dasharray="1,5" points="8,-32.8 8,-157.8 2908,-157.8 2908,-32.8 8,-32.8"/>
</g>
<g id="clust16" class="cluster">
<title>cluster_OtModule_imports</title>
<polygon fill="none" stroke="black" points="2649,-40.8 2649,-92.8 2900,-92.8 2900,-40.8 2649,-40.8"/>
</g>
<g id="clust2" class="cluster">
<title>cluster_OtModule_declarations</title>
<polygon fill="none" stroke="black" points="16,-40.8 16,-92.8 2641,-92.8 2641,-40.8 16,-40.8"/>
</g>
<!-- FormOtContainerComponent -->
<g id="node1" class="node">
<title>FormOtContainerComponent</title>
<polygon fill="#ffffb3" stroke="black" points="2633.38,-84.8 2452.62,-84.8 2452.62,-48.8 2633.38,-48.8 2633.38,-84.8"/>
<text text-anchor="middle" x="2543" y="-62.6" font-family="Times,serif" font-size="14.00">FormOtContainerComponent</text>
</g>
<!-- OtModule -->
<g id="node14" class="node">
<title>OtModule</title>
<polygon fill="#8dd3c7" stroke="black" points="1551.55,-149.8 1548.55,-153.8 1527.55,-153.8 1524.55,-149.8 1478.45,-149.8 1478.45,-113.8 1551.55,-113.8 1551.55,-149.8"/>
<text text-anchor="middle" x="1515" y="-127.6" font-family="Times,serif" font-size="14.00">OtModule</text>
</g>
<!-- FormOtContainerComponent&#45;&gt;OtModule -->
<g id="edge1" class="edge">
<title>FormOtContainerComponent&#45;&gt;OtModule</title>
<path fill="none" stroke="black" d="M2543,-84.83C2543,-105.57 2543,-136.8 2543,-136.8 2543,-136.8 1561.59,-136.8 1561.59,-136.8"/>
<polygon fill="black" stroke="black" points="1561.59,-133.3 1551.59,-136.8 1561.59,-140.3 1561.59,-133.3"/>
</g>
<!-- FormularioOtBaseComponent -->
<g id="node2" class="node">
<title>FormularioOtBaseComponent</title>
<polygon fill="#ffffb3" stroke="black" points="2434.54,-84.8 2249.46,-84.8 2249.46,-48.8 2434.54,-48.8 2434.54,-84.8"/>
<text text-anchor="middle" x="2342" y="-62.6" font-family="Times,serif" font-size="14.00">FormularioOtBaseComponent</text>
</g>
<!-- FormularioOtBaseComponent&#45;&gt;OtModule -->
<g id="edge2" class="edge">
<title>FormularioOtBaseComponent&#45;&gt;OtModule</title>
<path fill="none" stroke="black" d="M2342,-84.91C2342,-104.14 2342,-131.8 2342,-131.8 2342,-131.8 1561.6,-131.8 1561.6,-131.8"/>
<polygon fill="black" stroke="black" points="1561.6,-128.3 1551.6,-131.8 1561.6,-135.3 1561.6,-128.3"/>
</g>
<!-- FormularioOtBucleComponent -->
<g id="node3" class="node">
<title>FormularioOtBucleComponent</title>
<polygon fill="#ffffb3" stroke="black" points="2231.48,-84.8 2040.52,-84.8 2040.52,-48.8 2231.48,-48.8 2231.48,-84.8"/>
<text text-anchor="middle" x="2136" y="-62.6" font-family="Times,serif" font-size="14.00">FormularioOtBucleComponent</text>
</g>
<!-- FormularioOtBucleComponent&#45;&gt;OtModule -->
<g id="edge3" class="edge">
<title>FormularioOtBucleComponent&#45;&gt;OtModule</title>
<path fill="none" stroke="black" d="M2136,-85.1C2136,-103.07 2136,-127.8 2136,-127.8 2136,-127.8 1561.99,-127.8 1561.99,-127.8"/>
<polygon fill="black" stroke="black" points="1561.99,-124.3 1551.99,-127.8 1561.99,-131.3 1561.99,-124.3"/>
</g>
<!-- FormularioOtExtrasComponent -->
<g id="node4" class="node">
<title>FormularioOtExtrasComponent</title>
<polygon fill="#ffffb3" stroke="black" points="2022.09,-84.8 1827.91,-84.8 1827.91,-48.8 2022.09,-48.8 2022.09,-84.8"/>
<text text-anchor="middle" x="1925" y="-62.6" font-family="Times,serif" font-size="14.00">FormularioOtExtrasComponent</text>
</g>
<!-- FormularioOtExtrasComponent&#45;&gt;OtModule -->
<g id="edge4" class="edge">
<title>FormularioOtExtrasComponent&#45;&gt;OtModule</title>
<path fill="none" stroke="black" d="M1925,-84.83C1925,-101.2 1925,-122.8 1925,-122.8 1925,-122.8 1561.75,-122.8 1561.75,-122.8"/>
<polygon fill="black" stroke="black" points="1561.75,-119.3 1551.75,-122.8 1561.75,-126.3 1561.75,-119.3"/>
</g>
<!-- FormularioOtFijoComponent -->
<g id="node5" class="node">
<title>FormularioOtFijoComponent</title>
<polygon fill="#ffffb3" stroke="black" points="1810.39,-84.8 1629.61,-84.8 1629.61,-48.8 1810.39,-48.8 1810.39,-84.8"/>
<text text-anchor="middle" x="1720" y="-62.6" font-family="Times,serif" font-size="14.00">FormularioOtFijoComponent</text>
</g>
<!-- FormularioOtFijoComponent&#45;&gt;OtModule -->
<g id="edge5" class="edge">
<title>FormularioOtFijoComponent&#45;&gt;OtModule</title>
<path fill="none" stroke="black" d="M1720,-84.99C1720,-99.98 1720,-118.8 1720,-118.8 1720,-118.8 1561.65,-118.8 1561.65,-118.8"/>
<polygon fill="black" stroke="black" points="1561.65,-115.3 1551.65,-118.8 1561.65,-122.3 1561.65,-115.3"/>
</g>
<!-- FormularioOtMovilComponent -->
<g id="node6" class="node">
<title>FormularioOtMovilComponent</title>
<polygon fill="#ffffb3" stroke="black" points="1611.05,-84.8 1418.95,-84.8 1418.95,-48.8 1611.05,-48.8 1611.05,-84.8"/>
<text text-anchor="middle" x="1515" y="-62.6" font-family="Times,serif" font-size="14.00">FormularioOtMovilComponent</text>
</g>
<!-- FormularioOtMovilComponent&#45;&gt;OtModule -->
<g id="edge6" class="edge">
<title>FormularioOtMovilComponent&#45;&gt;OtModule</title>
<path fill="none" stroke="black" d="M1515,-84.91C1515,-84.91 1515,-103.79 1515,-103.79"/>
<polygon fill="black" stroke="black" points="1511.5,-103.79 1515,-113.79 1518.5,-103.79 1511.5,-103.79"/>
</g>
<!-- FormularioOtOrdinarioComponent -->
<g id="node7" class="node">
<title>FormularioOtOrdinarioComponent</title>
<polygon fill="#ffffb3" stroke="black" points="1400.25,-84.8 1187.75,-84.8 1187.75,-48.8 1400.25,-48.8 1400.25,-84.8"/>
<text text-anchor="middle" x="1294" y="-62.6" font-family="Times,serif" font-size="14.00">FormularioOtOrdinarioComponent</text>
</g>
<!-- FormularioOtOrdinarioComponent&#45;&gt;OtModule -->
<g id="edge7" class="edge">
<title>FormularioOtOrdinarioComponent&#45;&gt;OtModule</title>
<path fill="none" stroke="black" d="M1294,-84.99C1294,-99.98 1294,-118.8 1294,-118.8 1294,-118.8 1468.01,-118.8 1468.01,-118.8"/>
<polygon fill="black" stroke="black" points="1468.01,-122.3 1478.01,-118.8 1468.01,-115.3 1468.01,-122.3"/>
</g>
<!-- FormularioOtSustentoFinancieroComponent -->
<g id="node8" class="node">
<title>FormularioOtSustentoFinancieroComponent</title>
<polygon fill="#ffffb3" stroke="black" points="1169.42,-84.8 902.58,-84.8 902.58,-48.8 1169.42,-48.8 1169.42,-84.8"/>
<text text-anchor="middle" x="1036" y="-62.6" font-family="Times,serif" font-size="14.00">FormularioOtSustentoFinancieroComponent</text>
</g>
<!-- FormularioOtSustentoFinancieroComponent&#45;&gt;OtModule -->
<g id="edge8" class="edge">
<title>FormularioOtSustentoFinancieroComponent&#45;&gt;OtModule</title>
<path fill="none" stroke="black" d="M1036,-84.83C1036,-101.2 1036,-122.8 1036,-122.8 1036,-122.8 1468.21,-122.8 1468.21,-122.8"/>
<polygon fill="black" stroke="black" points="1468.21,-126.3 1478.21,-122.8 1468.21,-119.3 1468.21,-126.3"/>
</g>
<!-- ListOtContainerComponent -->
<g id="node9" class="node">
<title>ListOtContainerComponent</title>
<polygon fill="#ffffb3" stroke="black" points="885.32,-84.8 712.68,-84.8 712.68,-48.8 885.32,-48.8 885.32,-84.8"/>
<text text-anchor="middle" x="799" y="-62.6" font-family="Times,serif" font-size="14.00">ListOtContainerComponent</text>
</g>
<!-- ListOtContainerComponent&#45;&gt;OtModule -->
<g id="edge9" class="edge">
<title>ListOtContainerComponent&#45;&gt;OtModule</title>
<path fill="none" stroke="black" d="M799,-85.1C799,-103.07 799,-127.8 799,-127.8 799,-127.8 1468.01,-127.8 1468.01,-127.8"/>
<polygon fill="black" stroke="black" points="1468.01,-131.3 1478.01,-127.8 1468.01,-124.3 1468.01,-131.3"/>
</g>
<!-- ListOtFiltrosComponent -->
<g id="node10" class="node">
<title>ListOtFiltrosComponent</title>
<polygon fill="#ffffb3" stroke="black" points="694.68,-84.8 541.32,-84.8 541.32,-48.8 694.68,-48.8 694.68,-84.8"/>
<text text-anchor="middle" x="618" y="-62.6" font-family="Times,serif" font-size="14.00">ListOtFiltrosComponent</text>
</g>
<!-- ListOtFiltrosComponent&#45;&gt;OtModule -->
<g id="edge10" class="edge">
<title>ListOtFiltrosComponent&#45;&gt;OtModule</title>
<path fill="none" stroke="black" d="M618,-84.91C618,-104.14 618,-131.8 618,-131.8 618,-131.8 1468.45,-131.8 1468.45,-131.8"/>
<polygon fill="black" stroke="black" points="1468.45,-135.3 1478.45,-131.8 1468.45,-128.3 1468.45,-135.3"/>
</g>
<!-- ListOtTableComponent -->
<g id="node11" class="node">
<title>ListOtTableComponent</title>
<polygon fill="#ffffb3" stroke="black" points="523.48,-84.8 374.52,-84.8 374.52,-48.8 523.48,-48.8 523.48,-84.8"/>
<text text-anchor="middle" x="449" y="-62.6" font-family="Times,serif" font-size="14.00">ListOtTableComponent</text>
</g>
<!-- ListOtTableComponent&#45;&gt;OtModule -->
<g id="edge11" class="edge">
<title>ListOtTableComponent&#45;&gt;OtModule</title>
<path fill="none" stroke="black" d="M449,-84.83C449,-105.57 449,-136.8 449,-136.8 449,-136.8 1468.31,-136.8 1468.31,-136.8"/>
<polygon fill="black" stroke="black" points="1468.31,-140.3 1478.31,-136.8 1468.31,-133.3 1468.31,-140.3"/>
</g>
<!-- ListOtTableOperacionesComponent -->
<g id="node12" class="node">
<title>ListOtTableOperacionesComponent</title>
<polygon fill="#ffffb3" stroke="black" points="356.45,-84.8 137.55,-84.8 137.55,-48.8 356.45,-48.8 356.45,-84.8"/>
<text text-anchor="middle" x="247" y="-62.6" font-family="Times,serif" font-size="14.00">ListOtTableOperacionesComponent</text>
</g>
<!-- ListOtTableOperacionesComponent&#45;&gt;OtModule -->
<g id="edge12" class="edge">
<title>ListOtTableOperacionesComponent&#45;&gt;OtModule</title>
<path fill="none" stroke="black" d="M247,-85.09C247,-107.01 247,-140.8 247,-140.8 247,-140.8 1468.42,-140.8 1468.42,-140.8"/>
<polygon fill="black" stroke="black" points="1468.42,-144.3 1478.42,-140.8 1468.42,-137.3 1468.42,-144.3"/>
</g>
<!-- OtComponent -->
<g id="node13" class="node">
<title>OtComponent</title>
<polygon fill="#ffffb3" stroke="black" points="119.83,-84.8 24.17,-84.8 24.17,-48.8 119.83,-48.8 119.83,-84.8"/>
<text text-anchor="middle" x="72" y="-62.6" font-family="Times,serif" font-size="14.00">OtComponent</text>
</g>
<!-- OtComponent&#45;&gt;OtModule -->
<g id="edge13" class="edge">
<title>OtComponent&#45;&gt;OtModule</title>
<path fill="none" stroke="black" d="M72,-85.12C72,-108.46 72,-145.8 72,-145.8 72,-145.8 1468.25,-145.8 1468.25,-145.8"/>
<polygon fill="black" stroke="black" points="1468.25,-149.3 1478.25,-145.8 1468.25,-142.3 1468.25,-149.3"/>
</g>
<!-- OtRoutingModule -->
<g id="node15" class="node">
<title>OtRoutingModule</title>
<polygon fill="#8dd3c7" stroke="black" points="2892.17,-84.8 2889.17,-88.8 2868.17,-88.8 2865.17,-84.8 2773.83,-84.8 2773.83,-48.8 2892.17,-48.8 2892.17,-84.8"/>
<text text-anchor="middle" x="2833" y="-62.6" font-family="Times,serif" font-size="14.00">OtRoutingModule</text>
</g>
<!-- OtRoutingModule&#45;&gt;OtModule -->
<g id="edge14" class="edge">
<title>OtRoutingModule&#45;&gt;OtModule</title>
<path fill="none" stroke="black" d="M2833,-85.12C2833,-108.46 2833,-145.8 2833,-145.8 2833,-145.8 1561.63,-145.8 1561.63,-145.8"/>
<polygon fill="black" stroke="black" points="1561.63,-142.3 1551.63,-145.8 1561.63,-149.3 1561.63,-142.3"/>
</g>
<!-- SharedModule -->
<g id="node16" class="node">
<title>SharedModule</title>
<polygon fill="#8dd3c7" stroke="black" points="2755.43,-84.8 2752.43,-88.8 2731.43,-88.8 2728.43,-84.8 2656.57,-84.8 2656.57,-48.8 2755.43,-48.8 2755.43,-84.8"/>
<text text-anchor="middle" x="2706" y="-62.6" font-family="Times,serif" font-size="14.00">SharedModule</text>
</g>
<!-- SharedModule&#45;&gt;OtModule -->
<g id="edge15" class="edge">
<title>SharedModule&#45;&gt;OtModule</title>
<path fill="none" stroke="black" d="M2706,-85.09C2706,-107.01 2706,-140.8 2706,-140.8 2706,-140.8 1561.62,-140.8 1561.62,-140.8"/>
<polygon fill="black" stroke="black" points="1561.62,-137.3 1551.62,-140.8 1561.62,-144.3 1561.62,-137.3"/>
</g>
</g>
</svg>
