<?xml version="1.0" encoding="UTF-8" standalone="no"?>
<!DOCTYPE svg PUBLIC "-//W3C//DTD SVG 1.1//EN"
 "http://www.w3.org/Graphics/SVG/1.1/DTD/svg11.dtd">
<!-- Generated by graphviz version 5.0.0 (20220707.1540)
 -->
<!-- Title: dependencies Pages: 1 -->
<svg width="294pt" height="174pt"
 viewBox="0.00 0.00 294.00 173.80" xmlns="http://www.w3.org/2000/svg" xmlns:xlink="http://www.w3.org/1999/xlink">
<g id="graph0" class="graph" transform="scale(1 1) rotate(0) translate(4 169.8)">
<title>dependencies</title>
<polygon fill="white" stroke="transparent" points="-4,4 -4,-169.8 290,-169.8 290,4 -4,4"/>
<text text-anchor="middle" x="143" y="-8.2" font-family="sans-serif" font-size="14.00">dependencies</text>
<g id="clust1" class="cluster">
<title>cluster_OtModule</title>
<polygon fill="none" stroke="black" stroke-dasharray="1,5" points="8,-32.8 8,-157.8 278,-157.8 278,-32.8 8,-32.8"/>
</g>
<g id="clust4" class="cluster">
<title>cluster_OtModule_imports</title>
<polygon fill="none" stroke="black" points="136,-40.8 136,-92.8 270,-92.8 270,-40.8 136,-40.8"/>
</g>
<g id="clust2" class="cluster">
<title>cluster_OtModule_declarations</title>
<polygon fill="none" stroke="black" points="16,-40.8 16,-92.8 128,-92.8 128,-40.8 16,-40.8"/>
</g>
<!-- OtComponent -->
<g id="node1" class="node">
<title>OtComponent</title>
<polygon fill="#ffffb3" stroke="black" points="119.83,-84.8 24.17,-84.8 24.17,-48.8 119.83,-48.8 119.83,-84.8"/>
<text text-anchor="middle" x="72" y="-62.6" font-family="Times,serif" font-size="14.00">OtComponent</text>
</g>
<!-- OtModule -->
<g id="node2" class="node">
<title>OtModule</title>
<polygon fill="#8dd3c7" stroke="black" points="173.55,-149.8 170.55,-153.8 149.55,-153.8 146.55,-149.8 100.45,-149.8 100.45,-113.8 173.55,-113.8 173.55,-149.8"/>
<text text-anchor="middle" x="137" y="-127.6" font-family="Times,serif" font-size="14.00">OtModule</text>
</g>
<!-- OtComponent&#45;&gt;OtModule -->
<g id="edge1" class="edge">
<title>OtComponent&#45;&gt;OtModule</title>
<path fill="none" stroke="black" d="M109.94,-84.91C109.94,-84.91 109.94,-103.79 109.94,-103.79"/>
<polygon fill="black" stroke="black" points="106.44,-103.79 109.94,-113.79 113.44,-103.79 106.44,-103.79"/>
</g>
<!-- OtRoutingModule -->
<g id="node3" class="node">
<title>OtRoutingModule</title>
<polygon fill="#8dd3c7" stroke="black" points="262.17,-84.8 259.17,-88.8 238.17,-88.8 235.17,-84.8 143.83,-84.8 143.83,-48.8 262.17,-48.8 262.17,-84.8"/>
<text text-anchor="middle" x="203" y="-62.6" font-family="Times,serif" font-size="14.00">OtRoutingModule</text>
</g>
<!-- OtRoutingModule&#45;&gt;OtModule -->
<g id="edge2" class="edge">
<title>OtRoutingModule&#45;&gt;OtModule</title>
<path fill="none" stroke="black" d="M158.72,-84.91C158.72,-84.91 158.72,-103.79 158.72,-103.79"/>
<polygon fill="black" stroke="black" points="155.22,-103.79 158.72,-113.79 162.22,-103.79 155.22,-103.79"/>
</g>
</g>
</svg>
