<?xml version="1.0" encoding="UTF-8" standalone="no"?>
<!DOCTYPE svg PUBLIC "-//W3C//DTD SVG 1.1//EN"
 "http://www.w3.org/Graphics/SVG/1.1/DTD/svg11.dtd">
<!-- Generated by graphviz version 5.0.0 (20220707.1540)
 -->
<!-- Title: dependencies Pages: 1 -->
<svg width="294pt" height="174pt"
 viewBox="0.00 0.00 294.00 173.80" xmlns="http://www.w3.org/2000/svg" xmlns:xlink="http://www.w3.org/1999/xlink">
<g id="graph0" class="graph" transform="scale(1 1) rotate(0) translate(4 169.8)">
<title>dependencies</title>
<polygon fill="white" stroke="transparent" points="-4,4 -4,-169.8 290,-169.8 290,4 -4,4"/>
<text text-anchor="middle" x="143" y="-8.2" font-family="sans-serif" font-size="14.00">dependencies</text>
<g id="clust1" class="cluster">
<title>cluster_OtModule</title>
<polygon fill="none" stroke="black" stroke-dasharray="1,5" points="8,-32.8 8,-157.8 278,-157.8 278,-32.8 8,-32.8"/>
</g>
<g id="clust2" class="cluster">
<title>cluster_OtModule_declarations</title>
<polygon fill="none" stroke="black" points="158,-40.8 158,-92.8 270,-92.8 270,-40.8 158,-40.8"/>
</g>
<g id="clust4" class="cluster">
<title>cluster_OtModule_imports</title>
<polygon fill="none" stroke="black" points="16,-40.8 16,-92.8 150,-92.8 150,-40.8 16,-40.8"/>
</g>
<!-- OtComponent -->
<g id="node1" class="node">
<title>OtComponent</title>
<polygon fill="#ffffb3" stroke="black" points="261.83,-84.8 166.17,-84.8 166.17,-48.8 261.83,-48.8 261.83,-84.8"/>
<text text-anchor="middle" x="214" y="-62.6" font-family="Times,serif" font-size="14.00">OtComponent</text>
</g>
<!-- OtModule -->
<g id="node2" class="node">
<title>OtModule</title>
<polygon fill="#8dd3c7" stroke="black" points="184.55,-149.8 181.55,-153.8 160.55,-153.8 157.55,-149.8 111.45,-149.8 111.45,-113.8 184.55,-113.8 184.55,-149.8"/>
<text text-anchor="middle" x="148" y="-127.6" font-family="Times,serif" font-size="14.00">OtModule</text>
</g>
<!-- OtComponent&#45;&gt;OtModule -->
<g id="edge1" class="edge">
<title>OtComponent&#45;&gt;OtModule</title>
<path fill="none" stroke="black" d="M175.56,-84.91C175.56,-84.91 175.56,-103.79 175.56,-103.79"/>
<polygon fill="black" stroke="black" points="172.06,-103.79 175.56,-113.79 179.06,-103.79 172.06,-103.79"/>
</g>
<!-- OtRoutingModule -->
<g id="node3" class="node">
<title>OtRoutingModule</title>
<polygon fill="#8dd3c7" stroke="black" points="142.17,-84.8 139.17,-88.8 118.17,-88.8 115.17,-84.8 23.83,-84.8 23.83,-48.8 142.17,-48.8 142.17,-84.8"/>
<text text-anchor="middle" x="83" y="-62.6" font-family="Times,serif" font-size="14.00">OtRoutingModule</text>
</g>
<!-- OtRoutingModule&#45;&gt;OtModule -->
<g id="edge2" class="edge">
<title>OtRoutingModule&#45;&gt;OtModule</title>
<path fill="none" stroke="black" d="M126.78,-84.91C126.78,-84.91 126.78,-103.79 126.78,-103.79"/>
<polygon fill="black" stroke="black" points="123.28,-103.79 126.78,-113.79 130.28,-103.79 123.28,-103.79"/>
</g>
</g>
</svg>
