<?xml version="1.0" encoding="UTF-8" standalone="no"?>
<!DOCTYPE svg PUBLIC "-//W3C//DTD SVG 1.1//EN"
 "http://www.w3.org/Graphics/SVG/1.1/DTD/svg11.dtd">
<!-- Generated by graphviz version 5.0.0 (20220707.1540)
 -->
<!-- Title: dependencies Pages: 1 -->
<svg width="2924pt" height="174pt"
 viewBox="0.00 0.00 2924.00 173.80" xmlns="http://www.w3.org/2000/svg" xmlns:xlink="http://www.w3.org/1999/xlink">
<g id="graph0" class="graph" transform="scale(1 1) rotate(0) translate(4 169.8)">
<title>dependencies</title>
<polygon fill="white" stroke="transparent" points="-4,4 -4,-169.8 2920,-169.8 2920,4 -4,4"/>
<text text-anchor="middle" x="1458" y="-8.2" font-family="sans-serif" font-size="14.00">dependencies</text>
<g id="clust1" class="cluster">
<title>cluster_OtModule</title>
<polygon fill="none" stroke="black" stroke-dasharray="1,5" points="8,-32.8 8,-157.8 2908,-157.8 2908,-32.8 8,-32.8"/>
</g>
<g id="clust2" class="cluster">
<title>cluster_OtModule_declarations</title>
<polygon fill="none" stroke="black" points="275,-40.8 275,-92.8 2900,-92.8 2900,-40.8 275,-40.8"/>
</g>
<g id="clust16" class="cluster">
<title>cluster_OtModule_imports</title>
<polygon fill="none" stroke="black" points="16,-40.8 16,-92.8 267,-92.8 267,-40.8 16,-40.8"/>
</g>
<!-- FormOtContainerComponent -->
<g id="node1" class="node">
<title>FormOtContainerComponent</title>
<polygon fill="#ffffb3" stroke="black" points="2892.38,-84.8 2711.62,-84.8 2711.62,-48.8 2892.38,-48.8 2892.38,-84.8"/>
<text text-anchor="middle" x="2802" y="-62.6" font-family="Times,serif" font-size="14.00">FormOtContainerComponent</text>
</g>
<!-- OtModule -->
<g id="node14" class="node">
<title>OtModule</title>
<polygon fill="#8dd3c7" stroke="black" points="1331.55,-149.8 1328.55,-153.8 1307.55,-153.8 1304.55,-149.8 1258.45,-149.8 1258.45,-113.8 1331.55,-113.8 1331.55,-149.8"/>
<text text-anchor="middle" x="1295" y="-127.6" font-family="Times,serif" font-size="14.00">OtModule</text>
</g>
<!-- FormOtContainerComponent&#45;&gt;OtModule -->
<g id="edge1" class="edge">
<title>FormOtContainerComponent&#45;&gt;OtModule</title>
<path fill="none" stroke="black" d="M2802,-85.12C2802,-108.46 2802,-145.8 2802,-145.8 2802,-145.8 1341.88,-145.8 1341.88,-145.8"/>
<polygon fill="black" stroke="black" points="1341.88,-142.3 1331.88,-145.8 1341.88,-149.3 1341.88,-142.3"/>
</g>
<!-- FormularioOtBaseComponent -->
<g id="node2" class="node">
<title>FormularioOtBaseComponent</title>
<polygon fill="#ffffb3" stroke="black" points="2693.54,-84.8 2508.46,-84.8 2508.46,-48.8 2693.54,-48.8 2693.54,-84.8"/>
<text text-anchor="middle" x="2601" y="-62.6" font-family="Times,serif" font-size="14.00">FormularioOtBaseComponent</text>
</g>
<!-- FormularioOtBaseComponent&#45;&gt;OtModule -->
<g id="edge2" class="edge">
<title>FormularioOtBaseComponent&#45;&gt;OtModule</title>
<path fill="none" stroke="black" d="M2601,-85.09C2601,-107.01 2601,-140.8 2601,-140.8 2601,-140.8 1341.64,-140.8 1341.64,-140.8"/>
<polygon fill="black" stroke="black" points="1341.64,-137.3 1331.64,-140.8 1341.64,-144.3 1341.64,-137.3"/>
</g>
<!-- FormularioOtBucleComponent -->
<g id="node3" class="node">
<title>FormularioOtBucleComponent</title>
<polygon fill="#ffffb3" stroke="black" points="2490.48,-84.8 2299.52,-84.8 2299.52,-48.8 2490.48,-48.8 2490.48,-84.8"/>
<text text-anchor="middle" x="2395" y="-62.6" font-family="Times,serif" font-size="14.00">FormularioOtBucleComponent</text>
</g>
<!-- FormularioOtBucleComponent&#45;&gt;OtModule -->
<g id="edge3" class="edge">
<title>FormularioOtBucleComponent&#45;&gt;OtModule</title>
<path fill="none" stroke="black" d="M2395,-84.83C2395,-105.57 2395,-136.8 2395,-136.8 2395,-136.8 1341.6,-136.8 1341.6,-136.8"/>
<polygon fill="black" stroke="black" points="1341.6,-133.3 1331.6,-136.8 1341.6,-140.3 1341.6,-133.3"/>
</g>
<!-- FormularioOtExtrasComponent -->
<g id="node4" class="node">
<title>FormularioOtExtrasComponent</title>
<polygon fill="#ffffb3" stroke="black" points="2281.09,-84.8 2086.91,-84.8 2086.91,-48.8 2281.09,-48.8 2281.09,-84.8"/>
<text text-anchor="middle" x="2184" y="-62.6" font-family="Times,serif" font-size="14.00">FormularioOtExtrasComponent</text>
</g>
<!-- FormularioOtExtrasComponent&#45;&gt;OtModule -->
<g id="edge4" class="edge">
<title>FormularioOtExtrasComponent&#45;&gt;OtModule</title>
<path fill="none" stroke="black" d="M2184,-84.91C2184,-104.14 2184,-131.8 2184,-131.8 2184,-131.8 1341.79,-131.8 1341.79,-131.8"/>
<polygon fill="black" stroke="black" points="1341.79,-128.3 1331.79,-131.8 1341.79,-135.3 1341.79,-128.3"/>
</g>
<!-- FormularioOtFijoComponent -->
<g id="node5" class="node">
<title>FormularioOtFijoComponent</title>
<polygon fill="#ffffb3" stroke="black" points="2069.39,-84.8 1888.61,-84.8 1888.61,-48.8 2069.39,-48.8 2069.39,-84.8"/>
<text text-anchor="middle" x="1979" y="-62.6" font-family="Times,serif" font-size="14.00">FormularioOtFijoComponent</text>
</g>
<!-- FormularioOtFijoComponent&#45;&gt;OtModule -->
<g id="edge5" class="edge">
<title>FormularioOtFijoComponent&#45;&gt;OtModule</title>
<path fill="none" stroke="black" d="M1979,-85.1C1979,-103.07 1979,-127.8 1979,-127.8 1979,-127.8 1341.77,-127.8 1341.77,-127.8"/>
<polygon fill="black" stroke="black" points="1341.77,-124.3 1331.77,-127.8 1341.77,-131.3 1341.77,-124.3"/>
</g>
<!-- FormularioOtMovilComponent -->
<g id="node6" class="node">
<title>FormularioOtMovilComponent</title>
<polygon fill="#ffffb3" stroke="black" points="1870.05,-84.8 1677.95,-84.8 1677.95,-48.8 1870.05,-48.8 1870.05,-84.8"/>
<text text-anchor="middle" x="1774" y="-62.6" font-family="Times,serif" font-size="14.00">FormularioOtMovilComponent</text>
</g>
<!-- FormularioOtMovilComponent&#45;&gt;OtModule -->
<g id="edge6" class="edge">
<title>FormularioOtMovilComponent&#45;&gt;OtModule</title>
<path fill="none" stroke="black" d="M1774,-84.83C1774,-101.2 1774,-122.8 1774,-122.8 1774,-122.8 1341.79,-122.8 1341.79,-122.8"/>
<polygon fill="black" stroke="black" points="1341.79,-119.3 1331.79,-122.8 1341.79,-126.3 1341.79,-119.3"/>
</g>
<!-- FormularioOtOrdinarioComponent -->
<g id="node7" class="node">
<title>FormularioOtOrdinarioComponent</title>
<polygon fill="#ffffb3" stroke="black" points="1659.25,-84.8 1446.75,-84.8 1446.75,-48.8 1659.25,-48.8 1659.25,-84.8"/>
<text text-anchor="middle" x="1553" y="-62.6" font-family="Times,serif" font-size="14.00">FormularioOtOrdinarioComponent</text>
</g>
<!-- FormularioOtOrdinarioComponent&#45;&gt;OtModule -->
<g id="edge7" class="edge">
<title>FormularioOtOrdinarioComponent&#45;&gt;OtModule</title>
<path fill="none" stroke="black" d="M1553,-84.99C1553,-99.98 1553,-118.8 1553,-118.8 1553,-118.8 1341.69,-118.8 1341.69,-118.8"/>
<polygon fill="black" stroke="black" points="1341.69,-115.3 1331.69,-118.8 1341.69,-122.3 1341.69,-115.3"/>
</g>
<!-- FormularioOtSustentoFinancieroComponent -->
<g id="node8" class="node">
<title>FormularioOtSustentoFinancieroComponent</title>
<polygon fill="#ffffb3" stroke="black" points="1428.42,-84.8 1161.58,-84.8 1161.58,-48.8 1428.42,-48.8 1428.42,-84.8"/>
<text text-anchor="middle" x="1295" y="-62.6" font-family="Times,serif" font-size="14.00">FormularioOtSustentoFinancieroComponent</text>
</g>
<!-- FormularioOtSustentoFinancieroComponent&#45;&gt;OtModule -->
<g id="edge8" class="edge">
<title>FormularioOtSustentoFinancieroComponent&#45;&gt;OtModule</title>
<path fill="none" stroke="black" d="M1295,-84.91C1295,-84.91 1295,-103.79 1295,-103.79"/>
<polygon fill="black" stroke="black" points="1291.5,-103.79 1295,-113.79 1298.5,-103.79 1291.5,-103.79"/>
</g>
<!-- ListOtContainerComponent -->
<g id="node9" class="node">
<title>ListOtContainerComponent</title>
<polygon fill="#ffffb3" stroke="black" points="1144.32,-84.8 971.68,-84.8 971.68,-48.8 1144.32,-48.8 1144.32,-84.8"/>
<text text-anchor="middle" x="1058" y="-62.6" font-family="Times,serif" font-size="14.00">ListOtContainerComponent</text>
</g>
<!-- ListOtContainerComponent&#45;&gt;OtModule -->
<g id="edge9" class="edge">
<title>ListOtContainerComponent&#45;&gt;OtModule</title>
<path fill="none" stroke="black" d="M1058,-84.99C1058,-99.98 1058,-118.8 1058,-118.8 1058,-118.8 1248.23,-118.8 1248.23,-118.8"/>
<polygon fill="black" stroke="black" points="1248.23,-122.3 1258.23,-118.8 1248.23,-115.3 1248.23,-122.3"/>
</g>
<!-- ListOtFiltrosComponent -->
<g id="node10" class="node">
<title>ListOtFiltrosComponent</title>
<polygon fill="#ffffb3" stroke="black" points="953.68,-84.8 800.32,-84.8 800.32,-48.8 953.68,-48.8 953.68,-84.8"/>
<text text-anchor="middle" x="877" y="-62.6" font-family="Times,serif" font-size="14.00">ListOtFiltrosComponent</text>
</g>
<!-- ListOtFiltrosComponent&#45;&gt;OtModule -->
<g id="edge10" class="edge">
<title>ListOtFiltrosComponent&#45;&gt;OtModule</title>
<path fill="none" stroke="black" d="M877,-84.83C877,-101.2 877,-122.8 877,-122.8 877,-122.8 1248.27,-122.8 1248.27,-122.8"/>
<polygon fill="black" stroke="black" points="1248.27,-126.3 1258.27,-122.8 1248.27,-119.3 1248.27,-126.3"/>
</g>
<!-- ListOtTableComponent -->
<g id="node11" class="node">
<title>ListOtTableComponent</title>
<polygon fill="#ffffb3" stroke="black" points="782.48,-84.8 633.52,-84.8 633.52,-48.8 782.48,-48.8 782.48,-84.8"/>
<text text-anchor="middle" x="708" y="-62.6" font-family="Times,serif" font-size="14.00">ListOtTableComponent</text>
</g>
<!-- ListOtTableComponent&#45;&gt;OtModule -->
<g id="edge11" class="edge">
<title>ListOtTableComponent&#45;&gt;OtModule</title>
<path fill="none" stroke="black" d="M708,-85.1C708,-103.07 708,-127.8 708,-127.8 708,-127.8 1248.28,-127.8 1248.28,-127.8"/>
<polygon fill="black" stroke="black" points="1248.28,-131.3 1258.28,-127.8 1248.28,-124.3 1248.28,-131.3"/>
</g>
<!-- ListOtTableOperacionesComponent -->
<g id="node12" class="node">
<title>ListOtTableOperacionesComponent</title>
<polygon fill="#ffffb3" stroke="black" points="615.45,-84.8 396.55,-84.8 396.55,-48.8 615.45,-48.8 615.45,-84.8"/>
<text text-anchor="middle" x="506" y="-62.6" font-family="Times,serif" font-size="14.00">ListOtTableOperacionesComponent</text>
</g>
<!-- ListOtTableOperacionesComponent&#45;&gt;OtModule -->
<g id="edge12" class="edge">
<title>ListOtTableOperacionesComponent&#45;&gt;OtModule</title>
<path fill="none" stroke="black" d="M506,-84.91C506,-104.14 506,-131.8 506,-131.8 506,-131.8 1248.27,-131.8 1248.27,-131.8"/>
<polygon fill="black" stroke="black" points="1248.27,-135.3 1258.27,-131.8 1248.27,-128.3 1248.27,-135.3"/>
</g>
<!-- OtComponent -->
<g id="node13" class="node">
<title>OtComponent</title>
<polygon fill="#ffffb3" stroke="black" points="378.83,-84.8 283.17,-84.8 283.17,-48.8 378.83,-48.8 378.83,-84.8"/>
<text text-anchor="middle" x="331" y="-62.6" font-family="Times,serif" font-size="14.00">OtComponent</text>
</g>
<!-- OtComponent&#45;&gt;OtModule -->
<g id="edge13" class="edge">
<title>OtComponent&#45;&gt;OtModule</title>
<path fill="none" stroke="black" d="M331,-84.83C331,-105.57 331,-136.8 331,-136.8 331,-136.8 1248.39,-136.8 1248.39,-136.8"/>
<polygon fill="black" stroke="black" points="1248.39,-140.3 1258.39,-136.8 1248.39,-133.3 1248.39,-140.3"/>
</g>
<!-- OtRoutingModule -->
<g id="node15" class="node">
<title>OtRoutingModule</title>
<polygon fill="#8dd3c7" stroke="black" points="259.17,-84.8 256.17,-88.8 235.17,-88.8 232.17,-84.8 140.83,-84.8 140.83,-48.8 259.17,-48.8 259.17,-84.8"/>
<text text-anchor="middle" x="200" y="-62.6" font-family="Times,serif" font-size="14.00">OtRoutingModule</text>
</g>
<!-- OtRoutingModule&#45;&gt;OtModule -->
<g id="edge14" class="edge">
<title>OtRoutingModule&#45;&gt;OtModule</title>
<path fill="none" stroke="black" d="M200,-85.09C200,-107.01 200,-140.8 200,-140.8 200,-140.8 1248.25,-140.8 1248.25,-140.8"/>
<polygon fill="black" stroke="black" points="1248.25,-144.3 1258.25,-140.8 1248.25,-137.3 1248.25,-144.3"/>
</g>
<!-- SharedModule -->
<g id="node16" class="node">
<title>SharedModule</title>
<polygon fill="#8dd3c7" stroke="black" points="122.43,-84.8 119.43,-88.8 98.43,-88.8 95.43,-84.8 23.57,-84.8 23.57,-48.8 122.43,-48.8 122.43,-84.8"/>
<text text-anchor="middle" x="73" y="-62.6" font-family="Times,serif" font-size="14.00">SharedModule</text>
</g>
<!-- SharedModule&#45;&gt;OtModule -->
<g id="edge15" class="edge">
<title>SharedModule&#45;&gt;OtModule</title>
<path fill="none" stroke="black" d="M73,-85.12C73,-108.46 73,-145.8 73,-145.8 73,-145.8 1248.43,-145.8 1248.43,-145.8"/>
<polygon fill="black" stroke="black" points="1248.43,-149.3 1258.43,-145.8 1248.43,-142.3 1248.43,-149.3"/>
</g>
</g>
</svg>
