<?xml version="1.0" encoding="UTF-8" standalone="no"?>
<!DOCTYPE svg PUBLIC "-//W3C//DTD SVG 1.1//EN"
 "http://www.w3.org/Graphics/SVG/1.1/DTD/svg11.dtd">
<!-- Generated by graphviz version 5.0.0 (20220707.1540)
 -->
<!-- Title: dependencies Pages: 1 -->
<svg width="3139pt" height="174pt"
 viewBox="0.00 0.00 3139.00 173.80" xmlns="http://www.w3.org/2000/svg" xmlns:xlink="http://www.w3.org/1999/xlink">
<g id="graph0" class="graph" transform="scale(1 1) rotate(0) translate(4 169.8)">
<title>dependencies</title>
<polygon fill="white" stroke="transparent" points="-4,4 -4,-169.8 3135,-169.8 3135,4 -4,4"/>
<text text-anchor="middle" x="1565.5" y="-8.2" font-family="sans-serif" font-size="14.00">dependencies</text>
<g id="clust1" class="cluster">
<title>cluster_OtModule</title>
<polygon fill="none" stroke="black" stroke-dasharray="1,5" points="8,-32.8 8,-157.8 3123,-157.8 3123,-32.8 8,-32.8"/>
</g>
<g id="clust2" class="cluster">
<title>cluster_OtModule_declarations</title>
<polygon fill="none" stroke="black" points="275,-40.8 275,-92.8 3115,-92.8 3115,-40.8 275,-40.8"/>
</g>
<g id="clust17" class="cluster">
<title>cluster_OtModule_imports</title>
<polygon fill="none" stroke="black" points="16,-40.8 16,-92.8 267,-92.8 267,-40.8 16,-40.8"/>
</g>
<!-- FormOtContainerComponent -->
<g id="node1" class="node">
<title>FormOtContainerComponent</title>
<polygon fill="#ffffb3" stroke="black" points="3107.38,-84.8 2926.62,-84.8 2926.62,-48.8 3107.38,-48.8 3107.38,-84.8"/>
<text text-anchor="middle" x="3017" y="-62.6" font-family="Times,serif" font-size="14.00">FormOtContainerComponent</text>
</g>
<!-- OtModule -->
<g id="node15" class="node">
<title>OtModule</title>
<polygon fill="#8dd3c7" stroke="black" points="1427.55,-149.8 1424.55,-153.8 1403.55,-153.8 1400.55,-149.8 1354.45,-149.8 1354.45,-113.8 1427.55,-113.8 1427.55,-149.8"/>
<text text-anchor="middle" x="1391" y="-127.6" font-family="Times,serif" font-size="14.00">OtModule</text>
</g>
<!-- FormOtContainerComponent&#45;&gt;OtModule -->
<g id="edge1" class="edge">
<title>FormOtContainerComponent&#45;&gt;OtModule</title>
<path fill="none" stroke="black" d="M3017,-85.12C3017,-108.46 3017,-145.8 3017,-145.8 3017,-145.8 1437.63,-145.8 1437.63,-145.8"/>
<polygon fill="black" stroke="black" points="1437.63,-142.3 1427.63,-145.8 1437.63,-149.3 1437.63,-142.3"/>
</g>
<!-- FormularioOtBaseComponent -->
<g id="node2" class="node">
<title>FormularioOtBaseComponent</title>
<polygon fill="#ffffb3" stroke="black" points="2908.54,-84.8 2723.46,-84.8 2723.46,-48.8 2908.54,-48.8 2908.54,-84.8"/>
<text text-anchor="middle" x="2816" y="-62.6" font-family="Times,serif" font-size="14.00">FormularioOtBaseComponent</text>
</g>
<!-- FormularioOtBaseComponent&#45;&gt;OtModule -->
<g id="edge2" class="edge">
<title>FormularioOtBaseComponent&#45;&gt;OtModule</title>
<path fill="none" stroke="black" d="M2816,-85.09C2816,-107.01 2816,-140.8 2816,-140.8 2816,-140.8 1437.66,-140.8 1437.66,-140.8"/>
<polygon fill="black" stroke="black" points="1437.66,-137.3 1427.66,-140.8 1437.66,-144.3 1437.66,-137.3"/>
</g>
<!-- FormularioOtBucleComponent -->
<g id="node3" class="node">
<title>FormularioOtBucleComponent</title>
<polygon fill="#ffffb3" stroke="black" points="2705.48,-84.8 2514.52,-84.8 2514.52,-48.8 2705.48,-48.8 2705.48,-84.8"/>
<text text-anchor="middle" x="2610" y="-62.6" font-family="Times,serif" font-size="14.00">FormularioOtBucleComponent</text>
</g>
<!-- FormularioOtBucleComponent&#45;&gt;OtModule -->
<g id="edge3" class="edge">
<title>FormularioOtBucleComponent&#45;&gt;OtModule</title>
<path fill="none" stroke="black" d="M2610,-84.83C2610,-105.57 2610,-136.8 2610,-136.8 2610,-136.8 1437.81,-136.8 1437.81,-136.8"/>
<polygon fill="black" stroke="black" points="1437.81,-133.3 1427.81,-136.8 1437.81,-140.3 1437.81,-133.3"/>
</g>
<!-- FormularioOtExtrasComponent -->
<g id="node4" class="node">
<title>FormularioOtExtrasComponent</title>
<polygon fill="#ffffb3" stroke="black" points="2496.09,-84.8 2301.91,-84.8 2301.91,-48.8 2496.09,-48.8 2496.09,-84.8"/>
<text text-anchor="middle" x="2399" y="-62.6" font-family="Times,serif" font-size="14.00">FormularioOtExtrasComponent</text>
</g>
<!-- FormularioOtExtrasComponent&#45;&gt;OtModule -->
<g id="edge4" class="edge">
<title>FormularioOtExtrasComponent&#45;&gt;OtModule</title>
<path fill="none" stroke="black" d="M2399,-84.91C2399,-104.14 2399,-131.8 2399,-131.8 2399,-131.8 1437.77,-131.8 1437.77,-131.8"/>
<polygon fill="black" stroke="black" points="1437.77,-128.3 1427.77,-131.8 1437.77,-135.3 1437.77,-128.3"/>
</g>
<!-- FormularioOtFijoComponent -->
<g id="node5" class="node">
<title>FormularioOtFijoComponent</title>
<polygon fill="#ffffb3" stroke="black" points="2284.39,-84.8 2103.61,-84.8 2103.61,-48.8 2284.39,-48.8 2284.39,-84.8"/>
<text text-anchor="middle" x="2194" y="-62.6" font-family="Times,serif" font-size="14.00">FormularioOtFijoComponent</text>
</g>
<!-- FormularioOtFijoComponent&#45;&gt;OtModule -->
<g id="edge5" class="edge">
<title>FormularioOtFijoComponent&#45;&gt;OtModule</title>
<path fill="none" stroke="black" d="M2194,-85.1C2194,-103.07 2194,-127.8 2194,-127.8 2194,-127.8 1437.59,-127.8 1437.59,-127.8"/>
<polygon fill="black" stroke="black" points="1437.59,-124.3 1427.59,-127.8 1437.59,-131.3 1437.59,-124.3"/>
</g>
<!-- FormularioOtMovilComponent -->
<g id="node6" class="node">
<title>FormularioOtMovilComponent</title>
<polygon fill="#ffffb3" stroke="black" points="2085.05,-84.8 1892.95,-84.8 1892.95,-48.8 2085.05,-48.8 2085.05,-84.8"/>
<text text-anchor="middle" x="1989" y="-62.6" font-family="Times,serif" font-size="14.00">FormularioOtMovilComponent</text>
</g>
<!-- FormularioOtMovilComponent&#45;&gt;OtModule -->
<g id="edge6" class="edge">
<title>FormularioOtMovilComponent&#45;&gt;OtModule</title>
<path fill="none" stroke="black" d="M1989,-84.83C1989,-101.2 1989,-122.8 1989,-122.8 1989,-122.8 1437.96,-122.8 1437.96,-122.8"/>
<polygon fill="black" stroke="black" points="1437.96,-119.3 1427.96,-122.8 1437.96,-126.3 1437.96,-119.3"/>
</g>
<!-- FormularioOtOrdinarioComponent -->
<g id="node7" class="node">
<title>FormularioOtOrdinarioComponent</title>
<polygon fill="#ffffb3" stroke="black" points="1874.25,-84.8 1661.75,-84.8 1661.75,-48.8 1874.25,-48.8 1874.25,-84.8"/>
<text text-anchor="middle" x="1768" y="-62.6" font-family="Times,serif" font-size="14.00">FormularioOtOrdinarioComponent</text>
</g>
<!-- FormularioOtOrdinarioComponent&#45;&gt;OtModule -->
<g id="edge7" class="edge">
<title>FormularioOtOrdinarioComponent&#45;&gt;OtModule</title>
<path fill="none" stroke="black" d="M1768,-84.99C1768,-99.98 1768,-118.8 1768,-118.8 1768,-118.8 1437.83,-118.8 1437.83,-118.8"/>
<polygon fill="black" stroke="black" points="1437.83,-115.3 1427.83,-118.8 1437.83,-122.3 1437.83,-115.3"/>
</g>
<!-- FormularioOtSustentoFinancieroComponent -->
<g id="node8" class="node">
<title>FormularioOtSustentoFinancieroComponent</title>
<polygon fill="#ffffb3" stroke="black" points="1643.42,-84.8 1376.58,-84.8 1376.58,-48.8 1643.42,-48.8 1643.42,-84.8"/>
<text text-anchor="middle" x="1510" y="-62.6" font-family="Times,serif" font-size="14.00">FormularioOtSustentoFinancieroComponent</text>
</g>
<!-- FormularioOtSustentoFinancieroComponent&#45;&gt;OtModule -->
<g id="edge8" class="edge">
<title>FormularioOtSustentoFinancieroComponent&#45;&gt;OtModule</title>
<path fill="none" stroke="black" d="M1402.28,-84.91C1402.28,-84.91 1402.28,-103.79 1402.28,-103.79"/>
<polygon fill="black" stroke="black" points="1398.78,-103.79 1402.28,-113.79 1405.78,-103.79 1398.78,-103.79"/>
</g>
<!-- ListOtContainerComponent -->
<g id="node9" class="node">
<title>ListOtContainerComponent</title>
<polygon fill="#ffffb3" stroke="black" points="1359.32,-84.8 1186.68,-84.8 1186.68,-48.8 1359.32,-48.8 1359.32,-84.8"/>
<text text-anchor="middle" x="1273" y="-62.6" font-family="Times,serif" font-size="14.00">ListOtContainerComponent</text>
</g>
<!-- ListOtContainerComponent&#45;&gt;OtModule -->
<g id="edge9" class="edge">
<title>ListOtContainerComponent&#45;&gt;OtModule</title>
<path fill="none" stroke="black" d="M1359.21,-66.8C1364.64,-66.8 1367.97,-66.8 1367.97,-66.8 1367.97,-66.8 1367.97,-103.69 1367.97,-103.69"/>
<polygon fill="black" stroke="black" points="1364.47,-103.69 1367.97,-113.69 1371.47,-103.69 1364.47,-103.69"/>
</g>
<!-- ListOtFiltrosComponent -->
<g id="node10" class="node">
<title>ListOtFiltrosComponent</title>
<polygon fill="#ffffb3" stroke="black" points="1168.68,-84.8 1015.32,-84.8 1015.32,-48.8 1168.68,-48.8 1168.68,-84.8"/>
<text text-anchor="middle" x="1092" y="-62.6" font-family="Times,serif" font-size="14.00">ListOtFiltrosComponent</text>
</g>
<!-- ListOtFiltrosComponent&#45;&gt;OtModule -->
<g id="edge10" class="edge">
<title>ListOtFiltrosComponent&#45;&gt;OtModule</title>
<path fill="none" stroke="black" d="M1092,-84.99C1092,-99.98 1092,-118.8 1092,-118.8 1092,-118.8 1344.34,-118.8 1344.34,-118.8"/>
<polygon fill="black" stroke="black" points="1344.34,-122.3 1354.34,-118.8 1344.34,-115.3 1344.34,-122.3"/>
</g>
<!-- ListOtTableComponent -->
<g id="node11" class="node">
<title>ListOtTableComponent</title>
<polygon fill="#ffffb3" stroke="black" points="997.48,-84.8 848.52,-84.8 848.52,-48.8 997.48,-48.8 997.48,-84.8"/>
<text text-anchor="middle" x="923" y="-62.6" font-family="Times,serif" font-size="14.00">ListOtTableComponent</text>
</g>
<!-- ListOtTableComponent&#45;&gt;OtModule -->
<g id="edge11" class="edge">
<title>ListOtTableComponent&#45;&gt;OtModule</title>
<path fill="none" stroke="black" d="M923,-84.83C923,-101.2 923,-122.8 923,-122.8 923,-122.8 1344.28,-122.8 1344.28,-122.8"/>
<polygon fill="black" stroke="black" points="1344.28,-126.3 1354.28,-122.8 1344.28,-119.3 1344.28,-126.3"/>
</g>
<!-- ListOtTableOperacionesComponent -->
<g id="node12" class="node">
<title>ListOtTableOperacionesComponent</title>
<polygon fill="#ffffb3" stroke="black" points="830.45,-84.8 611.55,-84.8 611.55,-48.8 830.45,-48.8 830.45,-84.8"/>
<text text-anchor="middle" x="721" y="-62.6" font-family="Times,serif" font-size="14.00">ListOtTableOperacionesComponent</text>
</g>
<!-- ListOtTableOperacionesComponent&#45;&gt;OtModule -->
<g id="edge12" class="edge">
<title>ListOtTableOperacionesComponent&#45;&gt;OtModule</title>
<path fill="none" stroke="black" d="M721,-85.1C721,-103.07 721,-127.8 721,-127.8 721,-127.8 1344.02,-127.8 1344.02,-127.8"/>
<polygon fill="black" stroke="black" points="1344.02,-131.3 1354.02,-127.8 1344.02,-124.3 1344.02,-131.3"/>
</g>
<!-- OtComponent -->
<g id="node13" class="node">
<title>OtComponent</title>
<polygon fill="#ffffb3" stroke="black" points="593.83,-84.8 498.17,-84.8 498.17,-48.8 593.83,-48.8 593.83,-84.8"/>
<text text-anchor="middle" x="546" y="-62.6" font-family="Times,serif" font-size="14.00">OtComponent</text>
</g>
<!-- OtComponent&#45;&gt;OtModule -->
<g id="edge13" class="edge">
<title>OtComponent&#45;&gt;OtModule</title>
<path fill="none" stroke="black" d="M546,-84.91C546,-104.14 546,-131.8 546,-131.8 546,-131.8 1344.42,-131.8 1344.42,-131.8"/>
<polygon fill="black" stroke="black" points="1344.42,-135.3 1354.42,-131.8 1344.42,-128.3 1344.42,-135.3"/>
</g>
<!-- RegistrarLibroObrasComponent -->
<g id="node14" class="node">
<title>RegistrarLibroObrasComponent</title>
<polygon fill="#ffffb3" stroke="black" points="480.69,-84.8 283.31,-84.8 283.31,-48.8 480.69,-48.8 480.69,-84.8"/>
<text text-anchor="middle" x="382" y="-62.6" font-family="Times,serif" font-size="14.00">RegistrarLibroObrasComponent</text>
</g>
<!-- RegistrarLibroObrasComponent&#45;&gt;OtModule -->
<g id="edge14" class="edge">
<title>RegistrarLibroObrasComponent&#45;&gt;OtModule</title>
<path fill="none" stroke="black" d="M382,-84.83C382,-105.57 382,-136.8 382,-136.8 382,-136.8 1344.19,-136.8 1344.19,-136.8"/>
<polygon fill="black" stroke="black" points="1344.19,-140.3 1354.19,-136.8 1344.19,-133.3 1344.19,-140.3"/>
</g>
<!-- OtRoutingModule -->
<g id="node16" class="node">
<title>OtRoutingModule</title>
<polygon fill="#8dd3c7" stroke="black" points="259.17,-84.8 256.17,-88.8 235.17,-88.8 232.17,-84.8 140.83,-84.8 140.83,-48.8 259.17,-48.8 259.17,-84.8"/>
<text text-anchor="middle" x="200" y="-62.6" font-family="Times,serif" font-size="14.00">OtRoutingModule</text>
</g>
<!-- OtRoutingModule&#45;&gt;OtModule -->
<g id="edge15" class="edge">
<title>OtRoutingModule&#45;&gt;OtModule</title>
<path fill="none" stroke="black" d="M200,-85.09C200,-107.01 200,-140.8 200,-140.8 200,-140.8 1344.38,-140.8 1344.38,-140.8"/>
<polygon fill="black" stroke="black" points="1344.38,-144.3 1354.38,-140.8 1344.38,-137.3 1344.38,-144.3"/>
</g>
<!-- SharedModule -->
<g id="node17" class="node">
<title>SharedModule</title>
<polygon fill="#8dd3c7" stroke="black" points="122.43,-84.8 119.43,-88.8 98.43,-88.8 95.43,-84.8 23.57,-84.8 23.57,-48.8 122.43,-48.8 122.43,-84.8"/>
<text text-anchor="middle" x="73" y="-62.6" font-family="Times,serif" font-size="14.00">SharedModule</text>
</g>
<!-- SharedModule&#45;&gt;OtModule -->
<g id="edge16" class="edge">
<title>SharedModule&#45;&gt;OtModule</title>
<path fill="none" stroke="black" d="M73,-85.12C73,-108.46 73,-145.8 73,-145.8 73,-145.8 1344.37,-145.8 1344.37,-145.8"/>
<polygon fill="black" stroke="black" points="1344.37,-149.3 1354.37,-145.8 1344.37,-142.3 1344.37,-149.3"/>
</g>
</g>
</svg>
