<?xml version="1.0" encoding="UTF-8" standalone="no"?>
<!DOCTYPE svg PUBLIC "-//W3C//DTD SVG 1.1//EN"
 "http://www.w3.org/Graphics/SVG/1.1/DTD/svg11.dtd">
<!-- Generated by graphviz version 5.0.0 (20220707.1540)
 -->
<!-- Title: dependencies Pages: 1 -->
<svg width="659pt" height="174pt"
 viewBox="0.00 0.00 659.00 173.80" xmlns="http://www.w3.org/2000/svg" xmlns:xlink="http://www.w3.org/1999/xlink">
<g id="graph0" class="graph" transform="scale(1 1) rotate(0) translate(4 169.8)">
<title>dependencies</title>
<polygon fill="white" stroke="transparent" points="-4,4 -4,-169.8 655,-169.8 655,4 -4,4"/>
<text text-anchor="middle" x="325.5" y="-8.2" font-family="sans-serif" font-size="14.00">dependencies</text>
<g id="clust1" class="cluster">
<title>cluster_ReportesModule</title>
<polygon fill="none" stroke="black" stroke-dasharray="1,5" points="8,-32.8 8,-157.8 643,-157.8 643,-32.8 8,-32.8"/>
</g>
<g id="clust2" class="cluster">
<title>cluster_ReportesModule_declarations</title>
<polygon fill="none" stroke="black" points="310,-40.8 310,-92.8 635,-92.8 635,-40.8 310,-40.8"/>
</g>
<g id="clust5" class="cluster">
<title>cluster_ReportesModule_imports</title>
<polygon fill="none" stroke="black" points="16,-40.8 16,-92.8 302,-92.8 302,-40.8 16,-40.8"/>
</g>
<!-- OtsAsignadasComponent -->
<g id="node1" class="node">
<title>OtsAsignadasComponent</title>
<polygon fill="#ffffb3" stroke="black" points="626.6,-84.8 467.4,-84.8 467.4,-48.8 626.6,-48.8 626.6,-84.8"/>
<text text-anchor="middle" x="547" y="-62.6" font-family="Times,serif" font-size="14.00">OtsAsignadasComponent</text>
</g>
<!-- ReportesModule -->
<g id="node3" class="node">
<title>ReportesModule</title>
<polygon fill="#8dd3c7" stroke="black" points="354.82,-149.8 351.82,-153.8 330.82,-153.8 327.82,-149.8 245.18,-149.8 245.18,-113.8 354.82,-113.8 354.82,-149.8"/>
<text text-anchor="middle" x="300" y="-127.6" font-family="Times,serif" font-size="14.00">ReportesModule</text>
</g>
<!-- OtsAsignadasComponent&#45;&gt;ReportesModule -->
<g id="edge1" class="edge">
<title>OtsAsignadasComponent&#45;&gt;ReportesModule</title>
<path fill="none" stroke="black" d="M547,-84.91C547,-104.14 547,-131.8 547,-131.8 547,-131.8 364.82,-131.8 364.82,-131.8"/>
<polygon fill="black" stroke="black" points="364.82,-128.3 354.82,-131.8 364.82,-135.3 364.82,-128.3"/>
</g>
<!-- ReportesComponent -->
<g id="node2" class="node">
<title>ReportesComponent</title>
<polygon fill="#ffffb3" stroke="black" points="449.6,-84.8 318.4,-84.8 318.4,-48.8 449.6,-48.8 449.6,-84.8"/>
<text text-anchor="middle" x="384" y="-62.6" font-family="Times,serif" font-size="14.00">ReportesComponent</text>
</g>
<!-- ReportesComponent&#45;&gt;ReportesModule -->
<g id="edge2" class="edge">
<title>ReportesComponent&#45;&gt;ReportesModule</title>
<path fill="none" stroke="black" d="M336.56,-84.91C336.56,-84.91 336.56,-103.79 336.56,-103.79"/>
<polygon fill="black" stroke="black" points="333.06,-103.79 336.56,-113.79 340.06,-103.79 333.06,-103.79"/>
</g>
<!-- ReportesRoutingModule -->
<g id="node4" class="node">
<title>ReportesRoutingModule</title>
<polygon fill="#8dd3c7" stroke="black" points="294.44,-84.8 291.44,-88.8 270.44,-88.8 267.44,-84.8 139.56,-84.8 139.56,-48.8 294.44,-48.8 294.44,-84.8"/>
<text text-anchor="middle" x="217" y="-62.6" font-family="Times,serif" font-size="14.00">ReportesRoutingModule</text>
</g>
<!-- ReportesRoutingModule&#45;&gt;ReportesModule -->
<g id="edge3" class="edge">
<title>ReportesRoutingModule&#45;&gt;ReportesModule</title>
<path fill="none" stroke="black" d="M269.78,-84.91C269.78,-84.91 269.78,-103.79 269.78,-103.79"/>
<polygon fill="black" stroke="black" points="266.28,-103.79 269.78,-113.79 273.28,-103.79 266.28,-103.79"/>
</g>
<!-- SharedModule -->
<g id="node5" class="node">
<title>SharedModule</title>
<polygon fill="#8dd3c7" stroke="black" points="122.43,-84.8 119.43,-88.8 98.43,-88.8 95.43,-84.8 23.57,-84.8 23.57,-48.8 122.43,-48.8 122.43,-84.8"/>
<text text-anchor="middle" x="73" y="-62.6" font-family="Times,serif" font-size="14.00">SharedModule</text>
</g>
<!-- SharedModule&#45;&gt;ReportesModule -->
<g id="edge4" class="edge">
<title>SharedModule&#45;&gt;ReportesModule</title>
<path fill="none" stroke="black" d="M73,-84.91C73,-104.14 73,-131.8 73,-131.8 73,-131.8 235.34,-131.8 235.34,-131.8"/>
<polygon fill="black" stroke="black" points="235.34,-135.3 245.34,-131.8 235.34,-128.3 235.34,-135.3"/>
</g>
</g>
</svg>
