<?xml version="1.0" encoding="UTF-8" standalone="no"?>
<!DOCTYPE svg PUBLIC "-//W3C//DTD SVG 1.1//EN"
 "http://www.w3.org/Graphics/SVG/1.1/DTD/svg11.dtd">
<!-- Generated by graphviz version 5.0.0 (20220707.1540)
 -->
<!-- Title: dependencies Pages: 1 -->
<svg width="921pt" height="174pt"
 viewBox="0.00 0.00 921.00 173.80" xmlns="http://www.w3.org/2000/svg" xmlns:xlink="http://www.w3.org/1999/xlink">
<g id="graph0" class="graph" transform="scale(1 1) rotate(0) translate(4 169.8)">
<title>dependencies</title>
<polygon fill="white" stroke="transparent" points="-4,4 -4,-169.8 917,-169.8 917,4 -4,4"/>
<text text-anchor="middle" x="456.5" y="-8.2" font-family="sans-serif" font-size="14.00">dependencies</text>
<g id="clust1" class="cluster">
<title>cluster_UsuarioModule</title>
<polygon fill="none" stroke="black" stroke-dasharray="1,5" points="8,-32.8 8,-157.8 905,-157.8 905,-32.8 8,-32.8"/>
</g>
<g id="clust2" class="cluster">
<title>cluster_UsuarioModule_declarations</title>
<polygon fill="none" stroke="black" points="305,-40.8 305,-92.8 897,-92.8 897,-40.8 305,-40.8"/>
</g>
<g id="clust6" class="cluster">
<title>cluster_UsuarioModule_imports</title>
<polygon fill="none" stroke="black" points="16,-40.8 16,-92.8 297,-92.8 297,-40.8 16,-40.8"/>
</g>
<!-- FormUsuarioContainerComponent -->
<g id="node1" class="node">
<title>FormUsuarioContainerComponent</title>
<polygon fill="#ffffb3" stroke="black" points="888.7,-84.8 677.3,-84.8 677.3,-48.8 888.7,-48.8 888.7,-84.8"/>
<text text-anchor="middle" x="783" y="-62.6" font-family="Times,serif" font-size="14.00">FormUsuarioContainerComponent</text>
</g>
<!-- UsuarioModule -->
<g id="node4" class="node">
<title>UsuarioModule</title>
<polygon fill="#8dd3c7" stroke="black" points="427.88,-149.8 424.88,-153.8 403.88,-153.8 400.88,-149.8 324.12,-149.8 324.12,-113.8 427.88,-113.8 427.88,-149.8"/>
<text text-anchor="middle" x="376" y="-127.6" font-family="Times,serif" font-size="14.00">UsuarioModule</text>
</g>
<!-- FormUsuarioContainerComponent&#45;&gt;UsuarioModule -->
<g id="edge1" class="edge">
<title>FormUsuarioContainerComponent&#45;&gt;UsuarioModule</title>
<path fill="none" stroke="black" d="M783,-85.08C783,-106.12 783,-137.8 783,-137.8 783,-137.8 437.96,-137.8 437.96,-137.8"/>
<polygon fill="black" stroke="black" points="437.96,-134.3 427.96,-137.8 437.96,-141.3 437.96,-134.3"/>
</g>
<!-- ListUsuarioContainerComponent -->
<g id="node2" class="node">
<title>ListUsuarioContainerComponent</title>
<polygon fill="#ffffb3" stroke="black" points="659.14,-84.8 456.86,-84.8 456.86,-48.8 659.14,-48.8 659.14,-84.8"/>
<text text-anchor="middle" x="558" y="-62.6" font-family="Times,serif" font-size="14.00">ListUsuarioContainerComponent</text>
</g>
<!-- ListUsuarioContainerComponent&#45;&gt;UsuarioModule -->
<g id="edge2" class="edge">
<title>ListUsuarioContainerComponent&#45;&gt;UsuarioModule</title>
<path fill="none" stroke="black" d="M558,-84.82C558,-102.17 558,-125.8 558,-125.8 558,-125.8 438.15,-125.8 438.15,-125.8"/>
<polygon fill="black" stroke="black" points="438.15,-122.3 428.15,-125.8 438.15,-129.3 438.15,-122.3"/>
</g>
<!-- UsuarioComponent -->
<g id="node3" class="node">
<title>UsuarioComponent</title>
<polygon fill="#ffffb3" stroke="black" points="438.66,-84.8 313.34,-84.8 313.34,-48.8 438.66,-48.8 438.66,-84.8"/>
<text text-anchor="middle" x="376" y="-62.6" font-family="Times,serif" font-size="14.00">UsuarioComponent</text>
</g>
<!-- UsuarioComponent&#45;&gt;UsuarioModule -->
<g id="edge3" class="edge">
<title>UsuarioComponent&#45;&gt;UsuarioModule</title>
<path fill="none" stroke="black" d="M376,-84.91C376,-84.91 376,-103.79 376,-103.79"/>
<polygon fill="black" stroke="black" points="372.5,-103.79 376,-113.79 379.5,-103.79 372.5,-103.79"/>
</g>
<!-- SharedModule -->
<g id="node5" class="node">
<title>SharedModule</title>
<polygon fill="#8dd3c7" stroke="black" points="289.43,-84.8 286.43,-88.8 265.43,-88.8 262.43,-84.8 190.57,-84.8 190.57,-48.8 289.43,-48.8 289.43,-84.8"/>
<text text-anchor="middle" x="240" y="-62.6" font-family="Times,serif" font-size="14.00">SharedModule</text>
</g>
<!-- SharedModule&#45;&gt;UsuarioModule -->
<g id="edge4" class="edge">
<title>SharedModule&#45;&gt;UsuarioModule</title>
<path fill="none" stroke="black" d="M240,-84.82C240,-102.17 240,-125.8 240,-125.8 240,-125.8 313.81,-125.8 313.81,-125.8"/>
<polygon fill="black" stroke="black" points="313.81,-129.3 323.81,-125.8 313.81,-122.3 313.81,-129.3"/>
</g>
<!-- UsuarioRoutingModule -->
<g id="node6" class="node">
<title>UsuarioRoutingModule</title>
<polygon fill="#8dd3c7" stroke="black" points="172.49,-84.8 169.49,-88.8 148.49,-88.8 145.49,-84.8 23.51,-84.8 23.51,-48.8 172.49,-48.8 172.49,-84.8"/>
<text text-anchor="middle" x="98" y="-62.6" font-family="Times,serif" font-size="14.00">UsuarioRoutingModule</text>
</g>
<!-- UsuarioRoutingModule&#45;&gt;UsuarioModule -->
<g id="edge5" class="edge">
<title>UsuarioRoutingModule&#45;&gt;UsuarioModule</title>
<path fill="none" stroke="black" d="M98,-85.08C98,-106.12 98,-137.8 98,-137.8 98,-137.8 314.04,-137.8 314.04,-137.8"/>
<polygon fill="black" stroke="black" points="314.04,-141.3 324.04,-137.8 314.04,-134.3 314.04,-141.3"/>
</g>
</g>
</svg>
