<?xml version="1.0" encoding="UTF-8" standalone="no"?>
<!DOCTYPE svg PUBLIC "-//W3C//DTD SVG 1.1//EN"
 "http://www.w3.org/Graphics/SVG/1.1/DTD/svg11.dtd">
<!-- Generated by graphviz version 5.0.0 (20220707.1540)
 -->
<!-- Title: dependencies Pages: 1 -->
<svg width="921pt" height="174pt"
 viewBox="0.00 0.00 921.00 173.80" xmlns="http://www.w3.org/2000/svg" xmlns:xlink="http://www.w3.org/1999/xlink">
<g id="graph0" class="graph" transform="scale(1 1) rotate(0) translate(4 169.8)">
<title>dependencies</title>
<polygon fill="white" stroke="transparent" points="-4,4 -4,-169.8 917,-169.8 917,4 -4,4"/>
<text text-anchor="middle" x="456.5" y="-8.2" font-family="sans-serif" font-size="14.00">dependencies</text>
<g id="clust1" class="cluster">
<title>cluster_UsuarioModule</title>
<polygon fill="none" stroke="black" stroke-dasharray="1,5" points="8,-32.8 8,-157.8 905,-157.8 905,-32.8 8,-32.8"/>
</g>
<g id="clust6" class="cluster">
<title>cluster_UsuarioModule_imports</title>
<polygon fill="none" stroke="black" points="616,-40.8 616,-92.8 897,-92.8 897,-40.8 616,-40.8"/>
</g>
<g id="clust2" class="cluster">
<title>cluster_UsuarioModule_declarations</title>
<polygon fill="none" stroke="black" points="16,-40.8 16,-92.8 608,-92.8 608,-40.8 16,-40.8"/>
</g>
<!-- FormUsuarioContainerComponent -->
<g id="node1" class="node">
<title>FormUsuarioContainerComponent</title>
<polygon fill="#ffffb3" stroke="black" points="599.7,-84.8 388.3,-84.8 388.3,-48.8 599.7,-48.8 599.7,-84.8"/>
<text text-anchor="middle" x="494" y="-62.6" font-family="Times,serif" font-size="14.00">FormUsuarioContainerComponent</text>
</g>
<!-- UsuarioModule -->
<g id="node4" class="node">
<title>UsuarioModule</title>
<polygon fill="#8dd3c7" stroke="black" points="545.88,-149.8 542.88,-153.8 521.88,-153.8 518.88,-149.8 442.12,-149.8 442.12,-113.8 545.88,-113.8 545.88,-149.8"/>
<text text-anchor="middle" x="494" y="-127.6" font-family="Times,serif" font-size="14.00">UsuarioModule</text>
</g>
<!-- FormUsuarioContainerComponent&#45;&gt;UsuarioModule -->
<g id="edge1" class="edge">
<title>FormUsuarioContainerComponent&#45;&gt;UsuarioModule</title>
<path fill="none" stroke="black" d="M494,-84.91C494,-84.91 494,-103.79 494,-103.79"/>
<polygon fill="black" stroke="black" points="490.5,-103.79 494,-113.79 497.5,-103.79 490.5,-103.79"/>
</g>
<!-- ListUsuarioContainerComponent -->
<g id="node2" class="node">
<title>ListUsuarioContainerComponent</title>
<polygon fill="#ffffb3" stroke="black" points="370.14,-84.8 167.86,-84.8 167.86,-48.8 370.14,-48.8 370.14,-84.8"/>
<text text-anchor="middle" x="269" y="-62.6" font-family="Times,serif" font-size="14.00">ListUsuarioContainerComponent</text>
</g>
<!-- ListUsuarioContainerComponent&#45;&gt;UsuarioModule -->
<g id="edge2" class="edge">
<title>ListUsuarioContainerComponent&#45;&gt;UsuarioModule</title>
<path fill="none" stroke="black" d="M269,-84.82C269,-102.17 269,-125.8 269,-125.8 269,-125.8 432.1,-125.8 432.1,-125.8"/>
<polygon fill="black" stroke="black" points="432.1,-129.3 442.1,-125.8 432.1,-122.3 432.1,-129.3"/>
</g>
<!-- UsuarioComponent -->
<g id="node3" class="node">
<title>UsuarioComponent</title>
<polygon fill="#ffffb3" stroke="black" points="149.66,-84.8 24.34,-84.8 24.34,-48.8 149.66,-48.8 149.66,-84.8"/>
<text text-anchor="middle" x="87" y="-62.6" font-family="Times,serif" font-size="14.00">UsuarioComponent</text>
</g>
<!-- UsuarioComponent&#45;&gt;UsuarioModule -->
<g id="edge3" class="edge">
<title>UsuarioComponent&#45;&gt;UsuarioModule</title>
<path fill="none" stroke="black" d="M87,-85.08C87,-106.12 87,-137.8 87,-137.8 87,-137.8 432.04,-137.8 432.04,-137.8"/>
<polygon fill="black" stroke="black" points="432.04,-141.3 442.04,-137.8 432.04,-134.3 432.04,-141.3"/>
</g>
<!-- SharedModule -->
<g id="node5" class="node">
<title>SharedModule</title>
<polygon fill="#8dd3c7" stroke="black" points="889.43,-84.8 886.43,-88.8 865.43,-88.8 862.43,-84.8 790.57,-84.8 790.57,-48.8 889.43,-48.8 889.43,-84.8"/>
<text text-anchor="middle" x="840" y="-62.6" font-family="Times,serif" font-size="14.00">SharedModule</text>
</g>
<!-- SharedModule&#45;&gt;UsuarioModule -->
<g id="edge4" class="edge">
<title>SharedModule&#45;&gt;UsuarioModule</title>
<path fill="none" stroke="black" d="M840,-85.08C840,-106.12 840,-137.8 840,-137.8 840,-137.8 556.17,-137.8 556.17,-137.8"/>
<polygon fill="black" stroke="black" points="556.17,-134.3 546.17,-137.8 556.17,-141.3 556.17,-134.3"/>
</g>
<!-- UsuarioRoutingModule -->
<g id="node6" class="node">
<title>UsuarioRoutingModule</title>
<polygon fill="#8dd3c7" stroke="black" points="772.49,-84.8 769.49,-88.8 748.49,-88.8 745.49,-84.8 623.51,-84.8 623.51,-48.8 772.49,-48.8 772.49,-84.8"/>
<text text-anchor="middle" x="698" y="-62.6" font-family="Times,serif" font-size="14.00">UsuarioRoutingModule</text>
</g>
<!-- UsuarioRoutingModule&#45;&gt;UsuarioModule -->
<g id="edge5" class="edge">
<title>UsuarioRoutingModule&#45;&gt;UsuarioModule</title>
<path fill="none" stroke="black" d="M698,-84.82C698,-102.17 698,-125.8 698,-125.8 698,-125.8 556.01,-125.8 556.01,-125.8"/>
<polygon fill="black" stroke="black" points="556.01,-122.3 546.01,-125.8 556.01,-129.3 556.01,-122.3"/>
</g>
</g>
</svg>
