<?xml version="1.0" encoding="UTF-8" standalone="no"?>
<!DOCTYPE svg PUBLIC "-//W3C//DTD SVG 1.1//EN"
 "http://www.w3.org/Graphics/SVG/1.1/DTD/svg11.dtd">
<!-- Generated by graphviz version 5.0.0 (20220707.1540)
 -->
<!-- Title: dependencies Pages: 1 -->
<svg width="1184pt" height="174pt"
 viewBox="0.00 0.00 1184.00 173.80" xmlns="http://www.w3.org/2000/svg" xmlns:xlink="http://www.w3.org/1999/xlink">
<g id="graph0" class="graph" transform="scale(1 1) rotate(0) translate(4 169.8)">
<title>dependencies</title>
<polygon fill="white" stroke="transparent" points="-4,4 -4,-169.8 1180,-169.8 1180,4 -4,4"/>
<text text-anchor="middle" x="588" y="-8.2" font-family="sans-serif" font-size="14.00">dependencies</text>
<g id="clust1" class="cluster">
<title>cluster_UsuarioModule</title>
<polygon fill="none" stroke="black" stroke-dasharray="1,5" points="8,-32.8 8,-157.8 1168,-157.8 1168,-32.8 8,-32.8"/>
</g>
<g id="clust2" class="cluster">
<title>cluster_UsuarioModule_declarations</title>
<polygon fill="none" stroke="black" points="305,-40.8 305,-92.8 1160,-92.8 1160,-40.8 305,-40.8"/>
</g>
<g id="clust7" class="cluster">
<title>cluster_UsuarioModule_imports</title>
<polygon fill="none" stroke="black" points="16,-40.8 16,-92.8 297,-92.8 297,-40.8 16,-40.8"/>
</g>
<!-- FormUsuarioContainerComponent -->
<g id="node1" class="node">
<title>FormUsuarioContainerComponent</title>
<polygon fill="#ffffb3" stroke="black" points="1151.7,-84.8 940.3,-84.8 940.3,-48.8 1151.7,-48.8 1151.7,-84.8"/>
<text text-anchor="middle" x="1046" y="-62.6" font-family="Times,serif" font-size="14.00">FormUsuarioContainerComponent</text>
</g>
<!-- UsuarioModule -->
<g id="node5" class="node">
<title>UsuarioModule</title>
<polygon fill="#8dd3c7" stroke="black" points="518.88,-149.8 515.88,-153.8 494.88,-153.8 491.88,-149.8 415.12,-149.8 415.12,-113.8 518.88,-113.8 518.88,-149.8"/>
<text text-anchor="middle" x="467" y="-127.6" font-family="Times,serif" font-size="14.00">UsuarioModule</text>
</g>
<!-- FormUsuarioContainerComponent&#45;&gt;UsuarioModule -->
<g id="edge1" class="edge">
<title>FormUsuarioContainerComponent&#45;&gt;UsuarioModule</title>
<path fill="none" stroke="black" d="M1046,-85.08C1046,-106.12 1046,-137.8 1046,-137.8 1046,-137.8 528.89,-137.8 528.89,-137.8"/>
<polygon fill="black" stroke="black" points="528.89,-134.3 518.89,-137.8 528.89,-141.3 528.89,-134.3"/>
</g>
<!-- ListPerfilesUsuarioContainerComponent -->
<g id="node2" class="node">
<title>ListPerfilesUsuarioContainerComponent</title>
<polygon fill="#ffffb3" stroke="black" points="922.91,-84.8 677.09,-84.8 677.09,-48.8 922.91,-48.8 922.91,-84.8"/>
<text text-anchor="middle" x="800" y="-62.6" font-family="Times,serif" font-size="14.00">ListPerfilesUsuarioContainerComponent</text>
</g>
<!-- ListPerfilesUsuarioContainerComponent&#45;&gt;UsuarioModule -->
<g id="edge2" class="edge">
<title>ListPerfilesUsuarioContainerComponent&#45;&gt;UsuarioModule</title>
<path fill="none" stroke="black" d="M800,-84.82C800,-102.17 800,-125.8 800,-125.8 800,-125.8 529.03,-125.8 529.03,-125.8"/>
<polygon fill="black" stroke="black" points="529.03,-122.3 519.03,-125.8 529.03,-129.3 529.03,-122.3"/>
</g>
<!-- ListUsuarioContainerComponent -->
<g id="node3" class="node">
<title>ListUsuarioContainerComponent</title>
<polygon fill="#ffffb3" stroke="black" points="659.14,-84.8 456.86,-84.8 456.86,-48.8 659.14,-48.8 659.14,-84.8"/>
<text text-anchor="middle" x="558" y="-62.6" font-family="Times,serif" font-size="14.00">ListUsuarioContainerComponent</text>
</g>
<!-- ListUsuarioContainerComponent&#45;&gt;UsuarioModule -->
<g id="edge3" class="edge">
<title>ListUsuarioContainerComponent&#45;&gt;UsuarioModule</title>
<path fill="none" stroke="black" d="M487.81,-84.91C487.81,-84.91 487.81,-103.79 487.81,-103.79"/>
<polygon fill="black" stroke="black" points="484.31,-103.79 487.81,-113.79 491.31,-103.79 484.31,-103.79"/>
</g>
<!-- UsuarioComponent -->
<g id="node4" class="node">
<title>UsuarioComponent</title>
<polygon fill="#ffffb3" stroke="black" points="438.66,-84.8 313.34,-84.8 313.34,-48.8 438.66,-48.8 438.66,-84.8"/>
<text text-anchor="middle" x="376" y="-62.6" font-family="Times,serif" font-size="14.00">UsuarioComponent</text>
</g>
<!-- UsuarioComponent&#45;&gt;UsuarioModule -->
<g id="edge4" class="edge">
<title>UsuarioComponent&#45;&gt;UsuarioModule</title>
<path fill="none" stroke="black" d="M426.94,-84.91C426.94,-84.91 426.94,-103.79 426.94,-103.79"/>
<polygon fill="black" stroke="black" points="423.44,-103.79 426.94,-113.79 430.44,-103.79 423.44,-103.79"/>
</g>
<!-- SharedModule -->
<g id="node6" class="node">
<title>SharedModule</title>
<polygon fill="#8dd3c7" stroke="black" points="289.43,-84.8 286.43,-88.8 265.43,-88.8 262.43,-84.8 190.57,-84.8 190.57,-48.8 289.43,-48.8 289.43,-84.8"/>
<text text-anchor="middle" x="240" y="-62.6" font-family="Times,serif" font-size="14.00">SharedModule</text>
</g>
<!-- SharedModule&#45;&gt;UsuarioModule -->
<g id="edge5" class="edge">
<title>SharedModule&#45;&gt;UsuarioModule</title>
<path fill="none" stroke="black" d="M240,-84.82C240,-102.17 240,-125.8 240,-125.8 240,-125.8 404.92,-125.8 404.92,-125.8"/>
<polygon fill="black" stroke="black" points="404.92,-129.3 414.92,-125.8 404.92,-122.3 404.92,-129.3"/>
</g>
<!-- UsuarioRoutingModule -->
<g id="node7" class="node">
<title>UsuarioRoutingModule</title>
<polygon fill="#8dd3c7" stroke="black" points="172.49,-84.8 169.49,-88.8 148.49,-88.8 145.49,-84.8 23.51,-84.8 23.51,-48.8 172.49,-48.8 172.49,-84.8"/>
<text text-anchor="middle" x="98" y="-62.6" font-family="Times,serif" font-size="14.00">UsuarioRoutingModule</text>
</g>
<!-- UsuarioRoutingModule&#45;&gt;UsuarioModule -->
<g id="edge6" class="edge">
<title>UsuarioRoutingModule&#45;&gt;UsuarioModule</title>
<path fill="none" stroke="black" d="M98,-85.08C98,-106.12 98,-137.8 98,-137.8 98,-137.8 404.91,-137.8 404.91,-137.8"/>
<polygon fill="black" stroke="black" points="404.91,-141.3 414.91,-137.8 404.91,-134.3 404.91,-141.3"/>
</g>
</g>
</svg>
