<?xml version="1.0" encoding="UTF-8" standalone="no"?>
<!DOCTYPE svg PUBLIC "-//W3C//DTD SVG 1.1//EN"
 "http://www.w3.org/Graphics/SVG/1.1/DTD/svg11.dtd">
<!-- Generated by graphviz version 5.0.0 (20220707.1540)
 -->
<!-- Title: dependencies Pages: 1 -->
<svg width="248pt" height="174pt"
 viewBox="0.00 0.00 248.00 173.80" xmlns="http://www.w3.org/2000/svg" xmlns:xlink="http://www.w3.org/1999/xlink">
<g id="graph0" class="graph" transform="scale(1 1) rotate(0) translate(4 169.8)">
<title>dependencies</title>
<polygon fill="white" stroke="transparent" points="-4,4 -4,-169.8 244,-169.8 244,4 -4,4"/>
<text text-anchor="middle" x="120" y="-8.2" font-family="sans-serif" font-size="14.00">dependencies</text>
<g id="clust1" class="cluster">
<title>cluster_AdministracionModule</title>
<polygon fill="none" stroke="black" stroke-dasharray="1,5" points="8,-32.8 8,-157.8 232,-157.8 232,-32.8 8,-32.8"/>
</g>
<g id="clust3" class="cluster">
<title>cluster_AdministracionModule_imports</title>
<polygon fill="none" stroke="black" points="16,-40.8 16,-92.8 224,-92.8 224,-40.8 16,-40.8"/>
</g>
<!-- AdministracionRoutingModule -->
<g id="node1" class="node">
<title>AdministracionRoutingModule</title>
<polygon fill="#8dd3c7" stroke="black" points="215.77,-84.8 212.77,-88.8 191.77,-88.8 188.77,-84.8 24.23,-84.8 24.23,-48.8 215.77,-48.8 215.77,-84.8"/>
<text text-anchor="middle" x="120" y="-62.6" font-family="Times,serif" font-size="14.00">AdministracionRoutingModule</text>
</g>
<!-- AdministracionModule -->
<g id="node2" class="node">
<title>AdministracionModule</title>
<polygon fill="#8dd3c7" stroke="black" points="193.15,-149.8 190.15,-153.8 169.15,-153.8 166.15,-149.8 46.85,-149.8 46.85,-113.8 193.15,-113.8 193.15,-149.8"/>
<text text-anchor="middle" x="120" y="-127.6" font-family="Times,serif" font-size="14.00">AdministracionModule</text>
</g>
<!-- AdministracionRoutingModule&#45;&gt;AdministracionModule -->
<g id="edge1" class="edge">
<title>AdministracionRoutingModule&#45;&gt;AdministracionModule</title>
<path fill="none" stroke="black" d="M120,-84.91C120,-84.91 120,-103.79 120,-103.79"/>
<polygon fill="black" stroke="black" points="116.5,-103.79 120,-113.79 123.5,-103.79 116.5,-103.79"/>
</g>
</g>
</svg>
