<?xml version="1.0" encoding="UTF-8" standalone="no"?>
<!DOCTYPE svg PUBLIC "-//W3C//DTD SVG 1.1//EN"
 "http://www.w3.org/Graphics/SVG/1.1/DTD/svg11.dtd">
<!-- Generated by graphviz version 5.0.0 (20220707.1540)
 -->
<!-- Title: dependencies Pages: 1 -->
<svg width="162pt" height="174pt"
 viewBox="0.00 0.00 162.00 173.80" xmlns="http://www.w3.org/2000/svg" xmlns:xlink="http://www.w3.org/1999/xlink">
<g id="graph0" class="graph" transform="scale(1 1) rotate(0) translate(4 169.8)">
<title>dependencies</title>
<polygon fill="white" stroke="transparent" points="-4,4 -4,-169.8 158,-169.8 158,4 -4,4"/>
<text text-anchor="middle" x="77" y="-8.2" font-family="sans-serif" font-size="14.00">dependencies</text>
<g id="clust1" class="cluster">
<title>cluster_StoreSIGOModule</title>
<polygon fill="none" stroke="black" stroke-dasharray="1,5" points="8,-32.8 8,-157.8 146,-157.8 146,-32.8 8,-32.8"/>
</g>
<g id="clust3" class="cluster">
<title>cluster_StoreSIGOModule_imports</title>
<polygon fill="none" stroke="black" points="20,-40.8 20,-92.8 134,-92.8 134,-40.8 20,-40.8"/>
</g>
<!-- SharedModule -->
<g id="node1" class="node">
<title>SharedModule</title>
<polygon fill="#8dd3c7" stroke="black" points="126.43,-84.8 123.43,-88.8 102.43,-88.8 99.43,-84.8 27.57,-84.8 27.57,-48.8 126.43,-48.8 126.43,-84.8"/>
<text text-anchor="middle" x="77" y="-62.6" font-family="Times,serif" font-size="14.00">SharedModule</text>
</g>
<!-- StoreSIGOModule -->
<g id="node2" class="node">
<title>StoreSIGOModule</title>
<polygon fill="#8dd3c7" stroke="black" points="137.77,-149.8 134.77,-153.8 113.77,-153.8 110.77,-149.8 16.23,-149.8 16.23,-113.8 137.77,-113.8 137.77,-149.8"/>
<text text-anchor="middle" x="77" y="-127.6" font-family="Times,serif" font-size="14.00">StoreSIGOModule</text>
</g>
<!-- SharedModule&#45;&gt;StoreSIGOModule -->
<g id="edge1" class="edge">
<title>SharedModule&#45;&gt;StoreSIGOModule</title>
<path fill="none" stroke="black" d="M77,-84.91C77,-84.91 77,-103.79 77,-103.79"/>
<polygon fill="black" stroke="black" points="73.5,-103.79 77,-113.79 80.5,-103.79 73.5,-103.79"/>
</g>
</g>
</svg>
