<?xml version="1.0" encoding="UTF-8" standalone="no"?>
<!DOCTYPE svg PUBLIC "-//W3C//DTD SVG 1.1//EN"
 "http://www.w3.org/Graphics/SVG/1.1/DTD/svg11.dtd">
<!-- Generated by graphviz version 5.0.0 (20220707.1540)
 -->
<!-- Title: dependencies Pages: 1 -->
<svg width="1093pt" height="174pt"
 viewBox="0.00 0.00 1093.00 173.80" xmlns="http://www.w3.org/2000/svg" xmlns:xlink="http://www.w3.org/1999/xlink">
<g id="graph0" class="graph" transform="scale(1 1) rotate(0) translate(4 169.8)">
<title>dependencies</title>
<polygon fill="white" stroke="transparent" points="-4,4 -4,-169.8 1089,-169.8 1089,4 -4,4"/>
<text text-anchor="middle" x="542.5" y="-8.2" font-family="sans-serif" font-size="14.00">dependencies</text>
<g id="clust1" class="cluster">
<title>cluster_IngenieriaModule</title>
<polygon fill="none" stroke="black" stroke-dasharray="1,5" points="8,-32.8 8,-157.8 1077,-157.8 1077,-32.8 8,-32.8"/>
</g>
<g id="clust2" class="cluster">
<title>cluster_IngenieriaModule_declarations</title>
<polygon fill="none" stroke="black" points="318,-40.8 318,-92.8 1069,-92.8 1069,-40.8 318,-40.8"/>
</g>
<g id="clust6" class="cluster">
<title>cluster_IngenieriaModule_imports</title>
<polygon fill="none" stroke="black" points="16,-40.8 16,-92.8 310,-92.8 310,-40.8 16,-40.8"/>
</g>
<!-- ResultadoIngenieriaContainerComponent -->
<g id="node1" class="node">
<title>ResultadoIngenieriaContainerComponent</title>
<polygon fill="#ffffb3" stroke="black" points="1060.78,-84.8 811.22,-84.8 811.22,-48.8 1060.78,-48.8 1060.78,-84.8"/>
<text text-anchor="middle" x="936" y="-62.6" font-family="Times,serif" font-size="14.00">ResultadoIngenieriaContainerComponent</text>
</g>
<!-- IngenieriaModule -->
<g id="node4" class="node">
<title>IngenieriaModule</title>
<polygon fill="#8dd3c7" stroke="black" points="491.3,-149.8 488.3,-153.8 467.3,-153.8 464.3,-149.8 374.7,-149.8 374.7,-113.8 491.3,-113.8 491.3,-149.8"/>
<text text-anchor="middle" x="433" y="-127.6" font-family="Times,serif" font-size="14.00">IngenieriaModule</text>
</g>
<!-- ResultadoIngenieriaContainerComponent&#45;&gt;IngenieriaModule -->
<g id="edge1" class="edge">
<title>ResultadoIngenieriaContainerComponent&#45;&gt;IngenieriaModule</title>
<path fill="none" stroke="black" d="M936,-85.08C936,-106.12 936,-137.8 936,-137.8 936,-137.8 501.19,-137.8 501.19,-137.8"/>
<polygon fill="black" stroke="black" points="501.19,-134.3 491.19,-137.8 501.19,-141.3 501.19,-134.3"/>
</g>
<!-- ValidarIngenieriaContainerComponent -->
<g id="node2" class="node">
<title>ValidarIngenieriaContainerComponent</title>
<polygon fill="#ffffb3" stroke="black" points="793.76,-84.8 558.24,-84.8 558.24,-48.8 793.76,-48.8 793.76,-84.8"/>
<text text-anchor="middle" x="676" y="-62.6" font-family="Times,serif" font-size="14.00">ValidarIngenieriaContainerComponent</text>
</g>
<!-- ValidarIngenieriaContainerComponent&#45;&gt;IngenieriaModule -->
<g id="edge2" class="edge">
<title>ValidarIngenieriaContainerComponent&#45;&gt;IngenieriaModule</title>
<path fill="none" stroke="black" d="M676,-84.82C676,-102.17 676,-125.8 676,-125.8 676,-125.8 501.2,-125.8 501.2,-125.8"/>
<polygon fill="black" stroke="black" points="501.2,-122.3 491.2,-125.8 501.2,-129.3 501.2,-122.3"/>
</g>
<!-- VerIngenieriaContainerComponent -->
<g id="node3" class="node">
<title>VerIngenieriaContainerComponent</title>
<polygon fill="#ffffb3" stroke="black" points="540.27,-84.8 325.73,-84.8 325.73,-48.8 540.27,-48.8 540.27,-84.8"/>
<text text-anchor="middle" x="433" y="-62.6" font-family="Times,serif" font-size="14.00">VerIngenieriaContainerComponent</text>
</g>
<!-- VerIngenieriaContainerComponent&#45;&gt;IngenieriaModule -->
<g id="edge3" class="edge">
<title>VerIngenieriaContainerComponent&#45;&gt;IngenieriaModule</title>
<path fill="none" stroke="black" d="M433,-84.91C433,-84.91 433,-103.79 433,-103.79"/>
<polygon fill="black" stroke="black" points="429.5,-103.79 433,-113.79 436.5,-103.79 429.5,-103.79"/>
</g>
<!-- IngenieriaRoutingModule -->
<g id="node5" class="node">
<title>IngenieriaRoutingModule</title>
<polygon fill="#8dd3c7" stroke="black" points="301.91,-84.8 298.91,-88.8 277.91,-88.8 274.91,-84.8 140.09,-84.8 140.09,-48.8 301.91,-48.8 301.91,-84.8"/>
<text text-anchor="middle" x="221" y="-62.6" font-family="Times,serif" font-size="14.00">IngenieriaRoutingModule</text>
</g>
<!-- IngenieriaRoutingModule&#45;&gt;IngenieriaModule -->
<g id="edge4" class="edge">
<title>IngenieriaRoutingModule&#45;&gt;IngenieriaModule</title>
<path fill="none" stroke="black" d="M221,-84.82C221,-102.17 221,-125.8 221,-125.8 221,-125.8 364.79,-125.8 364.79,-125.8"/>
<polygon fill="black" stroke="black" points="364.79,-129.3 374.79,-125.8 364.79,-122.3 364.79,-129.3"/>
</g>
<!-- SharedModule -->
<g id="node6" class="node">
<title>SharedModule</title>
<polygon fill="#8dd3c7" stroke="black" points="122.43,-84.8 119.43,-88.8 98.43,-88.8 95.43,-84.8 23.57,-84.8 23.57,-48.8 122.43,-48.8 122.43,-84.8"/>
<text text-anchor="middle" x="73" y="-62.6" font-family="Times,serif" font-size="14.00">SharedModule</text>
</g>
<!-- SharedModule&#45;&gt;IngenieriaModule -->
<g id="edge5" class="edge">
<title>SharedModule&#45;&gt;IngenieriaModule</title>
<path fill="none" stroke="black" d="M73,-85.08C73,-106.12 73,-137.8 73,-137.8 73,-137.8 364.76,-137.8 364.76,-137.8"/>
<polygon fill="black" stroke="black" points="364.76,-141.3 374.76,-137.8 364.76,-134.3 364.76,-141.3"/>
</g>
</g>
</svg>
