<?xml version="1.0" encoding="UTF-8" standalone="no"?>
<!DOCTYPE svg PUBLIC "-//W3C//DTD SVG 1.1//EN"
 "http://www.w3.org/Graphics/SVG/1.1/DTD/svg11.dtd">
<!-- Generated by graphviz version 5.0.0 (20220707.1540)
 -->
<!-- Title: dependencies Pages: 1 -->
<svg width="699pt" height="247pt"
 viewBox="0.00 0.00 699.00 246.80" xmlns="http://www.w3.org/2000/svg" xmlns:xlink="http://www.w3.org/1999/xlink">
<g id="graph0" class="graph" transform="scale(1 1) rotate(0) translate(4 242.8)">
<title>dependencies</title>
<polygon fill="white" stroke="transparent" points="-4,4 -4,-242.8 695,-242.8 695,4 -4,4"/>
<text text-anchor="middle" x="345.5" y="-8.2" font-family="sans-serif" font-size="14.00">dependencies</text>
<g id="clust1" class="cluster">
<title>cluster_AppModule</title>
<polygon fill="none" stroke="black" stroke-dasharray="1,5" points="8,-32.8 8,-230.8 683,-230.8 683,-32.8 8,-32.8"/>
</g>
<g id="clust7" class="cluster">
<title>cluster_AppModule_providers</title>
<polygon fill="none" stroke="black" points="503,-40.8 503,-92.8 675,-92.8 675,-40.8 503,-40.8"/>
</g>
<g id="clust2" class="cluster">
<title>cluster_AppModule_declarations</title>
<polygon fill="none" stroke="black" points="373,-40.8 373,-92.8 495,-92.8 495,-40.8 373,-40.8"/>
</g>
<g id="clust4" class="cluster">
<title>cluster_AppModule_imports</title>
<polygon fill="none" stroke="black" points="16,-40.8 16,-92.8 365,-92.8 365,-40.8 16,-40.8"/>
</g>
<g id="clust6" class="cluster">
<title>cluster_AppModule_bootstrap</title>
<polygon fill="none" stroke="black" points="231,-170.8 231,-222.8 355,-222.8 355,-170.8 231,-170.8"/>
</g>
<!-- AppComponent -->
<g id="node1" class="node">
<title>AppComponent</title>
<polygon fill="#ffffb3" stroke="black" points="486.94,-84.8 381.06,-84.8 381.06,-48.8 486.94,-48.8 486.94,-84.8"/>
<text text-anchor="middle" x="434" y="-62.6" font-family="Times,serif" font-size="14.00">AppComponent</text>
</g>
<!-- AppModule -->
<g id="node2" class="node">
<title>AppModule</title>
<polygon fill="#8dd3c7" stroke="black" points="334.66,-149.8 331.66,-153.8 310.66,-153.8 307.66,-149.8 251.34,-149.8 251.34,-113.8 334.66,-113.8 334.66,-149.8"/>
<text text-anchor="middle" x="293" y="-127.6" font-family="Times,serif" font-size="14.00">AppModule</text>
</g>
<!-- AppComponent&#45;&gt;AppModule -->
<g id="edge1" class="edge">
<title>AppComponent&#45;&gt;AppModule</title>
<path fill="none" stroke="black" d="M434,-84.82C434,-102.17 434,-125.8 434,-125.8 434,-125.8 344.92,-125.8 344.92,-125.8"/>
<polygon fill="black" stroke="black" points="344.92,-122.3 334.92,-125.8 344.92,-129.3 344.92,-122.3"/>
</g>
<!-- AppComponent  -->
<g id="node6" class="node">
<title>AppComponent </title>
<polygon fill="#80b1d3" stroke="black" points="347.44,-214.8 238.56,-214.8 238.56,-178.8 347.44,-178.8 347.44,-214.8"/>
<text text-anchor="middle" x="293" y="-192.6" font-family="Times,serif" font-size="14.00">AppComponent </text>
</g>
<!-- AppModule&#45;&gt;AppComponent  -->
<g id="edge5" class="edge">
<title>AppModule&#45;&gt;AppComponent </title>
<path fill="none" stroke="black" stroke-dasharray="1,5" d="M293,-149.91C293,-149.91 293,-168.79 293,-168.79"/>
<polygon fill="black" stroke="black" points="289.5,-168.79 293,-178.79 296.5,-168.79 289.5,-168.79"/>
</g>
<!-- AppRoutingModule -->
<g id="node3" class="node">
<title>AppRoutingModule</title>
<polygon fill="#8dd3c7" stroke="black" points="357.28,-84.8 354.28,-88.8 333.28,-88.8 330.28,-84.8 228.72,-84.8 228.72,-48.8 357.28,-48.8 357.28,-84.8"/>
<text text-anchor="middle" x="293" y="-62.6" font-family="Times,serif" font-size="14.00">AppRoutingModule</text>
</g>
<!-- AppRoutingModule&#45;&gt;AppModule -->
<g id="edge2" class="edge">
<title>AppRoutingModule&#45;&gt;AppModule</title>
<path fill="none" stroke="black" d="M293,-84.91C293,-84.91 293,-103.79 293,-103.79"/>
<polygon fill="black" stroke="black" points="289.5,-103.79 293,-113.79 296.5,-103.79 289.5,-103.79"/>
</g>
<!-- CoreModule -->
<g id="node4" class="node">
<title>CoreModule</title>
<polygon fill="#8dd3c7" stroke="black" points="210.27,-84.8 207.27,-88.8 186.27,-88.8 183.27,-84.8 123.73,-84.8 123.73,-48.8 210.27,-48.8 210.27,-84.8"/>
<text text-anchor="middle" x="167" y="-62.6" font-family="Times,serif" font-size="14.00">CoreModule</text>
</g>
<!-- CoreModule&#45;&gt;AppModule -->
<g id="edge3" class="edge">
<title>CoreModule&#45;&gt;AppModule</title>
<path fill="none" stroke="black" d="M167,-84.82C167,-102.17 167,-125.8 167,-125.8 167,-125.8 241.04,-125.8 241.04,-125.8"/>
<polygon fill="black" stroke="black" points="241.04,-129.3 251.04,-125.8 241.04,-122.3 241.04,-129.3"/>
</g>
<!-- LogModule -->
<g id="node5" class="node">
<title>LogModule</title>
<polygon fill="#8dd3c7" stroke="black" points="106.1,-84.8 103.1,-88.8 82.1,-88.8 79.1,-84.8 23.9,-84.8 23.9,-48.8 106.1,-48.8 106.1,-84.8"/>
<text text-anchor="middle" x="65" y="-62.6" font-family="Times,serif" font-size="14.00">LogModule</text>
</g>
<!-- LogModule&#45;&gt;AppModule -->
<g id="edge4" class="edge">
<title>LogModule&#45;&gt;AppModule</title>
<path fill="none" stroke="black" d="M65,-85.08C65,-106.12 65,-137.8 65,-137.8 65,-137.8 241.18,-137.8 241.18,-137.8"/>
<polygon fill="black" stroke="black" points="241.18,-141.3 251.18,-137.8 241.18,-134.3 241.18,-141.3"/>
</g>
<!-- TokenInterceptor -->
<g id="node7" class="node">
<title>TokenInterceptor</title>
<ellipse fill="#fdb462" stroke="black" cx="589" cy="-66.8" rx="78.13" ry="18"/>
<text text-anchor="middle" x="589" y="-62.6" font-family="Times,serif" font-size="14.00">TokenInterceptor</text>
</g>
<!-- TokenInterceptor&#45;&gt;AppModule -->
<g id="edge6" class="edge">
<title>TokenInterceptor&#45;&gt;AppModule</title>
<path fill="none" stroke="black" d="M589,-85.08C589,-106.12 589,-137.8 589,-137.8 589,-137.8 344.78,-137.8 344.78,-137.8"/>
<polygon fill="black" stroke="black" points="344.78,-134.3 334.78,-137.8 344.78,-141.3 344.78,-134.3"/>
</g>
</g>
</svg>
