<?xml version="1.0" encoding="UTF-8" standalone="no"?>
<!DOCTYPE svg PUBLIC "-//W3C//DTD SVG 1.1//EN"
 "http://www.w3.org/Graphics/SVG/1.1/DTD/svg11.dtd">
<!-- Generated by graphviz version 5.0.0 (20220707.1540)
 -->
<!-- Title: dependencies Pages: 1 -->
<svg width="874pt" height="174pt"
 viewBox="0.00 0.00 874.00 173.80" xmlns="http://www.w3.org/2000/svg" xmlns:xlink="http://www.w3.org/1999/xlink">
<g id="graph0" class="graph" transform="scale(1 1) rotate(0) translate(4 169.8)">
<title>dependencies</title>
<polygon fill="white" stroke="transparent" points="-4,4 -4,-169.8 870,-169.8 870,4 -4,4"/>
<text text-anchor="middle" x="433" y="-8.2" font-family="sans-serif" font-size="14.00">dependencies</text>
<g id="clust1" class="cluster">
<title>cluster_AreasModule</title>
<polygon fill="none" stroke="black" stroke-dasharray="1,5" points="8,-32.8 8,-157.8 858,-157.8 858,-32.8 8,-32.8"/>
</g>
<g id="clust2" class="cluster">
<title>cluster_AreasModule_declarations</title>
<polygon fill="none" stroke="black" points="294,-40.8 294,-92.8 850,-92.8 850,-40.8 294,-40.8"/>
</g>
<g id="clust6" class="cluster">
<title>cluster_AreasModule_imports</title>
<polygon fill="none" stroke="black" points="16,-40.8 16,-92.8 286,-92.8 286,-40.8 16,-40.8"/>
</g>
<!-- AreasComponent -->
<g id="node1" class="node">
<title>AreasComponent</title>
<polygon fill="#ffffb3" stroke="black" points="841.98,-84.8 728.02,-84.8 728.02,-48.8 841.98,-48.8 841.98,-84.8"/>
<text text-anchor="middle" x="785" y="-62.6" font-family="Times,serif" font-size="14.00">AreasComponent</text>
</g>
<!-- AreasModule -->
<g id="node4" class="node">
<title>AreasModule</title>
<polygon fill="#8dd3c7" stroke="black" points="443.2,-149.8 440.2,-153.8 419.2,-153.8 416.2,-149.8 350.8,-149.8 350.8,-113.8 443.2,-113.8 443.2,-149.8"/>
<text text-anchor="middle" x="397" y="-127.6" font-family="Times,serif" font-size="14.00">AreasModule</text>
</g>
<!-- AreasComponent&#45;&gt;AreasModule -->
<g id="edge1" class="edge">
<title>AreasComponent&#45;&gt;AreasModule</title>
<path fill="none" stroke="black" d="M785,-85.08C785,-106.12 785,-137.8 785,-137.8 785,-137.8 453.42,-137.8 453.42,-137.8"/>
<polygon fill="black" stroke="black" points="453.42,-134.3 443.42,-137.8 453.42,-141.3 453.42,-134.3"/>
</g>
<!-- FormAreasContainerComponent -->
<g id="node2" class="node">
<title>FormAreasContainerComponent</title>
<polygon fill="#ffffb3" stroke="black" points="709.52,-84.8 510.48,-84.8 510.48,-48.8 709.52,-48.8 709.52,-84.8"/>
<text text-anchor="middle" x="610" y="-62.6" font-family="Times,serif" font-size="14.00">FormAreasContainerComponent</text>
</g>
<!-- FormAreasContainerComponent&#45;&gt;AreasModule -->
<g id="edge2" class="edge">
<title>FormAreasContainerComponent&#45;&gt;AreasModule</title>
<path fill="none" stroke="black" d="M610,-84.82C610,-102.17 610,-125.8 610,-125.8 610,-125.8 453.22,-125.8 453.22,-125.8"/>
<polygon fill="black" stroke="black" points="453.22,-122.3 443.22,-125.8 453.22,-129.3 453.22,-122.3"/>
</g>
<!-- ListAreasContainerComponent -->
<g id="node3" class="node">
<title>ListAreasContainerComponent</title>
<polygon fill="#ffffb3" stroke="black" points="492.47,-84.8 301.53,-84.8 301.53,-48.8 492.47,-48.8 492.47,-84.8"/>
<text text-anchor="middle" x="397" y="-62.6" font-family="Times,serif" font-size="14.00">ListAreasContainerComponent</text>
</g>
<!-- ListAreasContainerComponent&#45;&gt;AreasModule -->
<g id="edge3" class="edge">
<title>ListAreasContainerComponent&#45;&gt;AreasModule</title>
<path fill="none" stroke="black" d="M397,-84.91C397,-84.91 397,-103.79 397,-103.79"/>
<polygon fill="black" stroke="black" points="393.5,-103.79 397,-113.79 400.5,-103.79 393.5,-103.79"/>
</g>
<!-- AreasRoutingModule -->
<g id="node5" class="node">
<title>AreasRoutingModule</title>
<polygon fill="#8dd3c7" stroke="black" points="277.82,-84.8 274.82,-88.8 253.82,-88.8 250.82,-84.8 140.18,-84.8 140.18,-48.8 277.82,-48.8 277.82,-84.8"/>
<text text-anchor="middle" x="209" y="-62.6" font-family="Times,serif" font-size="14.00">AreasRoutingModule</text>
</g>
<!-- AreasRoutingModule&#45;&gt;AreasModule -->
<g id="edge4" class="edge">
<title>AreasRoutingModule&#45;&gt;AreasModule</title>
<path fill="none" stroke="black" d="M209,-84.82C209,-102.17 209,-125.8 209,-125.8 209,-125.8 340.53,-125.8 340.53,-125.8"/>
<polygon fill="black" stroke="black" points="340.53,-129.3 350.53,-125.8 340.53,-122.3 340.53,-129.3"/>
</g>
<!-- SharedModule -->
<g id="node6" class="node">
<title>SharedModule</title>
<polygon fill="#8dd3c7" stroke="black" points="122.43,-84.8 119.43,-88.8 98.43,-88.8 95.43,-84.8 23.57,-84.8 23.57,-48.8 122.43,-48.8 122.43,-84.8"/>
<text text-anchor="middle" x="73" y="-62.6" font-family="Times,serif" font-size="14.00">SharedModule</text>
</g>
<!-- SharedModule&#45;&gt;AreasModule -->
<g id="edge5" class="edge">
<title>SharedModule&#45;&gt;AreasModule</title>
<path fill="none" stroke="black" d="M73,-85.08C73,-106.12 73,-137.8 73,-137.8 73,-137.8 340.58,-137.8 340.58,-137.8"/>
<polygon fill="black" stroke="black" points="340.58,-141.3 350.58,-137.8 340.58,-134.3 340.58,-141.3"/>
</g>
</g>
</svg>
