<?xml version="1.0" encoding="UTF-8" standalone="no"?>
<!DOCTYPE svg PUBLIC "-//W3C//DTD SVG 1.1//EN"
 "http://www.w3.org/Graphics/SVG/1.1/DTD/svg11.dtd">
<!-- Generated by graphviz version 5.0.0 (20220707.1540)
 -->
<!-- Title: dependencies Pages: 1 -->
<svg width="4693pt" height="467pt"
 viewBox="0.00 0.00 4693.00 466.80" xmlns="http://www.w3.org/2000/svg" xmlns:xlink="http://www.w3.org/1999/xlink">
<g id="graph0" class="graph" transform="scale(1 1) rotate(0) translate(4 462.8)">
<title>dependencies</title>
<polygon fill="white" stroke="transparent" points="-4,4 -4,-462.8 4689,-462.8 4689,4 -4,4"/>
<text text-anchor="middle" x="2342.5" y="-8.2" font-family="sans-serif" font-size="14.00">dependencies</text>
<g id="clust1" class="cluster">
<title>cluster_AppModule</title>
<polygon fill="none" stroke="black" stroke-dasharray="1,5" points="1377,-252.8 1377,-450.8 1952,-450.8 1952,-252.8 1377,-252.8"/>
</g>
<g id="clust2" class="cluster">
<title>cluster_AppModule_declarations</title>
<polygon fill="none" stroke="black" points="1822,-260.8 1822,-312.8 1944,-312.8 1944,-260.8 1822,-260.8"/>
</g>
<g id="clust4" class="cluster">
<title>cluster_AppModule_imports</title>
<polygon fill="none" stroke="black" points="1565,-260.8 1565,-312.8 1814,-312.8 1814,-260.8 1565,-260.8"/>
</g>
<g id="clust6" class="cluster">
<title>cluster_AppModule_bootstrap</title>
<polygon fill="none" stroke="black" points="1617,-390.8 1617,-442.8 1741,-442.8 1741,-390.8 1617,-390.8"/>
</g>
<g id="clust7" class="cluster">
<title>cluster_AppModule_providers</title>
<polygon fill="none" stroke="black" points="1385,-260.8 1385,-312.8 1557,-312.8 1557,-260.8 1385,-260.8"/>
</g>
<g id="clust14" class="cluster">
<title>cluster_AuthModule</title>
<polygon fill="none" stroke="black" stroke-dasharray="1,5" points="2143,-108.8 2143,-236.8 2886,-236.8 2886,-108.8 2143,-108.8"/>
</g>
<g id="clust15" class="cluster">
<title>cluster_AuthModule_declarations</title>
<polygon fill="none" stroke="black" points="2424,-116.8 2424,-168.8 2878,-168.8 2878,-116.8 2424,-116.8"/>
</g>
<g id="clust19" class="cluster">
<title>cluster_AuthModule_imports</title>
<polygon fill="none" stroke="black" points="2151,-116.8 2151,-168.8 2416,-168.8 2416,-116.8 2151,-116.8"/>
</g>
<g id="clust29" class="cluster">
<title>cluster_CoreModule</title>
<polygon fill="none" stroke="black" stroke-dasharray="1,5" points="1213,-176.8 1213,-244.8 2135,-244.8 2135,-176.8 1213,-176.8"/>
</g>
<g id="clust30" class="cluster">
<title>cluster_CoreModule_declarations</title>
<polygon fill="none" stroke="black" points="1545,-184.8 1545,-236.8 2127,-236.8 2127,-184.8 1545,-184.8"/>
</g>
<g id="clust35" class="cluster">
<title>cluster_CoreModule_imports</title>
<polygon fill="none" stroke="black" points="1399,-184.8 1399,-236.8 1537,-236.8 1537,-184.8 1399,-184.8"/>
</g>
<g id="clust36" class="cluster">
<title>cluster_CoreModule_exports</title>
<polygon fill="none" stroke="black" points="1221,-184.8 1221,-236.8 1391,-236.8 1391,-184.8 1221,-184.8"/>
</g>
<g id="clust39" class="cluster">
<title>cluster_CubicacionModule</title>
<polygon fill="none" stroke="black" stroke-dasharray="1,5" points="2894,-108.8 2894,-236.8 3778,-236.8 3778,-108.8 2894,-108.8"/>
</g>
<g id="clust40" class="cluster">
<title>cluster_CubicacionModule_declarations</title>
<polygon fill="none" stroke="black" points="3094,-116.8 3094,-168.8 3770,-168.8 3770,-116.8 3094,-116.8"/>
</g>
<g id="clust45" class="cluster">
<title>cluster_CubicacionModule_imports</title>
<polygon fill="none" stroke="black" points="2902,-116.8 2902,-168.8 3086,-168.8 3086,-116.8 2902,-116.8"/>
</g>
<g id="clust55" class="cluster">
<title>cluster_HomeModule</title>
<polygon fill="none" stroke="black" stroke-dasharray="1,5" points="3786,-108.8 3786,-236.8 4096,-236.8 4096,-108.8 3786,-108.8"/>
</g>
<g id="clust56" class="cluster">
<title>cluster_HomeModule_declarations</title>
<polygon fill="none" stroke="black" points="3956,-116.8 3956,-168.8 4088,-168.8 4088,-116.8 3956,-116.8"/>
</g>
<g id="clust58" class="cluster">
<title>cluster_HomeModule_imports</title>
<polygon fill="none" stroke="black" points="3794,-116.8 3794,-168.8 3948,-168.8 3948,-116.8 3794,-116.8"/>
</g>
<g id="clust68" class="cluster">
<title>cluster_OtModule</title>
<polygon fill="none" stroke="black" stroke-dasharray="1,5" points="4407,-32.8 4407,-168.8 4677,-168.8 4677,-32.8 4407,-32.8"/>
</g>
<g id="clust69" class="cluster">
<title>cluster_OtModule_declarations</title>
<polygon fill="none" stroke="black" points="4557,-40.8 4557,-92.8 4669,-92.8 4669,-40.8 4557,-40.8"/>
</g>
<g id="clust71" class="cluster">
<title>cluster_OtModule_imports</title>
<polygon fill="none" stroke="black" points="4415,-40.8 4415,-92.8 4549,-92.8 4549,-40.8 4415,-40.8"/>
</g>
<g id="clust87" class="cluster">
<title>cluster_SharedModule</title>
<polygon fill="none" stroke="black" stroke-dasharray="1,5" points="8,-32.8 8,-100.8 4399,-100.8 4399,-32.8 8,-32.8"/>
</g>
<g id="clust88" class="cluster">
<title>cluster_SharedModule_declarations</title>
<polygon fill="none" stroke="black" points="2021,-40.8 2021,-92.8 4391,-92.8 4391,-40.8 2021,-40.8"/>
</g>
<g id="clust102" class="cluster">
<title>cluster_SharedModule_imports</title>
<polygon fill="none" stroke="black" points="1887,-40.8 1887,-92.8 2013,-92.8 2013,-40.8 1887,-40.8"/>
</g>
<g id="clust103" class="cluster">
<title>cluster_SharedModule_exports</title>
<polygon fill="none" stroke="black" points="16,-40.8 16,-92.8 1879,-92.8 1879,-40.8 16,-40.8"/>
</g>
<!-- AppComponent -->
<g id="node1" class="node">
<title>AppComponent</title>
<polygon fill="#ffffb3" stroke="black" points="1935.94,-304.8 1830.06,-304.8 1830.06,-268.8 1935.94,-268.8 1935.94,-304.8"/>
<text text-anchor="middle" x="1883" y="-282.6" font-family="Times,serif" font-size="14.00">AppComponent</text>
</g>
<!-- AppModule -->
<g id="node2" class="node">
<title>AppModule</title>
<polygon fill="#8dd3c7" stroke="black" points="1720.66,-369.8 1717.66,-373.8 1696.66,-373.8 1693.66,-369.8 1637.34,-369.8 1637.34,-333.8 1720.66,-333.8 1720.66,-369.8"/>
<text text-anchor="middle" x="1679" y="-347.6" font-family="Times,serif" font-size="14.00">AppModule</text>
</g>
<!-- AppComponent&#45;&gt;AppModule -->
<g id="edge1" class="edge">
<title>AppComponent&#45;&gt;AppModule</title>
<path fill="none" stroke="black" d="M1883,-304.91C1883,-324.14 1883,-351.8 1883,-351.8 1883,-351.8 1730.77,-351.8 1730.77,-351.8"/>
<polygon fill="black" stroke="black" points="1730.77,-348.3 1720.77,-351.8 1730.77,-355.3 1730.77,-348.3"/>
</g>
<!-- AppComponent  -->
<g id="node5" class="node">
<title>AppComponent </title>
<polygon fill="#80b1d3" stroke="black" points="1733.44,-434.8 1624.56,-434.8 1624.56,-398.8 1733.44,-398.8 1733.44,-434.8"/>
<text text-anchor="middle" x="1679" y="-412.6" font-family="Times,serif" font-size="14.00">AppComponent </text>
</g>
<!-- AppModule&#45;&gt;AppComponent  -->
<g id="edge4" class="edge">
<title>AppModule&#45;&gt;AppComponent </title>
<path fill="none" stroke="black" stroke-dasharray="1,5" d="M1679,-369.91C1679,-369.91 1679,-388.79 1679,-388.79"/>
<polygon fill="black" stroke="black" points="1675.5,-388.79 1679,-398.79 1682.5,-388.79 1675.5,-388.79"/>
</g>
<!-- AppRoutingModule -->
<g id="node3" class="node">
<title>AppRoutingModule</title>
<polygon fill="#8dd3c7" stroke="black" points="1806.28,-304.8 1803.28,-308.8 1782.28,-308.8 1779.28,-304.8 1677.72,-304.8 1677.72,-268.8 1806.28,-268.8 1806.28,-304.8"/>
<text text-anchor="middle" x="1742" y="-282.6" font-family="Times,serif" font-size="14.00">AppRoutingModule</text>
</g>
<!-- AppRoutingModule&#45;&gt;AppModule -->
<g id="edge2" class="edge">
<title>AppRoutingModule&#45;&gt;AppModule</title>
<path fill="none" stroke="black" d="M1699.22,-304.91C1699.22,-304.91 1699.22,-323.79 1699.22,-323.79"/>
<polygon fill="black" stroke="black" points="1695.72,-323.79 1699.22,-333.79 1702.72,-323.79 1695.72,-323.79"/>
</g>
<!-- CoreModule -->
<g id="node4" class="node">
<title>CoreModule</title>
<polygon fill="#8dd3c7" stroke="black" points="1659.27,-304.8 1656.27,-308.8 1635.27,-308.8 1632.27,-304.8 1572.73,-304.8 1572.73,-268.8 1659.27,-268.8 1659.27,-304.8"/>
<text text-anchor="middle" x="1616" y="-282.6" font-family="Times,serif" font-size="14.00">CoreModule</text>
</g>
<!-- CoreModule&#45;&gt;AppModule -->
<g id="edge3" class="edge">
<title>CoreModule&#45;&gt;AppModule</title>
<path fill="none" stroke="black" d="M1648.28,-304.91C1648.28,-304.91 1648.28,-323.79 1648.28,-323.79"/>
<polygon fill="black" stroke="black" points="1644.78,-323.79 1648.28,-333.79 1651.78,-323.79 1644.78,-323.79"/>
</g>
<!-- MainLayoutComponent  -->
<g id="node18" class="node">
<title>MainLayoutComponent </title>
<polygon fill="#fb8072" stroke="black" points="1383.04,-228.8 1228.96,-228.8 1228.96,-192.8 1383.04,-192.8 1383.04,-228.8"/>
<text text-anchor="middle" x="1306" y="-206.6" font-family="Times,serif" font-size="14.00">MainLayoutComponent </text>
</g>
<!-- CoreModule&#45;&gt;MainLayoutComponent  -->
<g id="edge17" class="edge">
<title>CoreModule&#45;&gt;MainLayoutComponent </title>
<path fill="none" stroke="black" stroke-dasharray="5,2" d="M1583.46,-268.62C1583.46,-255.76 1583.46,-240.8 1583.46,-240.8 1583.46,-240.8 1306,-240.8 1306,-240.8 1306,-240.8 1306,-238.94 1306,-238.94"/>
<polygon fill="black" stroke="black" points="1309.5,-238.94 1306,-228.94 1302.5,-238.94 1309.5,-238.94"/>
</g>
<!-- TokenInterceptor -->
<g id="node6" class="node">
<title>TokenInterceptor</title>
<ellipse fill="#fdb462" stroke="black" cx="1471" cy="-286.8" rx="78.13" ry="18"/>
<text text-anchor="middle" x="1471" y="-282.6" font-family="Times,serif" font-size="14.00">TokenInterceptor</text>
</g>
<!-- TokenInterceptor&#45;&gt;AppModule -->
<g id="edge5" class="edge">
<title>TokenInterceptor&#45;&gt;AppModule</title>
<path fill="none" stroke="black" d="M1471,-304.91C1471,-324.14 1471,-351.8 1471,-351.8 1471,-351.8 1626.91,-351.8 1626.91,-351.8"/>
<polygon fill="black" stroke="black" points="1626.91,-355.3 1636.91,-351.8 1626.91,-348.3 1626.91,-355.3"/>
</g>
<!-- AuthComponent -->
<g id="node7" class="node">
<title>AuthComponent</title>
<polygon fill="#ffffb3" stroke="black" points="2541.83,-160.8 2432.17,-160.8 2432.17,-124.8 2541.83,-124.8 2541.83,-160.8"/>
<text text-anchor="middle" x="2487" y="-138.6" font-family="Times,serif" font-size="14.00">AuthComponent</text>
</g>
<!-- AuthModule -->
<g id="node10" class="node">
<title>AuthModule</title>
<polygon fill="#8dd3c7" stroke="black" points="2530.55,-228.8 2527.55,-232.8 2506.55,-232.8 2503.55,-228.8 2443.45,-228.8 2443.45,-192.8 2530.55,-192.8 2530.55,-228.8"/>
<text text-anchor="middle" x="2487" y="-206.6" font-family="Times,serif" font-size="14.00">AuthModule</text>
</g>
<!-- AuthComponent&#45;&gt;AuthModule -->
<g id="edge6" class="edge">
<title>AuthComponent&#45;&gt;AuthModule</title>
<path fill="none" stroke="black" d="M2487,-161.02C2487,-161.02 2487,-182.53 2487,-182.53"/>
<polygon fill="black" stroke="black" points="2483.5,-182.53 2487,-192.53 2490.5,-182.53 2483.5,-182.53"/>
</g>
<!-- LoginFormComponent -->
<g id="node8" class="node">
<title>LoginFormComponent</title>
<polygon fill="#ffffb3" stroke="black" points="2869.61,-160.8 2724.39,-160.8 2724.39,-124.8 2869.61,-124.8 2869.61,-160.8"/>
<text text-anchor="middle" x="2797" y="-138.6" font-family="Times,serif" font-size="14.00">LoginFormComponent</text>
</g>
<!-- LoginFormComponent&#45;&gt;AuthModule -->
<g id="edge7" class="edge">
<title>LoginFormComponent&#45;&gt;AuthModule</title>
<path fill="none" stroke="black" d="M2797,-161.05C2797,-183.82 2797,-219.8 2797,-219.8 2797,-219.8 2540.76,-219.8 2540.76,-219.8"/>
<polygon fill="black" stroke="black" points="2540.76,-216.3 2530.76,-219.8 2540.76,-223.3 2540.76,-216.3"/>
</g>
<!-- PerfilSelectComponent -->
<g id="node9" class="node">
<title>PerfilSelectComponent</title>
<polygon fill="#ffffb3" stroke="black" points="2706.14,-160.8 2559.86,-160.8 2559.86,-124.8 2706.14,-124.8 2706.14,-160.8"/>
<text text-anchor="middle" x="2633" y="-138.6" font-family="Times,serif" font-size="14.00">PerfilSelectComponent</text>
</g>
<!-- PerfilSelectComponent&#45;&gt;AuthModule -->
<g id="edge8" class="edge">
<title>PerfilSelectComponent&#45;&gt;AuthModule</title>
<path fill="none" stroke="black" d="M2633,-161.02C2633,-181.17 2633,-210.8 2633,-210.8 2633,-210.8 2540.8,-210.8 2540.8,-210.8"/>
<polygon fill="black" stroke="black" points="2540.8,-207.3 2530.8,-210.8 2540.8,-214.3 2540.8,-207.3"/>
</g>
<!-- AuthRoutingModule -->
<g id="node11" class="node">
<title>AuthRoutingModule</title>
<polygon fill="#8dd3c7" stroke="black" points="2408.17,-160.8 2405.17,-164.8 2384.17,-164.8 2381.17,-160.8 2275.83,-160.8 2275.83,-124.8 2408.17,-124.8 2408.17,-160.8"/>
<text text-anchor="middle" x="2342" y="-138.6" font-family="Times,serif" font-size="14.00">AuthRoutingModule</text>
</g>
<!-- AuthRoutingModule&#45;&gt;AuthModule -->
<g id="edge9" class="edge">
<title>AuthRoutingModule&#45;&gt;AuthModule</title>
<path fill="none" stroke="black" d="M2342,-161.07C2342,-179.36 2342,-204.8 2342,-204.8 2342,-204.8 2433.1,-204.8 2433.1,-204.8"/>
<polygon fill="black" stroke="black" points="2433.1,-208.3 2443.1,-204.8 2433.1,-201.3 2433.1,-208.3"/>
</g>
<!-- SharedModule -->
<g id="node12" class="node">
<title>SharedModule</title>
<polygon fill="#8dd3c7" stroke="black" points="2257.43,-160.8 2254.43,-164.8 2233.43,-164.8 2230.43,-160.8 2158.57,-160.8 2158.57,-124.8 2257.43,-124.8 2257.43,-160.8"/>
<text text-anchor="middle" x="2208" y="-138.6" font-family="Times,serif" font-size="14.00">SharedModule</text>
</g>
<!-- SharedModule&#45;&gt;CoreModule -->
<g id="edge15" class="edge">
<title>SharedModule&#45;&gt;CoreModule</title>
<path fill="none" stroke="black" d="M2217.84,-160.91C2217.84,-194.67 2217.84,-263.8 2217.84,-263.8 2217.84,-263.8 1648.54,-263.8 1648.54,-263.8 1648.54,-263.8 1648.54,-264.29 1648.54,-264.29"/>
<polygon fill="black" stroke="black" points="1645.04,-258.68 1648.54,-268.68 1652.04,-258.68 1645.04,-258.68"/>
</g>
<!-- SharedModule&#45;&gt;AuthModule -->
<g id="edge10" class="edge">
<title>SharedModule&#45;&gt;AuthModule</title>
<path fill="none" stroke="black" d="M2237.53,-161.09C2237.53,-183.01 2237.53,-216.8 2237.53,-216.8 2237.53,-216.8 2433.26,-216.8 2433.26,-216.8"/>
<polygon fill="black" stroke="black" points="2433.26,-220.3 2443.26,-216.8 2433.26,-213.3 2433.26,-220.3"/>
</g>
<!-- StoreSIGOModule -->
<g id="node17" class="node">
<title>StoreSIGOModule</title>
<polygon fill="#8dd3c7" stroke="black" points="1528.77,-228.8 1525.77,-232.8 1504.77,-232.8 1501.77,-228.8 1407.23,-228.8 1407.23,-192.8 1528.77,-192.8 1528.77,-228.8"/>
<text text-anchor="middle" x="1468" y="-206.6" font-family="Times,serif" font-size="14.00">StoreSIGOModule</text>
</g>
<!-- SharedModule&#45;&gt;StoreSIGOModule -->
<g id="edge53" class="edge">
<title>SharedModule&#45;&gt;StoreSIGOModule</title>
<path fill="none" stroke="black" d="M2158.59,-158.8C1997.43,-158.8 1497.33,-158.8 1497.33,-158.8 1497.33,-158.8 1497.33,-182.61 1497.33,-182.61"/>
<polygon fill="black" stroke="black" points="1493.83,-182.61 1497.33,-192.61 1500.83,-182.61 1493.83,-182.61"/>
</g>
<!-- CubicacionModule -->
<g id="node23" class="node">
<title>CubicacionModule</title>
<polygon fill="#8dd3c7" stroke="black" points="3351.81,-228.8 3348.81,-232.8 3327.81,-232.8 3324.81,-228.8 3228.19,-228.8 3228.19,-192.8 3351.81,-192.8 3351.81,-228.8"/>
<text text-anchor="middle" x="3290" y="-206.6" font-family="Times,serif" font-size="14.00">CubicacionModule</text>
</g>
<!-- SharedModule&#45;&gt;CubicacionModule -->
<g id="edge23" class="edge">
<title>SharedModule&#45;&gt;CubicacionModule</title>
<path fill="none" stroke="black" d="M2178.47,-160.93C2178.47,-171.51 2178.47,-182.8 2178.47,-182.8 2178.47,-182.8 3249.6,-182.8 3249.6,-182.8 3249.6,-182.8 3249.6,-183.78 3249.6,-183.78"/>
<polygon fill="black" stroke="black" points="3246.1,-182.59 3249.6,-192.59 3253.1,-182.59 3246.1,-182.59"/>
</g>
<!-- HomeModule -->
<g id="node26" class="node">
<title>HomeModule</title>
<polygon fill="#8dd3c7" stroke="black" points="3917.77,-228.8 3914.77,-232.8 3893.77,-232.8 3890.77,-228.8 3824.23,-228.8 3824.23,-192.8 3917.77,-192.8 3917.77,-228.8"/>
<text text-anchor="middle" x="3871" y="-206.6" font-family="Times,serif" font-size="14.00">HomeModule</text>
</g>
<!-- SharedModule&#45;&gt;HomeModule -->
<g id="edge26" class="edge">
<title>SharedModule&#45;&gt;HomeModule</title>
<path fill="none" stroke="black" d="M2198.16,-161C2198.16,-166.83 2198.16,-171.8 2198.16,-171.8 2198.16,-171.8 3855.37,-171.8 3855.37,-171.8 3855.37,-171.8 3855.37,-182.67 3855.37,-182.67"/>
<polygon fill="black" stroke="black" points="3851.87,-182.67 3855.37,-192.67 3858.87,-182.67 3851.87,-182.67"/>
</g>
<!-- ContentLayoutComponent  -->
<g id="node45" class="node">
<title>ContentLayoutComponent </title>
<polygon fill="#fb8072" stroke="black" points="1447.32,-84.8 1278.68,-84.8 1278.68,-48.8 1447.32,-48.8 1447.32,-84.8"/>
<text text-anchor="middle" x="1363" y="-62.6" font-family="Times,serif" font-size="14.00">ContentLayoutComponent </text>
</g>
<!-- SharedModule&#45;&gt;ContentLayoutComponent  -->
<g id="edge43" class="edge">
<title>SharedModule&#45;&gt;ContentLayoutComponent </title>
<path fill="none" stroke="black" stroke-dasharray="5,2" d="M2158.57,-136.8C1986.95,-136.8 1427.26,-136.8 1427.26,-136.8 1427.26,-136.8 1427.26,-94.83 1427.26,-94.83"/>
<polygon fill="black" stroke="black" points="1430.76,-94.83 1427.26,-84.83 1423.76,-94.83 1430.76,-94.83"/>
</g>
<!-- FormAgregarServiciosComponent  -->
<g id="node46" class="node">
<title>FormAgregarServiciosComponent </title>
<polygon fill="#fb8072" stroke="black" points="1260.63,-84.8 1047.37,-84.8 1047.37,-48.8 1260.63,-48.8 1260.63,-84.8"/>
<text text-anchor="middle" x="1154" y="-62.6" font-family="Times,serif" font-size="14.00">FormAgregarServiciosComponent </text>
</g>
<!-- SharedModule&#45;&gt;FormAgregarServiciosComponent  -->
<g id="edge44" class="edge">
<title>SharedModule&#45;&gt;FormAgregarServiciosComponent </title>
<path fill="none" stroke="black" stroke-dasharray="5,2" d="M2158.58,-138.8C1961.81,-138.8 1244.77,-138.8 1244.77,-138.8 1244.77,-138.8 1244.77,-94.97 1244.77,-94.97"/>
<polygon fill="black" stroke="black" points="1248.27,-94.97 1244.77,-84.97 1241.27,-94.97 1248.27,-94.97"/>
</g>
<!-- FormTableServicesComponent  -->
<g id="node47" class="node">
<title>FormTableServicesComponent </title>
<polygon fill="#fb8072" stroke="black" points="1029.47,-84.8 834.53,-84.8 834.53,-48.8 1029.47,-48.8 1029.47,-84.8"/>
<text text-anchor="middle" x="932" y="-62.6" font-family="Times,serif" font-size="14.00">FormTableServicesComponent </text>
</g>
<!-- SharedModule&#45;&gt;FormTableServicesComponent  -->
<g id="edge45" class="edge">
<title>SharedModule&#45;&gt;FormTableServicesComponent </title>
<path fill="none" stroke="black" stroke-dasharray="5,2" d="M2158.76,-141.8C1924.26,-141.8 932,-141.8 932,-141.8 932,-141.8 932,-94.96 932,-94.96"/>
<polygon fill="black" stroke="black" points="935.5,-94.96 932,-84.96 928.5,-94.96 935.5,-94.96"/>
</g>
<!-- InputAlertComponent  -->
<g id="node48" class="node">
<title>InputAlertComponent </title>
<polygon fill="#fb8072" stroke="black" points="816.65,-84.8 673.35,-84.8 673.35,-48.8 816.65,-48.8 816.65,-84.8"/>
<text text-anchor="middle" x="745" y="-62.6" font-family="Times,serif" font-size="14.00">InputAlertComponent </text>
</g>
<!-- SharedModule&#45;&gt;InputAlertComponent  -->
<g id="edge46" class="edge">
<title>SharedModule&#45;&gt;InputAlertComponent </title>
<path fill="none" stroke="black" stroke-dasharray="5,2" d="M2158.49,-144.8C1902.93,-144.8 745,-144.8 745,-144.8 745,-144.8 745,-94.89 745,-94.89"/>
<polygon fill="black" stroke="black" points="748.5,-94.89 745,-84.89 741.5,-94.89 748.5,-94.89"/>
</g>
<!-- InputTextComponent  -->
<g id="node49" class="node">
<title>InputTextComponent </title>
<polygon fill="#fb8072" stroke="black" points="655.04,-84.8 514.96,-84.8 514.96,-48.8 655.04,-48.8 655.04,-84.8"/>
<text text-anchor="middle" x="585" y="-62.6" font-family="Times,serif" font-size="14.00">InputTextComponent </text>
</g>
<!-- SharedModule&#45;&gt;InputTextComponent  -->
<g id="edge47" class="edge">
<title>SharedModule&#45;&gt;InputTextComponent </title>
<path fill="none" stroke="black" stroke-dasharray="5,2" d="M2158.54,-147.8C1886.54,-147.8 585,-147.8 585,-147.8 585,-147.8 585,-95.18 585,-95.18"/>
<polygon fill="black" stroke="black" points="588.5,-95.18 585,-85.18 581.5,-95.18 588.5,-95.18"/>
</g>
<!-- PbuttonSendingComponent  -->
<g id="node50" class="node">
<title>PbuttonSendingComponent </title>
<polygon fill="#fb8072" stroke="black" points="497.29,-84.8 322.71,-84.8 322.71,-48.8 497.29,-48.8 497.29,-84.8"/>
<text text-anchor="middle" x="410" y="-62.6" font-family="Times,serif" font-size="14.00">PbuttonSendingComponent </text>
</g>
<!-- SharedModule&#45;&gt;PbuttonSendingComponent  -->
<g id="edge48" class="edge">
<title>SharedModule&#45;&gt;PbuttonSendingComponent </title>
<path fill="none" stroke="black" stroke-dasharray="5,2" d="M2158.51,-149.8C1869.23,-149.8 410,-149.8 410,-149.8 410,-149.8 410,-94.81 410,-94.81"/>
<polygon fill="black" stroke="black" points="413.5,-94.81 410,-84.81 406.5,-94.81 413.5,-94.81"/>
</g>
<!-- PdropdownComponent  -->
<g id="node51" class="node">
<title>PdropdownComponent </title>
<polygon fill="#fb8072" stroke="black" points="304.89,-84.8 155.11,-84.8 155.11,-48.8 304.89,-48.8 304.89,-84.8"/>
<text text-anchor="middle" x="230" y="-62.6" font-family="Times,serif" font-size="14.00">PdropdownComponent </text>
</g>
<!-- SharedModule&#45;&gt;PdropdownComponent  -->
<g id="edge49" class="edge">
<title>SharedModule&#45;&gt;PdropdownComponent </title>
<path fill="none" stroke="black" stroke-dasharray="5,2" d="M2158.61,-152.8C1852.76,-152.8 230,-152.8 230,-152.8 230,-152.8 230,-95.04 230,-95.04"/>
<polygon fill="black" stroke="black" points="233.5,-95.04 230,-85.04 226.5,-95.04 233.5,-95.04"/>
</g>
<!-- PrimeNgModule  -->
<g id="node52" class="node">
<title>PrimeNgModule </title>
<polygon fill="#fb8072" stroke="black" points="137.6,-84.8 24.4,-84.8 24.4,-48.8 137.6,-48.8 137.6,-84.8"/>
<text text-anchor="middle" x="81" y="-62.6" font-family="Times,serif" font-size="14.00">PrimeNgModule </text>
</g>
<!-- SharedModule&#45;&gt;PrimeNgModule  -->
<g id="edge50" class="edge">
<title>SharedModule&#45;&gt;PrimeNgModule </title>
<path fill="none" stroke="black" stroke-dasharray="5,2" d="M2158.55,-155.8C1839.19,-155.8 81,-155.8 81,-155.8 81,-155.8 81,-94.81 81,-94.81"/>
<polygon fill="black" stroke="black" points="84.5,-94.81 81,-84.81 77.5,-94.81 84.5,-94.81"/>
</g>
<!-- ViewConfirmacionComponent  -->
<g id="node53" class="node">
<title>ViewConfirmacionComponent </title>
<polygon fill="#fb8072" stroke="black" points="1871.41,-84.8 1678.59,-84.8 1678.59,-48.8 1871.41,-48.8 1871.41,-84.8"/>
<text text-anchor="middle" x="1775" y="-62.6" font-family="Times,serif" font-size="14.00">ViewConfirmacionComponent </text>
</g>
<!-- SharedModule&#45;&gt;ViewConfirmacionComponent  -->
<g id="edge51" class="edge">
<title>SharedModule&#45;&gt;ViewConfirmacionComponent </title>
<path fill="none" stroke="black" stroke-dasharray="5,2" d="M2158.44,-130.8C2061.07,-130.8 1854.23,-130.8 1854.23,-130.8 1854.23,-130.8 1854.23,-94.97 1854.23,-94.97"/>
<polygon fill="black" stroke="black" points="1857.73,-94.97 1854.23,-84.97 1850.73,-94.97 1857.73,-94.97"/>
</g>
<!-- ViewTableServicesComponent  -->
<g id="node54" class="node">
<title>ViewTableServicesComponent </title>
<polygon fill="#fb8072" stroke="black" points="1660.45,-84.8 1465.55,-84.8 1465.55,-48.8 1660.45,-48.8 1660.45,-84.8"/>
<text text-anchor="middle" x="1563" y="-62.6" font-family="Times,serif" font-size="14.00">ViewTableServicesComponent </text>
</g>
<!-- SharedModule&#45;&gt;ViewTableServicesComponent  -->
<g id="edge52" class="edge">
<title>SharedModule&#45;&gt;ViewTableServicesComponent </title>
<path fill="none" stroke="black" stroke-dasharray="5,2" d="M2158.78,-133.8C2015.12,-133.8 1606.5,-133.8 1606.5,-133.8 1606.5,-133.8 1606.5,-95.11 1606.5,-95.11"/>
<polygon fill="black" stroke="black" points="1610,-95.11 1606.5,-85.11 1603,-95.11 1610,-95.11"/>
</g>
<!-- MainLayoutComponent -->
<g id="node13" class="node">
<title>MainLayoutComponent</title>
<polygon fill="#ffffb3" stroke="black" points="2119.04,-228.8 1968.96,-228.8 1968.96,-192.8 2119.04,-192.8 2119.04,-228.8"/>
<text text-anchor="middle" x="2044" y="-206.6" font-family="Times,serif" font-size="14.00">MainLayoutComponent</text>
</g>
<!-- MainLayoutComponent&#45;&gt;CoreModule -->
<g id="edge11" class="edge">
<title>MainLayoutComponent&#45;&gt;CoreModule</title>
<path fill="none" stroke="black" d="M2044,-228.84C2044,-242.09 2044,-257.8 2044,-257.8 2044,-257.8 1637.69,-257.8 1637.69,-257.8 1637.69,-257.8 1637.69,-258.88 1637.69,-258.88"/>
<polygon fill="black" stroke="black" points="1634.19,-258.6 1637.69,-268.6 1641.19,-258.6 1634.19,-258.6"/>
</g>
<!-- MenuComponent -->
<g id="node14" class="node">
<title>MenuComponent</title>
<polygon fill="#ffffb3" stroke="black" points="1950.99,-228.8 1837.01,-228.8 1837.01,-192.8 1950.99,-192.8 1950.99,-228.8"/>
<text text-anchor="middle" x="1894" y="-206.6" font-family="Times,serif" font-size="14.00">MenuComponent</text>
</g>
<!-- MenuComponent&#45;&gt;CoreModule -->
<g id="edge12" class="edge">
<title>MenuComponent&#45;&gt;CoreModule</title>
<path fill="none" stroke="black" d="M1886.36,-228.9C1886.36,-239.89 1886.36,-251.8 1886.36,-251.8 1886.36,-251.8 1626.85,-251.8 1626.85,-251.8 1626.85,-251.8 1626.85,-258.48 1626.85,-258.48"/>
<polygon fill="black" stroke="black" points="1623.35,-258.48 1626.85,-268.48 1630.35,-258.48 1623.35,-258.48"/>
</g>
<!-- NavbarComponent -->
<g id="node15" class="node">
<title>NavbarComponent</title>
<polygon fill="#ffffb3" stroke="black" points="1819.03,-228.8 1696.97,-228.8 1696.97,-192.8 1819.03,-192.8 1819.03,-228.8"/>
<text text-anchor="middle" x="1758" y="-206.6" font-family="Times,serif" font-size="14.00">NavbarComponent</text>
</g>
<!-- NavbarComponent&#45;&gt;CoreModule -->
<g id="edge13" class="edge">
<title>NavbarComponent&#45;&gt;CoreModule</title>
<path fill="none" stroke="black" d="M1751.56,-229.22C1751.56,-238.08 1751.56,-246.8 1751.56,-246.8 1751.56,-246.8 1616,-246.8 1616,-246.8 1616,-246.8 1616,-258.67 1616,-258.67"/>
<polygon fill="black" stroke="black" points="1612.5,-258.67 1616,-268.67 1619.5,-258.67 1612.5,-258.67"/>
</g>
<!-- SideBarComponent -->
<g id="node16" class="node">
<title>SideBarComponent</title>
<polygon fill="#ffffb3" stroke="black" points="1679.44,-228.8 1552.56,-228.8 1552.56,-192.8 1679.44,-192.8 1679.44,-228.8"/>
<text text-anchor="middle" x="1616" y="-206.6" font-family="Times,serif" font-size="14.00">SideBarComponent</text>
</g>
<!-- SideBarComponent&#45;&gt;CoreModule -->
<g id="edge14" class="edge">
<title>SideBarComponent&#45;&gt;CoreModule</title>
<path fill="none" stroke="black" d="M1605.15,-228.81C1605.15,-228.81 1605.15,-258.65 1605.15,-258.65"/>
<polygon fill="black" stroke="black" points="1601.65,-258.65 1605.15,-268.65 1608.65,-258.65 1601.65,-258.65"/>
</g>
<!-- StoreSIGOModule&#45;&gt;CoreModule -->
<g id="edge16" class="edge">
<title>StoreSIGOModule&#45;&gt;CoreModule</title>
<path fill="none" stroke="black" d="M1468,-228.99C1468,-232.34 1468,-234.8 1468,-234.8 1468,-234.8 1594.31,-234.8 1594.31,-234.8 1594.31,-234.8 1594.31,-258.61 1594.31,-258.61"/>
<polygon fill="black" stroke="black" points="1590.81,-258.61 1594.31,-268.61 1597.81,-258.61 1590.81,-258.61"/>
</g>
<!-- CubicacionComponent -->
<g id="node19" class="node">
<title>CubicacionComponent</title>
<polygon fill="#ffffb3" stroke="black" points="3455.59,-160.8 3310.41,-160.8 3310.41,-124.8 3455.59,-124.8 3455.59,-160.8"/>
<text text-anchor="middle" x="3383" y="-138.6" font-family="Times,serif" font-size="14.00">CubicacionComponent</text>
</g>
<!-- CubicacionComponent&#45;&gt;CubicacionModule -->
<g id="edge18" class="edge">
<title>CubicacionComponent&#45;&gt;CubicacionModule</title>
<path fill="none" stroke="black" d="M3331.06,-161.02C3331.06,-161.02 3331.06,-182.53 3331.06,-182.53"/>
<polygon fill="black" stroke="black" points="3327.56,-182.53 3331.06,-192.53 3334.56,-182.53 3327.56,-182.53"/>
</g>
<!-- FormCubContainerComponent -->
<g id="node20" class="node">
<title>FormCubContainerComponent</title>
<polygon fill="#ffffb3" stroke="black" points="3292.21,-160.8 3101.79,-160.8 3101.79,-124.8 3292.21,-124.8 3292.21,-160.8"/>
<text text-anchor="middle" x="3197" y="-138.6" font-family="Times,serif" font-size="14.00">FormCubContainerComponent</text>
</g>
<!-- FormCubContainerComponent&#45;&gt;CubicacionModule -->
<g id="edge19" class="edge">
<title>FormCubContainerComponent&#45;&gt;CubicacionModule</title>
<path fill="none" stroke="black" d="M3270.85,-161.02C3270.85,-161.02 3270.85,-182.53 3270.85,-182.53"/>
<polygon fill="black" stroke="black" points="3267.35,-182.53 3270.85,-192.53 3274.35,-182.53 3267.35,-182.53"/>
</g>
<!-- FormularioComponent -->
<g id="node21" class="node">
<title>FormularioComponent</title>
<polygon fill="#ffffb3" stroke="black" points="3762.32,-160.8 3617.68,-160.8 3617.68,-124.8 3762.32,-124.8 3762.32,-160.8"/>
<text text-anchor="middle" x="3690" y="-138.6" font-family="Times,serif" font-size="14.00">FormularioComponent</text>
</g>
<!-- FormularioComponent&#45;&gt;CubicacionModule -->
<g id="edge20" class="edge">
<title>FormularioComponent&#45;&gt;CubicacionModule</title>
<path fill="none" stroke="black" d="M3690,-161.09C3690,-183.01 3690,-216.8 3690,-216.8 3690,-216.8 3362.06,-216.8 3362.06,-216.8"/>
<polygon fill="black" stroke="black" points="3362.06,-213.3 3352.06,-216.8 3362.06,-220.3 3362.06,-213.3"/>
</g>
<!-- ListCubComponent -->
<g id="node22" class="node">
<title>ListCubComponent</title>
<polygon fill="#ffffb3" stroke="black" points="3600.45,-160.8 3473.55,-160.8 3473.55,-124.8 3600.45,-124.8 3600.45,-160.8"/>
<text text-anchor="middle" x="3537" y="-138.6" font-family="Times,serif" font-size="14.00">ListCubComponent</text>
</g>
<!-- ListCubComponent&#45;&gt;CubicacionModule -->
<g id="edge21" class="edge">
<title>ListCubComponent&#45;&gt;CubicacionModule</title>
<path fill="none" stroke="black" d="M3537,-161.07C3537,-179.36 3537,-204.8 3537,-204.8 3537,-204.8 3361.69,-204.8 3361.69,-204.8"/>
<polygon fill="black" stroke="black" points="3361.69,-201.3 3351.69,-204.8 3361.69,-208.3 3361.69,-201.3"/>
</g>
<!-- CubicacionRoutingModule -->
<g id="node24" class="node">
<title>CubicacionRoutingModule</title>
<polygon fill="#8dd3c7" stroke="black" points="3078.43,-160.8 3075.43,-164.8 3054.43,-164.8 3051.43,-160.8 2909.57,-160.8 2909.57,-124.8 3078.43,-124.8 3078.43,-160.8"/>
<text text-anchor="middle" x="2994" y="-138.6" font-family="Times,serif" font-size="14.00">CubicacionRoutingModule</text>
</g>
<!-- CubicacionRoutingModule&#45;&gt;CubicacionModule -->
<g id="edge22" class="edge">
<title>CubicacionRoutingModule&#45;&gt;CubicacionModule</title>
<path fill="none" stroke="black" d="M2994,-160.82C2994,-178.17 2994,-201.8 2994,-201.8 2994,-201.8 3218.31,-201.8 3218.31,-201.8"/>
<polygon fill="black" stroke="black" points="3218.31,-205.3 3228.31,-201.8 3218.31,-198.3 3218.31,-205.3"/>
</g>
<!-- HomeComponent -->
<g id="node25" class="node">
<title>HomeComponent</title>
<polygon fill="#ffffb3" stroke="black" points="4079.55,-160.8 3964.45,-160.8 3964.45,-124.8 4079.55,-124.8 4079.55,-160.8"/>
<text text-anchor="middle" x="4022" y="-138.6" font-family="Times,serif" font-size="14.00">HomeComponent</text>
</g>
<!-- HomeComponent&#45;&gt;HomeModule -->
<g id="edge24" class="edge">
<title>HomeComponent&#45;&gt;HomeModule</title>
<path fill="none" stroke="black" d="M4022,-161.02C4022,-181.17 4022,-210.8 4022,-210.8 4022,-210.8 3927.95,-210.8 3927.95,-210.8"/>
<polygon fill="black" stroke="black" points="3927.95,-207.3 3917.95,-210.8 3927.95,-214.3 3927.95,-207.3"/>
</g>
<!-- HomeRoutingModule -->
<g id="node27" class="node">
<title>HomeRoutingModule</title>
<polygon fill="#8dd3c7" stroke="black" points="3940.38,-160.8 3937.38,-164.8 3916.38,-164.8 3913.38,-160.8 3801.62,-160.8 3801.62,-124.8 3940.38,-124.8 3940.38,-160.8"/>
<text text-anchor="middle" x="3871" y="-138.6" font-family="Times,serif" font-size="14.00">HomeRoutingModule</text>
</g>
<!-- HomeRoutingModule&#45;&gt;HomeModule -->
<g id="edge25" class="edge">
<title>HomeRoutingModule&#45;&gt;HomeModule</title>
<path fill="none" stroke="black" d="M3886.63,-161.02C3886.63,-161.02 3886.63,-182.53 3886.63,-182.53"/>
<polygon fill="black" stroke="black" points="3883.13,-182.53 3886.63,-192.53 3890.13,-182.53 3883.13,-182.53"/>
</g>
<!-- OtComponent -->
<g id="node28" class="node">
<title>OtComponent</title>
<polygon fill="#ffffb3" stroke="black" points="4660.83,-84.8 4565.17,-84.8 4565.17,-48.8 4660.83,-48.8 4660.83,-84.8"/>
<text text-anchor="middle" x="4613" y="-62.6" font-family="Times,serif" font-size="14.00">OtComponent</text>
</g>
<!-- OtModule -->
<g id="node29" class="node">
<title>OtModule</title>
<polygon fill="#8dd3c7" stroke="black" points="4583.55,-160.8 4580.55,-164.8 4559.55,-164.8 4556.55,-160.8 4510.45,-160.8 4510.45,-124.8 4583.55,-124.8 4583.55,-160.8"/>
<text text-anchor="middle" x="4547" y="-138.6" font-family="Times,serif" font-size="14.00">OtModule</text>
</g>
<!-- OtComponent&#45;&gt;OtModule -->
<g id="edge27" class="edge">
<title>OtComponent&#45;&gt;OtModule</title>
<path fill="none" stroke="black" d="M4574.56,-84.81C4574.56,-84.81 4574.56,-114.65 4574.56,-114.65"/>
<polygon fill="black" stroke="black" points="4571.06,-114.65 4574.56,-124.65 4578.06,-114.65 4571.06,-114.65"/>
</g>
<!-- OtRoutingModule -->
<g id="node30" class="node">
<title>OtRoutingModule</title>
<polygon fill="#8dd3c7" stroke="black" points="4541.17,-84.8 4538.17,-88.8 4517.17,-88.8 4514.17,-84.8 4422.83,-84.8 4422.83,-48.8 4541.17,-48.8 4541.17,-84.8"/>
<text text-anchor="middle" x="4482" y="-62.6" font-family="Times,serif" font-size="14.00">OtRoutingModule</text>
</g>
<!-- OtRoutingModule&#45;&gt;OtModule -->
<g id="edge28" class="edge">
<title>OtRoutingModule&#45;&gt;OtModule</title>
<path fill="none" stroke="black" d="M4525.78,-84.81C4525.78,-84.81 4525.78,-114.65 4525.78,-114.65"/>
<polygon fill="black" stroke="black" points="4522.28,-114.65 4525.78,-124.65 4529.28,-114.65 4522.28,-114.65"/>
</g>
<!-- BaseTdComponent -->
<g id="node31" class="node">
<title>BaseTdComponent</title>
<polygon fill="#ffffb3" stroke="black" points="4383.1,-84.8 4258.9,-84.8 4258.9,-48.8 4383.1,-48.8 4383.1,-84.8"/>
<text text-anchor="middle" x="4321" y="-62.6" font-family="Times,serif" font-size="14.00">BaseTdComponent</text>
</g>
<!-- BaseTdComponent&#45;&gt;SharedModule -->
<g id="edge29" class="edge">
<title>BaseTdComponent&#45;&gt;SharedModule</title>
<path fill="none" stroke="black" d="M4321,-84.81C4321,-100.85 4321,-121.8 4321,-121.8 4321,-121.8 2253.62,-121.8 2253.62,-121.8 2253.62,-121.8 2253.62,-122.09 2253.62,-122.09"/>
<polygon fill="black" stroke="black" points="2250.12,-114.72 2253.62,-124.72 2257.12,-114.72 2250.12,-114.72"/>
</g>
<!-- ContentLayoutComponent -->
<g id="node32" class="node">
<title>ContentLayoutComponent</title>
<polygon fill="#ffffb3" stroke="black" points="4240.82,-84.8 4075.18,-84.8 4075.18,-48.8 4240.82,-48.8 4240.82,-84.8"/>
<text text-anchor="middle" x="4158" y="-62.6" font-family="Times,serif" font-size="14.00">ContentLayoutComponent</text>
</g>
<!-- ContentLayoutComponent&#45;&gt;SharedModule -->
<g id="edge30" class="edge">
<title>ContentLayoutComponent&#45;&gt;SharedModule</title>
<path fill="none" stroke="black" d="M4160.22,-84.99C4160.22,-99.98 4160.22,-118.8 4160.22,-118.8 4160.22,-118.8 2250.03,-118.8 2250.03,-118.8 2250.03,-118.8 2250.03,-119.38 2250.03,-119.38"/>
<polygon fill="black" stroke="black" points="2246.53,-114.61 2250.03,-124.61 2253.53,-114.61 2246.53,-114.61"/>
</g>
<!-- FormAgregarServiciosComponent -->
<g id="node33" class="node">
<title>FormAgregarServiciosComponent</title>
<polygon fill="#ffffb3" stroke="black" points="4057.64,-84.8 3848.36,-84.8 3848.36,-48.8 4057.64,-48.8 4057.64,-84.8"/>
<text text-anchor="middle" x="3953" y="-62.6" font-family="Times,serif" font-size="14.00">FormAgregarServiciosComponent</text>
</g>
<!-- FormAgregarServiciosComponent&#45;&gt;SharedModule -->
<g id="edge31" class="edge">
<title>FormAgregarServiciosComponent&#45;&gt;SharedModule</title>
<path fill="none" stroke="black" d="M3894.31,-84.95C3894.31,-98.54 3894.31,-114.8 3894.31,-114.8 3894.31,-114.8 2246.44,-114.8 2246.44,-114.8 2246.44,-114.8 2246.44,-115.78 2246.44,-115.78"/>
<polygon fill="black" stroke="black" points="2242.94,-114.59 2246.44,-124.59 2249.94,-114.59 2242.94,-114.59"/>
</g>
<!-- FormTableServicesComponent -->
<g id="node34" class="node">
<title>FormTableServicesComponent</title>
<polygon fill="#ffffb3" stroke="black" points="3830.47,-84.8 3639.53,-84.8 3639.53,-48.8 3830.47,-48.8 3830.47,-84.8"/>
<text text-anchor="middle" x="3735" y="-62.6" font-family="Times,serif" font-size="14.00">FormTableServicesComponent</text>
</g>
<!-- FormTableServicesComponent&#45;&gt;SharedModule -->
<g id="edge32" class="edge">
<title>FormTableServicesComponent&#45;&gt;SharedModule</title>
<path fill="none" stroke="black" d="M3700.84,-84.84C3700.84,-97.36 3700.84,-111.8 3700.84,-111.8 3700.84,-111.8 2242.85,-111.8 2242.85,-111.8 2242.85,-111.8 2242.85,-114.77 2242.85,-114.77"/>
<polygon fill="black" stroke="black" points="2239.35,-114.77 2242.85,-124.77 2246.35,-114.77 2239.35,-114.77"/>
</g>
<!-- InputAlertComponent -->
<g id="node35" class="node">
<title>InputAlertComponent</title>
<polygon fill="#ffffb3" stroke="black" points="3621.65,-84.8 3482.35,-84.8 3482.35,-48.8 3621.65,-48.8 3621.65,-84.8"/>
<text text-anchor="middle" x="3552" y="-62.6" font-family="Times,serif" font-size="14.00">InputAlertComponent</text>
</g>
<!-- InputAlertComponent&#45;&gt;SharedModule -->
<g id="edge33" class="edge">
<title>InputAlertComponent&#45;&gt;SharedModule</title>
<path fill="none" stroke="black" d="M3541.2,-84.86C3541.2,-96.24 3541.2,-108.8 3541.2,-108.8 3541.2,-108.8 2239.26,-108.8 2239.26,-108.8 2239.26,-108.8 2239.26,-114.61 2239.26,-114.61"/>
<polygon fill="black" stroke="black" points="2235.76,-114.61 2239.26,-124.61 2242.76,-114.61 2235.76,-114.61"/>
</g>
<!-- InputTextComponent -->
<g id="node36" class="node">
<title>InputTextComponent</title>
<polygon fill="#ffffb3" stroke="black" points="3464.04,-84.8 3327.96,-84.8 3327.96,-48.8 3464.04,-48.8 3464.04,-84.8"/>
<text text-anchor="middle" x="3396" y="-62.6" font-family="Times,serif" font-size="14.00">InputTextComponent</text>
</g>
<!-- InputTextComponent&#45;&gt;SharedModule -->
<g id="edge34" class="edge">
<title>InputTextComponent&#45;&gt;SharedModule</title>
<path fill="none" stroke="black" d="M3391.64,-84.91C3391.64,-94.7 3391.64,-104.8 3391.64,-104.8 3391.64,-104.8 2235.66,-104.8 2235.66,-104.8 2235.66,-104.8 2235.66,-114.69 2235.66,-114.69"/>
<polygon fill="black" stroke="black" points="2232.16,-114.69 2235.66,-124.69 2239.16,-114.69 2232.16,-114.69"/>
</g>
<!-- MultiTdComponent -->
<g id="node37" class="node">
<title>MultiTdComponent</title>
<polygon fill="#ffffb3" stroke="black" points="3310,-84.8 3182,-84.8 3182,-48.8 3310,-48.8 3310,-84.8"/>
<text text-anchor="middle" x="3246" y="-62.6" font-family="Times,serif" font-size="14.00">MultiTdComponent</text>
</g>
<!-- MultiTdComponent&#45;&gt;SharedModule -->
<g id="edge35" class="edge">
<title>MultiTdComponent&#45;&gt;SharedModule</title>
<path fill="none" stroke="black" d="M3237.05,-85.12C3237.05,-93.59 3237.05,-101.8 3237.05,-101.8 3237.05,-101.8 2232.07,-101.8 2232.07,-101.8 2232.07,-101.8 2232.07,-114.7 2232.07,-114.7"/>
<polygon fill="black" stroke="black" points="2228.57,-114.7 2232.07,-124.7 2235.57,-114.7 2228.57,-114.7"/>
</g>
<!-- PbuttonSendingComponent -->
<g id="node38" class="node">
<title>PbuttonSendingComponent</title>
<polygon fill="#ffffb3" stroke="black" points="3164.29,-84.8 2993.71,-84.8 2993.71,-48.8 3164.29,-48.8 3164.29,-84.8"/>
<text text-anchor="middle" x="3079" y="-62.6" font-family="Times,serif" font-size="14.00">PbuttonSendingComponent</text>
</g>
<!-- PbuttonSendingComponent&#45;&gt;SharedModule -->
<g id="edge36" class="edge">
<title>PbuttonSendingComponent&#45;&gt;SharedModule</title>
<path fill="none" stroke="black" d="M3035.91,-85.04C3035.91,-92.23 3035.91,-98.8 3035.91,-98.8 3035.91,-98.8 2228.48,-98.8 2228.48,-98.8 2228.48,-98.8 2228.48,-114.65 2228.48,-114.65"/>
<polygon fill="black" stroke="black" points="2224.98,-114.65 2228.48,-124.65 2231.98,-114.65 2224.98,-114.65"/>
</g>
<!-- PdropdownComponent -->
<g id="node39" class="node">
<title>PdropdownComponent</title>
<polygon fill="#ffffb3" stroke="black" points="2975.89,-84.8 2830.11,-84.8 2830.11,-48.8 2975.89,-48.8 2975.89,-84.8"/>
<text text-anchor="middle" x="2903" y="-62.6" font-family="Times,serif" font-size="14.00">PdropdownComponent</text>
</g>
<!-- PdropdownComponent&#45;&gt;SharedModule -->
<g id="edge37" class="edge">
<title>PdropdownComponent&#45;&gt;SharedModule</title>
<path fill="none" stroke="black" d="M2849.81,-85.01C2849.81,-90.35 2849.81,-94.8 2849.81,-94.8 2849.81,-94.8 2224.89,-94.8 2224.89,-94.8 2224.89,-94.8 2224.89,-114.65 2224.89,-114.65"/>
<polygon fill="black" stroke="black" points="2221.39,-114.65 2224.89,-124.65 2228.39,-114.65 2221.39,-114.65"/>
</g>
<!-- ViewConfirmacionComponent -->
<g id="node40" class="node">
<title>ViewConfirmacionComponent</title>
<polygon fill="#ffffb3" stroke="black" points="2811.91,-84.8 2622.09,-84.8 2622.09,-48.8 2811.91,-48.8 2811.91,-84.8"/>
<text text-anchor="middle" x="2717" y="-62.6" font-family="Times,serif" font-size="14.00">ViewConfirmacionComponent</text>
</g>
<!-- ViewConfirmacionComponent&#45;&gt;SharedModule -->
<g id="edge38" class="edge">
<title>ViewConfirmacionComponent&#45;&gt;SharedModule</title>
<path fill="none" stroke="black" d="M2664.31,-84.97C2664.31,-88.85 2664.31,-91.8 2664.31,-91.8 2664.31,-91.8 2221.3,-91.8 2221.3,-91.8 2221.3,-91.8 2221.3,-114.68 2221.3,-114.68"/>
<polygon fill="black" stroke="black" points="2217.8,-114.68 2221.3,-124.68 2224.8,-114.68 2217.8,-114.68"/>
</g>
<!-- ViewServiceTableComponent -->
<g id="node41" class="node">
<title>ViewServiceTableComponent</title>
<polygon fill="#ffffb3" stroke="black" points="2604.5,-84.8 2419.5,-84.8 2419.5,-48.8 2604.5,-48.8 2604.5,-84.8"/>
<text text-anchor="middle" x="2512" y="-62.6" font-family="Times,serif" font-size="14.00">ViewServiceTableComponent</text>
</g>
<!-- ViewServiceTableComponent&#45;&gt;SharedModule -->
<g id="edge39" class="edge">
<title>ViewServiceTableComponent&#45;&gt;SharedModule</title>
<path fill="none" stroke="black" d="M2425.79,-84.97C2425.79,-87.25 2425.79,-88.8 2425.79,-88.8 2425.79,-88.8 2217.71,-88.8 2217.71,-88.8 2217.71,-88.8 2217.71,-114.52 2217.71,-114.52"/>
<polygon fill="black" stroke="black" points="2214.21,-114.52 2217.71,-124.52 2221.21,-114.52 2214.21,-114.52"/>
</g>
<!-- ViewTableServicesComponent -->
<g id="node42" class="node">
<title>ViewTableServicesComponent</title>
<polygon fill="#ffffb3" stroke="black" points="2401.45,-84.8 2210.55,-84.8 2210.55,-48.8 2401.45,-48.8 2401.45,-84.8"/>
<text text-anchor="middle" x="2306" y="-62.6" font-family="Times,serif" font-size="14.00">ViewTableServicesComponent</text>
</g>
<!-- ViewTableServicesComponent&#45;&gt;SharedModule -->
<g id="edge40" class="edge">
<title>ViewTableServicesComponent&#45;&gt;SharedModule</title>
<path fill="none" stroke="black" d="M2214.12,-84.81C2214.12,-84.81 2214.12,-114.65 2214.12,-114.65"/>
<polygon fill="black" stroke="black" points="2210.62,-114.65 2214.12,-124.65 2217.62,-114.65 2210.62,-114.65"/>
</g>
<!-- ViewUOTableComponent -->
<g id="node43" class="node">
<title>ViewUOTableComponent</title>
<polygon fill="#ffffb3" stroke="black" points="2192.75,-84.8 2029.25,-84.8 2029.25,-48.8 2192.75,-48.8 2192.75,-84.8"/>
<text text-anchor="middle" x="2111" y="-62.6" font-family="Times,serif" font-size="14.00">ViewUOTableComponent</text>
</g>
<!-- ViewUOTableComponent&#45;&gt;SharedModule -->
<g id="edge41" class="edge">
<title>ViewUOTableComponent&#45;&gt;SharedModule</title>
<path fill="none" stroke="black" d="M2175.83,-84.81C2175.83,-84.81 2175.83,-114.65 2175.83,-114.65"/>
<polygon fill="black" stroke="black" points="2172.33,-114.65 2175.83,-124.65 2179.33,-114.65 2172.33,-114.65"/>
</g>
<!-- PrimeNgModule -->
<g id="node44" class="node">
<title>PrimeNgModule</title>
<polygon fill="#8dd3c7" stroke="black" points="2005.1,-84.8 2002.1,-88.8 1981.1,-88.8 1978.1,-84.8 1894.9,-84.8 1894.9,-48.8 2005.1,-48.8 2005.1,-84.8"/>
<text text-anchor="middle" x="1950" y="-62.6" font-family="Times,serif" font-size="14.00">PrimeNgModule</text>
</g>
<!-- PrimeNgModule&#45;&gt;SharedModule -->
<g id="edge42" class="edge">
<title>PrimeNgModule&#45;&gt;SharedModule</title>
<path fill="none" stroke="black" d="M1986.89,-85.1C1986.89,-103.07 1986.89,-127.8 1986.89,-127.8 1986.89,-127.8 2148.65,-127.8 2148.65,-127.8"/>
<polygon fill="black" stroke="black" points="2148.65,-131.3 2158.65,-127.8 2148.65,-124.3 2148.65,-131.3"/>
</g>
</g>
</svg>
